M48
; DRILL file {KiCad (5.1.9)-1} date 04/04/21 21:20:32
; FORMAT={-:-/ absolute / metric / decimal}
; #@! TF.CreationDate,2021-04-04T21:20:32+08:00
; #@! TF.GenerationSoftware,Kicad,Pcbnew,(5.1.9)-1
FMAT,2
METRIC
T1C0.400
T2C0.500
T3C0.800
T4C1.500
%
G90
G05
T1
X116.205Y-82.55
X116.205Y-85.09
X116.205Y-87.63
X117.475Y-47.625
X117.475Y-49.53
X117.475Y-51.435
X117.475Y-53.34
X117.475Y-55.245
X118.745Y-82.55
X118.745Y-85.09
X118.745Y-87.63
T2
X113.665Y-64.775
X113.665Y-66.675
T3
X111.125Y-57.15
X111.125Y-59.69
X111.125Y-62.23
X111.125Y-64.77
X111.125Y-67.31
X111.125Y-69.85
X111.125Y-72.39
X111.125Y-74.93
X111.125Y-77.47
X111.125Y-80.01
X111.125Y-82.55
X111.125Y-85.09
X111.125Y-87.63
X111.125Y-90.17
X113.665Y-69.85
X113.665Y-72.39
X113.665Y-74.93
X113.665Y-77.47
X113.665Y-80.01
X113.665Y-82.55
X113.665Y-85.09
X113.665Y-87.63
X121.285Y-69.85
X121.285Y-72.39
X121.285Y-74.93
X121.285Y-77.47
X121.285Y-80.01
X121.285Y-82.55
X121.285Y-85.09
X121.285Y-87.63
X123.825Y-69.85
X123.825Y-74.85
X126.365Y-57.15
X126.365Y-59.69
X126.365Y-62.23
X126.365Y-64.77
X126.365Y-67.31
X126.365Y-69.85
X126.365Y-72.39
X126.365Y-74.93
X126.365Y-77.47
X126.365Y-80.01
X126.365Y-82.55
X126.365Y-85.09
X126.365Y-87.63
X126.365Y-90.17
T4
X117.475Y-39.835
X117.475Y-60.325
T0
M30
