%TF.GenerationSoftware,KiCad,Pcbnew,(5.1.9)-1*%
%TF.CreationDate,2021-05-06T14:47:01+08:00*%
%TF.ProjectId,ATD-20-Redux,4154442d-3230-42d5-9265-6475782e6b69,rev?*%
%TF.SameCoordinates,Original*%
%TF.FileFunction,Copper,L2,Bot*%
%TF.FilePolarity,Positive*%
%FSLAX46Y46*%
G04 Gerber Fmt 4.6, Leading zero omitted, Abs format (unit mm)*
G04 Created by KiCad (PCBNEW (5.1.9)-1) date 2021-05-06 14:47:01*
%MOMM*%
%LPD*%
G01*
G04 APERTURE LIST*
%TA.AperFunction,ComponentPad*%
%ADD10O,1.600000X1.600000*%
%TD*%
%TA.AperFunction,ComponentPad*%
%ADD11R,1.600000X1.600000*%
%TD*%
%TA.AperFunction,ComponentPad*%
%ADD12C,1.600000*%
%TD*%
%TA.AperFunction,ComponentPad*%
%ADD13C,1.000000*%
%TD*%
%TA.AperFunction,ViaPad*%
%ADD14C,0.800000*%
%TD*%
%TA.AperFunction,Conductor*%
%ADD15C,0.254000*%
%TD*%
%TA.AperFunction,Conductor*%
%ADD16C,0.100000*%
%TD*%
G04 APERTURE END LIST*
D10*
%TO.P,J1,28*%
%TO.N,VCC*%
X126365000Y-57150000D03*
%TO.P,J1,14*%
%TO.N,GND*%
X111125000Y-90170000D03*
%TO.P,J1,27*%
%TO.N,/~IOW*%
X126365000Y-59690000D03*
%TO.P,J1,13*%
%TO.N,Net-(J1-Pad13)*%
X111125000Y-87630000D03*
%TO.P,J1,26*%
%TO.N,Net-(J1-Pad26)*%
X126365000Y-62230000D03*
%TO.P,J1,12*%
%TO.N,Net-(J1-Pad12)*%
X111125000Y-85090000D03*
%TO.P,J1,25*%
%TO.N,Net-(J1-Pad25)*%
X126365000Y-64770000D03*
%TO.P,J1,11*%
%TO.N,/D0*%
X111125000Y-82550000D03*
%TO.P,J1,24*%
%TO.N,Net-(J1-Pad24)*%
X126365000Y-67310000D03*
%TO.P,J1,10*%
%TO.N,Net-(J1-Pad10)*%
X111125000Y-80010000D03*
%TO.P,J1,23*%
%TO.N,Net-(J1-Pad23)*%
X126365000Y-69850000D03*
%TO.P,J1,9*%
%TO.N,Net-(J1-Pad9)*%
X111125000Y-77470000D03*
%TO.P,J1,22*%
%TO.N,/~IOR*%
X126365000Y-72390000D03*
%TO.P,J1,8*%
%TO.N,Net-(J1-Pad8)*%
X111125000Y-74930000D03*
%TO.P,J1,21*%
%TO.N,Net-(J1-Pad21)*%
X126365000Y-74930000D03*
%TO.P,J1,7*%
%TO.N,Net-(J1-Pad7)*%
X111125000Y-72390000D03*
%TO.P,J1,20*%
%TO.N,/~CS_RTC*%
X126365000Y-77470000D03*
%TO.P,J1,6*%
%TO.N,Net-(J1-Pad6)*%
X111125000Y-69850000D03*
%TO.P,J1,19*%
%TO.N,Net-(J1-Pad19)*%
X126365000Y-80010000D03*
%TO.P,J1,5*%
%TO.N,Net-(J1-Pad5)*%
X111125000Y-67310000D03*
%TO.P,J1,18*%
%TO.N,Net-(J1-Pad18)*%
X126365000Y-82550000D03*
%TO.P,J1,4*%
%TO.N,Net-(J1-Pad4)*%
X111125000Y-64770000D03*
%TO.P,J1,17*%
%TO.N,Net-(J1-Pad17)*%
X126365000Y-85090000D03*
%TO.P,J1,3*%
%TO.N,Net-(J1-Pad3)*%
X111125000Y-62230000D03*
%TO.P,J1,16*%
%TO.N,Net-(J1-Pad16)*%
X126365000Y-87630000D03*
%TO.P,J1,2*%
%TO.N,Net-(J1-Pad2)*%
X111125000Y-59690000D03*
%TO.P,J1,15*%
%TO.N,Net-(J1-Pad15)*%
X126365000Y-90170000D03*
D11*
%TO.P,J1,1*%
%TO.N,Net-(J1-Pad1)*%
X111125000Y-57150000D03*
%TD*%
D10*
%TO.P,C1,2*%
%TO.N,GND*%
X123825000Y-74850000D03*
D12*
%TO.P,C1,1*%
%TO.N,VCC*%
X123825000Y-69850000D03*
%TD*%
D10*
%TO.P,U1,16*%
%TO.N,VCC*%
X121285000Y-69850000D03*
%TO.P,U1,8*%
%TO.N,GND*%
X113665000Y-87630000D03*
%TO.P,U1,15*%
%TO.N,Net-(U1-Pad15)*%
X121285000Y-72390000D03*
%TO.P,U1,7*%
%TO.N,/D0*%
X113665000Y-85090000D03*
%TO.P,U1,14*%
%TO.N,GND*%
X121285000Y-74930000D03*
%TO.P,U1,6*%
%TO.N,/D0*%
X113665000Y-82550000D03*
%TO.P,U1,13*%
%TO.N,VCC*%
X121285000Y-77470000D03*
%TO.P,U1,5*%
%TO.N,GND*%
X113665000Y-80010000D03*
%TO.P,U1,12*%
%TO.N,/~IOR*%
X121285000Y-80010000D03*
%TO.P,U1,4*%
%TO.N,Net-(BAT1-Pad1)*%
X113665000Y-77470000D03*
%TO.P,U1,11*%
%TO.N,/~CS_RTC*%
X121285000Y-82550000D03*
%TO.P,U1,3*%
%TO.N,/~IOW*%
X113665000Y-74930000D03*
%TO.P,U1,10*%
%TO.N,Net-(U1-Pad10)*%
X121285000Y-85090000D03*
%TO.P,U1,2*%
%TO.N,/XTAL2*%
X113665000Y-72390000D03*
%TO.P,U1,9*%
%TO.N,GND*%
X121285000Y-87630000D03*
D11*
%TO.P,U1,1*%
%TO.N,/XTAL1*%
X113665000Y-69850000D03*
%TD*%
D13*
%TO.P,Y1,1*%
%TO.N,/XTAL1*%
X113665000Y-66675000D03*
%TO.P,Y1,2*%
%TO.N,/XTAL2*%
X113665000Y-64775000D03*
%TD*%
D14*
%TO.N,GND*%
X116205000Y-87630000D03*
X116205000Y-85090000D03*
X116205000Y-82550000D03*
X118745000Y-82550000D03*
X118745000Y-85090000D03*
X118745000Y-87630000D03*
X112395000Y-53975000D03*
X125095000Y-53975000D03*
X118745000Y-53975000D03*
X121920000Y-53975000D03*
X115570000Y-53975000D03*
%TD*%
D15*
%TO.N,GND*%
X126848000Y-52666347D02*
X126848000Y-55659369D01*
X126820619Y-55648027D01*
X126518844Y-55588000D01*
X126211156Y-55588000D01*
X125909381Y-55648027D01*
X125625115Y-55765773D01*
X125369283Y-55936715D01*
X125151715Y-56154283D01*
X124980773Y-56410115D01*
X124863027Y-56694381D01*
X124803000Y-56996156D01*
X124803000Y-57303844D01*
X124863027Y-57605619D01*
X124980773Y-57889885D01*
X125151715Y-58145717D01*
X125369283Y-58363285D01*
X125454163Y-58420000D01*
X125369283Y-58476715D01*
X125151715Y-58694283D01*
X124980773Y-58950115D01*
X124863027Y-59234381D01*
X124803000Y-59536156D01*
X124803000Y-59843844D01*
X124863027Y-60145619D01*
X124980773Y-60429885D01*
X125151715Y-60685717D01*
X125369283Y-60903285D01*
X125454163Y-60960000D01*
X125369283Y-61016715D01*
X125151715Y-61234283D01*
X124980773Y-61490115D01*
X124863027Y-61774381D01*
X124803000Y-62076156D01*
X124803000Y-62383844D01*
X124863027Y-62685619D01*
X124980773Y-62969885D01*
X125151715Y-63225717D01*
X125369283Y-63443285D01*
X125454163Y-63500000D01*
X125369283Y-63556715D01*
X125151715Y-63774283D01*
X124980773Y-64030115D01*
X124863027Y-64314381D01*
X124803000Y-64616156D01*
X124803000Y-64923844D01*
X124863027Y-65225619D01*
X124980773Y-65509885D01*
X125151715Y-65765717D01*
X125369283Y-65983285D01*
X125454163Y-66040000D01*
X125369283Y-66096715D01*
X125151715Y-66314283D01*
X124980773Y-66570115D01*
X124863027Y-66854381D01*
X124803000Y-67156156D01*
X124803000Y-67463844D01*
X124863027Y-67765619D01*
X124980773Y-68049885D01*
X125151715Y-68305717D01*
X125369283Y-68523285D01*
X125454163Y-68580000D01*
X125369283Y-68636715D01*
X125151715Y-68854283D01*
X125095000Y-68939163D01*
X125038285Y-68854283D01*
X124820717Y-68636715D01*
X124564885Y-68465773D01*
X124280619Y-68348027D01*
X123978844Y-68288000D01*
X123671156Y-68288000D01*
X123369381Y-68348027D01*
X123085115Y-68465773D01*
X122829283Y-68636715D01*
X122611715Y-68854283D01*
X122555000Y-68939163D01*
X122498285Y-68854283D01*
X122280717Y-68636715D01*
X122024885Y-68465773D01*
X121740619Y-68348027D01*
X121438844Y-68288000D01*
X121131156Y-68288000D01*
X120829381Y-68348027D01*
X120545115Y-68465773D01*
X120289283Y-68636715D01*
X120071715Y-68854283D01*
X119900773Y-69110115D01*
X119783027Y-69394381D01*
X119723000Y-69696156D01*
X119723000Y-70003844D01*
X119783027Y-70305619D01*
X119900773Y-70589885D01*
X120071715Y-70845717D01*
X120289283Y-71063285D01*
X120374163Y-71120000D01*
X120289283Y-71176715D01*
X120071715Y-71394283D01*
X119900773Y-71650115D01*
X119783027Y-71934381D01*
X119723000Y-72236156D01*
X119723000Y-72543844D01*
X119783027Y-72845619D01*
X119900773Y-73129885D01*
X120071715Y-73385717D01*
X120289283Y-73603285D01*
X120493275Y-73739588D01*
X120429869Y-73777615D01*
X120221481Y-73966586D01*
X120053963Y-74192580D01*
X119933754Y-74446913D01*
X119893096Y-74580961D01*
X120015085Y-74803000D01*
X121158000Y-74803000D01*
X121158000Y-74783000D01*
X121412000Y-74783000D01*
X121412000Y-74803000D01*
X122554915Y-74803000D01*
X122598867Y-74723000D01*
X123698000Y-74723000D01*
X123698000Y-73580085D01*
X123475961Y-73458096D01*
X123341913Y-73498754D01*
X123087580Y-73618963D01*
X122861586Y-73786481D01*
X122672615Y-73994869D01*
X122532787Y-74228020D01*
X122516037Y-74192580D01*
X122348519Y-73966586D01*
X122140131Y-73777615D01*
X122076725Y-73739588D01*
X122280717Y-73603285D01*
X122498285Y-73385717D01*
X122669227Y-73129885D01*
X122786973Y-72845619D01*
X122847000Y-72543844D01*
X122847000Y-72236156D01*
X122786973Y-71934381D01*
X122669227Y-71650115D01*
X122498285Y-71394283D01*
X122280717Y-71176715D01*
X122195837Y-71120000D01*
X122280717Y-71063285D01*
X122498285Y-70845717D01*
X122555000Y-70760837D01*
X122611715Y-70845717D01*
X122829283Y-71063285D01*
X123085115Y-71234227D01*
X123369381Y-71351973D01*
X123671156Y-71412000D01*
X123978844Y-71412000D01*
X124280619Y-71351973D01*
X124564885Y-71234227D01*
X124820717Y-71063285D01*
X125038285Y-70845717D01*
X125095000Y-70760837D01*
X125151715Y-70845717D01*
X125369283Y-71063285D01*
X125454163Y-71120000D01*
X125369283Y-71176715D01*
X125151715Y-71394283D01*
X124980773Y-71650115D01*
X124863027Y-71934381D01*
X124803000Y-72236156D01*
X124803000Y-72543844D01*
X124863027Y-72845619D01*
X124980773Y-73129885D01*
X125151715Y-73385717D01*
X125369283Y-73603285D01*
X125454163Y-73660000D01*
X125369283Y-73716715D01*
X125151715Y-73934283D01*
X125040696Y-74100434D01*
X124977385Y-73994869D01*
X124788414Y-73786481D01*
X124562420Y-73618963D01*
X124308087Y-73498754D01*
X124174039Y-73458096D01*
X123952000Y-73580085D01*
X123952000Y-74723000D01*
X123972000Y-74723000D01*
X123972000Y-74977000D01*
X123952000Y-74977000D01*
X123952000Y-76119915D01*
X124174039Y-76241904D01*
X124308087Y-76201246D01*
X124562420Y-76081037D01*
X124788414Y-75913519D01*
X124977385Y-75705131D01*
X124990127Y-75683884D01*
X125151715Y-75925717D01*
X125369283Y-76143285D01*
X125454163Y-76200000D01*
X125369283Y-76256715D01*
X125151715Y-76474283D01*
X124980773Y-76730115D01*
X124863027Y-77014381D01*
X124803000Y-77316156D01*
X124803000Y-77623844D01*
X124863027Y-77925619D01*
X124980773Y-78209885D01*
X125151715Y-78465717D01*
X125369283Y-78683285D01*
X125454163Y-78740000D01*
X125369283Y-78796715D01*
X125151715Y-79014283D01*
X124980773Y-79270115D01*
X124863027Y-79554381D01*
X124803000Y-79856156D01*
X124803000Y-80163844D01*
X124863027Y-80465619D01*
X124980773Y-80749885D01*
X125151715Y-81005717D01*
X125369283Y-81223285D01*
X125454163Y-81280000D01*
X125369283Y-81336715D01*
X125151715Y-81554283D01*
X124980773Y-81810115D01*
X124863027Y-82094381D01*
X124803000Y-82396156D01*
X124803000Y-82703844D01*
X124863027Y-83005619D01*
X124980773Y-83289885D01*
X125151715Y-83545717D01*
X125369283Y-83763285D01*
X125454163Y-83820000D01*
X125369283Y-83876715D01*
X125151715Y-84094283D01*
X124980773Y-84350115D01*
X124863027Y-84634381D01*
X124803000Y-84936156D01*
X124803000Y-85243844D01*
X124863027Y-85545619D01*
X124980773Y-85829885D01*
X125151715Y-86085717D01*
X125369283Y-86303285D01*
X125454163Y-86360000D01*
X125369283Y-86416715D01*
X125151715Y-86634283D01*
X124980773Y-86890115D01*
X124863027Y-87174381D01*
X124803000Y-87476156D01*
X124803000Y-87783844D01*
X124863027Y-88085619D01*
X124980773Y-88369885D01*
X125151715Y-88625717D01*
X125369283Y-88843285D01*
X125454163Y-88900000D01*
X125369283Y-88956715D01*
X125151715Y-89174283D01*
X124980773Y-89430115D01*
X124863027Y-89714381D01*
X124803000Y-90016156D01*
X124803000Y-90323844D01*
X124863027Y-90625619D01*
X124874369Y-90653000D01*
X112476272Y-90653000D01*
X112516904Y-90519039D01*
X112394915Y-90297000D01*
X111252000Y-90297000D01*
X111252000Y-90317000D01*
X110998000Y-90317000D01*
X110998000Y-90297000D01*
X110978000Y-90297000D01*
X110978000Y-90043000D01*
X110998000Y-90043000D01*
X110998000Y-90023000D01*
X111252000Y-90023000D01*
X111252000Y-90043000D01*
X112394915Y-90043000D01*
X112516904Y-89820961D01*
X112476246Y-89686913D01*
X112356037Y-89432580D01*
X112188519Y-89206586D01*
X111980131Y-89017615D01*
X111916725Y-88979588D01*
X112120717Y-88843285D01*
X112338285Y-88625717D01*
X112474412Y-88421989D01*
X112601481Y-88593414D01*
X112809869Y-88782385D01*
X113051119Y-88927070D01*
X113315960Y-89021909D01*
X113538000Y-88900624D01*
X113538000Y-87757000D01*
X113792000Y-87757000D01*
X113792000Y-88900624D01*
X114014040Y-89021909D01*
X114278881Y-88927070D01*
X114520131Y-88782385D01*
X114728519Y-88593414D01*
X114896037Y-88367420D01*
X115016246Y-88113087D01*
X115056904Y-87979039D01*
X119893096Y-87979039D01*
X119933754Y-88113087D01*
X120053963Y-88367420D01*
X120221481Y-88593414D01*
X120429869Y-88782385D01*
X120671119Y-88927070D01*
X120935960Y-89021909D01*
X121158000Y-88900624D01*
X121158000Y-87757000D01*
X121412000Y-87757000D01*
X121412000Y-88900624D01*
X121634040Y-89021909D01*
X121898881Y-88927070D01*
X122140131Y-88782385D01*
X122348519Y-88593414D01*
X122516037Y-88367420D01*
X122636246Y-88113087D01*
X122676904Y-87979039D01*
X122554915Y-87757000D01*
X121412000Y-87757000D01*
X121158000Y-87757000D01*
X120015085Y-87757000D01*
X119893096Y-87979039D01*
X115056904Y-87979039D01*
X114934915Y-87757000D01*
X113792000Y-87757000D01*
X113538000Y-87757000D01*
X113518000Y-87757000D01*
X113518000Y-87503000D01*
X113538000Y-87503000D01*
X113538000Y-87483000D01*
X113792000Y-87483000D01*
X113792000Y-87503000D01*
X114934915Y-87503000D01*
X115056904Y-87280961D01*
X115016246Y-87146913D01*
X114896037Y-86892580D01*
X114728519Y-86666586D01*
X114520131Y-86477615D01*
X114456725Y-86439588D01*
X114660717Y-86303285D01*
X114878285Y-86085717D01*
X115049227Y-85829885D01*
X115166973Y-85545619D01*
X115227000Y-85243844D01*
X115227000Y-84936156D01*
X115166973Y-84634381D01*
X115049227Y-84350115D01*
X114878285Y-84094283D01*
X114660717Y-83876715D01*
X114575837Y-83820000D01*
X114660717Y-83763285D01*
X114878285Y-83545717D01*
X115049227Y-83289885D01*
X115166973Y-83005619D01*
X115227000Y-82703844D01*
X115227000Y-82396156D01*
X115166973Y-82094381D01*
X115049227Y-81810115D01*
X114878285Y-81554283D01*
X114660717Y-81336715D01*
X114456725Y-81200412D01*
X114520131Y-81162385D01*
X114728519Y-80973414D01*
X114896037Y-80747420D01*
X115016246Y-80493087D01*
X115056904Y-80359039D01*
X114934915Y-80137000D01*
X113792000Y-80137000D01*
X113792000Y-80157000D01*
X113538000Y-80157000D01*
X113538000Y-80137000D01*
X113518000Y-80137000D01*
X113518000Y-79883000D01*
X113538000Y-79883000D01*
X113538000Y-79863000D01*
X113792000Y-79863000D01*
X113792000Y-79883000D01*
X114934915Y-79883000D01*
X115056904Y-79660961D01*
X115016246Y-79526913D01*
X114896037Y-79272580D01*
X114728519Y-79046586D01*
X114520131Y-78857615D01*
X114456725Y-78819588D01*
X114660717Y-78683285D01*
X114878285Y-78465717D01*
X115049227Y-78209885D01*
X115166973Y-77925619D01*
X115227000Y-77623844D01*
X115227000Y-77316156D01*
X119723000Y-77316156D01*
X119723000Y-77623844D01*
X119783027Y-77925619D01*
X119900773Y-78209885D01*
X120071715Y-78465717D01*
X120289283Y-78683285D01*
X120374163Y-78740000D01*
X120289283Y-78796715D01*
X120071715Y-79014283D01*
X119900773Y-79270115D01*
X119783027Y-79554381D01*
X119723000Y-79856156D01*
X119723000Y-80163844D01*
X119783027Y-80465619D01*
X119900773Y-80749885D01*
X120071715Y-81005717D01*
X120289283Y-81223285D01*
X120374163Y-81280000D01*
X120289283Y-81336715D01*
X120071715Y-81554283D01*
X119900773Y-81810115D01*
X119783027Y-82094381D01*
X119723000Y-82396156D01*
X119723000Y-82703844D01*
X119783027Y-83005619D01*
X119900773Y-83289885D01*
X120071715Y-83545717D01*
X120289283Y-83763285D01*
X120374163Y-83820000D01*
X120289283Y-83876715D01*
X120071715Y-84094283D01*
X119900773Y-84350115D01*
X119783027Y-84634381D01*
X119723000Y-84936156D01*
X119723000Y-85243844D01*
X119783027Y-85545619D01*
X119900773Y-85829885D01*
X120071715Y-86085717D01*
X120289283Y-86303285D01*
X120493275Y-86439588D01*
X120429869Y-86477615D01*
X120221481Y-86666586D01*
X120053963Y-86892580D01*
X119933754Y-87146913D01*
X119893096Y-87280961D01*
X120015085Y-87503000D01*
X121158000Y-87503000D01*
X121158000Y-87483000D01*
X121412000Y-87483000D01*
X121412000Y-87503000D01*
X122554915Y-87503000D01*
X122676904Y-87280961D01*
X122636246Y-87146913D01*
X122516037Y-86892580D01*
X122348519Y-86666586D01*
X122140131Y-86477615D01*
X122076725Y-86439588D01*
X122280717Y-86303285D01*
X122498285Y-86085717D01*
X122669227Y-85829885D01*
X122786973Y-85545619D01*
X122847000Y-85243844D01*
X122847000Y-84936156D01*
X122786973Y-84634381D01*
X122669227Y-84350115D01*
X122498285Y-84094283D01*
X122280717Y-83876715D01*
X122195837Y-83820000D01*
X122280717Y-83763285D01*
X122498285Y-83545717D01*
X122669227Y-83289885D01*
X122786973Y-83005619D01*
X122847000Y-82703844D01*
X122847000Y-82396156D01*
X122786973Y-82094381D01*
X122669227Y-81810115D01*
X122498285Y-81554283D01*
X122280717Y-81336715D01*
X122195837Y-81280000D01*
X122280717Y-81223285D01*
X122498285Y-81005717D01*
X122669227Y-80749885D01*
X122786973Y-80465619D01*
X122847000Y-80163844D01*
X122847000Y-79856156D01*
X122786973Y-79554381D01*
X122669227Y-79270115D01*
X122498285Y-79014283D01*
X122280717Y-78796715D01*
X122195837Y-78740000D01*
X122280717Y-78683285D01*
X122498285Y-78465717D01*
X122669227Y-78209885D01*
X122786973Y-77925619D01*
X122847000Y-77623844D01*
X122847000Y-77316156D01*
X122786973Y-77014381D01*
X122669227Y-76730115D01*
X122498285Y-76474283D01*
X122280717Y-76256715D01*
X122076725Y-76120412D01*
X122140131Y-76082385D01*
X122348519Y-75893414D01*
X122516037Y-75667420D01*
X122575080Y-75542500D01*
X122672615Y-75705131D01*
X122861586Y-75913519D01*
X123087580Y-76081037D01*
X123341913Y-76201246D01*
X123475961Y-76241904D01*
X123698000Y-76119915D01*
X123698000Y-74977000D01*
X122554376Y-74977000D01*
X122510678Y-75057000D01*
X121412000Y-75057000D01*
X121412000Y-75077000D01*
X121158000Y-75077000D01*
X121158000Y-75057000D01*
X120015085Y-75057000D01*
X119893096Y-75279039D01*
X119933754Y-75413087D01*
X120053963Y-75667420D01*
X120221481Y-75893414D01*
X120429869Y-76082385D01*
X120493275Y-76120412D01*
X120289283Y-76256715D01*
X120071715Y-76474283D01*
X119900773Y-76730115D01*
X119783027Y-77014381D01*
X119723000Y-77316156D01*
X115227000Y-77316156D01*
X115166973Y-77014381D01*
X115049227Y-76730115D01*
X114878285Y-76474283D01*
X114660717Y-76256715D01*
X114575837Y-76200000D01*
X114660717Y-76143285D01*
X114878285Y-75925717D01*
X115049227Y-75669885D01*
X115166973Y-75385619D01*
X115227000Y-75083844D01*
X115227000Y-74776156D01*
X115166973Y-74474381D01*
X115049227Y-74190115D01*
X114878285Y-73934283D01*
X114660717Y-73716715D01*
X114575837Y-73660000D01*
X114660717Y-73603285D01*
X114878285Y-73385717D01*
X115049227Y-73129885D01*
X115166973Y-72845619D01*
X115227000Y-72543844D01*
X115227000Y-72236156D01*
X115166973Y-71934381D01*
X115049227Y-71650115D01*
X114878285Y-71394283D01*
X114812357Y-71328355D01*
X114890392Y-71286645D01*
X115006422Y-71191422D01*
X115101645Y-71075392D01*
X115172402Y-70943015D01*
X115215974Y-70799378D01*
X115230686Y-70650000D01*
X115230686Y-69050000D01*
X115215974Y-68900622D01*
X115172402Y-68756985D01*
X115101645Y-68624608D01*
X115006422Y-68508578D01*
X114890392Y-68413355D01*
X114758015Y-68342598D01*
X114614378Y-68299026D01*
X114465000Y-68284314D01*
X112865000Y-68284314D01*
X112715622Y-68299026D01*
X112571985Y-68342598D01*
X112439608Y-68413355D01*
X112323578Y-68508578D01*
X112228355Y-68624608D01*
X112186645Y-68702643D01*
X112120717Y-68636715D01*
X112035837Y-68580000D01*
X112120717Y-68523285D01*
X112338285Y-68305717D01*
X112509227Y-68049885D01*
X112626973Y-67765619D01*
X112684085Y-67478497D01*
X112684741Y-67479478D01*
X112860522Y-67655259D01*
X113067219Y-67793370D01*
X113296888Y-67888502D01*
X113540704Y-67937000D01*
X113789296Y-67937000D01*
X114033112Y-67888502D01*
X114262781Y-67793370D01*
X114469478Y-67655259D01*
X114645259Y-67479478D01*
X114783370Y-67272781D01*
X114878502Y-67043112D01*
X114927000Y-66799296D01*
X114927000Y-66550704D01*
X114878502Y-66306888D01*
X114783370Y-66077219D01*
X114645259Y-65870522D01*
X114499737Y-65725000D01*
X114645259Y-65579478D01*
X114783370Y-65372781D01*
X114878502Y-65143112D01*
X114927000Y-64899296D01*
X114927000Y-64650704D01*
X114878502Y-64406888D01*
X114783370Y-64177219D01*
X114645259Y-63970522D01*
X114469478Y-63794741D01*
X114262781Y-63656630D01*
X114033112Y-63561498D01*
X113789296Y-63513000D01*
X113540704Y-63513000D01*
X113296888Y-63561498D01*
X113067219Y-63656630D01*
X112860522Y-63794741D01*
X112684741Y-63970522D01*
X112561155Y-64155481D01*
X112509227Y-64030115D01*
X112338285Y-63774283D01*
X112120717Y-63556715D01*
X112035837Y-63500000D01*
X112120717Y-63443285D01*
X112338285Y-63225717D01*
X112509227Y-62969885D01*
X112626973Y-62685619D01*
X112687000Y-62383844D01*
X112687000Y-62076156D01*
X112626973Y-61774381D01*
X112509227Y-61490115D01*
X112338285Y-61234283D01*
X112120717Y-61016715D01*
X112035837Y-60960000D01*
X112120717Y-60903285D01*
X112338285Y-60685717D01*
X112509227Y-60429885D01*
X112626973Y-60145619D01*
X112687000Y-59843844D01*
X112687000Y-59536156D01*
X112626973Y-59234381D01*
X112509227Y-58950115D01*
X112338285Y-58694283D01*
X112272357Y-58628355D01*
X112350392Y-58586645D01*
X112466422Y-58491422D01*
X112561645Y-58375392D01*
X112632402Y-58243015D01*
X112675974Y-58099378D01*
X112690686Y-57950000D01*
X112690686Y-56350000D01*
X112675974Y-56200622D01*
X112632402Y-56056985D01*
X112561645Y-55924608D01*
X112466422Y-55808578D01*
X112350392Y-55713355D01*
X112218015Y-55642598D01*
X112074378Y-55599026D01*
X111925000Y-55584314D01*
X110642001Y-55584314D01*
X110642001Y-52666345D01*
X110641143Y-52657632D01*
X126848858Y-52657632D01*
X126848000Y-52666347D01*
%TA.AperFunction,Conductor*%
D16*
G36*
X126848000Y-52666347D02*
G01*
X126848000Y-55659369D01*
X126820619Y-55648027D01*
X126518844Y-55588000D01*
X126211156Y-55588000D01*
X125909381Y-55648027D01*
X125625115Y-55765773D01*
X125369283Y-55936715D01*
X125151715Y-56154283D01*
X124980773Y-56410115D01*
X124863027Y-56694381D01*
X124803000Y-56996156D01*
X124803000Y-57303844D01*
X124863027Y-57605619D01*
X124980773Y-57889885D01*
X125151715Y-58145717D01*
X125369283Y-58363285D01*
X125454163Y-58420000D01*
X125369283Y-58476715D01*
X125151715Y-58694283D01*
X124980773Y-58950115D01*
X124863027Y-59234381D01*
X124803000Y-59536156D01*
X124803000Y-59843844D01*
X124863027Y-60145619D01*
X124980773Y-60429885D01*
X125151715Y-60685717D01*
X125369283Y-60903285D01*
X125454163Y-60960000D01*
X125369283Y-61016715D01*
X125151715Y-61234283D01*
X124980773Y-61490115D01*
X124863027Y-61774381D01*
X124803000Y-62076156D01*
X124803000Y-62383844D01*
X124863027Y-62685619D01*
X124980773Y-62969885D01*
X125151715Y-63225717D01*
X125369283Y-63443285D01*
X125454163Y-63500000D01*
X125369283Y-63556715D01*
X125151715Y-63774283D01*
X124980773Y-64030115D01*
X124863027Y-64314381D01*
X124803000Y-64616156D01*
X124803000Y-64923844D01*
X124863027Y-65225619D01*
X124980773Y-65509885D01*
X125151715Y-65765717D01*
X125369283Y-65983285D01*
X125454163Y-66040000D01*
X125369283Y-66096715D01*
X125151715Y-66314283D01*
X124980773Y-66570115D01*
X124863027Y-66854381D01*
X124803000Y-67156156D01*
X124803000Y-67463844D01*
X124863027Y-67765619D01*
X124980773Y-68049885D01*
X125151715Y-68305717D01*
X125369283Y-68523285D01*
X125454163Y-68580000D01*
X125369283Y-68636715D01*
X125151715Y-68854283D01*
X125095000Y-68939163D01*
X125038285Y-68854283D01*
X124820717Y-68636715D01*
X124564885Y-68465773D01*
X124280619Y-68348027D01*
X123978844Y-68288000D01*
X123671156Y-68288000D01*
X123369381Y-68348027D01*
X123085115Y-68465773D01*
X122829283Y-68636715D01*
X122611715Y-68854283D01*
X122555000Y-68939163D01*
X122498285Y-68854283D01*
X122280717Y-68636715D01*
X122024885Y-68465773D01*
X121740619Y-68348027D01*
X121438844Y-68288000D01*
X121131156Y-68288000D01*
X120829381Y-68348027D01*
X120545115Y-68465773D01*
X120289283Y-68636715D01*
X120071715Y-68854283D01*
X119900773Y-69110115D01*
X119783027Y-69394381D01*
X119723000Y-69696156D01*
X119723000Y-70003844D01*
X119783027Y-70305619D01*
X119900773Y-70589885D01*
X120071715Y-70845717D01*
X120289283Y-71063285D01*
X120374163Y-71120000D01*
X120289283Y-71176715D01*
X120071715Y-71394283D01*
X119900773Y-71650115D01*
X119783027Y-71934381D01*
X119723000Y-72236156D01*
X119723000Y-72543844D01*
X119783027Y-72845619D01*
X119900773Y-73129885D01*
X120071715Y-73385717D01*
X120289283Y-73603285D01*
X120493275Y-73739588D01*
X120429869Y-73777615D01*
X120221481Y-73966586D01*
X120053963Y-74192580D01*
X119933754Y-74446913D01*
X119893096Y-74580961D01*
X120015085Y-74803000D01*
X121158000Y-74803000D01*
X121158000Y-74783000D01*
X121412000Y-74783000D01*
X121412000Y-74803000D01*
X122554915Y-74803000D01*
X122598867Y-74723000D01*
X123698000Y-74723000D01*
X123698000Y-73580085D01*
X123475961Y-73458096D01*
X123341913Y-73498754D01*
X123087580Y-73618963D01*
X122861586Y-73786481D01*
X122672615Y-73994869D01*
X122532787Y-74228020D01*
X122516037Y-74192580D01*
X122348519Y-73966586D01*
X122140131Y-73777615D01*
X122076725Y-73739588D01*
X122280717Y-73603285D01*
X122498285Y-73385717D01*
X122669227Y-73129885D01*
X122786973Y-72845619D01*
X122847000Y-72543844D01*
X122847000Y-72236156D01*
X122786973Y-71934381D01*
X122669227Y-71650115D01*
X122498285Y-71394283D01*
X122280717Y-71176715D01*
X122195837Y-71120000D01*
X122280717Y-71063285D01*
X122498285Y-70845717D01*
X122555000Y-70760837D01*
X122611715Y-70845717D01*
X122829283Y-71063285D01*
X123085115Y-71234227D01*
X123369381Y-71351973D01*
X123671156Y-71412000D01*
X123978844Y-71412000D01*
X124280619Y-71351973D01*
X124564885Y-71234227D01*
X124820717Y-71063285D01*
X125038285Y-70845717D01*
X125095000Y-70760837D01*
X125151715Y-70845717D01*
X125369283Y-71063285D01*
X125454163Y-71120000D01*
X125369283Y-71176715D01*
X125151715Y-71394283D01*
X124980773Y-71650115D01*
X124863027Y-71934381D01*
X124803000Y-72236156D01*
X124803000Y-72543844D01*
X124863027Y-72845619D01*
X124980773Y-73129885D01*
X125151715Y-73385717D01*
X125369283Y-73603285D01*
X125454163Y-73660000D01*
X125369283Y-73716715D01*
X125151715Y-73934283D01*
X125040696Y-74100434D01*
X124977385Y-73994869D01*
X124788414Y-73786481D01*
X124562420Y-73618963D01*
X124308087Y-73498754D01*
X124174039Y-73458096D01*
X123952000Y-73580085D01*
X123952000Y-74723000D01*
X123972000Y-74723000D01*
X123972000Y-74977000D01*
X123952000Y-74977000D01*
X123952000Y-76119915D01*
X124174039Y-76241904D01*
X124308087Y-76201246D01*
X124562420Y-76081037D01*
X124788414Y-75913519D01*
X124977385Y-75705131D01*
X124990127Y-75683884D01*
X125151715Y-75925717D01*
X125369283Y-76143285D01*
X125454163Y-76200000D01*
X125369283Y-76256715D01*
X125151715Y-76474283D01*
X124980773Y-76730115D01*
X124863027Y-77014381D01*
X124803000Y-77316156D01*
X124803000Y-77623844D01*
X124863027Y-77925619D01*
X124980773Y-78209885D01*
X125151715Y-78465717D01*
X125369283Y-78683285D01*
X125454163Y-78740000D01*
X125369283Y-78796715D01*
X125151715Y-79014283D01*
X124980773Y-79270115D01*
X124863027Y-79554381D01*
X124803000Y-79856156D01*
X124803000Y-80163844D01*
X124863027Y-80465619D01*
X124980773Y-80749885D01*
X125151715Y-81005717D01*
X125369283Y-81223285D01*
X125454163Y-81280000D01*
X125369283Y-81336715D01*
X125151715Y-81554283D01*
X124980773Y-81810115D01*
X124863027Y-82094381D01*
X124803000Y-82396156D01*
X124803000Y-82703844D01*
X124863027Y-83005619D01*
X124980773Y-83289885D01*
X125151715Y-83545717D01*
X125369283Y-83763285D01*
X125454163Y-83820000D01*
X125369283Y-83876715D01*
X125151715Y-84094283D01*
X124980773Y-84350115D01*
X124863027Y-84634381D01*
X124803000Y-84936156D01*
X124803000Y-85243844D01*
X124863027Y-85545619D01*
X124980773Y-85829885D01*
X125151715Y-86085717D01*
X125369283Y-86303285D01*
X125454163Y-86360000D01*
X125369283Y-86416715D01*
X125151715Y-86634283D01*
X124980773Y-86890115D01*
X124863027Y-87174381D01*
X124803000Y-87476156D01*
X124803000Y-87783844D01*
X124863027Y-88085619D01*
X124980773Y-88369885D01*
X125151715Y-88625717D01*
X125369283Y-88843285D01*
X125454163Y-88900000D01*
X125369283Y-88956715D01*
X125151715Y-89174283D01*
X124980773Y-89430115D01*
X124863027Y-89714381D01*
X124803000Y-90016156D01*
X124803000Y-90323844D01*
X124863027Y-90625619D01*
X124874369Y-90653000D01*
X112476272Y-90653000D01*
X112516904Y-90519039D01*
X112394915Y-90297000D01*
X111252000Y-90297000D01*
X111252000Y-90317000D01*
X110998000Y-90317000D01*
X110998000Y-90297000D01*
X110978000Y-90297000D01*
X110978000Y-90043000D01*
X110998000Y-90043000D01*
X110998000Y-90023000D01*
X111252000Y-90023000D01*
X111252000Y-90043000D01*
X112394915Y-90043000D01*
X112516904Y-89820961D01*
X112476246Y-89686913D01*
X112356037Y-89432580D01*
X112188519Y-89206586D01*
X111980131Y-89017615D01*
X111916725Y-88979588D01*
X112120717Y-88843285D01*
X112338285Y-88625717D01*
X112474412Y-88421989D01*
X112601481Y-88593414D01*
X112809869Y-88782385D01*
X113051119Y-88927070D01*
X113315960Y-89021909D01*
X113538000Y-88900624D01*
X113538000Y-87757000D01*
X113792000Y-87757000D01*
X113792000Y-88900624D01*
X114014040Y-89021909D01*
X114278881Y-88927070D01*
X114520131Y-88782385D01*
X114728519Y-88593414D01*
X114896037Y-88367420D01*
X115016246Y-88113087D01*
X115056904Y-87979039D01*
X119893096Y-87979039D01*
X119933754Y-88113087D01*
X120053963Y-88367420D01*
X120221481Y-88593414D01*
X120429869Y-88782385D01*
X120671119Y-88927070D01*
X120935960Y-89021909D01*
X121158000Y-88900624D01*
X121158000Y-87757000D01*
X121412000Y-87757000D01*
X121412000Y-88900624D01*
X121634040Y-89021909D01*
X121898881Y-88927070D01*
X122140131Y-88782385D01*
X122348519Y-88593414D01*
X122516037Y-88367420D01*
X122636246Y-88113087D01*
X122676904Y-87979039D01*
X122554915Y-87757000D01*
X121412000Y-87757000D01*
X121158000Y-87757000D01*
X120015085Y-87757000D01*
X119893096Y-87979039D01*
X115056904Y-87979039D01*
X114934915Y-87757000D01*
X113792000Y-87757000D01*
X113538000Y-87757000D01*
X113518000Y-87757000D01*
X113518000Y-87503000D01*
X113538000Y-87503000D01*
X113538000Y-87483000D01*
X113792000Y-87483000D01*
X113792000Y-87503000D01*
X114934915Y-87503000D01*
X115056904Y-87280961D01*
X115016246Y-87146913D01*
X114896037Y-86892580D01*
X114728519Y-86666586D01*
X114520131Y-86477615D01*
X114456725Y-86439588D01*
X114660717Y-86303285D01*
X114878285Y-86085717D01*
X115049227Y-85829885D01*
X115166973Y-85545619D01*
X115227000Y-85243844D01*
X115227000Y-84936156D01*
X115166973Y-84634381D01*
X115049227Y-84350115D01*
X114878285Y-84094283D01*
X114660717Y-83876715D01*
X114575837Y-83820000D01*
X114660717Y-83763285D01*
X114878285Y-83545717D01*
X115049227Y-83289885D01*
X115166973Y-83005619D01*
X115227000Y-82703844D01*
X115227000Y-82396156D01*
X115166973Y-82094381D01*
X115049227Y-81810115D01*
X114878285Y-81554283D01*
X114660717Y-81336715D01*
X114456725Y-81200412D01*
X114520131Y-81162385D01*
X114728519Y-80973414D01*
X114896037Y-80747420D01*
X115016246Y-80493087D01*
X115056904Y-80359039D01*
X114934915Y-80137000D01*
X113792000Y-80137000D01*
X113792000Y-80157000D01*
X113538000Y-80157000D01*
X113538000Y-80137000D01*
X113518000Y-80137000D01*
X113518000Y-79883000D01*
X113538000Y-79883000D01*
X113538000Y-79863000D01*
X113792000Y-79863000D01*
X113792000Y-79883000D01*
X114934915Y-79883000D01*
X115056904Y-79660961D01*
X115016246Y-79526913D01*
X114896037Y-79272580D01*
X114728519Y-79046586D01*
X114520131Y-78857615D01*
X114456725Y-78819588D01*
X114660717Y-78683285D01*
X114878285Y-78465717D01*
X115049227Y-78209885D01*
X115166973Y-77925619D01*
X115227000Y-77623844D01*
X115227000Y-77316156D01*
X119723000Y-77316156D01*
X119723000Y-77623844D01*
X119783027Y-77925619D01*
X119900773Y-78209885D01*
X120071715Y-78465717D01*
X120289283Y-78683285D01*
X120374163Y-78740000D01*
X120289283Y-78796715D01*
X120071715Y-79014283D01*
X119900773Y-79270115D01*
X119783027Y-79554381D01*
X119723000Y-79856156D01*
X119723000Y-80163844D01*
X119783027Y-80465619D01*
X119900773Y-80749885D01*
X120071715Y-81005717D01*
X120289283Y-81223285D01*
X120374163Y-81280000D01*
X120289283Y-81336715D01*
X120071715Y-81554283D01*
X119900773Y-81810115D01*
X119783027Y-82094381D01*
X119723000Y-82396156D01*
X119723000Y-82703844D01*
X119783027Y-83005619D01*
X119900773Y-83289885D01*
X120071715Y-83545717D01*
X120289283Y-83763285D01*
X120374163Y-83820000D01*
X120289283Y-83876715D01*
X120071715Y-84094283D01*
X119900773Y-84350115D01*
X119783027Y-84634381D01*
X119723000Y-84936156D01*
X119723000Y-85243844D01*
X119783027Y-85545619D01*
X119900773Y-85829885D01*
X120071715Y-86085717D01*
X120289283Y-86303285D01*
X120493275Y-86439588D01*
X120429869Y-86477615D01*
X120221481Y-86666586D01*
X120053963Y-86892580D01*
X119933754Y-87146913D01*
X119893096Y-87280961D01*
X120015085Y-87503000D01*
X121158000Y-87503000D01*
X121158000Y-87483000D01*
X121412000Y-87483000D01*
X121412000Y-87503000D01*
X122554915Y-87503000D01*
X122676904Y-87280961D01*
X122636246Y-87146913D01*
X122516037Y-86892580D01*
X122348519Y-86666586D01*
X122140131Y-86477615D01*
X122076725Y-86439588D01*
X122280717Y-86303285D01*
X122498285Y-86085717D01*
X122669227Y-85829885D01*
X122786973Y-85545619D01*
X122847000Y-85243844D01*
X122847000Y-84936156D01*
X122786973Y-84634381D01*
X122669227Y-84350115D01*
X122498285Y-84094283D01*
X122280717Y-83876715D01*
X122195837Y-83820000D01*
X122280717Y-83763285D01*
X122498285Y-83545717D01*
X122669227Y-83289885D01*
X122786973Y-83005619D01*
X122847000Y-82703844D01*
X122847000Y-82396156D01*
X122786973Y-82094381D01*
X122669227Y-81810115D01*
X122498285Y-81554283D01*
X122280717Y-81336715D01*
X122195837Y-81280000D01*
X122280717Y-81223285D01*
X122498285Y-81005717D01*
X122669227Y-80749885D01*
X122786973Y-80465619D01*
X122847000Y-80163844D01*
X122847000Y-79856156D01*
X122786973Y-79554381D01*
X122669227Y-79270115D01*
X122498285Y-79014283D01*
X122280717Y-78796715D01*
X122195837Y-78740000D01*
X122280717Y-78683285D01*
X122498285Y-78465717D01*
X122669227Y-78209885D01*
X122786973Y-77925619D01*
X122847000Y-77623844D01*
X122847000Y-77316156D01*
X122786973Y-77014381D01*
X122669227Y-76730115D01*
X122498285Y-76474283D01*
X122280717Y-76256715D01*
X122076725Y-76120412D01*
X122140131Y-76082385D01*
X122348519Y-75893414D01*
X122516037Y-75667420D01*
X122575080Y-75542500D01*
X122672615Y-75705131D01*
X122861586Y-75913519D01*
X123087580Y-76081037D01*
X123341913Y-76201246D01*
X123475961Y-76241904D01*
X123698000Y-76119915D01*
X123698000Y-74977000D01*
X122554376Y-74977000D01*
X122510678Y-75057000D01*
X121412000Y-75057000D01*
X121412000Y-75077000D01*
X121158000Y-75077000D01*
X121158000Y-75057000D01*
X120015085Y-75057000D01*
X119893096Y-75279039D01*
X119933754Y-75413087D01*
X120053963Y-75667420D01*
X120221481Y-75893414D01*
X120429869Y-76082385D01*
X120493275Y-76120412D01*
X120289283Y-76256715D01*
X120071715Y-76474283D01*
X119900773Y-76730115D01*
X119783027Y-77014381D01*
X119723000Y-77316156D01*
X115227000Y-77316156D01*
X115166973Y-77014381D01*
X115049227Y-76730115D01*
X114878285Y-76474283D01*
X114660717Y-76256715D01*
X114575837Y-76200000D01*
X114660717Y-76143285D01*
X114878285Y-75925717D01*
X115049227Y-75669885D01*
X115166973Y-75385619D01*
X115227000Y-75083844D01*
X115227000Y-74776156D01*
X115166973Y-74474381D01*
X115049227Y-74190115D01*
X114878285Y-73934283D01*
X114660717Y-73716715D01*
X114575837Y-73660000D01*
X114660717Y-73603285D01*
X114878285Y-73385717D01*
X115049227Y-73129885D01*
X115166973Y-72845619D01*
X115227000Y-72543844D01*
X115227000Y-72236156D01*
X115166973Y-71934381D01*
X115049227Y-71650115D01*
X114878285Y-71394283D01*
X114812357Y-71328355D01*
X114890392Y-71286645D01*
X115006422Y-71191422D01*
X115101645Y-71075392D01*
X115172402Y-70943015D01*
X115215974Y-70799378D01*
X115230686Y-70650000D01*
X115230686Y-69050000D01*
X115215974Y-68900622D01*
X115172402Y-68756985D01*
X115101645Y-68624608D01*
X115006422Y-68508578D01*
X114890392Y-68413355D01*
X114758015Y-68342598D01*
X114614378Y-68299026D01*
X114465000Y-68284314D01*
X112865000Y-68284314D01*
X112715622Y-68299026D01*
X112571985Y-68342598D01*
X112439608Y-68413355D01*
X112323578Y-68508578D01*
X112228355Y-68624608D01*
X112186645Y-68702643D01*
X112120717Y-68636715D01*
X112035837Y-68580000D01*
X112120717Y-68523285D01*
X112338285Y-68305717D01*
X112509227Y-68049885D01*
X112626973Y-67765619D01*
X112684085Y-67478497D01*
X112684741Y-67479478D01*
X112860522Y-67655259D01*
X113067219Y-67793370D01*
X113296888Y-67888502D01*
X113540704Y-67937000D01*
X113789296Y-67937000D01*
X114033112Y-67888502D01*
X114262781Y-67793370D01*
X114469478Y-67655259D01*
X114645259Y-67479478D01*
X114783370Y-67272781D01*
X114878502Y-67043112D01*
X114927000Y-66799296D01*
X114927000Y-66550704D01*
X114878502Y-66306888D01*
X114783370Y-66077219D01*
X114645259Y-65870522D01*
X114499737Y-65725000D01*
X114645259Y-65579478D01*
X114783370Y-65372781D01*
X114878502Y-65143112D01*
X114927000Y-64899296D01*
X114927000Y-64650704D01*
X114878502Y-64406888D01*
X114783370Y-64177219D01*
X114645259Y-63970522D01*
X114469478Y-63794741D01*
X114262781Y-63656630D01*
X114033112Y-63561498D01*
X113789296Y-63513000D01*
X113540704Y-63513000D01*
X113296888Y-63561498D01*
X113067219Y-63656630D01*
X112860522Y-63794741D01*
X112684741Y-63970522D01*
X112561155Y-64155481D01*
X112509227Y-64030115D01*
X112338285Y-63774283D01*
X112120717Y-63556715D01*
X112035837Y-63500000D01*
X112120717Y-63443285D01*
X112338285Y-63225717D01*
X112509227Y-62969885D01*
X112626973Y-62685619D01*
X112687000Y-62383844D01*
X112687000Y-62076156D01*
X112626973Y-61774381D01*
X112509227Y-61490115D01*
X112338285Y-61234283D01*
X112120717Y-61016715D01*
X112035837Y-60960000D01*
X112120717Y-60903285D01*
X112338285Y-60685717D01*
X112509227Y-60429885D01*
X112626973Y-60145619D01*
X112687000Y-59843844D01*
X112687000Y-59536156D01*
X112626973Y-59234381D01*
X112509227Y-58950115D01*
X112338285Y-58694283D01*
X112272357Y-58628355D01*
X112350392Y-58586645D01*
X112466422Y-58491422D01*
X112561645Y-58375392D01*
X112632402Y-58243015D01*
X112675974Y-58099378D01*
X112690686Y-57950000D01*
X112690686Y-56350000D01*
X112675974Y-56200622D01*
X112632402Y-56056985D01*
X112561645Y-55924608D01*
X112466422Y-55808578D01*
X112350392Y-55713355D01*
X112218015Y-55642598D01*
X112074378Y-55599026D01*
X111925000Y-55584314D01*
X110642001Y-55584314D01*
X110642001Y-52666345D01*
X110641143Y-52657632D01*
X126848858Y-52657632D01*
X126848000Y-52666347D01*
G37*
%TD.AperFunction*%
%TD*%
M02*
