%TF.GenerationSoftware,KiCad,Pcbnew,(5.1.9)-1*%
%TF.CreationDate,2021-05-06T14:47:01+08:00*%
%TF.ProjectId,ATD-20-Redux,4154442d-3230-42d5-9265-6475782e6b69,rev?*%
%TF.SameCoordinates,Original*%
%TF.FileFunction,Soldermask,Top*%
%TF.FilePolarity,Negative*%
%FSLAX46Y46*%
G04 Gerber Fmt 4.6, Leading zero omitted, Abs format (unit mm)*
G04 Created by KiCad (PCBNEW (5.1.9)-1) date 2021-05-06 14:47:01*
%MOMM*%
%LPD*%
G01*
G04 APERTURE LIST*
%ADD10R,3.600000X2.600000*%
%ADD11O,1.600000X1.600000*%
%ADD12R,1.600000X1.600000*%
%ADD13C,1.600000*%
%ADD14C,1.000000*%
G04 APERTURE END LIST*
D10*
%TO.C,BAT1*%
X118745000Y-59100000D03*
X118745000Y-29800000D03*
%TD*%
D11*
%TO.C,J1*%
X126365000Y-57150000D03*
X111125000Y-90170000D03*
X126365000Y-59690000D03*
X111125000Y-87630000D03*
X126365000Y-62230000D03*
X111125000Y-85090000D03*
X126365000Y-64770000D03*
X111125000Y-82550000D03*
X126365000Y-67310000D03*
X111125000Y-80010000D03*
X126365000Y-69850000D03*
X111125000Y-77470000D03*
X126365000Y-72390000D03*
X111125000Y-74930000D03*
X126365000Y-74930000D03*
X111125000Y-72390000D03*
X126365000Y-77470000D03*
X111125000Y-69850000D03*
X126365000Y-80010000D03*
X111125000Y-67310000D03*
X126365000Y-82550000D03*
X111125000Y-64770000D03*
X126365000Y-85090000D03*
X111125000Y-62230000D03*
X126365000Y-87630000D03*
X111125000Y-59690000D03*
X126365000Y-90170000D03*
D12*
X111125000Y-57150000D03*
%TD*%
D11*
%TO.C,C1*%
X123825000Y-74850000D03*
D13*
X123825000Y-69850000D03*
%TD*%
D11*
%TO.C,U1*%
X121285000Y-69850000D03*
X113665000Y-87630000D03*
X121285000Y-72390000D03*
X113665000Y-85090000D03*
X121285000Y-74930000D03*
X113665000Y-82550000D03*
X121285000Y-77470000D03*
X113665000Y-80010000D03*
X121285000Y-80010000D03*
X113665000Y-77470000D03*
X121285000Y-82550000D03*
X113665000Y-74930000D03*
X121285000Y-85090000D03*
X113665000Y-72390000D03*
X121285000Y-87630000D03*
D12*
X113665000Y-69850000D03*
%TD*%
D14*
%TO.C,Y1*%
X113665000Y-66675000D03*
X113665000Y-64775000D03*
%TD*%
M02*
