%TF.GenerationSoftware,KiCad,Pcbnew,(5.1.9)-1*%
%TF.CreationDate,2021-04-04T21:20:30+08:00*%
%TF.ProjectId,ATD-20-Redux,4154442d-3230-42d5-9265-6475782e6b69,rev?*%
%TF.SameCoordinates,Original*%
%TF.FileFunction,Legend,Bot*%
%TF.FilePolarity,Positive*%
%FSLAX46Y46*%
G04 Gerber Fmt 4.6, Leading zero omitted, Abs format (unit mm)*
G04 Created by KiCad (PCBNEW (5.1.9)-1) date 2021-04-04 21:20:30*
%MOMM*%
%LPD*%
G01*
G04 APERTURE LIST*
%ADD10C,0.150000*%
G04 APERTURE END LIST*
D10*
X114941428Y-48920714D02*
X114893809Y-48792142D01*
X114846190Y-48749285D01*
X114750952Y-48706428D01*
X114608095Y-48706428D01*
X114512857Y-48749285D01*
X114465238Y-48792142D01*
X114417619Y-48877857D01*
X114417619Y-49220714D01*
X115417619Y-49220714D01*
X115417619Y-48920714D01*
X115370000Y-48835000D01*
X115322380Y-48792142D01*
X115227142Y-48749285D01*
X115131904Y-48749285D01*
X115036666Y-48792142D01*
X114989047Y-48835000D01*
X114941428Y-48920714D01*
X114941428Y-49220714D01*
X114417619Y-48192142D02*
X114465238Y-48277857D01*
X114512857Y-48320714D01*
X114608095Y-48363571D01*
X114893809Y-48363571D01*
X114989047Y-48320714D01*
X115036666Y-48277857D01*
X115084285Y-48192142D01*
X115084285Y-48063571D01*
X115036666Y-47977857D01*
X114989047Y-47935000D01*
X114893809Y-47892142D01*
X114608095Y-47892142D01*
X114512857Y-47935000D01*
X114465238Y-47977857D01*
X114417619Y-48063571D01*
X114417619Y-48192142D01*
X114417619Y-47120714D02*
X114941428Y-47120714D01*
X115036666Y-47163571D01*
X115084285Y-47249285D01*
X115084285Y-47420714D01*
X115036666Y-47506428D01*
X114465238Y-47120714D02*
X114417619Y-47206428D01*
X114417619Y-47420714D01*
X114465238Y-47506428D01*
X114560476Y-47549285D01*
X114655714Y-47549285D01*
X114750952Y-47506428D01*
X114798571Y-47420714D01*
X114798571Y-47206428D01*
X114846190Y-47120714D01*
X114417619Y-46692142D02*
X115084285Y-46692142D01*
X114893809Y-46692142D02*
X114989047Y-46649285D01*
X115036666Y-46606428D01*
X115084285Y-46520714D01*
X115084285Y-46435000D01*
X114417619Y-45749285D02*
X115417619Y-45749285D01*
X114465238Y-45749285D02*
X114417619Y-45835000D01*
X114417619Y-46006428D01*
X114465238Y-46092142D01*
X114512857Y-46135000D01*
X114608095Y-46177857D01*
X114893809Y-46177857D01*
X114989047Y-46135000D01*
X115036666Y-46092142D01*
X115084285Y-46006428D01*
X115084285Y-45835000D01*
X115036666Y-45749285D01*
X114417619Y-44506428D02*
X114465238Y-44592142D01*
X114560476Y-44635000D01*
X115417619Y-44635000D01*
X114417619Y-43777857D02*
X114941428Y-43777857D01*
X115036666Y-43820714D01*
X115084285Y-43906428D01*
X115084285Y-44077857D01*
X115036666Y-44163571D01*
X114465238Y-43777857D02*
X114417619Y-43863571D01*
X114417619Y-44077857D01*
X114465238Y-44163571D01*
X114560476Y-44206428D01*
X114655714Y-44206428D01*
X114750952Y-44163571D01*
X114798571Y-44077857D01*
X114798571Y-43863571D01*
X114846190Y-43777857D01*
X115084285Y-43435000D02*
X114417619Y-43220714D01*
X115084285Y-43006428D02*
X114417619Y-43220714D01*
X114179523Y-43306428D01*
X114131904Y-43349285D01*
X114084285Y-43435000D01*
X114417619Y-42535000D02*
X114465238Y-42620714D01*
X114512857Y-42663571D01*
X114608095Y-42706428D01*
X114893809Y-42706428D01*
X114989047Y-42663571D01*
X115036666Y-42620714D01*
X115084285Y-42535000D01*
X115084285Y-42406428D01*
X115036666Y-42320714D01*
X114989047Y-42277857D01*
X114893809Y-42235000D01*
X114608095Y-42235000D01*
X114512857Y-42277857D01*
X114465238Y-42320714D01*
X114417619Y-42406428D01*
X114417619Y-42535000D01*
X115084285Y-41463571D02*
X114417619Y-41463571D01*
X115084285Y-41849285D02*
X114560476Y-41849285D01*
X114465238Y-41806428D01*
X114417619Y-41720714D01*
X114417619Y-41592142D01*
X114465238Y-41506428D01*
X114512857Y-41463571D01*
X115084285Y-41163571D02*
X115084285Y-40820714D01*
X115417619Y-41035000D02*
X114560476Y-41035000D01*
X114465238Y-40992142D01*
X114417619Y-40906428D01*
X114417619Y-40820714D01*
X112767619Y-52777857D02*
X113767619Y-52777857D01*
X113386666Y-52777857D02*
X113434285Y-52692142D01*
X113434285Y-52520714D01*
X113386666Y-52435000D01*
X113339047Y-52392142D01*
X113243809Y-52349285D01*
X112958095Y-52349285D01*
X112862857Y-52392142D01*
X112815238Y-52435000D01*
X112767619Y-52520714D01*
X112767619Y-52692142D01*
X112815238Y-52777857D01*
X113434285Y-52049285D02*
X112767619Y-51835000D01*
X113434285Y-51620714D02*
X112767619Y-51835000D01*
X112529523Y-51920714D01*
X112481904Y-51963571D01*
X112434285Y-52049285D01*
X113767619Y-50335000D02*
X113053333Y-50335000D01*
X112910476Y-50377857D01*
X112815238Y-50463571D01*
X112767619Y-50592142D01*
X112767619Y-50677857D01*
X112767619Y-49520714D02*
X113291428Y-49520714D01*
X113386666Y-49563571D01*
X113434285Y-49649285D01*
X113434285Y-49820714D01*
X113386666Y-49906428D01*
X112815238Y-49520714D02*
X112767619Y-49606428D01*
X112767619Y-49820714D01*
X112815238Y-49906428D01*
X112910476Y-49949285D01*
X113005714Y-49949285D01*
X113100952Y-49906428D01*
X113148571Y-49820714D01*
X113148571Y-49606428D01*
X113196190Y-49520714D01*
X113434285Y-49177857D02*
X112767619Y-48963571D01*
X113434285Y-48749285D02*
X112767619Y-48963571D01*
X112529523Y-49049285D01*
X112481904Y-49092142D01*
X112434285Y-49177857D01*
X112815238Y-48063571D02*
X112767619Y-48149285D01*
X112767619Y-48320714D01*
X112815238Y-48406428D01*
X112910476Y-48449285D01*
X113291428Y-48449285D01*
X113386666Y-48406428D01*
X113434285Y-48320714D01*
X113434285Y-48149285D01*
X113386666Y-48063571D01*
X113291428Y-48020714D01*
X113196190Y-48020714D01*
X113100952Y-48449285D01*
X112815238Y-47677857D02*
X112767619Y-47592142D01*
X112767619Y-47420714D01*
X112815238Y-47335000D01*
X112910476Y-47292142D01*
X112958095Y-47292142D01*
X113053333Y-47335000D01*
X113100952Y-47420714D01*
X113100952Y-47549285D01*
X113148571Y-47635000D01*
X113243809Y-47677857D01*
X113291428Y-47677857D01*
X113386666Y-47635000D01*
X113434285Y-47549285D01*
X113434285Y-47420714D01*
X113386666Y-47335000D01*
X112767619Y-46777857D02*
X112815238Y-46863571D01*
X112862857Y-46906428D01*
X112958095Y-46949285D01*
X113243809Y-46949285D01*
X113339047Y-46906428D01*
X113386666Y-46863571D01*
X113434285Y-46777857D01*
X113434285Y-46649285D01*
X113386666Y-46563571D01*
X113339047Y-46520714D01*
X113243809Y-46477857D01*
X112958095Y-46477857D01*
X112862857Y-46520714D01*
X112815238Y-46563571D01*
X112767619Y-46649285D01*
X112767619Y-46777857D01*
X113434285Y-46092142D02*
X112767619Y-46092142D01*
X113339047Y-46092142D02*
X113386666Y-46049285D01*
X113434285Y-45963571D01*
X113434285Y-45835000D01*
X113386666Y-45749285D01*
X113291428Y-45706428D01*
X112767619Y-45706428D01*
X112767619Y-44163571D02*
X112767619Y-44592142D01*
X113767619Y-44592142D01*
X112815238Y-43520714D02*
X112767619Y-43606428D01*
X112767619Y-43777857D01*
X112815238Y-43863571D01*
X112910476Y-43906428D01*
X113291428Y-43906428D01*
X113386666Y-43863571D01*
X113434285Y-43777857D01*
X113434285Y-43606428D01*
X113386666Y-43520714D01*
X113291428Y-43477857D01*
X113196190Y-43477857D01*
X113100952Y-43906428D01*
X112815238Y-42749285D02*
X112767619Y-42835000D01*
X112767619Y-43006428D01*
X112815238Y-43092142D01*
X112910476Y-43135000D01*
X113291428Y-43135000D01*
X113386666Y-43092142D01*
X113434285Y-43006428D01*
X113434285Y-42835000D01*
X113386666Y-42749285D01*
X113291428Y-42706428D01*
X113196190Y-42706428D01*
X113100952Y-43135000D01*
X113148571Y-42320714D02*
X113148571Y-41635000D01*
X112815238Y-41249285D02*
X112767619Y-41120714D01*
X112767619Y-40906428D01*
X112815238Y-40820714D01*
X112862857Y-40777857D01*
X112958095Y-40735000D01*
X113053333Y-40735000D01*
X113148571Y-40777857D01*
X113196190Y-40820714D01*
X113243809Y-40906428D01*
X113291428Y-41077857D01*
X113339047Y-41163571D01*
X113386666Y-41206428D01*
X113481904Y-41249285D01*
X113577142Y-41249285D01*
X113672380Y-41206428D01*
X113720000Y-41163571D01*
X113767619Y-41077857D01*
X113767619Y-40863571D01*
X113720000Y-40735000D01*
X113434285Y-40477857D02*
X113434285Y-40135000D01*
X113767619Y-40349285D02*
X112910476Y-40349285D01*
X112815238Y-40306428D01*
X112767619Y-40220714D01*
X112767619Y-40135000D01*
X112815238Y-39492142D02*
X112767619Y-39577857D01*
X112767619Y-39749285D01*
X112815238Y-39835000D01*
X112910476Y-39877857D01*
X113291428Y-39877857D01*
X113386666Y-39835000D01*
X113434285Y-39749285D01*
X113434285Y-39577857D01*
X113386666Y-39492142D01*
X113291428Y-39449285D01*
X113196190Y-39449285D01*
X113100952Y-39877857D01*
X112815238Y-38720714D02*
X112767619Y-38806428D01*
X112767619Y-38977857D01*
X112815238Y-39063571D01*
X112910476Y-39106428D01*
X113291428Y-39106428D01*
X113386666Y-39063571D01*
X113434285Y-38977857D01*
X113434285Y-38806428D01*
X113386666Y-38720714D01*
X113291428Y-38677857D01*
X113196190Y-38677857D01*
X113100952Y-39106428D01*
X112767619Y-38292142D02*
X113434285Y-38292142D01*
X113243809Y-38292142D02*
X113339047Y-38249285D01*
X113386666Y-38206428D01*
X113434285Y-38120714D01*
X113434285Y-38035000D01*
X112815238Y-37392142D02*
X112767619Y-37477857D01*
X112767619Y-37649285D01*
X112815238Y-37735000D01*
X112910476Y-37777857D01*
X113291428Y-37777857D01*
X113386666Y-37735000D01*
X113434285Y-37649285D01*
X113434285Y-37477857D01*
X113386666Y-37392142D01*
X113291428Y-37349285D01*
X113196190Y-37349285D01*
X113100952Y-37777857D01*
X111117619Y-49906428D02*
X111641428Y-49906428D01*
X111736666Y-49949285D01*
X111784285Y-50035000D01*
X111784285Y-50206428D01*
X111736666Y-50292142D01*
X111165238Y-49906428D02*
X111117619Y-49992142D01*
X111117619Y-50206428D01*
X111165238Y-50292142D01*
X111260476Y-50335000D01*
X111355714Y-50335000D01*
X111450952Y-50292142D01*
X111498571Y-50206428D01*
X111498571Y-49992142D01*
X111546190Y-49906428D01*
X111784285Y-49477857D02*
X111117619Y-49477857D01*
X111689047Y-49477857D02*
X111736666Y-49435000D01*
X111784285Y-49349285D01*
X111784285Y-49220714D01*
X111736666Y-49135000D01*
X111641428Y-49092142D01*
X111117619Y-49092142D01*
X111117619Y-48277857D02*
X112117619Y-48277857D01*
X111165238Y-48277857D02*
X111117619Y-48363571D01*
X111117619Y-48535000D01*
X111165238Y-48620714D01*
X111212857Y-48663571D01*
X111308095Y-48706428D01*
X111593809Y-48706428D01*
X111689047Y-48663571D01*
X111736666Y-48620714D01*
X111784285Y-48535000D01*
X111784285Y-48363571D01*
X111736666Y-48277857D01*
X111784285Y-47163571D02*
X110784285Y-47163571D01*
X111736666Y-47163571D02*
X111784285Y-47077857D01*
X111784285Y-46906428D01*
X111736666Y-46820714D01*
X111689047Y-46777857D01*
X111593809Y-46735000D01*
X111308095Y-46735000D01*
X111212857Y-46777857D01*
X111165238Y-46820714D01*
X111117619Y-46906428D01*
X111117619Y-47077857D01*
X111165238Y-47163571D01*
X111117619Y-46220714D02*
X111165238Y-46306428D01*
X111260476Y-46349285D01*
X112117619Y-46349285D01*
X111117619Y-45492142D02*
X111641428Y-45492142D01*
X111736666Y-45535000D01*
X111784285Y-45620714D01*
X111784285Y-45792142D01*
X111736666Y-45877857D01*
X111165238Y-45492142D02*
X111117619Y-45577857D01*
X111117619Y-45792142D01*
X111165238Y-45877857D01*
X111260476Y-45920714D01*
X111355714Y-45920714D01*
X111450952Y-45877857D01*
X111498571Y-45792142D01*
X111498571Y-45577857D01*
X111546190Y-45492142D01*
X111165238Y-44677857D02*
X111117619Y-44763571D01*
X111117619Y-44935000D01*
X111165238Y-45020714D01*
X111212857Y-45063571D01*
X111308095Y-45106428D01*
X111593809Y-45106428D01*
X111689047Y-45063571D01*
X111736666Y-45020714D01*
X111784285Y-44935000D01*
X111784285Y-44763571D01*
X111736666Y-44677857D01*
X111165238Y-43949285D02*
X111117619Y-44035000D01*
X111117619Y-44206428D01*
X111165238Y-44292142D01*
X111260476Y-44335000D01*
X111641428Y-44335000D01*
X111736666Y-44292142D01*
X111784285Y-44206428D01*
X111784285Y-44035000D01*
X111736666Y-43949285D01*
X111641428Y-43906428D01*
X111546190Y-43906428D01*
X111450952Y-44335000D01*
X111117619Y-43135000D02*
X112117619Y-43135000D01*
X111165238Y-43135000D02*
X111117619Y-43220714D01*
X111117619Y-43392142D01*
X111165238Y-43477857D01*
X111212857Y-43520714D01*
X111308095Y-43563571D01*
X111593809Y-43563571D01*
X111689047Y-43520714D01*
X111736666Y-43477857D01*
X111784285Y-43392142D01*
X111784285Y-43220714D01*
X111736666Y-43135000D01*
X111117619Y-42020714D02*
X111784285Y-42020714D01*
X112117619Y-42020714D02*
X112070000Y-42063571D01*
X112022380Y-42020714D01*
X112070000Y-41977857D01*
X112117619Y-42020714D01*
X112022380Y-42020714D01*
X111784285Y-41592142D02*
X111117619Y-41592142D01*
X111689047Y-41592142D02*
X111736666Y-41549285D01*
X111784285Y-41463571D01*
X111784285Y-41335000D01*
X111736666Y-41249285D01*
X111641428Y-41206428D01*
X111117619Y-41206428D01*
X111784285Y-40906428D02*
X111784285Y-40563571D01*
X112117619Y-40777857D02*
X111260476Y-40777857D01*
X111165238Y-40735000D01*
X111117619Y-40649285D01*
X111117619Y-40563571D01*
X111117619Y-40135000D02*
X111165238Y-40220714D01*
X111212857Y-40263571D01*
X111308095Y-40306428D01*
X111593809Y-40306428D01*
X111689047Y-40263571D01*
X111736666Y-40220714D01*
X111784285Y-40135000D01*
X111784285Y-40006428D01*
X111736666Y-39920714D01*
X111689047Y-39877857D01*
X111593809Y-39835000D01*
X111308095Y-39835000D01*
X111212857Y-39877857D01*
X111165238Y-39920714D01*
X111117619Y-40006428D01*
X111117619Y-40135000D01*
X110134285Y-51235000D02*
X110134285Y-50892142D01*
X110467619Y-51106428D02*
X109610476Y-51106428D01*
X109515238Y-51063571D01*
X109467619Y-50977857D01*
X109467619Y-50892142D01*
X109467619Y-50592142D02*
X110467619Y-50592142D01*
X109467619Y-50206428D02*
X109991428Y-50206428D01*
X110086666Y-50249285D01*
X110134285Y-50335000D01*
X110134285Y-50463571D01*
X110086666Y-50549285D01*
X110039047Y-50592142D01*
X109515238Y-49435000D02*
X109467619Y-49520714D01*
X109467619Y-49692142D01*
X109515238Y-49777857D01*
X109610476Y-49820714D01*
X109991428Y-49820714D01*
X110086666Y-49777857D01*
X110134285Y-49692142D01*
X110134285Y-49520714D01*
X110086666Y-49435000D01*
X109991428Y-49392142D01*
X109896190Y-49392142D01*
X109800952Y-49820714D01*
X110134285Y-48320714D02*
X109134285Y-48320714D01*
X110086666Y-48320714D02*
X110134285Y-48235000D01*
X110134285Y-48063571D01*
X110086666Y-47977857D01*
X110039047Y-47935000D01*
X109943809Y-47892142D01*
X109658095Y-47892142D01*
X109562857Y-47935000D01*
X109515238Y-47977857D01*
X109467619Y-48063571D01*
X109467619Y-48235000D01*
X109515238Y-48320714D01*
X110134285Y-47120714D02*
X109467619Y-47120714D01*
X110134285Y-47506428D02*
X109610476Y-47506428D01*
X109515238Y-47463571D01*
X109467619Y-47377857D01*
X109467619Y-47249285D01*
X109515238Y-47163571D01*
X109562857Y-47120714D01*
X109467619Y-46692142D02*
X110467619Y-46692142D01*
X110086666Y-46692142D02*
X110134285Y-46606428D01*
X110134285Y-46435000D01*
X110086666Y-46349285D01*
X110039047Y-46306428D01*
X109943809Y-46263571D01*
X109658095Y-46263571D01*
X109562857Y-46306428D01*
X109515238Y-46349285D01*
X109467619Y-46435000D01*
X109467619Y-46606428D01*
X109515238Y-46692142D01*
X109467619Y-45749285D02*
X109515238Y-45835000D01*
X109610476Y-45877857D01*
X110467619Y-45877857D01*
X109467619Y-45406428D02*
X110134285Y-45406428D01*
X110467619Y-45406428D02*
X110420000Y-45449285D01*
X110372380Y-45406428D01*
X110420000Y-45363571D01*
X110467619Y-45406428D01*
X110372380Y-45406428D01*
X109515238Y-44592142D02*
X109467619Y-44677857D01*
X109467619Y-44849285D01*
X109515238Y-44935000D01*
X109562857Y-44977857D01*
X109658095Y-45020714D01*
X109943809Y-45020714D01*
X110039047Y-44977857D01*
X110086666Y-44935000D01*
X110134285Y-44849285D01*
X110134285Y-44677857D01*
X110086666Y-44592142D01*
X109467619Y-43135000D02*
X110467619Y-43135000D01*
X109515238Y-43135000D02*
X109467619Y-43220714D01*
X109467619Y-43392142D01*
X109515238Y-43477857D01*
X109562857Y-43520714D01*
X109658095Y-43563571D01*
X109943809Y-43563571D01*
X110039047Y-43520714D01*
X110086666Y-43477857D01*
X110134285Y-43392142D01*
X110134285Y-43220714D01*
X110086666Y-43135000D01*
X109467619Y-42577857D02*
X109515238Y-42663571D01*
X109562857Y-42706428D01*
X109658095Y-42749285D01*
X109943809Y-42749285D01*
X110039047Y-42706428D01*
X110086666Y-42663571D01*
X110134285Y-42577857D01*
X110134285Y-42449285D01*
X110086666Y-42363571D01*
X110039047Y-42320714D01*
X109943809Y-42277857D01*
X109658095Y-42277857D01*
X109562857Y-42320714D01*
X109515238Y-42363571D01*
X109467619Y-42449285D01*
X109467619Y-42577857D01*
X109467619Y-41892142D02*
X110134285Y-41892142D01*
X110039047Y-41892142D02*
X110086666Y-41849285D01*
X110134285Y-41763571D01*
X110134285Y-41635000D01*
X110086666Y-41549285D01*
X109991428Y-41506428D01*
X109467619Y-41506428D01*
X109991428Y-41506428D02*
X110086666Y-41463571D01*
X110134285Y-41377857D01*
X110134285Y-41249285D01*
X110086666Y-41163571D01*
X109991428Y-41120714D01*
X109467619Y-41120714D01*
X109467619Y-40306428D02*
X109991428Y-40306428D01*
X110086666Y-40349285D01*
X110134285Y-40435000D01*
X110134285Y-40606428D01*
X110086666Y-40692142D01*
X109515238Y-40306428D02*
X109467619Y-40392142D01*
X109467619Y-40606428D01*
X109515238Y-40692142D01*
X109610476Y-40735000D01*
X109705714Y-40735000D01*
X109800952Y-40692142D01*
X109848571Y-40606428D01*
X109848571Y-40392142D01*
X109896190Y-40306428D01*
X109467619Y-39877857D02*
X110134285Y-39877857D01*
X110467619Y-39877857D02*
X110420000Y-39920714D01*
X110372380Y-39877857D01*
X110420000Y-39835000D01*
X110467619Y-39877857D01*
X110372380Y-39877857D01*
X110134285Y-39449285D02*
X109467619Y-39449285D01*
X110039047Y-39449285D02*
X110086666Y-39406428D01*
X110134285Y-39320714D01*
X110134285Y-39192142D01*
X110086666Y-39106428D01*
X109991428Y-39063571D01*
X109467619Y-39063571D01*
X117847619Y-85041428D02*
X118847619Y-85041428D01*
X117847619Y-84612857D02*
X118371428Y-84612857D01*
X118466666Y-84660476D01*
X118514285Y-84755714D01*
X118514285Y-84898571D01*
X118466666Y-84993809D01*
X118419047Y-85041428D01*
X118514285Y-84279523D02*
X118514285Y-83898571D01*
X118847619Y-84136666D02*
X117990476Y-84136666D01*
X117895238Y-84089047D01*
X117847619Y-83993809D01*
X117847619Y-83898571D01*
X118514285Y-83708095D02*
X118514285Y-83327142D01*
X118847619Y-83565238D02*
X117990476Y-83565238D01*
X117895238Y-83517619D01*
X117847619Y-83422380D01*
X117847619Y-83327142D01*
X118514285Y-82993809D02*
X117514285Y-82993809D01*
X118466666Y-82993809D02*
X118514285Y-82898571D01*
X118514285Y-82708095D01*
X118466666Y-82612857D01*
X118419047Y-82565238D01*
X118323809Y-82517619D01*
X118038095Y-82517619D01*
X117942857Y-82565238D01*
X117895238Y-82612857D01*
X117847619Y-82708095D01*
X117847619Y-82898571D01*
X117895238Y-82993809D01*
X117895238Y-82136666D02*
X117847619Y-82041428D01*
X117847619Y-81850952D01*
X117895238Y-81755714D01*
X117990476Y-81708095D01*
X118038095Y-81708095D01*
X118133333Y-81755714D01*
X118180952Y-81850952D01*
X118180952Y-81993809D01*
X118228571Y-82089047D01*
X118323809Y-82136666D01*
X118371428Y-82136666D01*
X118466666Y-82089047D01*
X118514285Y-81993809D01*
X118514285Y-81850952D01*
X118466666Y-81755714D01*
X117942857Y-81279523D02*
X117895238Y-81231904D01*
X117847619Y-81279523D01*
X117895238Y-81327142D01*
X117942857Y-81279523D01*
X117847619Y-81279523D01*
X118466666Y-81279523D02*
X118419047Y-81231904D01*
X118371428Y-81279523D01*
X118419047Y-81327142D01*
X118466666Y-81279523D01*
X118371428Y-81279523D01*
X118895238Y-80089047D02*
X117609523Y-80946190D01*
X118895238Y-79041428D02*
X117609523Y-79898571D01*
X118514285Y-78279523D02*
X117704761Y-78279523D01*
X117609523Y-78327142D01*
X117561904Y-78374761D01*
X117514285Y-78470000D01*
X117514285Y-78612857D01*
X117561904Y-78708095D01*
X117895238Y-78279523D02*
X117847619Y-78374761D01*
X117847619Y-78565238D01*
X117895238Y-78660476D01*
X117942857Y-78708095D01*
X118038095Y-78755714D01*
X118323809Y-78755714D01*
X118419047Y-78708095D01*
X118466666Y-78660476D01*
X118514285Y-78565238D01*
X118514285Y-78374761D01*
X118466666Y-78279523D01*
X117847619Y-77803333D02*
X118514285Y-77803333D01*
X118847619Y-77803333D02*
X118800000Y-77850952D01*
X118752380Y-77803333D01*
X118800000Y-77755714D01*
X118847619Y-77803333D01*
X118752380Y-77803333D01*
X118514285Y-77470000D02*
X118514285Y-77089047D01*
X118847619Y-77327142D02*
X117990476Y-77327142D01*
X117895238Y-77279523D01*
X117847619Y-77184285D01*
X117847619Y-77089047D01*
X117847619Y-76755714D02*
X118847619Y-76755714D01*
X117847619Y-76327142D02*
X118371428Y-76327142D01*
X118466666Y-76374761D01*
X118514285Y-76470000D01*
X118514285Y-76612857D01*
X118466666Y-76708095D01*
X118419047Y-76755714D01*
X118514285Y-75422380D02*
X117847619Y-75422380D01*
X118514285Y-75850952D02*
X117990476Y-75850952D01*
X117895238Y-75803333D01*
X117847619Y-75708095D01*
X117847619Y-75565238D01*
X117895238Y-75470000D01*
X117942857Y-75422380D01*
X117847619Y-74946190D02*
X118847619Y-74946190D01*
X118466666Y-74946190D02*
X118514285Y-74850952D01*
X118514285Y-74660476D01*
X118466666Y-74565238D01*
X118419047Y-74517619D01*
X118323809Y-74470000D01*
X118038095Y-74470000D01*
X117942857Y-74517619D01*
X117895238Y-74565238D01*
X117847619Y-74660476D01*
X117847619Y-74850952D01*
X117895238Y-74946190D01*
X117942857Y-74041428D02*
X117895238Y-73993809D01*
X117847619Y-74041428D01*
X117895238Y-74089047D01*
X117942857Y-74041428D01*
X117847619Y-74041428D01*
X117895238Y-73136666D02*
X117847619Y-73231904D01*
X117847619Y-73422380D01*
X117895238Y-73517619D01*
X117942857Y-73565238D01*
X118038095Y-73612857D01*
X118323809Y-73612857D01*
X118419047Y-73565238D01*
X118466666Y-73517619D01*
X118514285Y-73422380D01*
X118514285Y-73231904D01*
X118466666Y-73136666D01*
X117847619Y-72565238D02*
X117895238Y-72660476D01*
X117942857Y-72708095D01*
X118038095Y-72755714D01*
X118323809Y-72755714D01*
X118419047Y-72708095D01*
X118466666Y-72660476D01*
X118514285Y-72565238D01*
X118514285Y-72422380D01*
X118466666Y-72327142D01*
X118419047Y-72279523D01*
X118323809Y-72231904D01*
X118038095Y-72231904D01*
X117942857Y-72279523D01*
X117895238Y-72327142D01*
X117847619Y-72422380D01*
X117847619Y-72565238D01*
X117847619Y-71803333D02*
X118514285Y-71803333D01*
X118419047Y-71803333D02*
X118466666Y-71755714D01*
X118514285Y-71660476D01*
X118514285Y-71517619D01*
X118466666Y-71422380D01*
X118371428Y-71374761D01*
X117847619Y-71374761D01*
X118371428Y-71374761D02*
X118466666Y-71327142D01*
X118514285Y-71231904D01*
X118514285Y-71089047D01*
X118466666Y-70993809D01*
X118371428Y-70946190D01*
X117847619Y-70946190D01*
X118895238Y-69755714D02*
X117609523Y-70612857D01*
X117197619Y-87922380D02*
X116483333Y-87922380D01*
X116340476Y-87970000D01*
X116245238Y-88065238D01*
X116197619Y-88208095D01*
X116197619Y-88303333D01*
X116197619Y-87017619D02*
X116721428Y-87017619D01*
X116816666Y-87065238D01*
X116864285Y-87160476D01*
X116864285Y-87350952D01*
X116816666Y-87446190D01*
X116245238Y-87017619D02*
X116197619Y-87112857D01*
X116197619Y-87350952D01*
X116245238Y-87446190D01*
X116340476Y-87493809D01*
X116435714Y-87493809D01*
X116530952Y-87446190D01*
X116578571Y-87350952D01*
X116578571Y-87112857D01*
X116626190Y-87017619D01*
X116864285Y-86636666D02*
X116197619Y-86398571D01*
X116864285Y-86160476D02*
X116197619Y-86398571D01*
X115959523Y-86493809D01*
X115911904Y-86541428D01*
X115864285Y-86636666D01*
X116245238Y-85398571D02*
X116197619Y-85493809D01*
X116197619Y-85684285D01*
X116245238Y-85779523D01*
X116340476Y-85827142D01*
X116721428Y-85827142D01*
X116816666Y-85779523D01*
X116864285Y-85684285D01*
X116864285Y-85493809D01*
X116816666Y-85398571D01*
X116721428Y-85350952D01*
X116626190Y-85350952D01*
X116530952Y-85827142D01*
X116245238Y-84970000D02*
X116197619Y-84874761D01*
X116197619Y-84684285D01*
X116245238Y-84589047D01*
X116340476Y-84541428D01*
X116388095Y-84541428D01*
X116483333Y-84589047D01*
X116530952Y-84684285D01*
X116530952Y-84827142D01*
X116578571Y-84922380D01*
X116673809Y-84970000D01*
X116721428Y-84970000D01*
X116816666Y-84922380D01*
X116864285Y-84827142D01*
X116864285Y-84684285D01*
X116816666Y-84589047D01*
X116197619Y-83970000D02*
X116245238Y-84065238D01*
X116292857Y-84112857D01*
X116388095Y-84160476D01*
X116673809Y-84160476D01*
X116769047Y-84112857D01*
X116816666Y-84065238D01*
X116864285Y-83970000D01*
X116864285Y-83827142D01*
X116816666Y-83731904D01*
X116769047Y-83684285D01*
X116673809Y-83636666D01*
X116388095Y-83636666D01*
X116292857Y-83684285D01*
X116245238Y-83731904D01*
X116197619Y-83827142D01*
X116197619Y-83970000D01*
X116864285Y-83208095D02*
X116197619Y-83208095D01*
X116769047Y-83208095D02*
X116816666Y-83160476D01*
X116864285Y-83065238D01*
X116864285Y-82922380D01*
X116816666Y-82827142D01*
X116721428Y-82779523D01*
X116197619Y-82779523D01*
X116197619Y-81827142D02*
X116197619Y-82303333D01*
X117197619Y-82303333D01*
X116245238Y-81541428D02*
X116197619Y-81398571D01*
X116197619Y-81160476D01*
X116245238Y-81065238D01*
X116292857Y-81017619D01*
X116388095Y-80970000D01*
X116483333Y-80970000D01*
X116578571Y-81017619D01*
X116626190Y-81065238D01*
X116673809Y-81160476D01*
X116721428Y-81350952D01*
X116769047Y-81446190D01*
X116816666Y-81493809D01*
X116911904Y-81541428D01*
X117007142Y-81541428D01*
X117102380Y-81493809D01*
X117150000Y-81446190D01*
X117197619Y-81350952D01*
X117197619Y-81112857D01*
X117150000Y-80970000D01*
X117245238Y-79827142D02*
X115959523Y-80684285D01*
X116245238Y-79541428D02*
X116197619Y-79398571D01*
X116197619Y-79160476D01*
X116245238Y-79065238D01*
X116292857Y-79017619D01*
X116388095Y-78970000D01*
X116483333Y-78970000D01*
X116578571Y-79017619D01*
X116626190Y-79065238D01*
X116673809Y-79160476D01*
X116721428Y-79350952D01*
X116769047Y-79446190D01*
X116816666Y-79493809D01*
X116911904Y-79541428D01*
X117007142Y-79541428D01*
X117102380Y-79493809D01*
X117150000Y-79446190D01*
X117197619Y-79350952D01*
X117197619Y-79112857D01*
X117150000Y-78970000D01*
X116197619Y-78541428D02*
X116864285Y-78541428D01*
X116769047Y-78541428D02*
X116816666Y-78493809D01*
X116864285Y-78398571D01*
X116864285Y-78255714D01*
X116816666Y-78160476D01*
X116721428Y-78112857D01*
X116197619Y-78112857D01*
X116721428Y-78112857D02*
X116816666Y-78065238D01*
X116864285Y-77970000D01*
X116864285Y-77827142D01*
X116816666Y-77731904D01*
X116721428Y-77684285D01*
X116197619Y-77684285D01*
X116197619Y-76779523D02*
X116721428Y-76779523D01*
X116816666Y-76827142D01*
X116864285Y-76922380D01*
X116864285Y-77112857D01*
X116816666Y-77208095D01*
X116245238Y-76779523D02*
X116197619Y-76874761D01*
X116197619Y-77112857D01*
X116245238Y-77208095D01*
X116340476Y-77255714D01*
X116435714Y-77255714D01*
X116530952Y-77208095D01*
X116578571Y-77112857D01*
X116578571Y-76874761D01*
X116626190Y-76779523D01*
X116197619Y-76303333D02*
X116864285Y-76303333D01*
X116673809Y-76303333D02*
X116769047Y-76255714D01*
X116816666Y-76208095D01*
X116864285Y-76112857D01*
X116864285Y-76017619D01*
X116864285Y-75827142D02*
X116864285Y-75446190D01*
X117197619Y-75684285D02*
X116340476Y-75684285D01*
X116245238Y-75636666D01*
X116197619Y-75541428D01*
X116197619Y-75446190D01*
X117197619Y-75208095D02*
X116197619Y-74970000D01*
X116911904Y-74779523D01*
X116197619Y-74589047D01*
X117197619Y-74350952D01*
X116197619Y-73541428D02*
X116721428Y-73541428D01*
X116816666Y-73589047D01*
X116864285Y-73684285D01*
X116864285Y-73874761D01*
X116816666Y-73970000D01*
X116245238Y-73541428D02*
X116197619Y-73636666D01*
X116197619Y-73874761D01*
X116245238Y-73970000D01*
X116340476Y-74017619D01*
X116435714Y-74017619D01*
X116530952Y-73970000D01*
X116578571Y-73874761D01*
X116578571Y-73636666D01*
X116626190Y-73541428D01*
X116864285Y-73208095D02*
X116864285Y-72827142D01*
X117197619Y-73065238D02*
X116340476Y-73065238D01*
X116245238Y-73017619D01*
X116197619Y-72922380D01*
X116197619Y-72827142D01*
X116245238Y-72065238D02*
X116197619Y-72160476D01*
X116197619Y-72350952D01*
X116245238Y-72446190D01*
X116292857Y-72493809D01*
X116388095Y-72541428D01*
X116673809Y-72541428D01*
X116769047Y-72493809D01*
X116816666Y-72446190D01*
X116864285Y-72350952D01*
X116864285Y-72160476D01*
X116816666Y-72065238D01*
X116197619Y-71636666D02*
X117197619Y-71636666D01*
X116197619Y-71208095D02*
X116721428Y-71208095D01*
X116816666Y-71255714D01*
X116864285Y-71350952D01*
X116864285Y-71493809D01*
X116816666Y-71589047D01*
X116769047Y-71636666D01*
X116197619Y-70160476D02*
X116673809Y-70493809D01*
X116197619Y-70731904D02*
X117197619Y-70731904D01*
X117197619Y-70350952D01*
X117150000Y-70255714D01*
X117102380Y-70208095D01*
X117007142Y-70160476D01*
X116864285Y-70160476D01*
X116769047Y-70208095D01*
X116721428Y-70255714D01*
X116673809Y-70350952D01*
X116673809Y-70731904D01*
X116245238Y-69350952D02*
X116197619Y-69446190D01*
X116197619Y-69636666D01*
X116245238Y-69731904D01*
X116340476Y-69779523D01*
X116721428Y-69779523D01*
X116816666Y-69731904D01*
X116864285Y-69636666D01*
X116864285Y-69446190D01*
X116816666Y-69350952D01*
X116721428Y-69303333D01*
X116626190Y-69303333D01*
X116530952Y-69779523D01*
X116197619Y-68446190D02*
X117197619Y-68446190D01*
X116245238Y-68446190D02*
X116197619Y-68541428D01*
X116197619Y-68731904D01*
X116245238Y-68827142D01*
X116292857Y-68874761D01*
X116388095Y-68922380D01*
X116673809Y-68922380D01*
X116769047Y-68874761D01*
X116816666Y-68827142D01*
X116864285Y-68731904D01*
X116864285Y-68541428D01*
X116816666Y-68446190D01*
X116864285Y-67541428D02*
X116197619Y-67541428D01*
X116864285Y-67970000D02*
X116340476Y-67970000D01*
X116245238Y-67922380D01*
X116197619Y-67827142D01*
X116197619Y-67684285D01*
X116245238Y-67589047D01*
X116292857Y-67541428D01*
X116197619Y-67160476D02*
X116864285Y-66636666D01*
X116864285Y-67160476D02*
X116197619Y-66636666D01*
X122737619Y-87992976D02*
X123213809Y-88326309D01*
X122737619Y-88564404D02*
X123737619Y-88564404D01*
X123737619Y-88183452D01*
X123690000Y-88088214D01*
X123642380Y-88040595D01*
X123547142Y-87992976D01*
X123404285Y-87992976D01*
X123309047Y-88040595D01*
X123261428Y-88088214D01*
X123213809Y-88183452D01*
X123213809Y-88564404D01*
X123261428Y-87564404D02*
X123261428Y-87231071D01*
X122737619Y-87088214D02*
X122737619Y-87564404D01*
X123737619Y-87564404D01*
X123737619Y-87088214D01*
X123737619Y-86802500D02*
X122737619Y-86469166D01*
X123737619Y-86135833D01*
X122737619Y-84516785D02*
X122737619Y-85088214D01*
X122737619Y-84802500D02*
X123737619Y-84802500D01*
X123594761Y-84897738D01*
X123499523Y-84992976D01*
X123451904Y-85088214D01*
X122832857Y-84088214D02*
X122785238Y-84040595D01*
X122737619Y-84088214D01*
X122785238Y-84135833D01*
X122832857Y-84088214D01*
X122737619Y-84088214D01*
X123737619Y-83421547D02*
X123737619Y-83326309D01*
X123690000Y-83231071D01*
X123642380Y-83183452D01*
X123547142Y-83135833D01*
X123356666Y-83088214D01*
X123118571Y-83088214D01*
X122928095Y-83135833D01*
X122832857Y-83183452D01*
X122785238Y-83231071D01*
X122737619Y-83326309D01*
X122737619Y-83421547D01*
X122785238Y-83516785D01*
X122832857Y-83564404D01*
X122928095Y-83612023D01*
X123118571Y-83659642D01*
X123356666Y-83659642D01*
X123547142Y-83612023D01*
X123642380Y-83564404D01*
X123690000Y-83516785D01*
X123737619Y-83421547D01*
X125497857Y-52370714D02*
X125450238Y-52413571D01*
X125402619Y-52542142D01*
X125402619Y-52627857D01*
X125450238Y-52756428D01*
X125545476Y-52842142D01*
X125640714Y-52885000D01*
X125831190Y-52927857D01*
X125974047Y-52927857D01*
X126164523Y-52885000D01*
X126259761Y-52842142D01*
X126355000Y-52756428D01*
X126402619Y-52627857D01*
X126402619Y-52542142D01*
X126355000Y-52413571D01*
X126307380Y-52370714D01*
X125402619Y-51985000D02*
X126069285Y-51985000D01*
X126402619Y-51985000D02*
X126355000Y-52027857D01*
X126307380Y-51985000D01*
X126355000Y-51942142D01*
X126402619Y-51985000D01*
X126307380Y-51985000D01*
X125402619Y-51556428D02*
X126069285Y-51556428D01*
X125878809Y-51556428D02*
X125974047Y-51513571D01*
X126021666Y-51470714D01*
X126069285Y-51385000D01*
X126069285Y-51299285D01*
X125450238Y-50613571D02*
X125402619Y-50699285D01*
X125402619Y-50870714D01*
X125450238Y-50956428D01*
X125497857Y-50999285D01*
X125593095Y-51042142D01*
X125878809Y-51042142D01*
X125974047Y-50999285D01*
X126021666Y-50956428D01*
X126069285Y-50870714D01*
X126069285Y-50699285D01*
X126021666Y-50613571D01*
X126069285Y-49842142D02*
X125402619Y-49842142D01*
X126069285Y-50227857D02*
X125545476Y-50227857D01*
X125450238Y-50185000D01*
X125402619Y-50099285D01*
X125402619Y-49970714D01*
X125450238Y-49885000D01*
X125497857Y-49842142D01*
X125402619Y-49413571D02*
X126069285Y-49413571D01*
X126402619Y-49413571D02*
X126355000Y-49456428D01*
X126307380Y-49413571D01*
X126355000Y-49370714D01*
X126402619Y-49413571D01*
X126307380Y-49413571D01*
X126069285Y-49113571D02*
X126069285Y-48770714D01*
X126402619Y-48985000D02*
X125545476Y-48985000D01*
X125450238Y-48942142D01*
X125402619Y-48856428D01*
X125402619Y-48770714D01*
X125402619Y-47785000D02*
X126069285Y-47785000D01*
X126402619Y-47785000D02*
X126355000Y-47827857D01*
X126307380Y-47785000D01*
X126355000Y-47742142D01*
X126402619Y-47785000D01*
X126307380Y-47785000D01*
X125450238Y-47399285D02*
X125402619Y-47313571D01*
X125402619Y-47142142D01*
X125450238Y-47056428D01*
X125545476Y-47013571D01*
X125593095Y-47013571D01*
X125688333Y-47056428D01*
X125735952Y-47142142D01*
X125735952Y-47270714D01*
X125783571Y-47356428D01*
X125878809Y-47399285D01*
X125926428Y-47399285D01*
X126021666Y-47356428D01*
X126069285Y-47270714D01*
X126069285Y-47142142D01*
X126021666Y-47056428D01*
X126069285Y-46070714D02*
X126069285Y-45727857D01*
X126402619Y-45942142D02*
X125545476Y-45942142D01*
X125450238Y-45899285D01*
X125402619Y-45813571D01*
X125402619Y-45727857D01*
X125402619Y-45427857D02*
X126402619Y-45427857D01*
X125402619Y-45042142D02*
X125926428Y-45042142D01*
X126021666Y-45085000D01*
X126069285Y-45170714D01*
X126069285Y-45299285D01*
X126021666Y-45385000D01*
X125974047Y-45427857D01*
X125450238Y-44270714D02*
X125402619Y-44356428D01*
X125402619Y-44527857D01*
X125450238Y-44613571D01*
X125545476Y-44656428D01*
X125926428Y-44656428D01*
X126021666Y-44613571D01*
X126069285Y-44527857D01*
X126069285Y-44356428D01*
X126021666Y-44270714D01*
X125926428Y-44227857D01*
X125831190Y-44227857D01*
X125735952Y-44656428D01*
X125402619Y-43156428D02*
X126069285Y-43156428D01*
X125878809Y-43156428D02*
X125974047Y-43113571D01*
X126021666Y-43070714D01*
X126069285Y-42985000D01*
X126069285Y-42899285D01*
X125450238Y-42256428D02*
X125402619Y-42342142D01*
X125402619Y-42513571D01*
X125450238Y-42599285D01*
X125545476Y-42642142D01*
X125926428Y-42642142D01*
X126021666Y-42599285D01*
X126069285Y-42513571D01*
X126069285Y-42342142D01*
X126021666Y-42256428D01*
X125926428Y-42213571D01*
X125831190Y-42213571D01*
X125735952Y-42642142D01*
X126069285Y-41956428D02*
X126069285Y-41613571D01*
X125402619Y-41827857D02*
X126259761Y-41827857D01*
X126355000Y-41785000D01*
X126402619Y-41699285D01*
X126402619Y-41613571D01*
X125450238Y-40970714D02*
X125402619Y-41056428D01*
X125402619Y-41227857D01*
X125450238Y-41313571D01*
X125545476Y-41356428D01*
X125926428Y-41356428D01*
X126021666Y-41313571D01*
X126069285Y-41227857D01*
X126069285Y-41056428D01*
X126021666Y-40970714D01*
X125926428Y-40927857D01*
X125831190Y-40927857D01*
X125735952Y-41356428D01*
X125402619Y-40542142D02*
X126069285Y-40542142D01*
X125878809Y-40542142D02*
X125974047Y-40499285D01*
X126021666Y-40456428D01*
X126069285Y-40370714D01*
X126069285Y-40285000D01*
X125450238Y-39642142D02*
X125402619Y-39727857D01*
X125402619Y-39899285D01*
X125450238Y-39985000D01*
X125545476Y-40027857D01*
X125926428Y-40027857D01*
X126021666Y-39985000D01*
X126069285Y-39899285D01*
X126069285Y-39727857D01*
X126021666Y-39642142D01*
X125926428Y-39599285D01*
X125831190Y-39599285D01*
X125735952Y-40027857D01*
X126069285Y-39213571D02*
X125402619Y-39213571D01*
X125974047Y-39213571D02*
X126021666Y-39170714D01*
X126069285Y-39085000D01*
X126069285Y-38956428D01*
X126021666Y-38870714D01*
X125926428Y-38827857D01*
X125402619Y-38827857D01*
X125450238Y-38013571D02*
X125402619Y-38099285D01*
X125402619Y-38270714D01*
X125450238Y-38356428D01*
X125497857Y-38399285D01*
X125593095Y-38442142D01*
X125878809Y-38442142D01*
X125974047Y-38399285D01*
X126021666Y-38356428D01*
X126069285Y-38270714D01*
X126069285Y-38099285D01*
X126021666Y-38013571D01*
X125450238Y-37285000D02*
X125402619Y-37370714D01*
X125402619Y-37542142D01*
X125450238Y-37627857D01*
X125545476Y-37670714D01*
X125926428Y-37670714D01*
X126021666Y-37627857D01*
X126069285Y-37542142D01*
X126069285Y-37370714D01*
X126021666Y-37285000D01*
X125926428Y-37242142D01*
X125831190Y-37242142D01*
X125735952Y-37670714D01*
X123752619Y-52885000D02*
X124752619Y-52885000D01*
X123800238Y-52885000D02*
X123752619Y-52970714D01*
X123752619Y-53142142D01*
X123800238Y-53227857D01*
X123847857Y-53270714D01*
X123943095Y-53313571D01*
X124228809Y-53313571D01*
X124324047Y-53270714D01*
X124371666Y-53227857D01*
X124419285Y-53142142D01*
X124419285Y-52970714D01*
X124371666Y-52885000D01*
X123800238Y-52113571D02*
X123752619Y-52199285D01*
X123752619Y-52370714D01*
X123800238Y-52456428D01*
X123895476Y-52499285D01*
X124276428Y-52499285D01*
X124371666Y-52456428D01*
X124419285Y-52370714D01*
X124419285Y-52199285D01*
X124371666Y-52113571D01*
X124276428Y-52070714D01*
X124181190Y-52070714D01*
X124085952Y-52499285D01*
X123800238Y-51727857D02*
X123752619Y-51642142D01*
X123752619Y-51470714D01*
X123800238Y-51385000D01*
X123895476Y-51342142D01*
X123943095Y-51342142D01*
X124038333Y-51385000D01*
X124085952Y-51470714D01*
X124085952Y-51599285D01*
X124133571Y-51685000D01*
X124228809Y-51727857D01*
X124276428Y-51727857D01*
X124371666Y-51685000D01*
X124419285Y-51599285D01*
X124419285Y-51470714D01*
X124371666Y-51385000D01*
X123752619Y-50956428D02*
X124419285Y-50956428D01*
X124752619Y-50956428D02*
X124705000Y-50999285D01*
X124657380Y-50956428D01*
X124705000Y-50913571D01*
X124752619Y-50956428D01*
X124657380Y-50956428D01*
X124419285Y-50142142D02*
X123609761Y-50142142D01*
X123514523Y-50185000D01*
X123466904Y-50227857D01*
X123419285Y-50313571D01*
X123419285Y-50442142D01*
X123466904Y-50527857D01*
X123800238Y-50142142D02*
X123752619Y-50227857D01*
X123752619Y-50399285D01*
X123800238Y-50485000D01*
X123847857Y-50527857D01*
X123943095Y-50570714D01*
X124228809Y-50570714D01*
X124324047Y-50527857D01*
X124371666Y-50485000D01*
X124419285Y-50399285D01*
X124419285Y-50227857D01*
X124371666Y-50142142D01*
X124419285Y-49713571D02*
X123752619Y-49713571D01*
X124324047Y-49713571D02*
X124371666Y-49670714D01*
X124419285Y-49585000D01*
X124419285Y-49456428D01*
X124371666Y-49370714D01*
X124276428Y-49327857D01*
X123752619Y-49327857D01*
X124419285Y-48342142D02*
X124419285Y-47999285D01*
X123752619Y-48213571D02*
X124609761Y-48213571D01*
X124705000Y-48170714D01*
X124752619Y-48085000D01*
X124752619Y-47999285D01*
X123752619Y-47699285D02*
X124419285Y-47699285D01*
X124228809Y-47699285D02*
X124324047Y-47656428D01*
X124371666Y-47613571D01*
X124419285Y-47527857D01*
X124419285Y-47442142D01*
X123752619Y-47013571D02*
X123800238Y-47099285D01*
X123847857Y-47142142D01*
X123943095Y-47185000D01*
X124228809Y-47185000D01*
X124324047Y-47142142D01*
X124371666Y-47099285D01*
X124419285Y-47013571D01*
X124419285Y-46885000D01*
X124371666Y-46799285D01*
X124324047Y-46756428D01*
X124228809Y-46713571D01*
X123943095Y-46713571D01*
X123847857Y-46756428D01*
X123800238Y-46799285D01*
X123752619Y-46885000D01*
X123752619Y-47013571D01*
X123752619Y-46327857D02*
X124419285Y-46327857D01*
X124324047Y-46327857D02*
X124371666Y-46285000D01*
X124419285Y-46199285D01*
X124419285Y-46070714D01*
X124371666Y-45985000D01*
X124276428Y-45942142D01*
X123752619Y-45942142D01*
X124276428Y-45942142D02*
X124371666Y-45899285D01*
X124419285Y-45813571D01*
X124419285Y-45685000D01*
X124371666Y-45599285D01*
X124276428Y-45556428D01*
X123752619Y-45556428D01*
X124419285Y-44570714D02*
X124419285Y-44227857D01*
X124752619Y-44442142D02*
X123895476Y-44442142D01*
X123800238Y-44399285D01*
X123752619Y-44313571D01*
X123752619Y-44227857D01*
X123752619Y-43927857D02*
X124752619Y-43927857D01*
X123752619Y-43542142D02*
X124276428Y-43542142D01*
X124371666Y-43585000D01*
X124419285Y-43670714D01*
X124419285Y-43799285D01*
X124371666Y-43885000D01*
X124324047Y-43927857D01*
X123800238Y-42770714D02*
X123752619Y-42856428D01*
X123752619Y-43027857D01*
X123800238Y-43113571D01*
X123895476Y-43156428D01*
X124276428Y-43156428D01*
X124371666Y-43113571D01*
X124419285Y-43027857D01*
X124419285Y-42856428D01*
X124371666Y-42770714D01*
X124276428Y-42727857D01*
X124181190Y-42727857D01*
X124085952Y-43156428D01*
X123752619Y-41656428D02*
X124752619Y-41656428D01*
X124752619Y-41442142D01*
X124705000Y-41313571D01*
X124609761Y-41227857D01*
X124514523Y-41185000D01*
X124324047Y-41142142D01*
X124181190Y-41142142D01*
X123990714Y-41185000D01*
X123895476Y-41227857D01*
X123800238Y-41313571D01*
X123752619Y-41442142D01*
X123752619Y-41656428D01*
X123800238Y-40799285D02*
X123752619Y-40670714D01*
X123752619Y-40456428D01*
X123800238Y-40370714D01*
X123847857Y-40327857D01*
X123943095Y-40285000D01*
X124038333Y-40285000D01*
X124133571Y-40327857D01*
X124181190Y-40370714D01*
X124228809Y-40456428D01*
X124276428Y-40627857D01*
X124324047Y-40713571D01*
X124371666Y-40756428D01*
X124466904Y-40799285D01*
X124562142Y-40799285D01*
X124657380Y-40756428D01*
X124705000Y-40713571D01*
X124752619Y-40627857D01*
X124752619Y-40413571D01*
X124705000Y-40285000D01*
X123752619Y-39427857D02*
X123752619Y-39942142D01*
X123752619Y-39685000D02*
X124752619Y-39685000D01*
X124609761Y-39770714D01*
X124514523Y-39856428D01*
X124466904Y-39942142D01*
X124752619Y-39127857D02*
X124752619Y-38570714D01*
X124371666Y-38870714D01*
X124371666Y-38742142D01*
X124324047Y-38656428D01*
X124276428Y-38613571D01*
X124181190Y-38570714D01*
X123943095Y-38570714D01*
X123847857Y-38613571D01*
X123800238Y-38656428D01*
X123752619Y-38742142D01*
X123752619Y-38999285D01*
X123800238Y-39085000D01*
X123847857Y-39127857D01*
X123752619Y-37713571D02*
X123752619Y-38227857D01*
X123752619Y-37970714D02*
X124752619Y-37970714D01*
X124609761Y-38056428D01*
X124514523Y-38142142D01*
X124466904Y-38227857D01*
X124752619Y-36899285D02*
X124752619Y-37327857D01*
X124276428Y-37370714D01*
X124324047Y-37327857D01*
X124371666Y-37242142D01*
X124371666Y-37027857D01*
X124324047Y-36942142D01*
X124276428Y-36899285D01*
X124181190Y-36856428D01*
X123943095Y-36856428D01*
X123847857Y-36899285D01*
X123800238Y-36942142D01*
X123752619Y-37027857D01*
X123752619Y-37242142D01*
X123800238Y-37327857D01*
X123847857Y-37370714D01*
X122102619Y-53013571D02*
X123102619Y-53013571D01*
X122150238Y-53013571D02*
X122102619Y-53099285D01*
X122102619Y-53270714D01*
X122150238Y-53356428D01*
X122197857Y-53399285D01*
X122293095Y-53442142D01*
X122578809Y-53442142D01*
X122674047Y-53399285D01*
X122721666Y-53356428D01*
X122769285Y-53270714D01*
X122769285Y-53099285D01*
X122721666Y-53013571D01*
X122102619Y-52199285D02*
X122626428Y-52199285D01*
X122721666Y-52242142D01*
X122769285Y-52327857D01*
X122769285Y-52499285D01*
X122721666Y-52585000D01*
X122150238Y-52199285D02*
X122102619Y-52285000D01*
X122102619Y-52499285D01*
X122150238Y-52585000D01*
X122245476Y-52627857D01*
X122340714Y-52627857D01*
X122435952Y-52585000D01*
X122483571Y-52499285D01*
X122483571Y-52285000D01*
X122531190Y-52199285D01*
X122769285Y-51899285D02*
X122769285Y-51556428D01*
X123102619Y-51770714D02*
X122245476Y-51770714D01*
X122150238Y-51727857D01*
X122102619Y-51642142D01*
X122102619Y-51556428D01*
X122102619Y-50870714D02*
X122626428Y-50870714D01*
X122721666Y-50913571D01*
X122769285Y-50999285D01*
X122769285Y-51170714D01*
X122721666Y-51256428D01*
X122150238Y-50870714D02*
X122102619Y-50956428D01*
X122102619Y-51170714D01*
X122150238Y-51256428D01*
X122245476Y-51299285D01*
X122340714Y-51299285D01*
X122435952Y-51256428D01*
X122483571Y-51170714D01*
X122483571Y-50956428D01*
X122531190Y-50870714D01*
X122150238Y-50485000D02*
X122102619Y-50399285D01*
X122102619Y-50227857D01*
X122150238Y-50142142D01*
X122245476Y-50099285D01*
X122293095Y-50099285D01*
X122388333Y-50142142D01*
X122435952Y-50227857D01*
X122435952Y-50356428D01*
X122483571Y-50442142D01*
X122578809Y-50485000D01*
X122626428Y-50485000D01*
X122721666Y-50442142D01*
X122769285Y-50356428D01*
X122769285Y-50227857D01*
X122721666Y-50142142D01*
X122102619Y-49713571D02*
X123102619Y-49713571D01*
X122102619Y-49327857D02*
X122626428Y-49327857D01*
X122721666Y-49370714D01*
X122769285Y-49456428D01*
X122769285Y-49585000D01*
X122721666Y-49670714D01*
X122674047Y-49713571D01*
X122150238Y-48556428D02*
X122102619Y-48642142D01*
X122102619Y-48813571D01*
X122150238Y-48899285D01*
X122245476Y-48942142D01*
X122626428Y-48942142D01*
X122721666Y-48899285D01*
X122769285Y-48813571D01*
X122769285Y-48642142D01*
X122721666Y-48556428D01*
X122626428Y-48513571D01*
X122531190Y-48513571D01*
X122435952Y-48942142D01*
X122150238Y-47785000D02*
X122102619Y-47870714D01*
X122102619Y-48042142D01*
X122150238Y-48127857D01*
X122245476Y-48170714D01*
X122626428Y-48170714D01*
X122721666Y-48127857D01*
X122769285Y-48042142D01*
X122769285Y-47870714D01*
X122721666Y-47785000D01*
X122626428Y-47742142D01*
X122531190Y-47742142D01*
X122435952Y-48170714D01*
X122769285Y-47485000D02*
X122769285Y-47142142D01*
X123102619Y-47356428D02*
X122245476Y-47356428D01*
X122150238Y-47313571D01*
X122102619Y-47227857D01*
X122102619Y-47142142D01*
X122102619Y-45770714D02*
X122626428Y-45770714D01*
X122721666Y-45813571D01*
X122769285Y-45899285D01*
X122769285Y-46070714D01*
X122721666Y-46156428D01*
X122150238Y-45770714D02*
X122102619Y-45856428D01*
X122102619Y-46070714D01*
X122150238Y-46156428D01*
X122245476Y-46199285D01*
X122340714Y-46199285D01*
X122435952Y-46156428D01*
X122483571Y-46070714D01*
X122483571Y-45856428D01*
X122531190Y-45770714D01*
X122769285Y-45342142D02*
X122102619Y-45342142D01*
X122674047Y-45342142D02*
X122721666Y-45299285D01*
X122769285Y-45213571D01*
X122769285Y-45085000D01*
X122721666Y-44999285D01*
X122626428Y-44956428D01*
X122102619Y-44956428D01*
X122102619Y-44142142D02*
X123102619Y-44142142D01*
X122150238Y-44142142D02*
X122102619Y-44227857D01*
X122102619Y-44399285D01*
X122150238Y-44485000D01*
X122197857Y-44527857D01*
X122293095Y-44570714D01*
X122578809Y-44570714D01*
X122674047Y-44527857D01*
X122721666Y-44485000D01*
X122769285Y-44399285D01*
X122769285Y-44227857D01*
X122721666Y-44142142D01*
X122150238Y-42642142D02*
X122102619Y-42727857D01*
X122102619Y-42899285D01*
X122150238Y-42985000D01*
X122197857Y-43027857D01*
X122293095Y-43070714D01*
X122578809Y-43070714D01*
X122674047Y-43027857D01*
X122721666Y-42985000D01*
X122769285Y-42899285D01*
X122769285Y-42727857D01*
X122721666Y-42642142D01*
X122102619Y-42127857D02*
X122150238Y-42213571D01*
X122197857Y-42256428D01*
X122293095Y-42299285D01*
X122578809Y-42299285D01*
X122674047Y-42256428D01*
X122721666Y-42213571D01*
X122769285Y-42127857D01*
X122769285Y-41999285D01*
X122721666Y-41913571D01*
X122674047Y-41870714D01*
X122578809Y-41827857D01*
X122293095Y-41827857D01*
X122197857Y-41870714D01*
X122150238Y-41913571D01*
X122102619Y-41999285D01*
X122102619Y-42127857D01*
X122769285Y-41442142D02*
X122102619Y-41442142D01*
X122674047Y-41442142D02*
X122721666Y-41399285D01*
X122769285Y-41313571D01*
X122769285Y-41185000D01*
X122721666Y-41099285D01*
X122626428Y-41056428D01*
X122102619Y-41056428D01*
X122769285Y-40756428D02*
X122769285Y-40413571D01*
X122102619Y-40627857D02*
X122959761Y-40627857D01*
X123055000Y-40585000D01*
X123102619Y-40499285D01*
X123102619Y-40413571D01*
X122102619Y-40113571D02*
X122769285Y-40113571D01*
X123102619Y-40113571D02*
X123055000Y-40156428D01*
X123007380Y-40113571D01*
X123055000Y-40070714D01*
X123102619Y-40113571D01*
X123007380Y-40113571D01*
X122102619Y-39685000D02*
X122769285Y-39685000D01*
X122578809Y-39685000D02*
X122674047Y-39642142D01*
X122721666Y-39599285D01*
X122769285Y-39513571D01*
X122769285Y-39427857D01*
X122102619Y-39127857D02*
X122769285Y-39127857D01*
X122674047Y-39127857D02*
X122721666Y-39085000D01*
X122769285Y-38999285D01*
X122769285Y-38870714D01*
X122721666Y-38785000D01*
X122626428Y-38742142D01*
X122102619Y-38742142D01*
X122626428Y-38742142D02*
X122721666Y-38699285D01*
X122769285Y-38613571D01*
X122769285Y-38485000D01*
X122721666Y-38399285D01*
X122626428Y-38356428D01*
X122102619Y-38356428D01*
X122150238Y-37585000D02*
X122102619Y-37670714D01*
X122102619Y-37842142D01*
X122150238Y-37927857D01*
X122245476Y-37970714D01*
X122626428Y-37970714D01*
X122721666Y-37927857D01*
X122769285Y-37842142D01*
X122769285Y-37670714D01*
X122721666Y-37585000D01*
X122626428Y-37542142D01*
X122531190Y-37542142D01*
X122435952Y-37970714D01*
X122102619Y-36770714D02*
X123102619Y-36770714D01*
X122150238Y-36770714D02*
X122102619Y-36856428D01*
X122102619Y-37027857D01*
X122150238Y-37113571D01*
X122197857Y-37156428D01*
X122293095Y-37199285D01*
X122578809Y-37199285D01*
X122674047Y-37156428D01*
X122721666Y-37113571D01*
X122769285Y-37027857D01*
X122769285Y-36856428D01*
X122721666Y-36770714D01*
X121119285Y-54406428D02*
X121119285Y-54063571D01*
X121452619Y-54277857D02*
X120595476Y-54277857D01*
X120500238Y-54235000D01*
X120452619Y-54149285D01*
X120452619Y-54063571D01*
X120452619Y-53635000D02*
X120500238Y-53720714D01*
X120547857Y-53763571D01*
X120643095Y-53806428D01*
X120928809Y-53806428D01*
X121024047Y-53763571D01*
X121071666Y-53720714D01*
X121119285Y-53635000D01*
X121119285Y-53506428D01*
X121071666Y-53420714D01*
X121024047Y-53377857D01*
X120928809Y-53335000D01*
X120643095Y-53335000D01*
X120547857Y-53377857D01*
X120500238Y-53420714D01*
X120452619Y-53506428D01*
X120452619Y-53635000D01*
X120452619Y-52263571D02*
X121119285Y-52263571D01*
X121024047Y-52263571D02*
X121071666Y-52220714D01*
X121119285Y-52135000D01*
X121119285Y-52006428D01*
X121071666Y-51920714D01*
X120976428Y-51877857D01*
X120452619Y-51877857D01*
X120976428Y-51877857D02*
X121071666Y-51835000D01*
X121119285Y-51749285D01*
X121119285Y-51620714D01*
X121071666Y-51535000D01*
X120976428Y-51492142D01*
X120452619Y-51492142D01*
X120452619Y-50677857D02*
X120976428Y-50677857D01*
X121071666Y-50720714D01*
X121119285Y-50806428D01*
X121119285Y-50977857D01*
X121071666Y-51063571D01*
X120500238Y-50677857D02*
X120452619Y-50763571D01*
X120452619Y-50977857D01*
X120500238Y-51063571D01*
X120595476Y-51106428D01*
X120690714Y-51106428D01*
X120785952Y-51063571D01*
X120833571Y-50977857D01*
X120833571Y-50763571D01*
X120881190Y-50677857D01*
X121119285Y-50377857D02*
X121119285Y-50035000D01*
X121452619Y-50249285D02*
X120595476Y-50249285D01*
X120500238Y-50206428D01*
X120452619Y-50120714D01*
X120452619Y-50035000D01*
X120500238Y-49349285D02*
X120452619Y-49435000D01*
X120452619Y-49606428D01*
X120500238Y-49692142D01*
X120547857Y-49735000D01*
X120643095Y-49777857D01*
X120928809Y-49777857D01*
X121024047Y-49735000D01*
X121071666Y-49692142D01*
X121119285Y-49606428D01*
X121119285Y-49435000D01*
X121071666Y-49349285D01*
X120452619Y-48963571D02*
X121452619Y-48963571D01*
X120452619Y-48577857D02*
X120976428Y-48577857D01*
X121071666Y-48620714D01*
X121119285Y-48706428D01*
X121119285Y-48835000D01*
X121071666Y-48920714D01*
X121024047Y-48963571D01*
X120452619Y-47077857D02*
X120976428Y-47077857D01*
X121071666Y-47120714D01*
X121119285Y-47206428D01*
X121119285Y-47377857D01*
X121071666Y-47463571D01*
X120500238Y-47077857D02*
X120452619Y-47163571D01*
X120452619Y-47377857D01*
X120500238Y-47463571D01*
X120595476Y-47506428D01*
X120690714Y-47506428D01*
X120785952Y-47463571D01*
X120833571Y-47377857D01*
X120833571Y-47163571D01*
X120881190Y-47077857D01*
X120452619Y-45963571D02*
X121119285Y-45963571D01*
X120928809Y-45963571D02*
X121024047Y-45920714D01*
X121071666Y-45877857D01*
X121119285Y-45792142D01*
X121119285Y-45706428D01*
X120500238Y-45063571D02*
X120452619Y-45149285D01*
X120452619Y-45320714D01*
X120500238Y-45406428D01*
X120595476Y-45449285D01*
X120976428Y-45449285D01*
X121071666Y-45406428D01*
X121119285Y-45320714D01*
X121119285Y-45149285D01*
X121071666Y-45063571D01*
X120976428Y-45020714D01*
X120881190Y-45020714D01*
X120785952Y-45449285D01*
X120452619Y-44249285D02*
X120976428Y-44249285D01*
X121071666Y-44292142D01*
X121119285Y-44377857D01*
X121119285Y-44549285D01*
X121071666Y-44635000D01*
X120500238Y-44249285D02*
X120452619Y-44335000D01*
X120452619Y-44549285D01*
X120500238Y-44635000D01*
X120595476Y-44677857D01*
X120690714Y-44677857D01*
X120785952Y-44635000D01*
X120833571Y-44549285D01*
X120833571Y-44335000D01*
X120881190Y-44249285D01*
X120452619Y-43692142D02*
X120500238Y-43777857D01*
X120595476Y-43820714D01*
X121452619Y-43820714D01*
X120452619Y-42663571D02*
X121452619Y-42663571D01*
X121452619Y-42449285D01*
X121405000Y-42320714D01*
X121309761Y-42235000D01*
X121214523Y-42192142D01*
X121024047Y-42149285D01*
X120881190Y-42149285D01*
X120690714Y-42192142D01*
X120595476Y-42235000D01*
X120500238Y-42320714D01*
X120452619Y-42449285D01*
X120452619Y-42663571D01*
X120500238Y-41806428D02*
X120452619Y-41677857D01*
X120452619Y-41463571D01*
X120500238Y-41377857D01*
X120547857Y-41335000D01*
X120643095Y-41292142D01*
X120738333Y-41292142D01*
X120833571Y-41335000D01*
X120881190Y-41377857D01*
X120928809Y-41463571D01*
X120976428Y-41635000D01*
X121024047Y-41720714D01*
X121071666Y-41763571D01*
X121166904Y-41806428D01*
X121262142Y-41806428D01*
X121357380Y-41763571D01*
X121405000Y-41720714D01*
X121452619Y-41635000D01*
X121452619Y-41420714D01*
X121405000Y-41292142D01*
X120452619Y-40435000D02*
X120452619Y-40949285D01*
X120452619Y-40692142D02*
X121452619Y-40692142D01*
X121309761Y-40777857D01*
X121214523Y-40863571D01*
X121166904Y-40949285D01*
X121357380Y-40092142D02*
X121405000Y-40049285D01*
X121452619Y-39963571D01*
X121452619Y-39749285D01*
X121405000Y-39663571D01*
X121357380Y-39620714D01*
X121262142Y-39577857D01*
X121166904Y-39577857D01*
X121024047Y-39620714D01*
X120452619Y-40135000D01*
X120452619Y-39577857D01*
X120452619Y-38720714D02*
X120452619Y-39235000D01*
X120452619Y-38977857D02*
X121452619Y-38977857D01*
X121309761Y-39063571D01*
X121214523Y-39149285D01*
X121166904Y-39235000D01*
X121452619Y-37949285D02*
X121452619Y-38120714D01*
X121405000Y-38206428D01*
X121357380Y-38249285D01*
X121214523Y-38335000D01*
X121024047Y-38377857D01*
X120643095Y-38377857D01*
X120547857Y-38335000D01*
X120500238Y-38292142D01*
X120452619Y-38206428D01*
X120452619Y-38035000D01*
X120500238Y-37949285D01*
X120547857Y-37906428D01*
X120643095Y-37863571D01*
X120881190Y-37863571D01*
X120976428Y-37906428D01*
X121024047Y-37949285D01*
X121071666Y-38035000D01*
X121071666Y-38206428D01*
X121024047Y-38292142D01*
X120976428Y-38335000D01*
X120881190Y-38377857D01*
X120833571Y-37477857D02*
X120833571Y-36792142D01*
X120547857Y-35849285D02*
X120500238Y-35892142D01*
X120452619Y-36020714D01*
X120452619Y-36106428D01*
X120500238Y-36235000D01*
X120595476Y-36320714D01*
X120690714Y-36363571D01*
X120881190Y-36406428D01*
X121024047Y-36406428D01*
X121214523Y-36363571D01*
X121309761Y-36320714D01*
X121405000Y-36235000D01*
X121452619Y-36106428D01*
X121452619Y-36020714D01*
X121405000Y-35892142D01*
X121357380Y-35849285D01*
X118850238Y-49199285D02*
X118802619Y-49070714D01*
X118802619Y-48856428D01*
X118850238Y-48770714D01*
X118897857Y-48727857D01*
X118993095Y-48685000D01*
X119088333Y-48685000D01*
X119183571Y-48727857D01*
X119231190Y-48770714D01*
X119278809Y-48856428D01*
X119326428Y-49027857D01*
X119374047Y-49113571D01*
X119421666Y-49156428D01*
X119516904Y-49199285D01*
X119612142Y-49199285D01*
X119707380Y-49156428D01*
X119755000Y-49113571D01*
X119802619Y-49027857D01*
X119802619Y-48813571D01*
X119755000Y-48685000D01*
X118802619Y-48299285D02*
X119469285Y-48299285D01*
X119374047Y-48299285D02*
X119421666Y-48256428D01*
X119469285Y-48170714D01*
X119469285Y-48042142D01*
X119421666Y-47956428D01*
X119326428Y-47913571D01*
X118802619Y-47913571D01*
X119326428Y-47913571D02*
X119421666Y-47870714D01*
X119469285Y-47785000D01*
X119469285Y-47656428D01*
X119421666Y-47570714D01*
X119326428Y-47527857D01*
X118802619Y-47527857D01*
X118802619Y-46713571D02*
X119326428Y-46713571D01*
X119421666Y-46756428D01*
X119469285Y-46842142D01*
X119469285Y-47013571D01*
X119421666Y-47099285D01*
X118850238Y-46713571D02*
X118802619Y-46799285D01*
X118802619Y-47013571D01*
X118850238Y-47099285D01*
X118945476Y-47142142D01*
X119040714Y-47142142D01*
X119135952Y-47099285D01*
X119183571Y-47013571D01*
X119183571Y-46799285D01*
X119231190Y-46713571D01*
X118802619Y-46285000D02*
X119469285Y-46285000D01*
X119278809Y-46285000D02*
X119374047Y-46242142D01*
X119421666Y-46199285D01*
X119469285Y-46113571D01*
X119469285Y-46027857D01*
X119469285Y-45856428D02*
X119469285Y-45513571D01*
X119802619Y-45727857D02*
X118945476Y-45727857D01*
X118850238Y-45685000D01*
X118802619Y-45599285D01*
X118802619Y-45513571D01*
X119802619Y-45299285D02*
X118802619Y-45085000D01*
X119516904Y-44913571D01*
X118802619Y-44742142D01*
X119802619Y-44527857D01*
X118802619Y-43799285D02*
X119326428Y-43799285D01*
X119421666Y-43842142D01*
X119469285Y-43927857D01*
X119469285Y-44099285D01*
X119421666Y-44185000D01*
X118850238Y-43799285D02*
X118802619Y-43885000D01*
X118802619Y-44099285D01*
X118850238Y-44185000D01*
X118945476Y-44227857D01*
X119040714Y-44227857D01*
X119135952Y-44185000D01*
X119183571Y-44099285D01*
X119183571Y-43885000D01*
X119231190Y-43799285D01*
X119469285Y-43499285D02*
X119469285Y-43156428D01*
X119802619Y-43370714D02*
X118945476Y-43370714D01*
X118850238Y-43327857D01*
X118802619Y-43242142D01*
X118802619Y-43156428D01*
X118850238Y-42470714D02*
X118802619Y-42556428D01*
X118802619Y-42727857D01*
X118850238Y-42813571D01*
X118897857Y-42856428D01*
X118993095Y-42899285D01*
X119278809Y-42899285D01*
X119374047Y-42856428D01*
X119421666Y-42813571D01*
X119469285Y-42727857D01*
X119469285Y-42556428D01*
X119421666Y-42470714D01*
X118802619Y-42085000D02*
X119802619Y-42085000D01*
X118802619Y-41699285D02*
X119326428Y-41699285D01*
X119421666Y-41742142D01*
X119469285Y-41827857D01*
X119469285Y-41956428D01*
X119421666Y-42042142D01*
X119374047Y-42085000D01*
M02*
