%TF.GenerationSoftware,KiCad,Pcbnew,(5.1.9)-1*%
%TF.CreationDate,2021-04-04T21:20:30+08:00*%
%TF.ProjectId,ATD-20-Redux,4154442d-3230-42d5-9265-6475782e6b69,rev?*%
%TF.SameCoordinates,Original*%
%TF.FileFunction,Copper,L1,Top*%
%TF.FilePolarity,Positive*%
%FSLAX46Y46*%
G04 Gerber Fmt 4.6, Leading zero omitted, Abs format (unit mm)*
G04 Created by KiCad (PCBNEW (5.1.9)-1) date 2021-04-04 21:20:30*
%MOMM*%
%LPD*%
G01*
G04 APERTURE LIST*
%TA.AperFunction,ComponentPad*%
%ADD10R,3.000000X3.000000*%
%TD*%
%TA.AperFunction,ComponentPad*%
%ADD11C,3.000000*%
%TD*%
%TA.AperFunction,ComponentPad*%
%ADD12O,1.600000X1.600000*%
%TD*%
%TA.AperFunction,ComponentPad*%
%ADD13R,1.600000X1.600000*%
%TD*%
%TA.AperFunction,ComponentPad*%
%ADD14C,1.600000*%
%TD*%
%TA.AperFunction,ComponentPad*%
%ADD15C,1.000000*%
%TD*%
%TA.AperFunction,ViaPad*%
%ADD16C,0.800000*%
%TD*%
%TA.AperFunction,Conductor*%
%ADD17C,0.350000*%
%TD*%
%TA.AperFunction,Conductor*%
%ADD18C,0.500000*%
%TD*%
%TA.AperFunction,Conductor*%
%ADD19C,1.000000*%
%TD*%
%TA.AperFunction,Conductor*%
%ADD20C,0.250000*%
%TD*%
%TA.AperFunction,Conductor*%
%ADD21C,0.254000*%
%TD*%
%TA.AperFunction,Conductor*%
%ADD22C,0.100000*%
%TD*%
G04 APERTURE END LIST*
D10*
%TO.P,BAT1,1*%
%TO.N,Net-(BAT1-Pad1)*%
X117475000Y-60325000D03*
D11*
%TO.P,BAT1,2*%
%TO.N,GND*%
X117475000Y-39835000D03*
%TD*%
D12*
%TO.P,J1,28*%
%TO.N,VCC*%
X126365000Y-57150000D03*
%TO.P,J1,14*%
%TO.N,GND*%
X111125000Y-90170000D03*
%TO.P,J1,27*%
%TO.N,/~IOW*%
X126365000Y-59690000D03*
%TO.P,J1,13*%
%TO.N,Net-(J1-Pad13)*%
X111125000Y-87630000D03*
%TO.P,J1,26*%
%TO.N,Net-(J1-Pad26)*%
X126365000Y-62230000D03*
%TO.P,J1,12*%
%TO.N,Net-(J1-Pad12)*%
X111125000Y-85090000D03*
%TO.P,J1,25*%
%TO.N,Net-(J1-Pad25)*%
X126365000Y-64770000D03*
%TO.P,J1,11*%
%TO.N,/D0*%
X111125000Y-82550000D03*
%TO.P,J1,24*%
%TO.N,Net-(J1-Pad24)*%
X126365000Y-67310000D03*
%TO.P,J1,10*%
%TO.N,Net-(J1-Pad10)*%
X111125000Y-80010000D03*
%TO.P,J1,23*%
%TO.N,Net-(J1-Pad23)*%
X126365000Y-69850000D03*
%TO.P,J1,9*%
%TO.N,Net-(J1-Pad9)*%
X111125000Y-77470000D03*
%TO.P,J1,22*%
%TO.N,/~IOR*%
X126365000Y-72390000D03*
%TO.P,J1,8*%
%TO.N,Net-(J1-Pad8)*%
X111125000Y-74930000D03*
%TO.P,J1,21*%
%TO.N,Net-(J1-Pad21)*%
X126365000Y-74930000D03*
%TO.P,J1,7*%
%TO.N,Net-(J1-Pad7)*%
X111125000Y-72390000D03*
%TO.P,J1,20*%
%TO.N,/~CS_RTC*%
X126365000Y-77470000D03*
%TO.P,J1,6*%
%TO.N,Net-(J1-Pad6)*%
X111125000Y-69850000D03*
%TO.P,J1,19*%
%TO.N,Net-(J1-Pad19)*%
X126365000Y-80010000D03*
%TO.P,J1,5*%
%TO.N,Net-(J1-Pad5)*%
X111125000Y-67310000D03*
%TO.P,J1,18*%
%TO.N,Net-(J1-Pad18)*%
X126365000Y-82550000D03*
%TO.P,J1,4*%
%TO.N,Net-(J1-Pad4)*%
X111125000Y-64770000D03*
%TO.P,J1,17*%
%TO.N,Net-(J1-Pad17)*%
X126365000Y-85090000D03*
%TO.P,J1,3*%
%TO.N,Net-(J1-Pad3)*%
X111125000Y-62230000D03*
%TO.P,J1,16*%
%TO.N,Net-(J1-Pad16)*%
X126365000Y-87630000D03*
%TO.P,J1,2*%
%TO.N,Net-(J1-Pad2)*%
X111125000Y-59690000D03*
%TO.P,J1,15*%
%TO.N,Net-(J1-Pad15)*%
X126365000Y-90170000D03*
D13*
%TO.P,J1,1*%
%TO.N,Net-(J1-Pad1)*%
X111125000Y-57150000D03*
%TD*%
D12*
%TO.P,C1,2*%
%TO.N,GND*%
X123825000Y-74850000D03*
D14*
%TO.P,C1,1*%
%TO.N,VCC*%
X123825000Y-69850000D03*
%TD*%
D12*
%TO.P,U1,16*%
%TO.N,VCC*%
X121285000Y-69850000D03*
%TO.P,U1,8*%
%TO.N,GND*%
X113665000Y-87630000D03*
%TO.P,U1,15*%
%TO.N,Net-(U1-Pad15)*%
X121285000Y-72390000D03*
%TO.P,U1,7*%
%TO.N,/D0*%
X113665000Y-85090000D03*
%TO.P,U1,14*%
%TO.N,GND*%
X121285000Y-74930000D03*
%TO.P,U1,6*%
%TO.N,/D0*%
X113665000Y-82550000D03*
%TO.P,U1,13*%
%TO.N,VCC*%
X121285000Y-77470000D03*
%TO.P,U1,5*%
%TO.N,GND*%
X113665000Y-80010000D03*
%TO.P,U1,12*%
%TO.N,/~IOR*%
X121285000Y-80010000D03*
%TO.P,U1,4*%
%TO.N,Net-(BAT1-Pad1)*%
X113665000Y-77470000D03*
%TO.P,U1,11*%
%TO.N,/~CS_RTC*%
X121285000Y-82550000D03*
%TO.P,U1,3*%
%TO.N,/~IOW*%
X113665000Y-74930000D03*
%TO.P,U1,10*%
%TO.N,Net-(U1-Pad10)*%
X121285000Y-85090000D03*
%TO.P,U1,2*%
%TO.N,/XTAL2*%
X113665000Y-72390000D03*
%TO.P,U1,9*%
%TO.N,GND*%
X121285000Y-87630000D03*
D13*
%TO.P,U1,1*%
%TO.N,/XTAL1*%
X113665000Y-69850000D03*
%TD*%
D15*
%TO.P,Y1,1*%
%TO.N,/XTAL1*%
X113665000Y-66675000D03*
%TO.P,Y1,2*%
%TO.N,/XTAL2*%
X113665000Y-64775000D03*
%TD*%
D16*
%TO.N,GND*%
X117475000Y-47625000D03*
X117475000Y-49530000D03*
X117475000Y-51435000D03*
X117475000Y-53340000D03*
X117475000Y-55245000D03*
X116205000Y-87630000D03*
X116205000Y-85090000D03*
X116205000Y-82550000D03*
X118745000Y-82550000D03*
X118745000Y-85090000D03*
X118745000Y-87630000D03*
%TD*%
D17*
%TO.N,Net-(BAT1-Pad1)*%
X115570000Y-75565000D02*
X113665000Y-77470000D01*
X115570000Y-62230000D02*
X115570000Y-75565000D01*
X117475000Y-60325000D02*
X115570000Y-62230000D01*
D18*
%TO.N,GND*%
X117475000Y-47625000D02*
X117475000Y-49530000D01*
X117475000Y-49530000D02*
X117475000Y-51435000D01*
X117475000Y-51435000D02*
X117475000Y-53340000D01*
X117475000Y-53340000D02*
X117475000Y-55245000D01*
X111125000Y-90170000D02*
X113665000Y-90170000D01*
X113665000Y-87630000D02*
X113665000Y-90170000D01*
X113665000Y-90170000D02*
X116205000Y-90170000D01*
X116205000Y-90170000D02*
X116205000Y-87630000D01*
X116205000Y-87630000D02*
X116205000Y-85090000D01*
X116205000Y-85090000D02*
X116205000Y-82550000D01*
X116205000Y-82550000D02*
X118745000Y-82550000D01*
X118745000Y-82550000D02*
X118745000Y-85090000D01*
X118745000Y-85090000D02*
X118745000Y-87630000D01*
%TO.N,VCC*%
X121285000Y-69850000D02*
X123825000Y-69850000D01*
D17*
X119980009Y-76165009D02*
X121285000Y-77470000D01*
X119980009Y-71154991D02*
X119980009Y-76165009D01*
X121285000Y-69850000D02*
X119980009Y-71154991D01*
D18*
X123825000Y-67945000D02*
X123825000Y-59690000D01*
X126365000Y-57150000D02*
X125730000Y-56515000D01*
X125730000Y-56515000D02*
X125095000Y-56515000D01*
X121285000Y-69850000D02*
X121285000Y-68580000D01*
X122555000Y-67310000D02*
X122555000Y-59055000D01*
X122555000Y-59055000D02*
X123825000Y-57785000D01*
X121285000Y-68580000D02*
X121920000Y-67945000D01*
X121920000Y-67945000D02*
X122555000Y-67310000D01*
X123190000Y-67945000D02*
X123825000Y-67945000D01*
X123825000Y-69850000D02*
X123825000Y-68580000D01*
X123825000Y-68580000D02*
X123190000Y-67945000D01*
X123825000Y-68580000D02*
X123825000Y-67945000D01*
X122555000Y-67310000D02*
X122555000Y-67945000D01*
X122555000Y-67945000D02*
X123190000Y-67945000D01*
X121920000Y-67945000D02*
X122555000Y-67945000D01*
D19*
X123190000Y-67310000D02*
X123190000Y-59055000D01*
D18*
X123825000Y-67945000D02*
X123190000Y-67310000D01*
X122555000Y-67945000D02*
X123190000Y-67310000D01*
X123825000Y-58420000D02*
X123190000Y-59055000D01*
X123825000Y-57785000D02*
X123825000Y-58420000D01*
X124460000Y-59055000D02*
X123825000Y-59055000D01*
X123825000Y-59055000D02*
X123825000Y-57785000D01*
X123825000Y-59690000D02*
X123825000Y-59055000D01*
X124460000Y-59055000D02*
X123825000Y-59690000D01*
X125412500Y-58102500D02*
X124777500Y-58102500D01*
X126365000Y-57150000D02*
X125412500Y-58102500D01*
X124777500Y-58102500D02*
X124460000Y-57785000D01*
X124460000Y-57785000D02*
X124460000Y-57150000D01*
X125095000Y-56515000D02*
X124460000Y-57150000D01*
X125095000Y-58420000D02*
X124460000Y-58420000D01*
X124460000Y-58420000D02*
X124460000Y-59055000D01*
X124460000Y-57785000D02*
X124460000Y-58420000D01*
X125412500Y-58102500D02*
X125095000Y-58420000D01*
X125095000Y-58420000D02*
X124460000Y-59055000D01*
X124142500Y-58737500D02*
X123825000Y-59055000D01*
X124142500Y-57467500D02*
X124142500Y-58737500D01*
X124460000Y-57150000D02*
X124142500Y-57467500D01*
X124142500Y-57467500D02*
X123825000Y-57785000D01*
D20*
%TO.N,/XTAL2*%
X112395000Y-71120000D02*
X113665000Y-72390000D01*
X112395000Y-66045000D02*
X112395000Y-71120000D01*
X113665000Y-64775000D02*
X112395000Y-66045000D01*
%TO.N,/XTAL1*%
X113665000Y-69850000D02*
X113665000Y-66675000D01*
D17*
%TO.N,/~IOW*%
X112395000Y-76200000D02*
X113665000Y-74930000D01*
X112395000Y-78013002D02*
X112395000Y-76200000D01*
X113121998Y-78740000D02*
X112395000Y-78013002D01*
X122555000Y-78103000D02*
X121918000Y-78740000D01*
X121918000Y-78740000D02*
X113121998Y-78740000D01*
X122555000Y-73665999D02*
X122555000Y-78103000D01*
X125095000Y-71125999D02*
X122555000Y-73665999D01*
X125095000Y-60960000D02*
X125095000Y-71125999D01*
X126365000Y-59690000D02*
X125095000Y-60960000D01*
%TO.N,/D0*%
X111125000Y-82550000D02*
X113665000Y-82550000D01*
X113665000Y-85090000D02*
X113665000Y-82550000D01*
%TO.N,/~IOR*%
X121920000Y-80010000D02*
X121285000Y-80010000D01*
X125095000Y-76835000D02*
X121920000Y-80010000D01*
X125095000Y-73660000D02*
X125095000Y-76835000D01*
X126365000Y-72390000D02*
X125095000Y-73660000D01*
%TO.N,/~CS_RTC*%
X126365000Y-77470000D02*
X121285000Y-82550000D01*
%TD*%
D21*
%TO.N,GND*%
X119723000Y-79856156D02*
X119723000Y-80163844D01*
X119783027Y-80465619D01*
X119900773Y-80749885D01*
X120071715Y-81005717D01*
X120289283Y-81223285D01*
X120374163Y-81280000D01*
X120289283Y-81336715D01*
X120071715Y-81554283D01*
X119900773Y-81810115D01*
X119783027Y-82094381D01*
X119723000Y-82396156D01*
X119723000Y-82703844D01*
X119783027Y-83005619D01*
X119900773Y-83289885D01*
X120071715Y-83545717D01*
X120289283Y-83763285D01*
X120374163Y-83820000D01*
X120289283Y-83876715D01*
X120071715Y-84094283D01*
X119900773Y-84350115D01*
X119783027Y-84634381D01*
X119723000Y-84936156D01*
X119723000Y-85243844D01*
X119783027Y-85545619D01*
X119900773Y-85829885D01*
X120071715Y-86085717D01*
X120289283Y-86303285D01*
X120374163Y-86360000D01*
X120289283Y-86416715D01*
X120071715Y-86634283D01*
X119900773Y-86890115D01*
X119783027Y-87174381D01*
X119723000Y-87476156D01*
X119723000Y-87783844D01*
X119783027Y-88085619D01*
X119900773Y-88369885D01*
X120071715Y-88625717D01*
X120289283Y-88843285D01*
X120545115Y-89014227D01*
X120829381Y-89131973D01*
X121131156Y-89192000D01*
X121438844Y-89192000D01*
X121740619Y-89131973D01*
X122024885Y-89014227D01*
X122280717Y-88843285D01*
X122498285Y-88625717D01*
X122669227Y-88369885D01*
X122786973Y-88085619D01*
X122847000Y-87783844D01*
X122847000Y-87476156D01*
X122786973Y-87174381D01*
X122669227Y-86890115D01*
X122498285Y-86634283D01*
X122280717Y-86416715D01*
X122195837Y-86360000D01*
X122280717Y-86303285D01*
X122498285Y-86085717D01*
X122669227Y-85829885D01*
X122786973Y-85545619D01*
X122847000Y-85243844D01*
X122847000Y-84936156D01*
X122786973Y-84634381D01*
X122669227Y-84350115D01*
X122498285Y-84094283D01*
X122280717Y-83876715D01*
X122195837Y-83820000D01*
X122280717Y-83763285D01*
X122498285Y-83545717D01*
X122669227Y-83289885D01*
X122786973Y-83005619D01*
X122847000Y-82703844D01*
X122847000Y-82396156D01*
X122833223Y-82326894D01*
X124835066Y-80325051D01*
X124863027Y-80465619D01*
X124980773Y-80749885D01*
X125151715Y-81005717D01*
X125369283Y-81223285D01*
X125454163Y-81280000D01*
X125369283Y-81336715D01*
X125151715Y-81554283D01*
X124980773Y-81810115D01*
X124863027Y-82094381D01*
X124803000Y-82396156D01*
X124803000Y-82703844D01*
X124863027Y-83005619D01*
X124980773Y-83289885D01*
X125151715Y-83545717D01*
X125369283Y-83763285D01*
X125454163Y-83820000D01*
X125369283Y-83876715D01*
X125151715Y-84094283D01*
X124980773Y-84350115D01*
X124863027Y-84634381D01*
X124803000Y-84936156D01*
X124803000Y-85243844D01*
X124863027Y-85545619D01*
X124980773Y-85829885D01*
X125151715Y-86085717D01*
X125369283Y-86303285D01*
X125454163Y-86360000D01*
X125369283Y-86416715D01*
X125151715Y-86634283D01*
X124980773Y-86890115D01*
X124863027Y-87174381D01*
X124803000Y-87476156D01*
X124803000Y-87783844D01*
X124863027Y-88085619D01*
X124980773Y-88369885D01*
X125151715Y-88625717D01*
X125369283Y-88843285D01*
X125454163Y-88900000D01*
X125369283Y-88956715D01*
X125151715Y-89174283D01*
X124980773Y-89430115D01*
X124863027Y-89714381D01*
X124803000Y-90016156D01*
X124803000Y-90323844D01*
X124863027Y-90625619D01*
X124874369Y-90653000D01*
X112615631Y-90653000D01*
X112626973Y-90625619D01*
X112687000Y-90323844D01*
X112687000Y-90016156D01*
X112626973Y-89714381D01*
X112509227Y-89430115D01*
X112338285Y-89174283D01*
X112120717Y-88956715D01*
X112035837Y-88900000D01*
X112120717Y-88843285D01*
X112338285Y-88625717D01*
X112395000Y-88540837D01*
X112451715Y-88625717D01*
X112669283Y-88843285D01*
X112925115Y-89014227D01*
X113209381Y-89131973D01*
X113511156Y-89192000D01*
X113818844Y-89192000D01*
X114120619Y-89131973D01*
X114404885Y-89014227D01*
X114660717Y-88843285D01*
X114878285Y-88625717D01*
X115049227Y-88369885D01*
X115166973Y-88085619D01*
X115227000Y-87783844D01*
X115227000Y-87476156D01*
X115166973Y-87174381D01*
X115049227Y-86890115D01*
X114878285Y-86634283D01*
X114660717Y-86416715D01*
X114575837Y-86360000D01*
X114660717Y-86303285D01*
X114878285Y-86085717D01*
X115049227Y-85829885D01*
X115166973Y-85545619D01*
X115227000Y-85243844D01*
X115227000Y-84936156D01*
X115166973Y-84634381D01*
X115049227Y-84350115D01*
X114878285Y-84094283D01*
X114660717Y-83876715D01*
X114602000Y-83837481D01*
X114602000Y-83802519D01*
X114660717Y-83763285D01*
X114878285Y-83545717D01*
X115049227Y-83289885D01*
X115166973Y-83005619D01*
X115227000Y-82703844D01*
X115227000Y-82396156D01*
X115166973Y-82094381D01*
X115049227Y-81810115D01*
X114878285Y-81554283D01*
X114660717Y-81336715D01*
X114575837Y-81280000D01*
X114660717Y-81223285D01*
X114878285Y-81005717D01*
X115049227Y-80749885D01*
X115166973Y-80465619D01*
X115227000Y-80163844D01*
X115227000Y-79856156D01*
X115191364Y-79677000D01*
X119758636Y-79677000D01*
X119723000Y-79856156D01*
%TA.AperFunction,Conductor*%
D22*
G36*
X119723000Y-79856156D02*
G01*
X119723000Y-80163844D01*
X119783027Y-80465619D01*
X119900773Y-80749885D01*
X120071715Y-81005717D01*
X120289283Y-81223285D01*
X120374163Y-81280000D01*
X120289283Y-81336715D01*
X120071715Y-81554283D01*
X119900773Y-81810115D01*
X119783027Y-82094381D01*
X119723000Y-82396156D01*
X119723000Y-82703844D01*
X119783027Y-83005619D01*
X119900773Y-83289885D01*
X120071715Y-83545717D01*
X120289283Y-83763285D01*
X120374163Y-83820000D01*
X120289283Y-83876715D01*
X120071715Y-84094283D01*
X119900773Y-84350115D01*
X119783027Y-84634381D01*
X119723000Y-84936156D01*
X119723000Y-85243844D01*
X119783027Y-85545619D01*
X119900773Y-85829885D01*
X120071715Y-86085717D01*
X120289283Y-86303285D01*
X120374163Y-86360000D01*
X120289283Y-86416715D01*
X120071715Y-86634283D01*
X119900773Y-86890115D01*
X119783027Y-87174381D01*
X119723000Y-87476156D01*
X119723000Y-87783844D01*
X119783027Y-88085619D01*
X119900773Y-88369885D01*
X120071715Y-88625717D01*
X120289283Y-88843285D01*
X120545115Y-89014227D01*
X120829381Y-89131973D01*
X121131156Y-89192000D01*
X121438844Y-89192000D01*
X121740619Y-89131973D01*
X122024885Y-89014227D01*
X122280717Y-88843285D01*
X122498285Y-88625717D01*
X122669227Y-88369885D01*
X122786973Y-88085619D01*
X122847000Y-87783844D01*
X122847000Y-87476156D01*
X122786973Y-87174381D01*
X122669227Y-86890115D01*
X122498285Y-86634283D01*
X122280717Y-86416715D01*
X122195837Y-86360000D01*
X122280717Y-86303285D01*
X122498285Y-86085717D01*
X122669227Y-85829885D01*
X122786973Y-85545619D01*
X122847000Y-85243844D01*
X122847000Y-84936156D01*
X122786973Y-84634381D01*
X122669227Y-84350115D01*
X122498285Y-84094283D01*
X122280717Y-83876715D01*
X122195837Y-83820000D01*
X122280717Y-83763285D01*
X122498285Y-83545717D01*
X122669227Y-83289885D01*
X122786973Y-83005619D01*
X122847000Y-82703844D01*
X122847000Y-82396156D01*
X122833223Y-82326894D01*
X124835066Y-80325051D01*
X124863027Y-80465619D01*
X124980773Y-80749885D01*
X125151715Y-81005717D01*
X125369283Y-81223285D01*
X125454163Y-81280000D01*
X125369283Y-81336715D01*
X125151715Y-81554283D01*
X124980773Y-81810115D01*
X124863027Y-82094381D01*
X124803000Y-82396156D01*
X124803000Y-82703844D01*
X124863027Y-83005619D01*
X124980773Y-83289885D01*
X125151715Y-83545717D01*
X125369283Y-83763285D01*
X125454163Y-83820000D01*
X125369283Y-83876715D01*
X125151715Y-84094283D01*
X124980773Y-84350115D01*
X124863027Y-84634381D01*
X124803000Y-84936156D01*
X124803000Y-85243844D01*
X124863027Y-85545619D01*
X124980773Y-85829885D01*
X125151715Y-86085717D01*
X125369283Y-86303285D01*
X125454163Y-86360000D01*
X125369283Y-86416715D01*
X125151715Y-86634283D01*
X124980773Y-86890115D01*
X124863027Y-87174381D01*
X124803000Y-87476156D01*
X124803000Y-87783844D01*
X124863027Y-88085619D01*
X124980773Y-88369885D01*
X125151715Y-88625717D01*
X125369283Y-88843285D01*
X125454163Y-88900000D01*
X125369283Y-88956715D01*
X125151715Y-89174283D01*
X124980773Y-89430115D01*
X124863027Y-89714381D01*
X124803000Y-90016156D01*
X124803000Y-90323844D01*
X124863027Y-90625619D01*
X124874369Y-90653000D01*
X112615631Y-90653000D01*
X112626973Y-90625619D01*
X112687000Y-90323844D01*
X112687000Y-90016156D01*
X112626973Y-89714381D01*
X112509227Y-89430115D01*
X112338285Y-89174283D01*
X112120717Y-88956715D01*
X112035837Y-88900000D01*
X112120717Y-88843285D01*
X112338285Y-88625717D01*
X112395000Y-88540837D01*
X112451715Y-88625717D01*
X112669283Y-88843285D01*
X112925115Y-89014227D01*
X113209381Y-89131973D01*
X113511156Y-89192000D01*
X113818844Y-89192000D01*
X114120619Y-89131973D01*
X114404885Y-89014227D01*
X114660717Y-88843285D01*
X114878285Y-88625717D01*
X115049227Y-88369885D01*
X115166973Y-88085619D01*
X115227000Y-87783844D01*
X115227000Y-87476156D01*
X115166973Y-87174381D01*
X115049227Y-86890115D01*
X114878285Y-86634283D01*
X114660717Y-86416715D01*
X114575837Y-86360000D01*
X114660717Y-86303285D01*
X114878285Y-86085717D01*
X115049227Y-85829885D01*
X115166973Y-85545619D01*
X115227000Y-85243844D01*
X115227000Y-84936156D01*
X115166973Y-84634381D01*
X115049227Y-84350115D01*
X114878285Y-84094283D01*
X114660717Y-83876715D01*
X114602000Y-83837481D01*
X114602000Y-83802519D01*
X114660717Y-83763285D01*
X114878285Y-83545717D01*
X115049227Y-83289885D01*
X115166973Y-83005619D01*
X115227000Y-82703844D01*
X115227000Y-82396156D01*
X115166973Y-82094381D01*
X115049227Y-81810115D01*
X114878285Y-81554283D01*
X114660717Y-81336715D01*
X114575837Y-81280000D01*
X114660717Y-81223285D01*
X114878285Y-81005717D01*
X115049227Y-80749885D01*
X115166973Y-80465619D01*
X115227000Y-80163844D01*
X115227000Y-79856156D01*
X115191364Y-79677000D01*
X119758636Y-79677000D01*
X119723000Y-79856156D01*
G37*
%TD.AperFunction*%
D21*
X115977948Y-32820047D02*
X116025177Y-32873553D01*
X116071606Y-32927655D01*
X116079587Y-32935194D01*
X116079592Y-32935199D01*
X116079597Y-32935203D01*
X116485165Y-33312938D01*
X116541875Y-33356242D01*
X116597938Y-33400303D01*
X116607237Y-33406152D01*
X116607240Y-33406154D01*
X116607243Y-33406155D01*
X117078456Y-33697922D01*
X117142487Y-33729381D01*
X117206051Y-33761720D01*
X117216307Y-33765650D01*
X117216311Y-33765652D01*
X117216314Y-33765653D01*
X117735226Y-33960337D01*
X117804131Y-33978756D01*
X117872783Y-33998137D01*
X117883609Y-34000001D01*
X117883613Y-34000001D01*
X118430458Y-34090188D01*
X118501712Y-34094877D01*
X118572736Y-34100548D01*
X118583711Y-34100273D01*
X118583722Y-34100274D01*
X118583732Y-34100273D01*
X119137670Y-34082527D01*
X119208417Y-34073295D01*
X119279253Y-34065055D01*
X119289968Y-34062654D01*
X119289974Y-34062653D01*
X119289979Y-34062651D01*
X119829927Y-33937647D01*
X119897522Y-33914853D01*
X119965419Y-33893008D01*
X119975470Y-33888568D01*
X120480859Y-33661066D01*
X120542786Y-33625550D01*
X120605099Y-33590960D01*
X120614092Y-33584656D01*
X120614097Y-33584653D01*
X120614101Y-33584649D01*
X121065671Y-33263321D01*
X121119497Y-33216473D01*
X121173930Y-33170417D01*
X121181531Y-33162481D01*
X121562090Y-32759558D01*
X121605768Y-32703178D01*
X121650241Y-32647398D01*
X121656155Y-32638137D01*
X121719758Y-32537000D01*
X126326509Y-32537000D01*
X126458081Y-32549901D01*
X126547620Y-32576935D01*
X126630200Y-32620843D01*
X126702678Y-32679954D01*
X126762297Y-32752021D01*
X126806780Y-32834290D01*
X126834438Y-32923640D01*
X126848001Y-33052684D01*
X126847999Y-40043653D01*
X126859387Y-40159278D01*
X126904389Y-40307628D01*
X126925015Y-40346217D01*
X127416864Y-41492955D01*
X127768052Y-42677403D01*
X127978655Y-43894753D01*
X128045789Y-45128345D01*
X127968540Y-46361348D01*
X127747963Y-47576923D01*
X127386599Y-48760004D01*
X126925774Y-49822362D01*
X126904389Y-49862371D01*
X126859387Y-50010721D01*
X126847999Y-50126346D01*
X126848001Y-53301337D01*
X126848000Y-53301347D01*
X126848000Y-55659369D01*
X126820619Y-55648027D01*
X126518844Y-55588000D01*
X126211156Y-55588000D01*
X126161131Y-55597951D01*
X126119149Y-55575511D01*
X125928387Y-55517643D01*
X125779711Y-55503000D01*
X125779701Y-55503000D01*
X125730000Y-55498105D01*
X125680299Y-55503000D01*
X125144708Y-55503000D01*
X125095000Y-55498104D01*
X125045292Y-55503000D01*
X125045289Y-55503000D01*
X124896613Y-55517643D01*
X124705851Y-55575511D01*
X124530043Y-55669482D01*
X124375946Y-55795946D01*
X124344254Y-55834563D01*
X123779554Y-56399262D01*
X123740947Y-56430946D01*
X123709263Y-56469553D01*
X123709257Y-56469559D01*
X123709253Y-56469564D01*
X123462059Y-56716757D01*
X123423446Y-56748446D01*
X123391754Y-56787063D01*
X123144559Y-57034257D01*
X123105946Y-57065946D01*
X123074258Y-57104558D01*
X121885816Y-58293000D01*
X119524154Y-58293000D01*
X119516422Y-58283578D01*
X119400392Y-58188355D01*
X119268015Y-58117598D01*
X119124378Y-58074026D01*
X118975000Y-58059314D01*
X115975000Y-58059314D01*
X115825622Y-58074026D01*
X115681985Y-58117598D01*
X115549608Y-58188355D01*
X115433578Y-58283578D01*
X115425846Y-58293000D01*
X112605684Y-58293000D01*
X112632402Y-58243015D01*
X112675974Y-58099378D01*
X112690686Y-57950000D01*
X112690686Y-56350000D01*
X112675974Y-56200622D01*
X112632402Y-56056985D01*
X112561645Y-55924608D01*
X112466422Y-55808578D01*
X112350392Y-55713355D01*
X112218015Y-55642598D01*
X112074378Y-55599026D01*
X111925000Y-55584314D01*
X110642001Y-55584314D01*
X110642001Y-53301346D01*
X110630613Y-53185721D01*
X110585611Y-53037371D01*
X110512533Y-52900651D01*
X110414186Y-52780815D01*
X110389807Y-52760807D01*
X109542575Y-51881651D01*
X108803778Y-50909752D01*
X108183421Y-49858301D01*
X107689971Y-48741645D01*
X107330175Y-47575049D01*
X107108939Y-46374430D01*
X107029294Y-45156214D01*
X107092323Y-43937019D01*
X107297165Y-42733506D01*
X107641025Y-41562109D01*
X108119203Y-40438828D01*
X108591833Y-39612212D01*
X115213000Y-39612212D01*
X115213000Y-40057788D01*
X115299927Y-40494801D01*
X115470441Y-40906459D01*
X115717990Y-41276941D01*
X116033059Y-41592010D01*
X116403541Y-41839559D01*
X116815199Y-42010073D01*
X117252212Y-42097000D01*
X117697788Y-42097000D01*
X118134801Y-42010073D01*
X118546459Y-41839559D01*
X118916941Y-41592010D01*
X119232010Y-41276941D01*
X119479559Y-40906459D01*
X119650073Y-40494801D01*
X119737000Y-40057788D01*
X119737000Y-39612212D01*
X119650073Y-39175199D01*
X119479559Y-38763541D01*
X119232010Y-38393059D01*
X118916941Y-38077990D01*
X118546459Y-37830441D01*
X118134801Y-37659927D01*
X117697788Y-37573000D01*
X117252212Y-37573000D01*
X116815199Y-37659927D01*
X116403541Y-37830441D01*
X116033059Y-38077990D01*
X115717990Y-38393059D01*
X115470441Y-38763541D01*
X115299927Y-39175199D01*
X115213000Y-39612212D01*
X108591833Y-39612212D01*
X108725168Y-39379014D01*
X109450649Y-38397129D01*
X110299654Y-37491745D01*
X110374076Y-37422102D01*
X110414185Y-37389185D01*
X110512532Y-37269349D01*
X110585610Y-37132629D01*
X110630612Y-36984279D01*
X110642000Y-36868654D01*
X110642000Y-36830017D01*
X110642001Y-36830000D01*
X110642000Y-36829983D01*
X110642000Y-33058491D01*
X110654901Y-32926919D01*
X110681935Y-32837380D01*
X110725843Y-32754800D01*
X110784954Y-32682322D01*
X110857021Y-32622703D01*
X110939290Y-32578220D01*
X111028640Y-32550562D01*
X111157675Y-32537000D01*
X115773545Y-32537000D01*
X115977948Y-32820047D01*
%TA.AperFunction,Conductor*%
D22*
G36*
X115977948Y-32820047D02*
G01*
X116025177Y-32873553D01*
X116071606Y-32927655D01*
X116079587Y-32935194D01*
X116079592Y-32935199D01*
X116079597Y-32935203D01*
X116485165Y-33312938D01*
X116541875Y-33356242D01*
X116597938Y-33400303D01*
X116607237Y-33406152D01*
X116607240Y-33406154D01*
X116607243Y-33406155D01*
X117078456Y-33697922D01*
X117142487Y-33729381D01*
X117206051Y-33761720D01*
X117216307Y-33765650D01*
X117216311Y-33765652D01*
X117216314Y-33765653D01*
X117735226Y-33960337D01*
X117804131Y-33978756D01*
X117872783Y-33998137D01*
X117883609Y-34000001D01*
X117883613Y-34000001D01*
X118430458Y-34090188D01*
X118501712Y-34094877D01*
X118572736Y-34100548D01*
X118583711Y-34100273D01*
X118583722Y-34100274D01*
X118583732Y-34100273D01*
X119137670Y-34082527D01*
X119208417Y-34073295D01*
X119279253Y-34065055D01*
X119289968Y-34062654D01*
X119289974Y-34062653D01*
X119289979Y-34062651D01*
X119829927Y-33937647D01*
X119897522Y-33914853D01*
X119965419Y-33893008D01*
X119975470Y-33888568D01*
X120480859Y-33661066D01*
X120542786Y-33625550D01*
X120605099Y-33590960D01*
X120614092Y-33584656D01*
X120614097Y-33584653D01*
X120614101Y-33584649D01*
X121065671Y-33263321D01*
X121119497Y-33216473D01*
X121173930Y-33170417D01*
X121181531Y-33162481D01*
X121562090Y-32759558D01*
X121605768Y-32703178D01*
X121650241Y-32647398D01*
X121656155Y-32638137D01*
X121719758Y-32537000D01*
X126326509Y-32537000D01*
X126458081Y-32549901D01*
X126547620Y-32576935D01*
X126630200Y-32620843D01*
X126702678Y-32679954D01*
X126762297Y-32752021D01*
X126806780Y-32834290D01*
X126834438Y-32923640D01*
X126848001Y-33052684D01*
X126847999Y-40043653D01*
X126859387Y-40159278D01*
X126904389Y-40307628D01*
X126925015Y-40346217D01*
X127416864Y-41492955D01*
X127768052Y-42677403D01*
X127978655Y-43894753D01*
X128045789Y-45128345D01*
X127968540Y-46361348D01*
X127747963Y-47576923D01*
X127386599Y-48760004D01*
X126925774Y-49822362D01*
X126904389Y-49862371D01*
X126859387Y-50010721D01*
X126847999Y-50126346D01*
X126848001Y-53301337D01*
X126848000Y-53301347D01*
X126848000Y-55659369D01*
X126820619Y-55648027D01*
X126518844Y-55588000D01*
X126211156Y-55588000D01*
X126161131Y-55597951D01*
X126119149Y-55575511D01*
X125928387Y-55517643D01*
X125779711Y-55503000D01*
X125779701Y-55503000D01*
X125730000Y-55498105D01*
X125680299Y-55503000D01*
X125144708Y-55503000D01*
X125095000Y-55498104D01*
X125045292Y-55503000D01*
X125045289Y-55503000D01*
X124896613Y-55517643D01*
X124705851Y-55575511D01*
X124530043Y-55669482D01*
X124375946Y-55795946D01*
X124344254Y-55834563D01*
X123779554Y-56399262D01*
X123740947Y-56430946D01*
X123709263Y-56469553D01*
X123709257Y-56469559D01*
X123709253Y-56469564D01*
X123462059Y-56716757D01*
X123423446Y-56748446D01*
X123391754Y-56787063D01*
X123144559Y-57034257D01*
X123105946Y-57065946D01*
X123074258Y-57104558D01*
X121885816Y-58293000D01*
X119524154Y-58293000D01*
X119516422Y-58283578D01*
X119400392Y-58188355D01*
X119268015Y-58117598D01*
X119124378Y-58074026D01*
X118975000Y-58059314D01*
X115975000Y-58059314D01*
X115825622Y-58074026D01*
X115681985Y-58117598D01*
X115549608Y-58188355D01*
X115433578Y-58283578D01*
X115425846Y-58293000D01*
X112605684Y-58293000D01*
X112632402Y-58243015D01*
X112675974Y-58099378D01*
X112690686Y-57950000D01*
X112690686Y-56350000D01*
X112675974Y-56200622D01*
X112632402Y-56056985D01*
X112561645Y-55924608D01*
X112466422Y-55808578D01*
X112350392Y-55713355D01*
X112218015Y-55642598D01*
X112074378Y-55599026D01*
X111925000Y-55584314D01*
X110642001Y-55584314D01*
X110642001Y-53301346D01*
X110630613Y-53185721D01*
X110585611Y-53037371D01*
X110512533Y-52900651D01*
X110414186Y-52780815D01*
X110389807Y-52760807D01*
X109542575Y-51881651D01*
X108803778Y-50909752D01*
X108183421Y-49858301D01*
X107689971Y-48741645D01*
X107330175Y-47575049D01*
X107108939Y-46374430D01*
X107029294Y-45156214D01*
X107092323Y-43937019D01*
X107297165Y-42733506D01*
X107641025Y-41562109D01*
X108119203Y-40438828D01*
X108591833Y-39612212D01*
X115213000Y-39612212D01*
X115213000Y-40057788D01*
X115299927Y-40494801D01*
X115470441Y-40906459D01*
X115717990Y-41276941D01*
X116033059Y-41592010D01*
X116403541Y-41839559D01*
X116815199Y-42010073D01*
X117252212Y-42097000D01*
X117697788Y-42097000D01*
X118134801Y-42010073D01*
X118546459Y-41839559D01*
X118916941Y-41592010D01*
X119232010Y-41276941D01*
X119479559Y-40906459D01*
X119650073Y-40494801D01*
X119737000Y-40057788D01*
X119737000Y-39612212D01*
X119650073Y-39175199D01*
X119479559Y-38763541D01*
X119232010Y-38393059D01*
X118916941Y-38077990D01*
X118546459Y-37830441D01*
X118134801Y-37659927D01*
X117697788Y-37573000D01*
X117252212Y-37573000D01*
X116815199Y-37659927D01*
X116403541Y-37830441D01*
X116033059Y-38077990D01*
X115717990Y-38393059D01*
X115470441Y-38763541D01*
X115299927Y-39175199D01*
X115213000Y-39612212D01*
X108591833Y-39612212D01*
X108725168Y-39379014D01*
X109450649Y-38397129D01*
X110299654Y-37491745D01*
X110374076Y-37422102D01*
X110414185Y-37389185D01*
X110512532Y-37269349D01*
X110585610Y-37132629D01*
X110630612Y-36984279D01*
X110642000Y-36868654D01*
X110642000Y-36830017D01*
X110642001Y-36830000D01*
X110642000Y-36829983D01*
X110642000Y-33058491D01*
X110654901Y-32926919D01*
X110681935Y-32837380D01*
X110725843Y-32754800D01*
X110784954Y-32682322D01*
X110857021Y-32622703D01*
X110939290Y-32578220D01*
X111028640Y-32550562D01*
X111157675Y-32537000D01*
X115773545Y-32537000D01*
X115977948Y-32820047D01*
G37*
%TD.AperFunction*%
%TD*%
M02*
