M48
; DRILL file {KiCad (5.1.9)-1} date 05/06/21 14:47:03
; FORMAT={-:-/ absolute / metric / decimal}
; #@! TF.CreationDate,2021-05-06T14:47:03+08:00
; #@! TF.GenerationSoftware,Kicad,Pcbnew,(5.1.9)-1
FMAT,2
METRIC
T1C0.400
T2C0.500
T3C0.800
%
G90
G05
T1
X112.395Y-53.975
X115.57Y-53.975
X116.205Y-82.55
X116.205Y-85.09
X116.205Y-87.63
X118.745Y-53.975
X118.745Y-82.55
X118.745Y-85.09
X118.745Y-87.63
X121.92Y-53.975
X125.095Y-53.975
T2
X113.665Y-64.775
X113.665Y-66.675
T3
X111.125Y-57.15
X111.125Y-59.69
X111.125Y-62.23
X111.125Y-64.77
X111.125Y-67.31
X111.125Y-69.85
X111.125Y-72.39
X111.125Y-74.93
X111.125Y-77.47
X111.125Y-80.01
X111.125Y-82.55
X111.125Y-85.09
X111.125Y-87.63
X111.125Y-90.17
X113.665Y-69.85
X113.665Y-72.39
X113.665Y-74.93
X113.665Y-77.47
X113.665Y-80.01
X113.665Y-82.55
X113.665Y-85.09
X113.665Y-87.63
X121.285Y-69.85
X121.285Y-72.39
X121.285Y-74.93
X121.285Y-77.47
X121.285Y-80.01
X121.285Y-82.55
X121.285Y-85.09
X121.285Y-87.63
X123.825Y-69.85
X123.825Y-74.85
X126.365Y-57.15
X126.365Y-59.69
X126.365Y-62.23
X126.365Y-64.77
X126.365Y-67.31
X126.365Y-69.85
X126.365Y-72.39
X126.365Y-74.93
X126.365Y-77.47
X126.365Y-80.01
X126.365Y-82.55
X126.365Y-85.09
X126.365Y-87.63
X126.365Y-90.17
T0
M30
