M48
; DRILL file {KiCad (5.1.9)-1} date 05/05/21 18:06:20
; FORMAT={-:-/ absolute / metric / decimal}
; #@! TF.CreationDate,2021-05-05T18:06:20+08:00
; #@! TF.GenerationSoftware,Kicad,Pcbnew,(5.1.9)-1
FMAT,2
METRIC
T1C0.800
T2C0.900
%
G90
G05
T1
X107.315Y-63.5
X107.315Y-93.98
X107.315Y-96.52
X107.315Y-99.06
X107.315Y-101.6
X107.315Y-104.14
X107.315Y-106.68
X107.315Y-109.22
X107.315Y-111.76
X107.315Y-114.3
X107.315Y-116.84
X107.315Y-119.38
X107.315Y-121.92
X107.315Y-124.46
X107.315Y-127.0
X109.855Y-63.5
X109.855Y-93.98
X109.855Y-96.52
X109.855Y-99.06
X109.855Y-101.6
X109.855Y-104.14
X109.855Y-106.68
X109.855Y-109.22
X109.855Y-111.76
X109.855Y-114.3
X109.855Y-116.84
X109.855Y-119.38
X109.855Y-121.92
X109.855Y-124.46
X109.855Y-127.0
X112.395Y-63.5
X114.935Y-63.5
X117.475Y-63.5
X120.015Y-63.5
X122.555Y-63.5
X122.555Y-93.98
X122.555Y-96.52
X122.555Y-99.06
X122.555Y-101.6
X122.555Y-104.14
X122.555Y-106.68
X122.555Y-109.22
X122.555Y-111.76
X122.555Y-114.3
X122.555Y-116.84
X122.555Y-119.38
X122.555Y-121.92
X122.555Y-124.46
X122.555Y-127.0
X125.095Y-63.5
X125.095Y-93.98
X125.095Y-96.52
X125.095Y-99.06
X125.095Y-101.6
X125.095Y-104.14
X125.095Y-106.68
X125.095Y-109.22
X125.095Y-111.76
X125.095Y-114.3
X125.095Y-116.84
X125.095Y-119.38
X125.095Y-121.92
X125.095Y-124.46
X125.095Y-127.0
X133.985Y-63.5
X133.985Y-71.12
X133.985Y-93.98
X133.985Y-96.52
X133.985Y-99.06
X133.985Y-101.6
X133.985Y-104.14
X133.985Y-106.68
X133.985Y-109.22
X133.985Y-111.76
X133.985Y-114.3
X133.985Y-116.84
X133.985Y-119.38
X133.985Y-121.92
X133.985Y-124.46
X133.985Y-127.0
X136.525Y-63.5
X136.525Y-71.12
X139.065Y-63.5
X139.065Y-71.12
X141.605Y-63.5
X141.605Y-71.12
X144.145Y-63.5
X144.145Y-71.12
X146.685Y-63.5
X146.685Y-71.12
X149.225Y-63.5
X149.225Y-71.12
X149.225Y-93.98
X149.225Y-96.52
X149.225Y-99.06
X149.225Y-101.6
X149.225Y-104.14
X149.225Y-106.68
X149.225Y-109.22
X149.225Y-111.76
X149.225Y-114.3
X149.225Y-116.84
X149.225Y-119.38
X149.225Y-121.92
X149.225Y-124.46
X149.225Y-127.0
X157.48Y-93.98
X157.48Y-96.52
X157.48Y-99.06
X157.48Y-101.6
X157.48Y-104.14
X157.48Y-106.68
X157.48Y-109.22
X157.48Y-111.76
X157.48Y-114.3
X157.48Y-116.84
X157.48Y-119.38
X157.48Y-121.92
X157.48Y-124.46
X157.48Y-127.0
X172.72Y-93.98
X172.72Y-96.52
X172.72Y-99.06
X172.72Y-101.6
X172.72Y-104.14
X172.72Y-106.68
X172.72Y-109.22
X172.72Y-111.76
X172.72Y-114.3
X172.72Y-116.84
X172.72Y-119.38
X172.72Y-121.92
X172.72Y-124.46
X172.72Y-127.0
X180.34Y-63.5
X180.34Y-93.98
X180.34Y-96.52
X180.34Y-99.06
X180.34Y-101.6
X180.34Y-104.14
X180.34Y-106.68
X180.34Y-109.22
X180.34Y-111.76
X180.34Y-114.3
X180.34Y-116.84
X180.34Y-119.38
X180.34Y-121.92
X180.34Y-124.46
X180.34Y-127.0
X182.88Y-63.5
X182.88Y-93.98
X182.88Y-96.52
X182.88Y-99.06
X182.88Y-101.6
X182.88Y-104.14
X182.88Y-106.68
X182.88Y-109.22
X182.88Y-111.76
X182.88Y-114.3
X182.88Y-116.84
X182.88Y-119.38
X182.88Y-121.92
X182.88Y-124.46
X182.88Y-127.0
X185.42Y-63.5
X187.96Y-63.5
X190.5Y-63.5
X193.04Y-63.5
X195.58Y-63.5
X195.58Y-93.98
X195.58Y-96.52
X195.58Y-99.06
X195.58Y-101.6
X195.58Y-104.14
X195.58Y-106.68
X195.58Y-109.22
X195.58Y-111.76
X195.58Y-114.3
X195.58Y-116.84
X195.58Y-119.38
X195.58Y-121.92
X195.58Y-124.46
X195.58Y-127.0
X198.12Y-63.5
X198.12Y-93.98
X198.12Y-96.52
X198.12Y-99.06
X198.12Y-101.6
X198.12Y-104.14
X198.12Y-106.68
X198.12Y-109.22
X198.12Y-111.76
X198.12Y-114.3
X198.12Y-116.84
X198.12Y-119.38
X198.12Y-121.92
X198.12Y-124.46
X198.12Y-127.0
T2
X161.29Y-74.295
X168.91Y-74.295
T0
M30
