%TF.GenerationSoftware,KiCad,Pcbnew,(5.1.9)-1*%
%TF.CreationDate,2021-04-04T21:18:01+08:00*%
%TF.ProjectId,AssemblyBoard,41737365-6d62-46c7-9942-6f6172642e6b,rev?*%
%TF.SameCoordinates,Original*%
%TF.FileFunction,Legend,Top*%
%TF.FilePolarity,Positive*%
%FSLAX46Y46*%
G04 Gerber Fmt 4.6, Leading zero omitted, Abs format (unit mm)*
G04 Created by KiCad (PCBNEW (5.1.9)-1) date 2021-04-04 21:18:01*
%MOMM*%
%LPD*%
G01*
G04 APERTURE LIST*
%ADD10C,0.150000*%
%ADD11C,0.900000*%
%ADD12C,0.600000*%
G04 APERTURE END LIST*
D10*
X138560476Y-56702380D02*
X138560476Y-55702380D01*
X138798571Y-55702380D01*
X138941428Y-55750000D01*
X139036666Y-55845238D01*
X139084285Y-55940476D01*
X139131904Y-56130952D01*
X139131904Y-56273809D01*
X139084285Y-56464285D01*
X139036666Y-56559523D01*
X138941428Y-56654761D01*
X138798571Y-56702380D01*
X138560476Y-56702380D01*
X139941428Y-56654761D02*
X139846190Y-56702380D01*
X139655714Y-56702380D01*
X139560476Y-56654761D01*
X139512857Y-56559523D01*
X139512857Y-56178571D01*
X139560476Y-56083333D01*
X139655714Y-56035714D01*
X139846190Y-56035714D01*
X139941428Y-56083333D01*
X139989047Y-56178571D01*
X139989047Y-56273809D01*
X139512857Y-56369047D01*
X140370000Y-56654761D02*
X140465238Y-56702380D01*
X140655714Y-56702380D01*
X140750952Y-56654761D01*
X140798571Y-56559523D01*
X140798571Y-56511904D01*
X140750952Y-56416666D01*
X140655714Y-56369047D01*
X140512857Y-56369047D01*
X140417619Y-56321428D01*
X140370000Y-56226190D01*
X140370000Y-56178571D01*
X140417619Y-56083333D01*
X140512857Y-56035714D01*
X140655714Y-56035714D01*
X140750952Y-56083333D01*
X141227142Y-56702380D02*
X141227142Y-56035714D01*
X141227142Y-55702380D02*
X141179523Y-55750000D01*
X141227142Y-55797619D01*
X141274761Y-55750000D01*
X141227142Y-55702380D01*
X141227142Y-55797619D01*
X142131904Y-56035714D02*
X142131904Y-56845238D01*
X142084285Y-56940476D01*
X142036666Y-56988095D01*
X141941428Y-57035714D01*
X141798571Y-57035714D01*
X141703333Y-56988095D01*
X142131904Y-56654761D02*
X142036666Y-56702380D01*
X141846190Y-56702380D01*
X141750952Y-56654761D01*
X141703333Y-56607142D01*
X141655714Y-56511904D01*
X141655714Y-56226190D01*
X141703333Y-56130952D01*
X141750952Y-56083333D01*
X141846190Y-56035714D01*
X142036666Y-56035714D01*
X142131904Y-56083333D01*
X142608095Y-56035714D02*
X142608095Y-56702380D01*
X142608095Y-56130952D02*
X142655714Y-56083333D01*
X142750952Y-56035714D01*
X142893809Y-56035714D01*
X142989047Y-56083333D01*
X143036666Y-56178571D01*
X143036666Y-56702380D01*
X144274761Y-56035714D02*
X144274761Y-57035714D01*
X144274761Y-56083333D02*
X144370000Y-56035714D01*
X144560476Y-56035714D01*
X144655714Y-56083333D01*
X144703333Y-56130952D01*
X144750952Y-56226190D01*
X144750952Y-56511904D01*
X144703333Y-56607142D01*
X144655714Y-56654761D01*
X144560476Y-56702380D01*
X144370000Y-56702380D01*
X144274761Y-56654761D01*
X145322380Y-56702380D02*
X145227142Y-56654761D01*
X145179523Y-56559523D01*
X145179523Y-55702380D01*
X146131904Y-56702380D02*
X146131904Y-56178571D01*
X146084285Y-56083333D01*
X145989047Y-56035714D01*
X145798571Y-56035714D01*
X145703333Y-56083333D01*
X146131904Y-56654761D02*
X146036666Y-56702380D01*
X145798571Y-56702380D01*
X145703333Y-56654761D01*
X145655714Y-56559523D01*
X145655714Y-56464285D01*
X145703333Y-56369047D01*
X145798571Y-56321428D01*
X146036666Y-56321428D01*
X146131904Y-56273809D01*
X147036666Y-56654761D02*
X146941428Y-56702380D01*
X146750952Y-56702380D01*
X146655714Y-56654761D01*
X146608095Y-56607142D01*
X146560476Y-56511904D01*
X146560476Y-56226190D01*
X146608095Y-56130952D01*
X146655714Y-56083333D01*
X146750952Y-56035714D01*
X146941428Y-56035714D01*
X147036666Y-56083333D01*
X147846190Y-56654761D02*
X147750952Y-56702380D01*
X147560476Y-56702380D01*
X147465238Y-56654761D01*
X147417619Y-56559523D01*
X147417619Y-56178571D01*
X147465238Y-56083333D01*
X147560476Y-56035714D01*
X147750952Y-56035714D01*
X147846190Y-56083333D01*
X147893809Y-56178571D01*
X147893809Y-56273809D01*
X147417619Y-56369047D01*
X148750952Y-56702380D02*
X148750952Y-55702380D01*
X148750952Y-56654761D02*
X148655714Y-56702380D01*
X148465238Y-56702380D01*
X148370000Y-56654761D01*
X148322380Y-56607142D01*
X148274761Y-56511904D01*
X148274761Y-56226190D01*
X148322380Y-56130952D01*
X148370000Y-56083333D01*
X148465238Y-56035714D01*
X148655714Y-56035714D01*
X148750952Y-56083333D01*
X149989047Y-56702380D02*
X149989047Y-56035714D01*
X149989047Y-55702380D02*
X149941428Y-55750000D01*
X149989047Y-55797619D01*
X150036666Y-55750000D01*
X149989047Y-55702380D01*
X149989047Y-55797619D01*
X150465238Y-56035714D02*
X150465238Y-56702380D01*
X150465238Y-56130952D02*
X150512857Y-56083333D01*
X150608095Y-56035714D01*
X150750952Y-56035714D01*
X150846190Y-56083333D01*
X150893809Y-56178571D01*
X150893809Y-56702380D01*
X151227142Y-56035714D02*
X151608095Y-56035714D01*
X151370000Y-55702380D02*
X151370000Y-56559523D01*
X151417619Y-56654761D01*
X151512857Y-56702380D01*
X151608095Y-56702380D01*
X152084285Y-56702380D02*
X151989047Y-56654761D01*
X151941428Y-56607142D01*
X151893809Y-56511904D01*
X151893809Y-56226190D01*
X151941428Y-56130952D01*
X151989047Y-56083333D01*
X152084285Y-56035714D01*
X152227142Y-56035714D01*
X152322380Y-56083333D01*
X152370000Y-56130952D01*
X152417619Y-56226190D01*
X152417619Y-56511904D01*
X152370000Y-56607142D01*
X152322380Y-56654761D01*
X152227142Y-56702380D01*
X152084285Y-56702380D01*
X153465238Y-56035714D02*
X153846190Y-56035714D01*
X153608095Y-55702380D02*
X153608095Y-56559523D01*
X153655714Y-56654761D01*
X153750952Y-56702380D01*
X153846190Y-56702380D01*
X154179523Y-56702380D02*
X154179523Y-55702380D01*
X154608095Y-56702380D02*
X154608095Y-56178571D01*
X154560476Y-56083333D01*
X154465238Y-56035714D01*
X154322380Y-56035714D01*
X154227142Y-56083333D01*
X154179523Y-56130952D01*
X155465238Y-56654761D02*
X155370000Y-56702380D01*
X155179523Y-56702380D01*
X155084285Y-56654761D01*
X155036666Y-56559523D01*
X155036666Y-56178571D01*
X155084285Y-56083333D01*
X155179523Y-56035714D01*
X155370000Y-56035714D01*
X155465238Y-56083333D01*
X155512857Y-56178571D01*
X155512857Y-56273809D01*
X155036666Y-56369047D01*
X156703333Y-56702380D02*
X156703333Y-55702380D01*
X157084285Y-55702380D01*
X157179523Y-55750000D01*
X157227142Y-55797619D01*
X157274761Y-55892857D01*
X157274761Y-56035714D01*
X157227142Y-56130952D01*
X157179523Y-56178571D01*
X157084285Y-56226190D01*
X156703333Y-56226190D01*
X158131904Y-56035714D02*
X158131904Y-56702380D01*
X157703333Y-56035714D02*
X157703333Y-56559523D01*
X157750952Y-56654761D01*
X157846190Y-56702380D01*
X157989047Y-56702380D01*
X158084285Y-56654761D01*
X158131904Y-56607142D01*
X158608095Y-56702380D02*
X158608095Y-55702380D01*
X158608095Y-56083333D02*
X158703333Y-56035714D01*
X158893809Y-56035714D01*
X158989047Y-56083333D01*
X159036666Y-56130952D01*
X159084285Y-56226190D01*
X159084285Y-56511904D01*
X159036666Y-56607142D01*
X158989047Y-56654761D01*
X158893809Y-56702380D01*
X158703333Y-56702380D01*
X158608095Y-56654761D01*
X159655714Y-56702380D02*
X159560476Y-56654761D01*
X159512857Y-56559523D01*
X159512857Y-55702380D01*
X160036666Y-56702380D02*
X160036666Y-56035714D01*
X160036666Y-55702380D02*
X159989047Y-55750000D01*
X160036666Y-55797619D01*
X160084285Y-55750000D01*
X160036666Y-55702380D01*
X160036666Y-55797619D01*
X160941428Y-56654761D02*
X160846190Y-56702380D01*
X160655714Y-56702380D01*
X160560476Y-56654761D01*
X160512857Y-56607142D01*
X160465238Y-56511904D01*
X160465238Y-56226190D01*
X160512857Y-56130952D01*
X160560476Y-56083333D01*
X160655714Y-56035714D01*
X160846190Y-56035714D01*
X160941428Y-56083333D01*
X162131904Y-56702380D02*
X162131904Y-55702380D01*
X162370000Y-55702380D01*
X162512857Y-55750000D01*
X162608095Y-55845238D01*
X162655714Y-55940476D01*
X162703333Y-56130952D01*
X162703333Y-56273809D01*
X162655714Y-56464285D01*
X162608095Y-56559523D01*
X162512857Y-56654761D01*
X162370000Y-56702380D01*
X162131904Y-56702380D01*
X163274761Y-56702380D02*
X163179523Y-56654761D01*
X163131904Y-56607142D01*
X163084285Y-56511904D01*
X163084285Y-56226190D01*
X163131904Y-56130952D01*
X163179523Y-56083333D01*
X163274761Y-56035714D01*
X163417619Y-56035714D01*
X163512857Y-56083333D01*
X163560476Y-56130952D01*
X163608095Y-56226190D01*
X163608095Y-56511904D01*
X163560476Y-56607142D01*
X163512857Y-56654761D01*
X163417619Y-56702380D01*
X163274761Y-56702380D01*
X164036666Y-56702380D02*
X164036666Y-56035714D01*
X164036666Y-56130952D02*
X164084285Y-56083333D01*
X164179523Y-56035714D01*
X164322380Y-56035714D01*
X164417619Y-56083333D01*
X164465238Y-56178571D01*
X164465238Y-56702380D01*
X164465238Y-56178571D02*
X164512857Y-56083333D01*
X164608095Y-56035714D01*
X164750952Y-56035714D01*
X164846190Y-56083333D01*
X164893809Y-56178571D01*
X164893809Y-56702380D01*
X165798571Y-56702380D02*
X165798571Y-56178571D01*
X165750952Y-56083333D01*
X165655714Y-56035714D01*
X165465238Y-56035714D01*
X165370000Y-56083333D01*
X165798571Y-56654761D02*
X165703333Y-56702380D01*
X165465238Y-56702380D01*
X165370000Y-56654761D01*
X165322380Y-56559523D01*
X165322380Y-56464285D01*
X165370000Y-56369047D01*
X165465238Y-56321428D01*
X165703333Y-56321428D01*
X165798571Y-56273809D01*
X166274761Y-56702380D02*
X166274761Y-56035714D01*
X166274761Y-55702380D02*
X166227142Y-55750000D01*
X166274761Y-55797619D01*
X166322380Y-55750000D01*
X166274761Y-55702380D01*
X166274761Y-55797619D01*
X166750952Y-56035714D02*
X166750952Y-56702380D01*
X166750952Y-56130952D02*
X166798571Y-56083333D01*
X166893809Y-56035714D01*
X167036666Y-56035714D01*
X167131904Y-56083333D01*
X167179523Y-56178571D01*
X167179523Y-56702380D01*
X200660000Y-60325000D02*
X200660000Y-129540000D01*
X177800000Y-60325000D02*
X200660000Y-60325000D01*
X177800000Y-129540000D02*
X177800000Y-60325000D01*
X200660000Y-129540000D02*
X177800000Y-129540000D01*
X154940000Y-129540000D02*
X175260000Y-129540000D01*
X175260000Y-60325000D02*
X154940000Y-60325000D01*
X175260000Y-129540000D02*
X175260000Y-60325000D01*
X154940000Y-60325000D02*
X154940000Y-129540000D01*
X151765000Y-60325000D02*
X131445000Y-60325000D01*
X151765000Y-129540000D02*
X151765000Y-60325000D01*
X131445000Y-129540000D02*
X151765000Y-129540000D01*
X131445000Y-60325000D02*
X131445000Y-129540000D01*
X127635000Y-60325000D02*
X127635000Y-129540000D01*
X104775000Y-60325000D02*
X127635000Y-60325000D01*
X104775000Y-129540000D02*
X104775000Y-60325000D01*
X127635000Y-129540000D02*
X104775000Y-129540000D01*
X180564404Y-79257380D02*
X179992976Y-79257380D01*
X180278690Y-79257380D02*
X180278690Y-78257380D01*
X180183452Y-78400238D01*
X180088214Y-78495476D01*
X179992976Y-78543095D01*
X180992976Y-79162142D02*
X181040595Y-79209761D01*
X180992976Y-79257380D01*
X180945357Y-79209761D01*
X180992976Y-79162142D01*
X180992976Y-79257380D01*
X182231071Y-79257380D02*
X182231071Y-78257380D01*
X182707261Y-78590714D02*
X182707261Y-79257380D01*
X182707261Y-78685952D02*
X182754880Y-78638333D01*
X182850119Y-78590714D01*
X182992976Y-78590714D01*
X183088214Y-78638333D01*
X183135833Y-78733571D01*
X183135833Y-79257380D01*
X183564404Y-79209761D02*
X183659642Y-79257380D01*
X183850119Y-79257380D01*
X183945357Y-79209761D01*
X183992976Y-79114523D01*
X183992976Y-79066904D01*
X183945357Y-78971666D01*
X183850119Y-78924047D01*
X183707261Y-78924047D01*
X183612023Y-78876428D01*
X183564404Y-78781190D01*
X183564404Y-78733571D01*
X183612023Y-78638333D01*
X183707261Y-78590714D01*
X183850119Y-78590714D01*
X183945357Y-78638333D01*
X184802500Y-79209761D02*
X184707261Y-79257380D01*
X184516785Y-79257380D01*
X184421547Y-79209761D01*
X184373928Y-79114523D01*
X184373928Y-78733571D01*
X184421547Y-78638333D01*
X184516785Y-78590714D01*
X184707261Y-78590714D01*
X184802500Y-78638333D01*
X184850119Y-78733571D01*
X184850119Y-78828809D01*
X184373928Y-78924047D01*
X185278690Y-79257380D02*
X185278690Y-78590714D01*
X185278690Y-78781190D02*
X185326309Y-78685952D01*
X185373928Y-78638333D01*
X185469166Y-78590714D01*
X185564404Y-78590714D01*
X185754880Y-78590714D02*
X186135833Y-78590714D01*
X185897738Y-78257380D02*
X185897738Y-79114523D01*
X185945357Y-79209761D01*
X186040595Y-79257380D01*
X186135833Y-79257380D01*
X187231071Y-78590714D02*
X187231071Y-79590714D01*
X187231071Y-78638333D02*
X187326309Y-78590714D01*
X187516785Y-78590714D01*
X187612023Y-78638333D01*
X187659642Y-78685952D01*
X187707261Y-78781190D01*
X187707261Y-79066904D01*
X187659642Y-79162142D01*
X187612023Y-79209761D01*
X187516785Y-79257380D01*
X187326309Y-79257380D01*
X187231071Y-79209761D01*
X188135833Y-79257380D02*
X188135833Y-78590714D01*
X188135833Y-78257380D02*
X188088214Y-78305000D01*
X188135833Y-78352619D01*
X188183452Y-78305000D01*
X188135833Y-78257380D01*
X188135833Y-78352619D01*
X188612023Y-78590714D02*
X188612023Y-79257380D01*
X188612023Y-78685952D02*
X188659642Y-78638333D01*
X188754880Y-78590714D01*
X188897738Y-78590714D01*
X188992976Y-78638333D01*
X189040595Y-78733571D01*
X189040595Y-79257380D01*
X190278690Y-79257380D02*
X190278690Y-78257380D01*
X190707261Y-79257380D02*
X190707261Y-78733571D01*
X190659642Y-78638333D01*
X190564404Y-78590714D01*
X190421547Y-78590714D01*
X190326309Y-78638333D01*
X190278690Y-78685952D01*
X191564404Y-79209761D02*
X191469166Y-79257380D01*
X191278690Y-79257380D01*
X191183452Y-79209761D01*
X191135833Y-79114523D01*
X191135833Y-78733571D01*
X191183452Y-78638333D01*
X191278690Y-78590714D01*
X191469166Y-78590714D01*
X191564404Y-78638333D01*
X191612023Y-78733571D01*
X191612023Y-78828809D01*
X191135833Y-78924047D01*
X192469166Y-79257380D02*
X192469166Y-78733571D01*
X192421547Y-78638333D01*
X192326309Y-78590714D01*
X192135833Y-78590714D01*
X192040595Y-78638333D01*
X192469166Y-79209761D02*
X192373928Y-79257380D01*
X192135833Y-79257380D01*
X192040595Y-79209761D01*
X191992976Y-79114523D01*
X191992976Y-79019285D01*
X192040595Y-78924047D01*
X192135833Y-78876428D01*
X192373928Y-78876428D01*
X192469166Y-78828809D01*
X193373928Y-79257380D02*
X193373928Y-78257380D01*
X193373928Y-79209761D02*
X193278690Y-79257380D01*
X193088214Y-79257380D01*
X192992976Y-79209761D01*
X192945357Y-79162142D01*
X192897738Y-79066904D01*
X192897738Y-78781190D01*
X192945357Y-78685952D01*
X192992976Y-78638333D01*
X193088214Y-78590714D01*
X193278690Y-78590714D01*
X193373928Y-78638333D01*
X194231071Y-79209761D02*
X194135833Y-79257380D01*
X193945357Y-79257380D01*
X193850119Y-79209761D01*
X193802500Y-79114523D01*
X193802500Y-78733571D01*
X193850119Y-78638333D01*
X193945357Y-78590714D01*
X194135833Y-78590714D01*
X194231071Y-78638333D01*
X194278690Y-78733571D01*
X194278690Y-78828809D01*
X193802500Y-78924047D01*
X194707261Y-79257380D02*
X194707261Y-78590714D01*
X194707261Y-78781190D02*
X194754880Y-78685952D01*
X194802500Y-78638333D01*
X194897738Y-78590714D01*
X194992976Y-78590714D01*
X196088214Y-79257380D02*
X196088214Y-78590714D01*
X196088214Y-78257380D02*
X196040595Y-78305000D01*
X196088214Y-78352619D01*
X196135833Y-78305000D01*
X196088214Y-78257380D01*
X196088214Y-78352619D01*
X196564404Y-78590714D02*
X196564404Y-79257380D01*
X196564404Y-78685952D02*
X196612023Y-78638333D01*
X196707261Y-78590714D01*
X196850119Y-78590714D01*
X196945357Y-78638333D01*
X196992976Y-78733571D01*
X196992976Y-79257380D01*
X197326309Y-78590714D02*
X197707261Y-78590714D01*
X197469166Y-78257380D02*
X197469166Y-79114523D01*
X197516785Y-79209761D01*
X197612023Y-79257380D01*
X197707261Y-79257380D01*
X198183452Y-79257380D02*
X198088214Y-79209761D01*
X198040595Y-79162142D01*
X197992976Y-79066904D01*
X197992976Y-78781190D01*
X198040595Y-78685952D01*
X198088214Y-78638333D01*
X198183452Y-78590714D01*
X198326309Y-78590714D01*
X198421547Y-78638333D01*
X198469166Y-78685952D01*
X198516785Y-78781190D01*
X198516785Y-79066904D01*
X198469166Y-79162142D01*
X198421547Y-79209761D01*
X198326309Y-79257380D01*
X198183452Y-79257380D01*
X182326309Y-80907380D02*
X182326309Y-80240714D01*
X182326309Y-80335952D02*
X182373928Y-80288333D01*
X182469166Y-80240714D01*
X182612023Y-80240714D01*
X182707261Y-80288333D01*
X182754880Y-80383571D01*
X182754880Y-80907380D01*
X182754880Y-80383571D02*
X182802500Y-80288333D01*
X182897738Y-80240714D01*
X183040595Y-80240714D01*
X183135833Y-80288333D01*
X183183452Y-80383571D01*
X183183452Y-80907380D01*
X184088214Y-80907380D02*
X184088214Y-80383571D01*
X184040595Y-80288333D01*
X183945357Y-80240714D01*
X183754880Y-80240714D01*
X183659642Y-80288333D01*
X184088214Y-80859761D02*
X183992976Y-80907380D01*
X183754880Y-80907380D01*
X183659642Y-80859761D01*
X183612023Y-80764523D01*
X183612023Y-80669285D01*
X183659642Y-80574047D01*
X183754880Y-80526428D01*
X183992976Y-80526428D01*
X184088214Y-80478809D01*
X184564404Y-80907380D02*
X184564404Y-80240714D01*
X184564404Y-80431190D02*
X184612023Y-80335952D01*
X184659642Y-80288333D01*
X184754880Y-80240714D01*
X184850119Y-80240714D01*
X185183452Y-80907380D02*
X185183452Y-79907380D01*
X185278690Y-80526428D02*
X185564404Y-80907380D01*
X185564404Y-80240714D02*
X185183452Y-80621666D01*
X186373928Y-80859761D02*
X186278690Y-80907380D01*
X186088214Y-80907380D01*
X185992976Y-80859761D01*
X185945357Y-80764523D01*
X185945357Y-80383571D01*
X185992976Y-80288333D01*
X186088214Y-80240714D01*
X186278690Y-80240714D01*
X186373928Y-80288333D01*
X186421547Y-80383571D01*
X186421547Y-80478809D01*
X185945357Y-80574047D01*
X187278690Y-80907380D02*
X187278690Y-79907380D01*
X187278690Y-80859761D02*
X187183452Y-80907380D01*
X186992976Y-80907380D01*
X186897738Y-80859761D01*
X186850119Y-80812142D01*
X186802500Y-80716904D01*
X186802500Y-80431190D01*
X186850119Y-80335952D01*
X186897738Y-80288333D01*
X186992976Y-80240714D01*
X187183452Y-80240714D01*
X187278690Y-80288333D01*
X188516785Y-80907380D02*
X188516785Y-80240714D01*
X188516785Y-80431190D02*
X188564404Y-80335952D01*
X188612023Y-80288333D01*
X188707261Y-80240714D01*
X188802500Y-80240714D01*
X189278690Y-80907380D02*
X189183452Y-80859761D01*
X189135833Y-80812142D01*
X189088214Y-80716904D01*
X189088214Y-80431190D01*
X189135833Y-80335952D01*
X189183452Y-80288333D01*
X189278690Y-80240714D01*
X189421547Y-80240714D01*
X189516785Y-80288333D01*
X189564404Y-80335952D01*
X189612023Y-80431190D01*
X189612023Y-80716904D01*
X189564404Y-80812142D01*
X189516785Y-80859761D01*
X189421547Y-80907380D01*
X189278690Y-80907380D01*
X189945357Y-80240714D02*
X190135833Y-80907380D01*
X190326309Y-80431190D01*
X190516785Y-80907380D01*
X190707261Y-80240714D01*
X179992976Y-81652619D02*
X180040595Y-81605000D01*
X180135833Y-81557380D01*
X180373928Y-81557380D01*
X180469166Y-81605000D01*
X180516785Y-81652619D01*
X180564404Y-81747857D01*
X180564404Y-81843095D01*
X180516785Y-81985952D01*
X179945357Y-82557380D01*
X180564404Y-82557380D01*
X180992976Y-82462142D02*
X181040595Y-82509761D01*
X180992976Y-82557380D01*
X180945357Y-82509761D01*
X180992976Y-82462142D01*
X180992976Y-82557380D01*
X182231071Y-82557380D02*
X182231071Y-81557380D01*
X182612023Y-81557380D01*
X182707261Y-81605000D01*
X182754880Y-81652619D01*
X182802500Y-81747857D01*
X182802500Y-81890714D01*
X182754880Y-81985952D01*
X182707261Y-82033571D01*
X182612023Y-82081190D01*
X182231071Y-82081190D01*
X183373928Y-82557380D02*
X183278690Y-82509761D01*
X183231071Y-82414523D01*
X183231071Y-81557380D01*
X184183452Y-82557380D02*
X184183452Y-82033571D01*
X184135833Y-81938333D01*
X184040595Y-81890714D01*
X183850119Y-81890714D01*
X183754880Y-81938333D01*
X184183452Y-82509761D02*
X184088214Y-82557380D01*
X183850119Y-82557380D01*
X183754880Y-82509761D01*
X183707261Y-82414523D01*
X183707261Y-82319285D01*
X183754880Y-82224047D01*
X183850119Y-82176428D01*
X184088214Y-82176428D01*
X184183452Y-82128809D01*
X185088214Y-82509761D02*
X184992976Y-82557380D01*
X184802500Y-82557380D01*
X184707261Y-82509761D01*
X184659642Y-82462142D01*
X184612023Y-82366904D01*
X184612023Y-82081190D01*
X184659642Y-81985952D01*
X184707261Y-81938333D01*
X184802500Y-81890714D01*
X184992976Y-81890714D01*
X185088214Y-81938333D01*
X185897738Y-82509761D02*
X185802500Y-82557380D01*
X185612023Y-82557380D01*
X185516785Y-82509761D01*
X185469166Y-82414523D01*
X185469166Y-82033571D01*
X185516785Y-81938333D01*
X185612023Y-81890714D01*
X185802500Y-81890714D01*
X185897738Y-81938333D01*
X185945357Y-82033571D01*
X185945357Y-82128809D01*
X185469166Y-82224047D01*
X187135833Y-82557380D02*
X187135833Y-81557380D01*
X187135833Y-81938333D02*
X187231071Y-81890714D01*
X187421547Y-81890714D01*
X187516785Y-81938333D01*
X187564404Y-81985952D01*
X187612023Y-82081190D01*
X187612023Y-82366904D01*
X187564404Y-82462142D01*
X187516785Y-82509761D01*
X187421547Y-82557380D01*
X187231071Y-82557380D01*
X187135833Y-82509761D01*
X188183452Y-82557380D02*
X188088214Y-82509761D01*
X188040595Y-82462142D01*
X187992976Y-82366904D01*
X187992976Y-82081190D01*
X188040595Y-81985952D01*
X188088214Y-81938333D01*
X188183452Y-81890714D01*
X188326309Y-81890714D01*
X188421547Y-81938333D01*
X188469166Y-81985952D01*
X188516785Y-82081190D01*
X188516785Y-82366904D01*
X188469166Y-82462142D01*
X188421547Y-82509761D01*
X188326309Y-82557380D01*
X188183452Y-82557380D01*
X189373928Y-82557380D02*
X189373928Y-82033571D01*
X189326309Y-81938333D01*
X189231071Y-81890714D01*
X189040595Y-81890714D01*
X188945357Y-81938333D01*
X189373928Y-82509761D02*
X189278690Y-82557380D01*
X189040595Y-82557380D01*
X188945357Y-82509761D01*
X188897738Y-82414523D01*
X188897738Y-82319285D01*
X188945357Y-82224047D01*
X189040595Y-82176428D01*
X189278690Y-82176428D01*
X189373928Y-82128809D01*
X189850119Y-82557380D02*
X189850119Y-81890714D01*
X189850119Y-82081190D02*
X189897738Y-81985952D01*
X189945357Y-81938333D01*
X190040595Y-81890714D01*
X190135833Y-81890714D01*
X190897738Y-82557380D02*
X190897738Y-81557380D01*
X190897738Y-82509761D02*
X190802500Y-82557380D01*
X190612023Y-82557380D01*
X190516785Y-82509761D01*
X190469166Y-82462142D01*
X190421547Y-82366904D01*
X190421547Y-82081190D01*
X190469166Y-81985952D01*
X190516785Y-81938333D01*
X190612023Y-81890714D01*
X190802500Y-81890714D01*
X190897738Y-81938333D01*
X192564404Y-81890714D02*
X192564404Y-82557380D01*
X192135833Y-81890714D02*
X192135833Y-82414523D01*
X192183452Y-82509761D01*
X192278690Y-82557380D01*
X192421547Y-82557380D01*
X192516785Y-82509761D01*
X192564404Y-82462142D01*
X193040595Y-81890714D02*
X193040595Y-82890714D01*
X193040595Y-81938333D02*
X193135833Y-81890714D01*
X193326309Y-81890714D01*
X193421547Y-81938333D01*
X193469166Y-81985952D01*
X193516785Y-82081190D01*
X193516785Y-82366904D01*
X193469166Y-82462142D01*
X193421547Y-82509761D01*
X193326309Y-82557380D01*
X193135833Y-82557380D01*
X193040595Y-82509761D01*
X193945357Y-82557380D02*
X193945357Y-81890714D01*
X193945357Y-82081190D02*
X193992976Y-81985952D01*
X194040595Y-81938333D01*
X194135833Y-81890714D01*
X194231071Y-81890714D01*
X194564404Y-82557380D02*
X194564404Y-81890714D01*
X194564404Y-81557380D02*
X194516785Y-81605000D01*
X194564404Y-81652619D01*
X194612023Y-81605000D01*
X194564404Y-81557380D01*
X194564404Y-81652619D01*
X195469166Y-81890714D02*
X195469166Y-82700238D01*
X195421547Y-82795476D01*
X195373928Y-82843095D01*
X195278690Y-82890714D01*
X195135833Y-82890714D01*
X195040595Y-82843095D01*
X195469166Y-82509761D02*
X195373928Y-82557380D01*
X195183452Y-82557380D01*
X195088214Y-82509761D01*
X195040595Y-82462142D01*
X194992976Y-82366904D01*
X194992976Y-82081190D01*
X195040595Y-81985952D01*
X195088214Y-81938333D01*
X195183452Y-81890714D01*
X195373928Y-81890714D01*
X195469166Y-81938333D01*
X195945357Y-82557380D02*
X195945357Y-81557380D01*
X196373928Y-82557380D02*
X196373928Y-82033571D01*
X196326309Y-81938333D01*
X196231071Y-81890714D01*
X196088214Y-81890714D01*
X195992976Y-81938333D01*
X195945357Y-81985952D01*
X196707261Y-81890714D02*
X197088214Y-81890714D01*
X196850119Y-81557380D02*
X196850119Y-82414523D01*
X196897738Y-82509761D01*
X196992976Y-82557380D01*
X197088214Y-82557380D01*
X179945357Y-83207380D02*
X180564404Y-83207380D01*
X180231071Y-83588333D01*
X180373928Y-83588333D01*
X180469166Y-83635952D01*
X180516785Y-83683571D01*
X180564404Y-83778809D01*
X180564404Y-84016904D01*
X180516785Y-84112142D01*
X180469166Y-84159761D01*
X180373928Y-84207380D01*
X180088214Y-84207380D01*
X179992976Y-84159761D01*
X179945357Y-84112142D01*
X180992976Y-84112142D02*
X181040595Y-84159761D01*
X180992976Y-84207380D01*
X180945357Y-84159761D01*
X180992976Y-84112142D01*
X180992976Y-84207380D01*
X182183452Y-84159761D02*
X182326309Y-84207380D01*
X182564404Y-84207380D01*
X182659642Y-84159761D01*
X182707261Y-84112142D01*
X182754880Y-84016904D01*
X182754880Y-83921666D01*
X182707261Y-83826428D01*
X182659642Y-83778809D01*
X182564404Y-83731190D01*
X182373928Y-83683571D01*
X182278690Y-83635952D01*
X182231071Y-83588333D01*
X182183452Y-83493095D01*
X182183452Y-83397857D01*
X182231071Y-83302619D01*
X182278690Y-83255000D01*
X182373928Y-83207380D01*
X182612023Y-83207380D01*
X182754880Y-83255000D01*
X183326309Y-84207380D02*
X183231071Y-84159761D01*
X183183452Y-84112142D01*
X183135833Y-84016904D01*
X183135833Y-83731190D01*
X183183452Y-83635952D01*
X183231071Y-83588333D01*
X183326309Y-83540714D01*
X183469166Y-83540714D01*
X183564404Y-83588333D01*
X183612023Y-83635952D01*
X183659642Y-83731190D01*
X183659642Y-84016904D01*
X183612023Y-84112142D01*
X183564404Y-84159761D01*
X183469166Y-84207380D01*
X183326309Y-84207380D01*
X184231071Y-84207380D02*
X184135833Y-84159761D01*
X184088214Y-84064523D01*
X184088214Y-83207380D01*
X185040595Y-84207380D02*
X185040595Y-83207380D01*
X185040595Y-84159761D02*
X184945357Y-84207380D01*
X184754880Y-84207380D01*
X184659642Y-84159761D01*
X184612023Y-84112142D01*
X184564404Y-84016904D01*
X184564404Y-83731190D01*
X184612023Y-83635952D01*
X184659642Y-83588333D01*
X184754880Y-83540714D01*
X184945357Y-83540714D01*
X185040595Y-83588333D01*
X185897738Y-84159761D02*
X185802500Y-84207380D01*
X185612023Y-84207380D01*
X185516785Y-84159761D01*
X185469166Y-84064523D01*
X185469166Y-83683571D01*
X185516785Y-83588333D01*
X185612023Y-83540714D01*
X185802500Y-83540714D01*
X185897738Y-83588333D01*
X185945357Y-83683571D01*
X185945357Y-83778809D01*
X185469166Y-83874047D01*
X186373928Y-84207380D02*
X186373928Y-83540714D01*
X186373928Y-83731190D02*
X186421547Y-83635952D01*
X186469166Y-83588333D01*
X186564404Y-83540714D01*
X186659642Y-83540714D01*
X187754880Y-84207380D02*
X187754880Y-83207380D01*
X188183452Y-84207380D02*
X188183452Y-83683571D01*
X188135833Y-83588333D01*
X188040595Y-83540714D01*
X187897738Y-83540714D01*
X187802500Y-83588333D01*
X187754880Y-83635952D01*
X189040595Y-84159761D02*
X188945357Y-84207380D01*
X188754880Y-84207380D01*
X188659642Y-84159761D01*
X188612023Y-84064523D01*
X188612023Y-83683571D01*
X188659642Y-83588333D01*
X188754880Y-83540714D01*
X188945357Y-83540714D01*
X189040595Y-83588333D01*
X189088214Y-83683571D01*
X189088214Y-83778809D01*
X188612023Y-83874047D01*
X189945357Y-84207380D02*
X189945357Y-83683571D01*
X189897738Y-83588333D01*
X189802500Y-83540714D01*
X189612023Y-83540714D01*
X189516785Y-83588333D01*
X189945357Y-84159761D02*
X189850119Y-84207380D01*
X189612023Y-84207380D01*
X189516785Y-84159761D01*
X189469166Y-84064523D01*
X189469166Y-83969285D01*
X189516785Y-83874047D01*
X189612023Y-83826428D01*
X189850119Y-83826428D01*
X189945357Y-83778809D01*
X190850119Y-84207380D02*
X190850119Y-83207380D01*
X190850119Y-84159761D02*
X190754880Y-84207380D01*
X190564404Y-84207380D01*
X190469166Y-84159761D01*
X190421547Y-84112142D01*
X190373928Y-84016904D01*
X190373928Y-83731190D01*
X190421547Y-83635952D01*
X190469166Y-83588333D01*
X190564404Y-83540714D01*
X190754880Y-83540714D01*
X190850119Y-83588333D01*
X191707261Y-84159761D02*
X191612023Y-84207380D01*
X191421547Y-84207380D01*
X191326309Y-84159761D01*
X191278690Y-84064523D01*
X191278690Y-83683571D01*
X191326309Y-83588333D01*
X191421547Y-83540714D01*
X191612023Y-83540714D01*
X191707261Y-83588333D01*
X191754880Y-83683571D01*
X191754880Y-83778809D01*
X191278690Y-83874047D01*
X192183452Y-84207380D02*
X192183452Y-83540714D01*
X192183452Y-83731190D02*
X192231071Y-83635952D01*
X192278690Y-83588333D01*
X192373928Y-83540714D01*
X192469166Y-83540714D01*
X193564404Y-83540714D02*
X193564404Y-84540714D01*
X193564404Y-83588333D02*
X193659642Y-83540714D01*
X193850119Y-83540714D01*
X193945357Y-83588333D01*
X193992976Y-83635952D01*
X194040595Y-83731190D01*
X194040595Y-84016904D01*
X193992976Y-84112142D01*
X193945357Y-84159761D01*
X193850119Y-84207380D01*
X193659642Y-84207380D01*
X193564404Y-84159761D01*
X194469166Y-84207380D02*
X194469166Y-83540714D01*
X194469166Y-83207380D02*
X194421547Y-83255000D01*
X194469166Y-83302619D01*
X194516785Y-83255000D01*
X194469166Y-83207380D01*
X194469166Y-83302619D01*
X194945357Y-83540714D02*
X194945357Y-84207380D01*
X194945357Y-83635952D02*
X194992976Y-83588333D01*
X195088214Y-83540714D01*
X195231071Y-83540714D01*
X195326309Y-83588333D01*
X195373928Y-83683571D01*
X195373928Y-84207380D01*
X195802500Y-84159761D02*
X195897738Y-84207380D01*
X196088214Y-84207380D01*
X196183452Y-84159761D01*
X196231071Y-84064523D01*
X196231071Y-84016904D01*
X196183452Y-83921666D01*
X196088214Y-83874047D01*
X195945357Y-83874047D01*
X195850119Y-83826428D01*
X195802500Y-83731190D01*
X195802500Y-83683571D01*
X195850119Y-83588333D01*
X195945357Y-83540714D01*
X196088214Y-83540714D01*
X196183452Y-83588333D01*
X179070000Y-128270000D02*
X179070000Y-92710000D01*
X181610000Y-128270000D02*
X179070000Y-128270000D01*
X181610000Y-92710000D02*
X181610000Y-128270000D01*
X179070000Y-92710000D02*
X181610000Y-92710000D01*
X157069404Y-79322380D02*
X156497976Y-79322380D01*
X156783690Y-79322380D02*
X156783690Y-78322380D01*
X156688452Y-78465238D01*
X156593214Y-78560476D01*
X156497976Y-78608095D01*
X157497976Y-79227142D02*
X157545595Y-79274761D01*
X157497976Y-79322380D01*
X157450357Y-79274761D01*
X157497976Y-79227142D01*
X157497976Y-79322380D01*
X158736071Y-79322380D02*
X158736071Y-78322380D01*
X159117023Y-78322380D01*
X159212261Y-78370000D01*
X159259880Y-78417619D01*
X159307500Y-78512857D01*
X159307500Y-78655714D01*
X159259880Y-78750952D01*
X159212261Y-78798571D01*
X159117023Y-78846190D01*
X158736071Y-78846190D01*
X159878928Y-79322380D02*
X159783690Y-79274761D01*
X159736071Y-79179523D01*
X159736071Y-78322380D01*
X160688452Y-79322380D02*
X160688452Y-78798571D01*
X160640833Y-78703333D01*
X160545595Y-78655714D01*
X160355119Y-78655714D01*
X160259880Y-78703333D01*
X160688452Y-79274761D02*
X160593214Y-79322380D01*
X160355119Y-79322380D01*
X160259880Y-79274761D01*
X160212261Y-79179523D01*
X160212261Y-79084285D01*
X160259880Y-78989047D01*
X160355119Y-78941428D01*
X160593214Y-78941428D01*
X160688452Y-78893809D01*
X161593214Y-79274761D02*
X161497976Y-79322380D01*
X161307500Y-79322380D01*
X161212261Y-79274761D01*
X161164642Y-79227142D01*
X161117023Y-79131904D01*
X161117023Y-78846190D01*
X161164642Y-78750952D01*
X161212261Y-78703333D01*
X161307500Y-78655714D01*
X161497976Y-78655714D01*
X161593214Y-78703333D01*
X162402738Y-79274761D02*
X162307500Y-79322380D01*
X162117023Y-79322380D01*
X162021785Y-79274761D01*
X161974166Y-79179523D01*
X161974166Y-78798571D01*
X162021785Y-78703333D01*
X162117023Y-78655714D01*
X162307500Y-78655714D01*
X162402738Y-78703333D01*
X162450357Y-78798571D01*
X162450357Y-78893809D01*
X161974166Y-78989047D01*
X163640833Y-79322380D02*
X163640833Y-78322380D01*
X163640833Y-78703333D02*
X163736071Y-78655714D01*
X163926547Y-78655714D01*
X164021785Y-78703333D01*
X164069404Y-78750952D01*
X164117023Y-78846190D01*
X164117023Y-79131904D01*
X164069404Y-79227142D01*
X164021785Y-79274761D01*
X163926547Y-79322380D01*
X163736071Y-79322380D01*
X163640833Y-79274761D01*
X164974166Y-79322380D02*
X164974166Y-78798571D01*
X164926547Y-78703333D01*
X164831309Y-78655714D01*
X164640833Y-78655714D01*
X164545595Y-78703333D01*
X164974166Y-79274761D02*
X164878928Y-79322380D01*
X164640833Y-79322380D01*
X164545595Y-79274761D01*
X164497976Y-79179523D01*
X164497976Y-79084285D01*
X164545595Y-78989047D01*
X164640833Y-78941428D01*
X164878928Y-78941428D01*
X164974166Y-78893809D01*
X165307500Y-78655714D02*
X165688452Y-78655714D01*
X165450357Y-78322380D02*
X165450357Y-79179523D01*
X165497976Y-79274761D01*
X165593214Y-79322380D01*
X165688452Y-79322380D01*
X165878928Y-78655714D02*
X166259880Y-78655714D01*
X166021785Y-78322380D02*
X166021785Y-79179523D01*
X166069404Y-79274761D01*
X166164642Y-79322380D01*
X166259880Y-79322380D01*
X166974166Y-79274761D02*
X166878928Y-79322380D01*
X166688452Y-79322380D01*
X166593214Y-79274761D01*
X166545595Y-79179523D01*
X166545595Y-78798571D01*
X166593214Y-78703333D01*
X166688452Y-78655714D01*
X166878928Y-78655714D01*
X166974166Y-78703333D01*
X167021785Y-78798571D01*
X167021785Y-78893809D01*
X166545595Y-78989047D01*
X167450357Y-79322380D02*
X167450357Y-78655714D01*
X167450357Y-78846190D02*
X167497976Y-78750952D01*
X167545595Y-78703333D01*
X167640833Y-78655714D01*
X167736071Y-78655714D01*
X167974166Y-78655714D02*
X168212261Y-79322380D01*
X168450357Y-78655714D02*
X168212261Y-79322380D01*
X168117023Y-79560476D01*
X168069404Y-79608095D01*
X167974166Y-79655714D01*
X158831309Y-80972380D02*
X158831309Y-79972380D01*
X159259880Y-80972380D02*
X159259880Y-80448571D01*
X159212261Y-80353333D01*
X159117023Y-80305714D01*
X158974166Y-80305714D01*
X158878928Y-80353333D01*
X158831309Y-80400952D01*
X159878928Y-80972380D02*
X159783690Y-80924761D01*
X159736071Y-80877142D01*
X159688452Y-80781904D01*
X159688452Y-80496190D01*
X159736071Y-80400952D01*
X159783690Y-80353333D01*
X159878928Y-80305714D01*
X160021785Y-80305714D01*
X160117023Y-80353333D01*
X160164642Y-80400952D01*
X160212261Y-80496190D01*
X160212261Y-80781904D01*
X160164642Y-80877142D01*
X160117023Y-80924761D01*
X160021785Y-80972380D01*
X159878928Y-80972380D01*
X160783690Y-80972380D02*
X160688452Y-80924761D01*
X160640833Y-80829523D01*
X160640833Y-79972380D01*
X161593214Y-80972380D02*
X161593214Y-79972380D01*
X161593214Y-80924761D02*
X161497976Y-80972380D01*
X161307500Y-80972380D01*
X161212261Y-80924761D01*
X161164642Y-80877142D01*
X161117023Y-80781904D01*
X161117023Y-80496190D01*
X161164642Y-80400952D01*
X161212261Y-80353333D01*
X161307500Y-80305714D01*
X161497976Y-80305714D01*
X161593214Y-80353333D01*
X162450357Y-80924761D02*
X162355119Y-80972380D01*
X162164642Y-80972380D01*
X162069404Y-80924761D01*
X162021785Y-80829523D01*
X162021785Y-80448571D01*
X162069404Y-80353333D01*
X162164642Y-80305714D01*
X162355119Y-80305714D01*
X162450357Y-80353333D01*
X162497976Y-80448571D01*
X162497976Y-80543809D01*
X162021785Y-80639047D01*
X162926547Y-80972380D02*
X162926547Y-80305714D01*
X162926547Y-80496190D02*
X162974166Y-80400952D01*
X163021785Y-80353333D01*
X163117023Y-80305714D01*
X163212261Y-80305714D01*
X164450357Y-80972380D02*
X164355119Y-80924761D01*
X164307500Y-80877142D01*
X164259880Y-80781904D01*
X164259880Y-80496190D01*
X164307500Y-80400952D01*
X164355119Y-80353333D01*
X164450357Y-80305714D01*
X164593214Y-80305714D01*
X164688452Y-80353333D01*
X164736071Y-80400952D01*
X164783690Y-80496190D01*
X164783690Y-80781904D01*
X164736071Y-80877142D01*
X164688452Y-80924761D01*
X164593214Y-80972380D01*
X164450357Y-80972380D01*
X165212261Y-80305714D02*
X165212261Y-80972380D01*
X165212261Y-80400952D02*
X165259880Y-80353333D01*
X165355119Y-80305714D01*
X165497976Y-80305714D01*
X165593214Y-80353333D01*
X165640833Y-80448571D01*
X165640833Y-80972380D01*
X165974166Y-80305714D02*
X166355119Y-80305714D01*
X166117023Y-79972380D02*
X166117023Y-80829523D01*
X166164642Y-80924761D01*
X166259880Y-80972380D01*
X166355119Y-80972380D01*
X166831309Y-80972380D02*
X166736071Y-80924761D01*
X166688452Y-80877142D01*
X166640833Y-80781904D01*
X166640833Y-80496190D01*
X166688452Y-80400952D01*
X166736071Y-80353333D01*
X166831309Y-80305714D01*
X166974166Y-80305714D01*
X167069404Y-80353333D01*
X167117023Y-80400952D01*
X167164642Y-80496190D01*
X167164642Y-80781904D01*
X167117023Y-80877142D01*
X167069404Y-80924761D01*
X166974166Y-80972380D01*
X166831309Y-80972380D01*
X168355119Y-80972380D02*
X168355119Y-79972380D01*
X168355119Y-80353333D02*
X168450357Y-80305714D01*
X168640833Y-80305714D01*
X168736071Y-80353333D01*
X168783690Y-80400952D01*
X168831309Y-80496190D01*
X168831309Y-80781904D01*
X168783690Y-80877142D01*
X168736071Y-80924761D01*
X168640833Y-80972380D01*
X168450357Y-80972380D01*
X168355119Y-80924761D01*
X169402738Y-80972380D02*
X169307500Y-80924761D01*
X169259880Y-80877142D01*
X169212261Y-80781904D01*
X169212261Y-80496190D01*
X169259880Y-80400952D01*
X169307500Y-80353333D01*
X169402738Y-80305714D01*
X169545595Y-80305714D01*
X169640833Y-80353333D01*
X169688452Y-80400952D01*
X169736071Y-80496190D01*
X169736071Y-80781904D01*
X169688452Y-80877142D01*
X169640833Y-80924761D01*
X169545595Y-80972380D01*
X169402738Y-80972380D01*
X170593214Y-80972380D02*
X170593214Y-80448571D01*
X170545595Y-80353333D01*
X170450357Y-80305714D01*
X170259880Y-80305714D01*
X170164642Y-80353333D01*
X170593214Y-80924761D02*
X170497976Y-80972380D01*
X170259880Y-80972380D01*
X170164642Y-80924761D01*
X170117023Y-80829523D01*
X170117023Y-80734285D01*
X170164642Y-80639047D01*
X170259880Y-80591428D01*
X170497976Y-80591428D01*
X170593214Y-80543809D01*
X171069404Y-80972380D02*
X171069404Y-80305714D01*
X171069404Y-80496190D02*
X171117023Y-80400952D01*
X171164642Y-80353333D01*
X171259880Y-80305714D01*
X171355119Y-80305714D01*
X172117023Y-80972380D02*
X172117023Y-79972380D01*
X172117023Y-80924761D02*
X172021785Y-80972380D01*
X171831309Y-80972380D01*
X171736071Y-80924761D01*
X171688452Y-80877142D01*
X171640833Y-80781904D01*
X171640833Y-80496190D01*
X171688452Y-80400952D01*
X171736071Y-80353333D01*
X171831309Y-80305714D01*
X172021785Y-80305714D01*
X172117023Y-80353333D01*
X156497976Y-81717619D02*
X156545595Y-81670000D01*
X156640833Y-81622380D01*
X156878928Y-81622380D01*
X156974166Y-81670000D01*
X157021785Y-81717619D01*
X157069404Y-81812857D01*
X157069404Y-81908095D01*
X157021785Y-82050952D01*
X156450357Y-82622380D01*
X157069404Y-82622380D01*
X157497976Y-82527142D02*
X157545595Y-82574761D01*
X157497976Y-82622380D01*
X157450357Y-82574761D01*
X157497976Y-82527142D01*
X157497976Y-82622380D01*
X158640833Y-81622380D02*
X158878928Y-82622380D01*
X159069404Y-81908095D01*
X159259880Y-82622380D01*
X159497976Y-81622380D01*
X159878928Y-82622380D02*
X159878928Y-81622380D01*
X160307500Y-82622380D02*
X160307500Y-82098571D01*
X160259880Y-82003333D01*
X160164642Y-81955714D01*
X160021785Y-81955714D01*
X159926547Y-82003333D01*
X159878928Y-82050952D01*
X160783690Y-82622380D02*
X160783690Y-81955714D01*
X160783690Y-81622380D02*
X160736071Y-81670000D01*
X160783690Y-81717619D01*
X160831309Y-81670000D01*
X160783690Y-81622380D01*
X160783690Y-81717619D01*
X161402738Y-82622380D02*
X161307500Y-82574761D01*
X161259880Y-82479523D01*
X161259880Y-81622380D01*
X162164642Y-82574761D02*
X162069404Y-82622380D01*
X161878928Y-82622380D01*
X161783690Y-82574761D01*
X161736071Y-82479523D01*
X161736071Y-82098571D01*
X161783690Y-82003333D01*
X161878928Y-81955714D01*
X162069404Y-81955714D01*
X162164642Y-82003333D01*
X162212261Y-82098571D01*
X162212261Y-82193809D01*
X161736071Y-82289047D01*
X163402738Y-82622380D02*
X163402738Y-81622380D01*
X163831309Y-82622380D02*
X163831309Y-82098571D01*
X163783690Y-82003333D01*
X163688452Y-81955714D01*
X163545595Y-81955714D01*
X163450357Y-82003333D01*
X163402738Y-82050952D01*
X164450357Y-82622380D02*
X164355119Y-82574761D01*
X164307500Y-82527142D01*
X164259880Y-82431904D01*
X164259880Y-82146190D01*
X164307500Y-82050952D01*
X164355119Y-82003333D01*
X164450357Y-81955714D01*
X164593214Y-81955714D01*
X164688452Y-82003333D01*
X164736071Y-82050952D01*
X164783690Y-82146190D01*
X164783690Y-82431904D01*
X164736071Y-82527142D01*
X164688452Y-82574761D01*
X164593214Y-82622380D01*
X164450357Y-82622380D01*
X165355119Y-82622380D02*
X165259880Y-82574761D01*
X165212261Y-82479523D01*
X165212261Y-81622380D01*
X166164642Y-82622380D02*
X166164642Y-81622380D01*
X166164642Y-82574761D02*
X166069404Y-82622380D01*
X165878928Y-82622380D01*
X165783690Y-82574761D01*
X165736071Y-82527142D01*
X165688452Y-82431904D01*
X165688452Y-82146190D01*
X165736071Y-82050952D01*
X165783690Y-82003333D01*
X165878928Y-81955714D01*
X166069404Y-81955714D01*
X166164642Y-82003333D01*
X166640833Y-82622380D02*
X166640833Y-81955714D01*
X166640833Y-81622380D02*
X166593214Y-81670000D01*
X166640833Y-81717619D01*
X166688452Y-81670000D01*
X166640833Y-81622380D01*
X166640833Y-81717619D01*
X167117023Y-81955714D02*
X167117023Y-82622380D01*
X167117023Y-82050952D02*
X167164642Y-82003333D01*
X167259880Y-81955714D01*
X167402738Y-81955714D01*
X167497976Y-82003333D01*
X167545595Y-82098571D01*
X167545595Y-82622380D01*
X168450357Y-81955714D02*
X168450357Y-82765238D01*
X168402738Y-82860476D01*
X168355119Y-82908095D01*
X168259880Y-82955714D01*
X168117023Y-82955714D01*
X168021785Y-82908095D01*
X168450357Y-82574761D02*
X168355119Y-82622380D01*
X168164642Y-82622380D01*
X168069404Y-82574761D01*
X168021785Y-82527142D01*
X167974166Y-82431904D01*
X167974166Y-82146190D01*
X168021785Y-82050952D01*
X168069404Y-82003333D01*
X168164642Y-81955714D01*
X168355119Y-81955714D01*
X168450357Y-82003333D01*
X169688452Y-82622380D02*
X169688452Y-81622380D01*
X169688452Y-82003333D02*
X169783690Y-81955714D01*
X169974166Y-81955714D01*
X170069404Y-82003333D01*
X170117023Y-82050952D01*
X170164642Y-82146190D01*
X170164642Y-82431904D01*
X170117023Y-82527142D01*
X170069404Y-82574761D01*
X169974166Y-82622380D01*
X169783690Y-82622380D01*
X169688452Y-82574761D01*
X171021785Y-82622380D02*
X171021785Y-82098571D01*
X170974166Y-82003333D01*
X170878928Y-81955714D01*
X170688452Y-81955714D01*
X170593214Y-82003333D01*
X171021785Y-82574761D02*
X170926547Y-82622380D01*
X170688452Y-82622380D01*
X170593214Y-82574761D01*
X170545595Y-82479523D01*
X170545595Y-82384285D01*
X170593214Y-82289047D01*
X170688452Y-82241428D01*
X170926547Y-82241428D01*
X171021785Y-82193809D01*
X171355119Y-81955714D02*
X171736071Y-81955714D01*
X171497976Y-81622380D02*
X171497976Y-82479523D01*
X171545595Y-82574761D01*
X171640833Y-82622380D01*
X171736071Y-82622380D01*
X171926547Y-81955714D02*
X172307500Y-81955714D01*
X172069404Y-81622380D02*
X172069404Y-82479523D01*
X172117023Y-82574761D01*
X172212261Y-82622380D01*
X172307500Y-82622380D01*
X173021785Y-82574761D02*
X172926547Y-82622380D01*
X172736071Y-82622380D01*
X172640833Y-82574761D01*
X172593214Y-82479523D01*
X172593214Y-82098571D01*
X172640833Y-82003333D01*
X172736071Y-81955714D01*
X172926547Y-81955714D01*
X173021785Y-82003333D01*
X173069404Y-82098571D01*
X173069404Y-82193809D01*
X172593214Y-82289047D01*
X173497976Y-82622380D02*
X173497976Y-81955714D01*
X173497976Y-82146190D02*
X173545595Y-82050952D01*
X173593214Y-82003333D01*
X173688452Y-81955714D01*
X173783690Y-81955714D01*
X174021785Y-81955714D02*
X174259880Y-82622380D01*
X174497976Y-81955714D02*
X174259880Y-82622380D01*
X174164642Y-82860476D01*
X174117023Y-82908095D01*
X174021785Y-82955714D01*
X158831309Y-84272380D02*
X158831309Y-83272380D01*
X159259880Y-84272380D02*
X159259880Y-83748571D01*
X159212261Y-83653333D01*
X159117023Y-83605714D01*
X158974166Y-83605714D01*
X158878928Y-83653333D01*
X158831309Y-83700952D01*
X159878928Y-84272380D02*
X159783690Y-84224761D01*
X159736071Y-84177142D01*
X159688452Y-84081904D01*
X159688452Y-83796190D01*
X159736071Y-83700952D01*
X159783690Y-83653333D01*
X159878928Y-83605714D01*
X160021785Y-83605714D01*
X160117023Y-83653333D01*
X160164642Y-83700952D01*
X160212261Y-83796190D01*
X160212261Y-84081904D01*
X160164642Y-84177142D01*
X160117023Y-84224761D01*
X160021785Y-84272380D01*
X159878928Y-84272380D01*
X160783690Y-84272380D02*
X160688452Y-84224761D01*
X160640833Y-84129523D01*
X160640833Y-83272380D01*
X161593214Y-84272380D02*
X161593214Y-83272380D01*
X161593214Y-84224761D02*
X161497976Y-84272380D01*
X161307500Y-84272380D01*
X161212261Y-84224761D01*
X161164642Y-84177142D01*
X161117023Y-84081904D01*
X161117023Y-83796190D01*
X161164642Y-83700952D01*
X161212261Y-83653333D01*
X161307500Y-83605714D01*
X161497976Y-83605714D01*
X161593214Y-83653333D01*
X162450357Y-84224761D02*
X162355119Y-84272380D01*
X162164642Y-84272380D01*
X162069404Y-84224761D01*
X162021785Y-84129523D01*
X162021785Y-83748571D01*
X162069404Y-83653333D01*
X162164642Y-83605714D01*
X162355119Y-83605714D01*
X162450357Y-83653333D01*
X162497976Y-83748571D01*
X162497976Y-83843809D01*
X162021785Y-83939047D01*
X162926547Y-84272380D02*
X162926547Y-83605714D01*
X162926547Y-83796190D02*
X162974166Y-83700952D01*
X163021785Y-83653333D01*
X163117023Y-83605714D01*
X163212261Y-83605714D01*
X164307500Y-84272380D02*
X164307500Y-83605714D01*
X164307500Y-83272380D02*
X164259880Y-83320000D01*
X164307500Y-83367619D01*
X164355119Y-83320000D01*
X164307500Y-83272380D01*
X164307500Y-83367619D01*
X164783690Y-83605714D02*
X164783690Y-84272380D01*
X164783690Y-83700952D02*
X164831309Y-83653333D01*
X164926547Y-83605714D01*
X165069404Y-83605714D01*
X165164642Y-83653333D01*
X165212261Y-83748571D01*
X165212261Y-84272380D01*
X166450357Y-83605714D02*
X166450357Y-84605714D01*
X166450357Y-83653333D02*
X166545595Y-83605714D01*
X166736071Y-83605714D01*
X166831309Y-83653333D01*
X166878928Y-83700952D01*
X166926547Y-83796190D01*
X166926547Y-84081904D01*
X166878928Y-84177142D01*
X166831309Y-84224761D01*
X166736071Y-84272380D01*
X166545595Y-84272380D01*
X166450357Y-84224761D01*
X167497976Y-84272380D02*
X167402738Y-84224761D01*
X167355119Y-84129523D01*
X167355119Y-83272380D01*
X168307500Y-84272380D02*
X168307500Y-83748571D01*
X168259880Y-83653333D01*
X168164642Y-83605714D01*
X167974166Y-83605714D01*
X167878928Y-83653333D01*
X168307500Y-84224761D02*
X168212261Y-84272380D01*
X167974166Y-84272380D01*
X167878928Y-84224761D01*
X167831309Y-84129523D01*
X167831309Y-84034285D01*
X167878928Y-83939047D01*
X167974166Y-83891428D01*
X168212261Y-83891428D01*
X168307500Y-83843809D01*
X169212261Y-84224761D02*
X169117023Y-84272380D01*
X168926547Y-84272380D01*
X168831309Y-84224761D01*
X168783690Y-84177142D01*
X168736071Y-84081904D01*
X168736071Y-83796190D01*
X168783690Y-83700952D01*
X168831309Y-83653333D01*
X168926547Y-83605714D01*
X169117023Y-83605714D01*
X169212261Y-83653333D01*
X170021785Y-84224761D02*
X169926547Y-84272380D01*
X169736071Y-84272380D01*
X169640833Y-84224761D01*
X169593214Y-84129523D01*
X169593214Y-83748571D01*
X169640833Y-83653333D01*
X169736071Y-83605714D01*
X169926547Y-83605714D01*
X170021785Y-83653333D01*
X170069404Y-83748571D01*
X170069404Y-83843809D01*
X169593214Y-83939047D01*
X170545595Y-84224761D02*
X170545595Y-84272380D01*
X170497976Y-84367619D01*
X170450357Y-84415238D01*
X171736071Y-83605714D02*
X171736071Y-84605714D01*
X171736071Y-83653333D02*
X171831309Y-83605714D01*
X172021785Y-83605714D01*
X172117023Y-83653333D01*
X172164642Y-83700952D01*
X172212261Y-83796190D01*
X172212261Y-84081904D01*
X172164642Y-84177142D01*
X172117023Y-84224761D01*
X172021785Y-84272380D01*
X171831309Y-84272380D01*
X171736071Y-84224761D01*
X172783690Y-84272380D02*
X172688452Y-84224761D01*
X172640833Y-84129523D01*
X172640833Y-83272380D01*
X173593214Y-84272380D02*
X173593214Y-83748571D01*
X173545595Y-83653333D01*
X173450357Y-83605714D01*
X173259880Y-83605714D01*
X173164642Y-83653333D01*
X173593214Y-84224761D02*
X173497976Y-84272380D01*
X173259880Y-84272380D01*
X173164642Y-84224761D01*
X173117023Y-84129523D01*
X173117023Y-84034285D01*
X173164642Y-83939047D01*
X173259880Y-83891428D01*
X173497976Y-83891428D01*
X173593214Y-83843809D01*
X174497976Y-84224761D02*
X174402738Y-84272380D01*
X174212261Y-84272380D01*
X174117023Y-84224761D01*
X174069404Y-84177142D01*
X174021785Y-84081904D01*
X174021785Y-83796190D01*
X174069404Y-83700952D01*
X174117023Y-83653333D01*
X174212261Y-83605714D01*
X174402738Y-83605714D01*
X174497976Y-83653333D01*
X175307500Y-84224761D02*
X175212261Y-84272380D01*
X175021785Y-84272380D01*
X174926547Y-84224761D01*
X174878928Y-84129523D01*
X174878928Y-83748571D01*
X174926547Y-83653333D01*
X175021785Y-83605714D01*
X175212261Y-83605714D01*
X175307500Y-83653333D01*
X175355119Y-83748571D01*
X175355119Y-83843809D01*
X174878928Y-83939047D01*
X158831309Y-85922380D02*
X158831309Y-84922380D01*
X158831309Y-85303333D02*
X158926547Y-85255714D01*
X159117023Y-85255714D01*
X159212261Y-85303333D01*
X159259880Y-85350952D01*
X159307500Y-85446190D01*
X159307500Y-85731904D01*
X159259880Y-85827142D01*
X159212261Y-85874761D01*
X159117023Y-85922380D01*
X158926547Y-85922380D01*
X158831309Y-85874761D01*
X159878928Y-85922380D02*
X159783690Y-85874761D01*
X159736071Y-85827142D01*
X159688452Y-85731904D01*
X159688452Y-85446190D01*
X159736071Y-85350952D01*
X159783690Y-85303333D01*
X159878928Y-85255714D01*
X160021785Y-85255714D01*
X160117023Y-85303333D01*
X160164642Y-85350952D01*
X160212261Y-85446190D01*
X160212261Y-85731904D01*
X160164642Y-85827142D01*
X160117023Y-85874761D01*
X160021785Y-85922380D01*
X159878928Y-85922380D01*
X161069404Y-85922380D02*
X161069404Y-85398571D01*
X161021785Y-85303333D01*
X160926547Y-85255714D01*
X160736071Y-85255714D01*
X160640833Y-85303333D01*
X161069404Y-85874761D02*
X160974166Y-85922380D01*
X160736071Y-85922380D01*
X160640833Y-85874761D01*
X160593214Y-85779523D01*
X160593214Y-85684285D01*
X160640833Y-85589047D01*
X160736071Y-85541428D01*
X160974166Y-85541428D01*
X161069404Y-85493809D01*
X161545595Y-85922380D02*
X161545595Y-85255714D01*
X161545595Y-85446190D02*
X161593214Y-85350952D01*
X161640833Y-85303333D01*
X161736071Y-85255714D01*
X161831309Y-85255714D01*
X162593214Y-85922380D02*
X162593214Y-84922380D01*
X162593214Y-85874761D02*
X162497976Y-85922380D01*
X162307500Y-85922380D01*
X162212261Y-85874761D01*
X162164642Y-85827142D01*
X162117023Y-85731904D01*
X162117023Y-85446190D01*
X162164642Y-85350952D01*
X162212261Y-85303333D01*
X162307500Y-85255714D01*
X162497976Y-85255714D01*
X162593214Y-85303333D01*
X164259880Y-85255714D02*
X164259880Y-85922380D01*
X163831309Y-85255714D02*
X163831309Y-85779523D01*
X163878928Y-85874761D01*
X163974166Y-85922380D01*
X164117023Y-85922380D01*
X164212261Y-85874761D01*
X164259880Y-85827142D01*
X164736071Y-85255714D02*
X164736071Y-86255714D01*
X164736071Y-85303333D02*
X164831309Y-85255714D01*
X165021785Y-85255714D01*
X165117023Y-85303333D01*
X165164642Y-85350952D01*
X165212261Y-85446190D01*
X165212261Y-85731904D01*
X165164642Y-85827142D01*
X165117023Y-85874761D01*
X165021785Y-85922380D01*
X164831309Y-85922380D01*
X164736071Y-85874761D01*
X165593214Y-85874761D02*
X165688452Y-85922380D01*
X165878928Y-85922380D01*
X165974166Y-85874761D01*
X166021785Y-85779523D01*
X166021785Y-85731904D01*
X165974166Y-85636666D01*
X165878928Y-85589047D01*
X165736071Y-85589047D01*
X165640833Y-85541428D01*
X165593214Y-85446190D01*
X165593214Y-85398571D01*
X165640833Y-85303333D01*
X165736071Y-85255714D01*
X165878928Y-85255714D01*
X165974166Y-85303333D01*
X166450357Y-85922380D02*
X166450357Y-85255714D01*
X166450357Y-84922380D02*
X166402738Y-84970000D01*
X166450357Y-85017619D01*
X166497976Y-84970000D01*
X166450357Y-84922380D01*
X166450357Y-85017619D01*
X167355119Y-85922380D02*
X167355119Y-84922380D01*
X167355119Y-85874761D02*
X167259880Y-85922380D01*
X167069404Y-85922380D01*
X166974166Y-85874761D01*
X166926547Y-85827142D01*
X166878928Y-85731904D01*
X166878928Y-85446190D01*
X166926547Y-85350952D01*
X166974166Y-85303333D01*
X167069404Y-85255714D01*
X167259880Y-85255714D01*
X167355119Y-85303333D01*
X168212261Y-85874761D02*
X168117023Y-85922380D01*
X167926547Y-85922380D01*
X167831309Y-85874761D01*
X167783690Y-85779523D01*
X167783690Y-85398571D01*
X167831309Y-85303333D01*
X167926547Y-85255714D01*
X168117023Y-85255714D01*
X168212261Y-85303333D01*
X168259880Y-85398571D01*
X168259880Y-85493809D01*
X167783690Y-85589047D01*
X169878928Y-85922380D02*
X169878928Y-84922380D01*
X169878928Y-85874761D02*
X169783690Y-85922380D01*
X169593214Y-85922380D01*
X169497976Y-85874761D01*
X169450357Y-85827142D01*
X169402738Y-85731904D01*
X169402738Y-85446190D01*
X169450357Y-85350952D01*
X169497976Y-85303333D01*
X169593214Y-85255714D01*
X169783690Y-85255714D01*
X169878928Y-85303333D01*
X170497976Y-85922380D02*
X170402738Y-85874761D01*
X170355119Y-85827142D01*
X170307500Y-85731904D01*
X170307500Y-85446190D01*
X170355119Y-85350952D01*
X170402738Y-85303333D01*
X170497976Y-85255714D01*
X170640833Y-85255714D01*
X170736071Y-85303333D01*
X170783690Y-85350952D01*
X170831309Y-85446190D01*
X170831309Y-85731904D01*
X170783690Y-85827142D01*
X170736071Y-85874761D01*
X170640833Y-85922380D01*
X170497976Y-85922380D01*
X171164642Y-85255714D02*
X171355119Y-85922380D01*
X171545595Y-85446190D01*
X171736071Y-85922380D01*
X171926547Y-85255714D01*
X172307500Y-85255714D02*
X172307500Y-85922380D01*
X172307500Y-85350952D02*
X172355119Y-85303333D01*
X172450357Y-85255714D01*
X172593214Y-85255714D01*
X172688452Y-85303333D01*
X172736071Y-85398571D01*
X172736071Y-85922380D01*
X158974166Y-87572380D02*
X158878928Y-87524761D01*
X158831309Y-87477142D01*
X158783690Y-87381904D01*
X158783690Y-87096190D01*
X158831309Y-87000952D01*
X158878928Y-86953333D01*
X158974166Y-86905714D01*
X159117023Y-86905714D01*
X159212261Y-86953333D01*
X159259880Y-87000952D01*
X159307500Y-87096190D01*
X159307500Y-87381904D01*
X159259880Y-87477142D01*
X159212261Y-87524761D01*
X159117023Y-87572380D01*
X158974166Y-87572380D01*
X159640833Y-86905714D02*
X159878928Y-87572380D01*
X160117023Y-86905714D01*
X160878928Y-87524761D02*
X160783690Y-87572380D01*
X160593214Y-87572380D01*
X160497976Y-87524761D01*
X160450357Y-87429523D01*
X160450357Y-87048571D01*
X160497976Y-86953333D01*
X160593214Y-86905714D01*
X160783690Y-86905714D01*
X160878928Y-86953333D01*
X160926547Y-87048571D01*
X160926547Y-87143809D01*
X160450357Y-87239047D01*
X161355119Y-87572380D02*
X161355119Y-86905714D01*
X161355119Y-87096190D02*
X161402738Y-87000952D01*
X161450357Y-86953333D01*
X161545595Y-86905714D01*
X161640833Y-86905714D01*
X162736071Y-86905714D02*
X162736071Y-87905714D01*
X162736071Y-86953333D02*
X162831309Y-86905714D01*
X163021785Y-86905714D01*
X163117023Y-86953333D01*
X163164642Y-87000952D01*
X163212261Y-87096190D01*
X163212261Y-87381904D01*
X163164642Y-87477142D01*
X163117023Y-87524761D01*
X163021785Y-87572380D01*
X162831309Y-87572380D01*
X162736071Y-87524761D01*
X163640833Y-87572380D02*
X163640833Y-86905714D01*
X163640833Y-86572380D02*
X163593214Y-86620000D01*
X163640833Y-86667619D01*
X163688452Y-86620000D01*
X163640833Y-86572380D01*
X163640833Y-86667619D01*
X164117023Y-86905714D02*
X164117023Y-87572380D01*
X164117023Y-87000952D02*
X164164642Y-86953333D01*
X164259880Y-86905714D01*
X164402738Y-86905714D01*
X164497976Y-86953333D01*
X164545595Y-87048571D01*
X164545595Y-87572380D01*
X164974166Y-87524761D02*
X165069404Y-87572380D01*
X165259880Y-87572380D01*
X165355119Y-87524761D01*
X165402738Y-87429523D01*
X165402738Y-87381904D01*
X165355119Y-87286666D01*
X165259880Y-87239047D01*
X165117023Y-87239047D01*
X165021785Y-87191428D01*
X164974166Y-87096190D01*
X164974166Y-87048571D01*
X165021785Y-86953333D01*
X165117023Y-86905714D01*
X165259880Y-86905714D01*
X165355119Y-86953333D01*
X156450357Y-88222380D02*
X157069404Y-88222380D01*
X156736071Y-88603333D01*
X156878928Y-88603333D01*
X156974166Y-88650952D01*
X157021785Y-88698571D01*
X157069404Y-88793809D01*
X157069404Y-89031904D01*
X157021785Y-89127142D01*
X156974166Y-89174761D01*
X156878928Y-89222380D01*
X156593214Y-89222380D01*
X156497976Y-89174761D01*
X156450357Y-89127142D01*
X157497976Y-89127142D02*
X157545595Y-89174761D01*
X157497976Y-89222380D01*
X157450357Y-89174761D01*
X157497976Y-89127142D01*
X157497976Y-89222380D01*
X158688452Y-89174761D02*
X158831309Y-89222380D01*
X159069404Y-89222380D01*
X159164642Y-89174761D01*
X159212261Y-89127142D01*
X159259880Y-89031904D01*
X159259880Y-88936666D01*
X159212261Y-88841428D01*
X159164642Y-88793809D01*
X159069404Y-88746190D01*
X158878928Y-88698571D01*
X158783690Y-88650952D01*
X158736071Y-88603333D01*
X158688452Y-88508095D01*
X158688452Y-88412857D01*
X158736071Y-88317619D01*
X158783690Y-88270000D01*
X158878928Y-88222380D01*
X159117023Y-88222380D01*
X159259880Y-88270000D01*
X159831309Y-89222380D02*
X159736071Y-89174761D01*
X159688452Y-89127142D01*
X159640833Y-89031904D01*
X159640833Y-88746190D01*
X159688452Y-88650952D01*
X159736071Y-88603333D01*
X159831309Y-88555714D01*
X159974166Y-88555714D01*
X160069404Y-88603333D01*
X160117023Y-88650952D01*
X160164642Y-88746190D01*
X160164642Y-89031904D01*
X160117023Y-89127142D01*
X160069404Y-89174761D01*
X159974166Y-89222380D01*
X159831309Y-89222380D01*
X160736071Y-89222380D02*
X160640833Y-89174761D01*
X160593214Y-89079523D01*
X160593214Y-88222380D01*
X161545595Y-89222380D02*
X161545595Y-88222380D01*
X161545595Y-89174761D02*
X161450357Y-89222380D01*
X161259880Y-89222380D01*
X161164642Y-89174761D01*
X161117023Y-89127142D01*
X161069404Y-89031904D01*
X161069404Y-88746190D01*
X161117023Y-88650952D01*
X161164642Y-88603333D01*
X161259880Y-88555714D01*
X161450357Y-88555714D01*
X161545595Y-88603333D01*
X162402738Y-89174761D02*
X162307500Y-89222380D01*
X162117023Y-89222380D01*
X162021785Y-89174761D01*
X161974166Y-89079523D01*
X161974166Y-88698571D01*
X162021785Y-88603333D01*
X162117023Y-88555714D01*
X162307500Y-88555714D01*
X162402738Y-88603333D01*
X162450357Y-88698571D01*
X162450357Y-88793809D01*
X161974166Y-88889047D01*
X162878928Y-89222380D02*
X162878928Y-88555714D01*
X162878928Y-88746190D02*
X162926547Y-88650952D01*
X162974166Y-88603333D01*
X163069404Y-88555714D01*
X163164642Y-88555714D01*
X164259880Y-89222380D02*
X164259880Y-88222380D01*
X164259880Y-88603333D02*
X164355119Y-88555714D01*
X164545595Y-88555714D01*
X164640833Y-88603333D01*
X164688452Y-88650952D01*
X164736071Y-88746190D01*
X164736071Y-89031904D01*
X164688452Y-89127142D01*
X164640833Y-89174761D01*
X164545595Y-89222380D01*
X164355119Y-89222380D01*
X164259880Y-89174761D01*
X165593214Y-89222380D02*
X165593214Y-88698571D01*
X165545595Y-88603333D01*
X165450357Y-88555714D01*
X165259880Y-88555714D01*
X165164642Y-88603333D01*
X165593214Y-89174761D02*
X165497976Y-89222380D01*
X165259880Y-89222380D01*
X165164642Y-89174761D01*
X165117023Y-89079523D01*
X165117023Y-88984285D01*
X165164642Y-88889047D01*
X165259880Y-88841428D01*
X165497976Y-88841428D01*
X165593214Y-88793809D01*
X165926547Y-88555714D02*
X166307500Y-88555714D01*
X166069404Y-88222380D02*
X166069404Y-89079523D01*
X166117023Y-89174761D01*
X166212261Y-89222380D01*
X166307500Y-89222380D01*
X166497976Y-88555714D02*
X166878928Y-88555714D01*
X166640833Y-88222380D02*
X166640833Y-89079523D01*
X166688452Y-89174761D01*
X166783690Y-89222380D01*
X166878928Y-89222380D01*
X167593214Y-89174761D02*
X167497976Y-89222380D01*
X167307500Y-89222380D01*
X167212261Y-89174761D01*
X167164642Y-89079523D01*
X167164642Y-88698571D01*
X167212261Y-88603333D01*
X167307500Y-88555714D01*
X167497976Y-88555714D01*
X167593214Y-88603333D01*
X167640833Y-88698571D01*
X167640833Y-88793809D01*
X167164642Y-88889047D01*
X168069404Y-89222380D02*
X168069404Y-88555714D01*
X168069404Y-88746190D02*
X168117023Y-88650952D01*
X168164642Y-88603333D01*
X168259880Y-88555714D01*
X168355119Y-88555714D01*
X168593214Y-88555714D02*
X168831309Y-89222380D01*
X169069404Y-88555714D02*
X168831309Y-89222380D01*
X168736071Y-89460476D01*
X168688452Y-89508095D01*
X168593214Y-89555714D01*
X170212261Y-89222380D02*
X170212261Y-88222380D01*
X170640833Y-89222380D02*
X170640833Y-88698571D01*
X170593214Y-88603333D01*
X170497976Y-88555714D01*
X170355119Y-88555714D01*
X170259880Y-88603333D01*
X170212261Y-88650952D01*
X171259880Y-89222380D02*
X171164642Y-89174761D01*
X171117023Y-89127142D01*
X171069404Y-89031904D01*
X171069404Y-88746190D01*
X171117023Y-88650952D01*
X171164642Y-88603333D01*
X171259880Y-88555714D01*
X171402738Y-88555714D01*
X171497976Y-88603333D01*
X171545595Y-88650952D01*
X171593214Y-88746190D01*
X171593214Y-89031904D01*
X171545595Y-89127142D01*
X171497976Y-89174761D01*
X171402738Y-89222380D01*
X171259880Y-89222380D01*
X172164642Y-89222380D02*
X172069404Y-89174761D01*
X172021785Y-89079523D01*
X172021785Y-88222380D01*
X172974166Y-89222380D02*
X172974166Y-88222380D01*
X172974166Y-89174761D02*
X172878928Y-89222380D01*
X172688452Y-89222380D01*
X172593214Y-89174761D01*
X172545595Y-89127142D01*
X172497976Y-89031904D01*
X172497976Y-88746190D01*
X172545595Y-88650952D01*
X172593214Y-88603333D01*
X172688452Y-88555714D01*
X172878928Y-88555714D01*
X172974166Y-88603333D01*
X173831309Y-89174761D02*
X173736071Y-89222380D01*
X173545595Y-89222380D01*
X173450357Y-89174761D01*
X173402738Y-89079523D01*
X173402738Y-88698571D01*
X173450357Y-88603333D01*
X173545595Y-88555714D01*
X173736071Y-88555714D01*
X173831309Y-88603333D01*
X173878928Y-88698571D01*
X173878928Y-88793809D01*
X173402738Y-88889047D01*
X174307500Y-89222380D02*
X174307500Y-88555714D01*
X174307500Y-88746190D02*
X174355119Y-88650952D01*
X174402738Y-88603333D01*
X174497976Y-88555714D01*
X174593214Y-88555714D01*
X132939404Y-78877380D02*
X132367976Y-78877380D01*
X132653690Y-78877380D02*
X132653690Y-77877380D01*
X132558452Y-78020238D01*
X132463214Y-78115476D01*
X132367976Y-78163095D01*
X133367976Y-78782142D02*
X133415595Y-78829761D01*
X133367976Y-78877380D01*
X133320357Y-78829761D01*
X133367976Y-78782142D01*
X133367976Y-78877380D01*
X134606071Y-78877380D02*
X134606071Y-77877380D01*
X135082261Y-78210714D02*
X135082261Y-78877380D01*
X135082261Y-78305952D02*
X135129880Y-78258333D01*
X135225119Y-78210714D01*
X135367976Y-78210714D01*
X135463214Y-78258333D01*
X135510833Y-78353571D01*
X135510833Y-78877380D01*
X135939404Y-78829761D02*
X136034642Y-78877380D01*
X136225119Y-78877380D01*
X136320357Y-78829761D01*
X136367976Y-78734523D01*
X136367976Y-78686904D01*
X136320357Y-78591666D01*
X136225119Y-78544047D01*
X136082261Y-78544047D01*
X135987023Y-78496428D01*
X135939404Y-78401190D01*
X135939404Y-78353571D01*
X135987023Y-78258333D01*
X136082261Y-78210714D01*
X136225119Y-78210714D01*
X136320357Y-78258333D01*
X137177500Y-78829761D02*
X137082261Y-78877380D01*
X136891785Y-78877380D01*
X136796547Y-78829761D01*
X136748928Y-78734523D01*
X136748928Y-78353571D01*
X136796547Y-78258333D01*
X136891785Y-78210714D01*
X137082261Y-78210714D01*
X137177500Y-78258333D01*
X137225119Y-78353571D01*
X137225119Y-78448809D01*
X136748928Y-78544047D01*
X137653690Y-78877380D02*
X137653690Y-78210714D01*
X137653690Y-78401190D02*
X137701309Y-78305952D01*
X137748928Y-78258333D01*
X137844166Y-78210714D01*
X137939404Y-78210714D01*
X138129880Y-78210714D02*
X138510833Y-78210714D01*
X138272738Y-77877380D02*
X138272738Y-78734523D01*
X138320357Y-78829761D01*
X138415595Y-78877380D01*
X138510833Y-78877380D01*
X140034642Y-78210714D02*
X140034642Y-78877380D01*
X139606071Y-78210714D02*
X139606071Y-78734523D01*
X139653690Y-78829761D01*
X139748928Y-78877380D01*
X139891785Y-78877380D01*
X139987023Y-78829761D01*
X140034642Y-78782142D01*
X140510833Y-78210714D02*
X140510833Y-79210714D01*
X140510833Y-78258333D02*
X140606071Y-78210714D01*
X140796547Y-78210714D01*
X140891785Y-78258333D01*
X140939404Y-78305952D01*
X140987023Y-78401190D01*
X140987023Y-78686904D01*
X140939404Y-78782142D01*
X140891785Y-78829761D01*
X140796547Y-78877380D01*
X140606071Y-78877380D01*
X140510833Y-78829761D01*
X141367976Y-78829761D02*
X141463214Y-78877380D01*
X141653690Y-78877380D01*
X141748928Y-78829761D01*
X141796547Y-78734523D01*
X141796547Y-78686904D01*
X141748928Y-78591666D01*
X141653690Y-78544047D01*
X141510833Y-78544047D01*
X141415595Y-78496428D01*
X141367976Y-78401190D01*
X141367976Y-78353571D01*
X141415595Y-78258333D01*
X141510833Y-78210714D01*
X141653690Y-78210714D01*
X141748928Y-78258333D01*
X142225119Y-78877380D02*
X142225119Y-78210714D01*
X142225119Y-77877380D02*
X142177500Y-77925000D01*
X142225119Y-77972619D01*
X142272738Y-77925000D01*
X142225119Y-77877380D01*
X142225119Y-77972619D01*
X143129880Y-78877380D02*
X143129880Y-77877380D01*
X143129880Y-78829761D02*
X143034642Y-78877380D01*
X142844166Y-78877380D01*
X142748928Y-78829761D01*
X142701309Y-78782142D01*
X142653690Y-78686904D01*
X142653690Y-78401190D01*
X142701309Y-78305952D01*
X142748928Y-78258333D01*
X142844166Y-78210714D01*
X143034642Y-78210714D01*
X143129880Y-78258333D01*
X143987023Y-78829761D02*
X143891785Y-78877380D01*
X143701309Y-78877380D01*
X143606071Y-78829761D01*
X143558452Y-78734523D01*
X143558452Y-78353571D01*
X143606071Y-78258333D01*
X143701309Y-78210714D01*
X143891785Y-78210714D01*
X143987023Y-78258333D01*
X144034642Y-78353571D01*
X144034642Y-78448809D01*
X143558452Y-78544047D01*
X144463214Y-78496428D02*
X145225119Y-78496428D01*
X146129880Y-78877380D02*
X146129880Y-77877380D01*
X146129880Y-78829761D02*
X146034642Y-78877380D01*
X145844166Y-78877380D01*
X145748928Y-78829761D01*
X145701309Y-78782142D01*
X145653690Y-78686904D01*
X145653690Y-78401190D01*
X145701309Y-78305952D01*
X145748928Y-78258333D01*
X145844166Y-78210714D01*
X146034642Y-78210714D01*
X146129880Y-78258333D01*
X146748928Y-78877380D02*
X146653690Y-78829761D01*
X146606071Y-78782142D01*
X146558452Y-78686904D01*
X146558452Y-78401190D01*
X146606071Y-78305952D01*
X146653690Y-78258333D01*
X146748928Y-78210714D01*
X146891785Y-78210714D01*
X146987023Y-78258333D01*
X147034642Y-78305952D01*
X147082261Y-78401190D01*
X147082261Y-78686904D01*
X147034642Y-78782142D01*
X146987023Y-78829761D01*
X146891785Y-78877380D01*
X146748928Y-78877380D01*
X147415595Y-78210714D02*
X147606071Y-78877380D01*
X147796547Y-78401190D01*
X147987023Y-78877380D01*
X148177500Y-78210714D01*
X148558452Y-78210714D02*
X148558452Y-78877380D01*
X148558452Y-78305952D02*
X148606071Y-78258333D01*
X148701309Y-78210714D01*
X148844166Y-78210714D01*
X148939404Y-78258333D01*
X148987023Y-78353571D01*
X148987023Y-78877380D01*
X134653690Y-80479761D02*
X134748928Y-80527380D01*
X134939404Y-80527380D01*
X135034642Y-80479761D01*
X135082261Y-80384523D01*
X135082261Y-80336904D01*
X135034642Y-80241666D01*
X134939404Y-80194047D01*
X134796547Y-80194047D01*
X134701309Y-80146428D01*
X134653690Y-80051190D01*
X134653690Y-80003571D01*
X134701309Y-79908333D01*
X134796547Y-79860714D01*
X134939404Y-79860714D01*
X135034642Y-79908333D01*
X135653690Y-80527380D02*
X135558452Y-80479761D01*
X135510833Y-80432142D01*
X135463214Y-80336904D01*
X135463214Y-80051190D01*
X135510833Y-79955952D01*
X135558452Y-79908333D01*
X135653690Y-79860714D01*
X135796547Y-79860714D01*
X135891785Y-79908333D01*
X135939404Y-79955952D01*
X135987023Y-80051190D01*
X135987023Y-80336904D01*
X135939404Y-80432142D01*
X135891785Y-80479761D01*
X135796547Y-80527380D01*
X135653690Y-80527380D01*
X136844166Y-80479761D02*
X136748928Y-80527380D01*
X136558452Y-80527380D01*
X136463214Y-80479761D01*
X136415595Y-80432142D01*
X136367976Y-80336904D01*
X136367976Y-80051190D01*
X136415595Y-79955952D01*
X136463214Y-79908333D01*
X136558452Y-79860714D01*
X136748928Y-79860714D01*
X136844166Y-79908333D01*
X137272738Y-80527380D02*
X137272738Y-79527380D01*
X137367976Y-80146428D02*
X137653690Y-80527380D01*
X137653690Y-79860714D02*
X137272738Y-80241666D01*
X138463214Y-80479761D02*
X138367976Y-80527380D01*
X138177500Y-80527380D01*
X138082261Y-80479761D01*
X138034642Y-80384523D01*
X138034642Y-80003571D01*
X138082261Y-79908333D01*
X138177500Y-79860714D01*
X138367976Y-79860714D01*
X138463214Y-79908333D01*
X138510833Y-80003571D01*
X138510833Y-80098809D01*
X138034642Y-80194047D01*
X138796547Y-79860714D02*
X139177500Y-79860714D01*
X138939404Y-79527380D02*
X138939404Y-80384523D01*
X138987023Y-80479761D01*
X139082261Y-80527380D01*
X139177500Y-80527380D01*
X140415595Y-80527380D02*
X140320357Y-80479761D01*
X140272738Y-80432142D01*
X140225119Y-80336904D01*
X140225119Y-80051190D01*
X140272738Y-79955952D01*
X140320357Y-79908333D01*
X140415595Y-79860714D01*
X140558452Y-79860714D01*
X140653690Y-79908333D01*
X140701309Y-79955952D01*
X140748928Y-80051190D01*
X140748928Y-80336904D01*
X140701309Y-80432142D01*
X140653690Y-80479761D01*
X140558452Y-80527380D01*
X140415595Y-80527380D01*
X141177500Y-79860714D02*
X141177500Y-80527380D01*
X141177500Y-79955952D02*
X141225119Y-79908333D01*
X141320357Y-79860714D01*
X141463214Y-79860714D01*
X141558452Y-79908333D01*
X141606071Y-80003571D01*
X141606071Y-80527380D01*
X141939404Y-79860714D02*
X142320357Y-79860714D01*
X142082261Y-79527380D02*
X142082261Y-80384523D01*
X142129880Y-80479761D01*
X142225119Y-80527380D01*
X142320357Y-80527380D01*
X142796547Y-80527380D02*
X142701309Y-80479761D01*
X142653690Y-80432142D01*
X142606071Y-80336904D01*
X142606071Y-80051190D01*
X142653690Y-79955952D01*
X142701309Y-79908333D01*
X142796547Y-79860714D01*
X142939404Y-79860714D01*
X143034642Y-79908333D01*
X143082261Y-79955952D01*
X143129880Y-80051190D01*
X143129880Y-80336904D01*
X143082261Y-80432142D01*
X143034642Y-80479761D01*
X142939404Y-80527380D01*
X142796547Y-80527380D01*
X144320357Y-79860714D02*
X144320357Y-80860714D01*
X144320357Y-79908333D02*
X144415595Y-79860714D01*
X144606071Y-79860714D01*
X144701309Y-79908333D01*
X144748928Y-79955952D01*
X144796547Y-80051190D01*
X144796547Y-80336904D01*
X144748928Y-80432142D01*
X144701309Y-80479761D01*
X144606071Y-80527380D01*
X144415595Y-80527380D01*
X144320357Y-80479761D01*
X145225119Y-80527380D02*
X145225119Y-79860714D01*
X145225119Y-79527380D02*
X145177500Y-79575000D01*
X145225119Y-79622619D01*
X145272738Y-79575000D01*
X145225119Y-79527380D01*
X145225119Y-79622619D01*
X145701309Y-79860714D02*
X145701309Y-80527380D01*
X145701309Y-79955952D02*
X145748928Y-79908333D01*
X145844166Y-79860714D01*
X145987023Y-79860714D01*
X146082261Y-79908333D01*
X146129880Y-80003571D01*
X146129880Y-80527380D01*
X146558452Y-80479761D02*
X146653690Y-80527380D01*
X146844166Y-80527380D01*
X146939404Y-80479761D01*
X146987023Y-80384523D01*
X146987023Y-80336904D01*
X146939404Y-80241666D01*
X146844166Y-80194047D01*
X146701309Y-80194047D01*
X146606071Y-80146428D01*
X146558452Y-80051190D01*
X146558452Y-80003571D01*
X146606071Y-79908333D01*
X146701309Y-79860714D01*
X146844166Y-79860714D01*
X146939404Y-79908333D01*
X132367976Y-81272619D02*
X132415595Y-81225000D01*
X132510833Y-81177380D01*
X132748928Y-81177380D01*
X132844166Y-81225000D01*
X132891785Y-81272619D01*
X132939404Y-81367857D01*
X132939404Y-81463095D01*
X132891785Y-81605952D01*
X132320357Y-82177380D01*
X132939404Y-82177380D01*
X133367976Y-82082142D02*
X133415595Y-82129761D01*
X133367976Y-82177380D01*
X133320357Y-82129761D01*
X133367976Y-82082142D01*
X133367976Y-82177380D01*
X134606071Y-82177380D02*
X134606071Y-81177380D01*
X134987023Y-81177380D01*
X135082261Y-81225000D01*
X135129880Y-81272619D01*
X135177500Y-81367857D01*
X135177500Y-81510714D01*
X135129880Y-81605952D01*
X135082261Y-81653571D01*
X134987023Y-81701190D01*
X134606071Y-81701190D01*
X135748928Y-82177380D02*
X135653690Y-82129761D01*
X135606071Y-82034523D01*
X135606071Y-81177380D01*
X136558452Y-82177380D02*
X136558452Y-81653571D01*
X136510833Y-81558333D01*
X136415595Y-81510714D01*
X136225119Y-81510714D01*
X136129880Y-81558333D01*
X136558452Y-82129761D02*
X136463214Y-82177380D01*
X136225119Y-82177380D01*
X136129880Y-82129761D01*
X136082261Y-82034523D01*
X136082261Y-81939285D01*
X136129880Y-81844047D01*
X136225119Y-81796428D01*
X136463214Y-81796428D01*
X136558452Y-81748809D01*
X137463214Y-82129761D02*
X137367976Y-82177380D01*
X137177500Y-82177380D01*
X137082261Y-82129761D01*
X137034642Y-82082142D01*
X136987023Y-81986904D01*
X136987023Y-81701190D01*
X137034642Y-81605952D01*
X137082261Y-81558333D01*
X137177500Y-81510714D01*
X137367976Y-81510714D01*
X137463214Y-81558333D01*
X138272738Y-82129761D02*
X138177500Y-82177380D01*
X137987023Y-82177380D01*
X137891785Y-82129761D01*
X137844166Y-82034523D01*
X137844166Y-81653571D01*
X137891785Y-81558333D01*
X137987023Y-81510714D01*
X138177500Y-81510714D01*
X138272738Y-81558333D01*
X138320357Y-81653571D01*
X138320357Y-81748809D01*
X137844166Y-81844047D01*
X139510833Y-82177380D02*
X139510833Y-81177380D01*
X139510833Y-81558333D02*
X139606071Y-81510714D01*
X139796547Y-81510714D01*
X139891785Y-81558333D01*
X139939404Y-81605952D01*
X139987023Y-81701190D01*
X139987023Y-81986904D01*
X139939404Y-82082142D01*
X139891785Y-82129761D01*
X139796547Y-82177380D01*
X139606071Y-82177380D01*
X139510833Y-82129761D01*
X140558452Y-82177380D02*
X140463214Y-82129761D01*
X140415595Y-82082142D01*
X140367976Y-81986904D01*
X140367976Y-81701190D01*
X140415595Y-81605952D01*
X140463214Y-81558333D01*
X140558452Y-81510714D01*
X140701309Y-81510714D01*
X140796547Y-81558333D01*
X140844166Y-81605952D01*
X140891785Y-81701190D01*
X140891785Y-81986904D01*
X140844166Y-82082142D01*
X140796547Y-82129761D01*
X140701309Y-82177380D01*
X140558452Y-82177380D01*
X141748928Y-82177380D02*
X141748928Y-81653571D01*
X141701309Y-81558333D01*
X141606071Y-81510714D01*
X141415595Y-81510714D01*
X141320357Y-81558333D01*
X141748928Y-82129761D02*
X141653690Y-82177380D01*
X141415595Y-82177380D01*
X141320357Y-82129761D01*
X141272738Y-82034523D01*
X141272738Y-81939285D01*
X141320357Y-81844047D01*
X141415595Y-81796428D01*
X141653690Y-81796428D01*
X141748928Y-81748809D01*
X142225119Y-82177380D02*
X142225119Y-81510714D01*
X142225119Y-81701190D02*
X142272738Y-81605952D01*
X142320357Y-81558333D01*
X142415595Y-81510714D01*
X142510833Y-81510714D01*
X143272738Y-82177380D02*
X143272738Y-81177380D01*
X143272738Y-82129761D02*
X143177500Y-82177380D01*
X142987023Y-82177380D01*
X142891785Y-82129761D01*
X142844166Y-82082142D01*
X142796547Y-81986904D01*
X142796547Y-81701190D01*
X142844166Y-81605952D01*
X142891785Y-81558333D01*
X142987023Y-81510714D01*
X143177500Y-81510714D01*
X143272738Y-81558333D01*
X144939404Y-81510714D02*
X144939404Y-82177380D01*
X144510833Y-81510714D02*
X144510833Y-82034523D01*
X144558452Y-82129761D01*
X144653690Y-82177380D01*
X144796547Y-82177380D01*
X144891785Y-82129761D01*
X144939404Y-82082142D01*
X145415595Y-81510714D02*
X145415595Y-82510714D01*
X145415595Y-81558333D02*
X145510833Y-81510714D01*
X145701309Y-81510714D01*
X145796547Y-81558333D01*
X145844166Y-81605952D01*
X145891785Y-81701190D01*
X145891785Y-81986904D01*
X145844166Y-82082142D01*
X145796547Y-82129761D01*
X145701309Y-82177380D01*
X145510833Y-82177380D01*
X145415595Y-82129761D01*
X146272738Y-82129761D02*
X146367976Y-82177380D01*
X146558452Y-82177380D01*
X146653690Y-82129761D01*
X146701309Y-82034523D01*
X146701309Y-81986904D01*
X146653690Y-81891666D01*
X146558452Y-81844047D01*
X146415595Y-81844047D01*
X146320357Y-81796428D01*
X146272738Y-81701190D01*
X146272738Y-81653571D01*
X146320357Y-81558333D01*
X146415595Y-81510714D01*
X146558452Y-81510714D01*
X146653690Y-81558333D01*
X147129880Y-82177380D02*
X147129880Y-81510714D01*
X147129880Y-81177380D02*
X147082261Y-81225000D01*
X147129880Y-81272619D01*
X147177500Y-81225000D01*
X147129880Y-81177380D01*
X147129880Y-81272619D01*
X148034642Y-82177380D02*
X148034642Y-81177380D01*
X148034642Y-82129761D02*
X147939404Y-82177380D01*
X147748928Y-82177380D01*
X147653690Y-82129761D01*
X147606071Y-82082142D01*
X147558452Y-81986904D01*
X147558452Y-81701190D01*
X147606071Y-81605952D01*
X147653690Y-81558333D01*
X147748928Y-81510714D01*
X147939404Y-81510714D01*
X148034642Y-81558333D01*
X148891785Y-82129761D02*
X148796547Y-82177380D01*
X148606071Y-82177380D01*
X148510833Y-82129761D01*
X148463214Y-82034523D01*
X148463214Y-81653571D01*
X148510833Y-81558333D01*
X148606071Y-81510714D01*
X148796547Y-81510714D01*
X148891785Y-81558333D01*
X148939404Y-81653571D01*
X148939404Y-81748809D01*
X148463214Y-81844047D01*
X135129880Y-83827380D02*
X135129880Y-82827380D01*
X135129880Y-83779761D02*
X135034642Y-83827380D01*
X134844166Y-83827380D01*
X134748928Y-83779761D01*
X134701309Y-83732142D01*
X134653690Y-83636904D01*
X134653690Y-83351190D01*
X134701309Y-83255952D01*
X134748928Y-83208333D01*
X134844166Y-83160714D01*
X135034642Y-83160714D01*
X135129880Y-83208333D01*
X135748928Y-83827380D02*
X135653690Y-83779761D01*
X135606071Y-83732142D01*
X135558452Y-83636904D01*
X135558452Y-83351190D01*
X135606071Y-83255952D01*
X135653690Y-83208333D01*
X135748928Y-83160714D01*
X135891785Y-83160714D01*
X135987023Y-83208333D01*
X136034642Y-83255952D01*
X136082261Y-83351190D01*
X136082261Y-83636904D01*
X136034642Y-83732142D01*
X135987023Y-83779761D01*
X135891785Y-83827380D01*
X135748928Y-83827380D01*
X136415595Y-83160714D02*
X136606071Y-83827380D01*
X136796547Y-83351190D01*
X136987023Y-83827380D01*
X137177500Y-83160714D01*
X137558452Y-83160714D02*
X137558452Y-83827380D01*
X137558452Y-83255952D02*
X137606071Y-83208333D01*
X137701309Y-83160714D01*
X137844166Y-83160714D01*
X137939404Y-83208333D01*
X137987023Y-83303571D01*
X137987023Y-83827380D01*
X139367976Y-83827380D02*
X139272738Y-83779761D01*
X139225119Y-83732142D01*
X139177500Y-83636904D01*
X139177500Y-83351190D01*
X139225119Y-83255952D01*
X139272738Y-83208333D01*
X139367976Y-83160714D01*
X139510833Y-83160714D01*
X139606071Y-83208333D01*
X139653690Y-83255952D01*
X139701309Y-83351190D01*
X139701309Y-83636904D01*
X139653690Y-83732142D01*
X139606071Y-83779761D01*
X139510833Y-83827380D01*
X139367976Y-83827380D01*
X140034642Y-83160714D02*
X140272738Y-83827380D01*
X140510833Y-83160714D01*
X141272738Y-83779761D02*
X141177500Y-83827380D01*
X140987023Y-83827380D01*
X140891785Y-83779761D01*
X140844166Y-83684523D01*
X140844166Y-83303571D01*
X140891785Y-83208333D01*
X140987023Y-83160714D01*
X141177500Y-83160714D01*
X141272738Y-83208333D01*
X141320357Y-83303571D01*
X141320357Y-83398809D01*
X140844166Y-83494047D01*
X141748928Y-83827380D02*
X141748928Y-83160714D01*
X141748928Y-83351190D02*
X141796547Y-83255952D01*
X141844166Y-83208333D01*
X141939404Y-83160714D01*
X142034642Y-83160714D01*
X143082261Y-83779761D02*
X143177500Y-83827380D01*
X143367976Y-83827380D01*
X143463214Y-83779761D01*
X143510833Y-83684523D01*
X143510833Y-83636904D01*
X143463214Y-83541666D01*
X143367976Y-83494047D01*
X143225119Y-83494047D01*
X143129880Y-83446428D01*
X143082261Y-83351190D01*
X143082261Y-83303571D01*
X143129880Y-83208333D01*
X143225119Y-83160714D01*
X143367976Y-83160714D01*
X143463214Y-83208333D01*
X144082261Y-83827380D02*
X143987023Y-83779761D01*
X143939404Y-83732142D01*
X143891785Y-83636904D01*
X143891785Y-83351190D01*
X143939404Y-83255952D01*
X143987023Y-83208333D01*
X144082261Y-83160714D01*
X144225119Y-83160714D01*
X144320357Y-83208333D01*
X144367976Y-83255952D01*
X144415595Y-83351190D01*
X144415595Y-83636904D01*
X144367976Y-83732142D01*
X144320357Y-83779761D01*
X144225119Y-83827380D01*
X144082261Y-83827380D01*
X145272738Y-83779761D02*
X145177500Y-83827380D01*
X144987023Y-83827380D01*
X144891785Y-83779761D01*
X144844166Y-83732142D01*
X144796547Y-83636904D01*
X144796547Y-83351190D01*
X144844166Y-83255952D01*
X144891785Y-83208333D01*
X144987023Y-83160714D01*
X145177500Y-83160714D01*
X145272738Y-83208333D01*
X145701309Y-83827380D02*
X145701309Y-82827380D01*
X145796547Y-83446428D02*
X146082261Y-83827380D01*
X146082261Y-83160714D02*
X145701309Y-83541666D01*
X146891785Y-83779761D02*
X146796547Y-83827380D01*
X146606071Y-83827380D01*
X146510833Y-83779761D01*
X146463214Y-83684523D01*
X146463214Y-83303571D01*
X146510833Y-83208333D01*
X146606071Y-83160714D01*
X146796547Y-83160714D01*
X146891785Y-83208333D01*
X146939404Y-83303571D01*
X146939404Y-83398809D01*
X146463214Y-83494047D01*
X147225119Y-83160714D02*
X147606071Y-83160714D01*
X147367976Y-82827380D02*
X147367976Y-83684523D01*
X147415595Y-83779761D01*
X147510833Y-83827380D01*
X147606071Y-83827380D01*
X148701309Y-83160714D02*
X148701309Y-84160714D01*
X148701309Y-83208333D02*
X148796547Y-83160714D01*
X148987023Y-83160714D01*
X149082261Y-83208333D01*
X149129880Y-83255952D01*
X149177500Y-83351190D01*
X149177500Y-83636904D01*
X149129880Y-83732142D01*
X149082261Y-83779761D01*
X148987023Y-83827380D01*
X148796547Y-83827380D01*
X148701309Y-83779761D01*
X149606071Y-83827380D02*
X149606071Y-83160714D01*
X149606071Y-82827380D02*
X149558452Y-82875000D01*
X149606071Y-82922619D01*
X149653690Y-82875000D01*
X149606071Y-82827380D01*
X149606071Y-82922619D01*
X150082261Y-83160714D02*
X150082261Y-83827380D01*
X150082261Y-83255952D02*
X150129880Y-83208333D01*
X150225119Y-83160714D01*
X150367976Y-83160714D01*
X150463214Y-83208333D01*
X150510833Y-83303571D01*
X150510833Y-83827380D01*
X150939404Y-83779761D02*
X151034642Y-83827380D01*
X151225119Y-83827380D01*
X151320357Y-83779761D01*
X151367976Y-83684523D01*
X151367976Y-83636904D01*
X151320357Y-83541666D01*
X151225119Y-83494047D01*
X151082261Y-83494047D01*
X150987023Y-83446428D01*
X150939404Y-83351190D01*
X150939404Y-83303571D01*
X150987023Y-83208333D01*
X151082261Y-83160714D01*
X151225119Y-83160714D01*
X151320357Y-83208333D01*
X132320357Y-84477380D02*
X132939404Y-84477380D01*
X132606071Y-84858333D01*
X132748928Y-84858333D01*
X132844166Y-84905952D01*
X132891785Y-84953571D01*
X132939404Y-85048809D01*
X132939404Y-85286904D01*
X132891785Y-85382142D01*
X132844166Y-85429761D01*
X132748928Y-85477380D01*
X132463214Y-85477380D01*
X132367976Y-85429761D01*
X132320357Y-85382142D01*
X133367976Y-85382142D02*
X133415595Y-85429761D01*
X133367976Y-85477380D01*
X133320357Y-85429761D01*
X133367976Y-85382142D01*
X133367976Y-85477380D01*
X134558452Y-85429761D02*
X134701309Y-85477380D01*
X134939404Y-85477380D01*
X135034642Y-85429761D01*
X135082261Y-85382142D01*
X135129880Y-85286904D01*
X135129880Y-85191666D01*
X135082261Y-85096428D01*
X135034642Y-85048809D01*
X134939404Y-85001190D01*
X134748928Y-84953571D01*
X134653690Y-84905952D01*
X134606071Y-84858333D01*
X134558452Y-84763095D01*
X134558452Y-84667857D01*
X134606071Y-84572619D01*
X134653690Y-84525000D01*
X134748928Y-84477380D01*
X134987023Y-84477380D01*
X135129880Y-84525000D01*
X135701309Y-85477380D02*
X135606071Y-85429761D01*
X135558452Y-85382142D01*
X135510833Y-85286904D01*
X135510833Y-85001190D01*
X135558452Y-84905952D01*
X135606071Y-84858333D01*
X135701309Y-84810714D01*
X135844166Y-84810714D01*
X135939404Y-84858333D01*
X135987023Y-84905952D01*
X136034642Y-85001190D01*
X136034642Y-85286904D01*
X135987023Y-85382142D01*
X135939404Y-85429761D01*
X135844166Y-85477380D01*
X135701309Y-85477380D01*
X136606071Y-85477380D02*
X136510833Y-85429761D01*
X136463214Y-85334523D01*
X136463214Y-84477380D01*
X137415595Y-85477380D02*
X137415595Y-84477380D01*
X137415595Y-85429761D02*
X137320357Y-85477380D01*
X137129880Y-85477380D01*
X137034642Y-85429761D01*
X136987023Y-85382142D01*
X136939404Y-85286904D01*
X136939404Y-85001190D01*
X136987023Y-84905952D01*
X137034642Y-84858333D01*
X137129880Y-84810714D01*
X137320357Y-84810714D01*
X137415595Y-84858333D01*
X138272738Y-85429761D02*
X138177500Y-85477380D01*
X137987023Y-85477380D01*
X137891785Y-85429761D01*
X137844166Y-85334523D01*
X137844166Y-84953571D01*
X137891785Y-84858333D01*
X137987023Y-84810714D01*
X138177500Y-84810714D01*
X138272738Y-84858333D01*
X138320357Y-84953571D01*
X138320357Y-85048809D01*
X137844166Y-85144047D01*
X138748928Y-85477380D02*
X138748928Y-84810714D01*
X138748928Y-85001190D02*
X138796547Y-84905952D01*
X138844166Y-84858333D01*
X138939404Y-84810714D01*
X139034642Y-84810714D01*
X140082261Y-85429761D02*
X140177500Y-85477380D01*
X140367976Y-85477380D01*
X140463214Y-85429761D01*
X140510833Y-85334523D01*
X140510833Y-85286904D01*
X140463214Y-85191666D01*
X140367976Y-85144047D01*
X140225119Y-85144047D01*
X140129880Y-85096428D01*
X140082261Y-85001190D01*
X140082261Y-84953571D01*
X140129880Y-84858333D01*
X140225119Y-84810714D01*
X140367976Y-84810714D01*
X140463214Y-84858333D01*
X141082261Y-85477380D02*
X140987023Y-85429761D01*
X140939404Y-85382142D01*
X140891785Y-85286904D01*
X140891785Y-85001190D01*
X140939404Y-84905952D01*
X140987023Y-84858333D01*
X141082261Y-84810714D01*
X141225119Y-84810714D01*
X141320357Y-84858333D01*
X141367976Y-84905952D01*
X141415595Y-85001190D01*
X141415595Y-85286904D01*
X141367976Y-85382142D01*
X141320357Y-85429761D01*
X141225119Y-85477380D01*
X141082261Y-85477380D01*
X142272738Y-85429761D02*
X142177500Y-85477380D01*
X141987023Y-85477380D01*
X141891785Y-85429761D01*
X141844166Y-85382142D01*
X141796547Y-85286904D01*
X141796547Y-85001190D01*
X141844166Y-84905952D01*
X141891785Y-84858333D01*
X141987023Y-84810714D01*
X142177500Y-84810714D01*
X142272738Y-84858333D01*
X142701309Y-85477380D02*
X142701309Y-84477380D01*
X142796547Y-85096428D02*
X143082261Y-85477380D01*
X143082261Y-84810714D02*
X142701309Y-85191666D01*
X143891785Y-85429761D02*
X143796547Y-85477380D01*
X143606071Y-85477380D01*
X143510833Y-85429761D01*
X143463214Y-85334523D01*
X143463214Y-84953571D01*
X143510833Y-84858333D01*
X143606071Y-84810714D01*
X143796547Y-84810714D01*
X143891785Y-84858333D01*
X143939404Y-84953571D01*
X143939404Y-85048809D01*
X143463214Y-85144047D01*
X144225119Y-84810714D02*
X144606071Y-84810714D01*
X144367976Y-84477380D02*
X144367976Y-85334523D01*
X144415595Y-85429761D01*
X144510833Y-85477380D01*
X144606071Y-85477380D01*
X144987023Y-85429761D02*
X144987023Y-85477380D01*
X144939404Y-85572619D01*
X144891785Y-85620238D01*
X146034642Y-84810714D02*
X146415595Y-84810714D01*
X146177500Y-84477380D02*
X146177500Y-85334523D01*
X146225119Y-85429761D01*
X146320357Y-85477380D01*
X146415595Y-85477380D01*
X146748928Y-85477380D02*
X146748928Y-84477380D01*
X147177500Y-85477380D02*
X147177500Y-84953571D01*
X147129880Y-84858333D01*
X147034642Y-84810714D01*
X146891785Y-84810714D01*
X146796547Y-84858333D01*
X146748928Y-84905952D01*
X148034642Y-85429761D02*
X147939404Y-85477380D01*
X147748928Y-85477380D01*
X147653690Y-85429761D01*
X147606071Y-85334523D01*
X147606071Y-84953571D01*
X147653690Y-84858333D01*
X147748928Y-84810714D01*
X147939404Y-84810714D01*
X148034642Y-84858333D01*
X148082261Y-84953571D01*
X148082261Y-85048809D01*
X147606071Y-85144047D01*
X148510833Y-84810714D02*
X148510833Y-85477380D01*
X148510833Y-84905952D02*
X148558452Y-84858333D01*
X148653690Y-84810714D01*
X148796547Y-84810714D01*
X148891785Y-84858333D01*
X148939404Y-84953571D01*
X148939404Y-85477380D01*
X135129880Y-87079761D02*
X135034642Y-87127380D01*
X134844166Y-87127380D01*
X134748928Y-87079761D01*
X134701309Y-87032142D01*
X134653690Y-86936904D01*
X134653690Y-86651190D01*
X134701309Y-86555952D01*
X134748928Y-86508333D01*
X134844166Y-86460714D01*
X135034642Y-86460714D01*
X135129880Y-86508333D01*
X135558452Y-87127380D02*
X135558452Y-86460714D01*
X135558452Y-86651190D02*
X135606071Y-86555952D01*
X135653690Y-86508333D01*
X135748928Y-86460714D01*
X135844166Y-86460714D01*
X136082261Y-86460714D02*
X136320357Y-87127380D01*
X136558452Y-86460714D02*
X136320357Y-87127380D01*
X136225119Y-87365476D01*
X136177500Y-87413095D01*
X136082261Y-87460714D01*
X136891785Y-87079761D02*
X136987023Y-87127380D01*
X137177500Y-87127380D01*
X137272738Y-87079761D01*
X137320357Y-86984523D01*
X137320357Y-86936904D01*
X137272738Y-86841666D01*
X137177500Y-86794047D01*
X137034642Y-86794047D01*
X136939404Y-86746428D01*
X136891785Y-86651190D01*
X136891785Y-86603571D01*
X136939404Y-86508333D01*
X137034642Y-86460714D01*
X137177500Y-86460714D01*
X137272738Y-86508333D01*
X137606071Y-86460714D02*
X137987023Y-86460714D01*
X137748928Y-86127380D02*
X137748928Y-86984523D01*
X137796547Y-87079761D01*
X137891785Y-87127380D01*
X137987023Y-87127380D01*
X138748928Y-87127380D02*
X138748928Y-86603571D01*
X138701309Y-86508333D01*
X138606071Y-86460714D01*
X138415595Y-86460714D01*
X138320357Y-86508333D01*
X138748928Y-87079761D02*
X138653690Y-87127380D01*
X138415595Y-87127380D01*
X138320357Y-87079761D01*
X138272738Y-86984523D01*
X138272738Y-86889285D01*
X138320357Y-86794047D01*
X138415595Y-86746428D01*
X138653690Y-86746428D01*
X138748928Y-86698809D01*
X139367976Y-87127380D02*
X139272738Y-87079761D01*
X139225119Y-86984523D01*
X139225119Y-86127380D01*
X140939404Y-87127380D02*
X140939404Y-86603571D01*
X140891785Y-86508333D01*
X140796547Y-86460714D01*
X140606071Y-86460714D01*
X140510833Y-86508333D01*
X140939404Y-87079761D02*
X140844166Y-87127380D01*
X140606071Y-87127380D01*
X140510833Y-87079761D01*
X140463214Y-86984523D01*
X140463214Y-86889285D01*
X140510833Y-86794047D01*
X140606071Y-86746428D01*
X140844166Y-86746428D01*
X140939404Y-86698809D01*
X141415595Y-86460714D02*
X141415595Y-87127380D01*
X141415595Y-86555952D02*
X141463214Y-86508333D01*
X141558452Y-86460714D01*
X141701309Y-86460714D01*
X141796547Y-86508333D01*
X141844166Y-86603571D01*
X141844166Y-87127380D01*
X142748928Y-87127380D02*
X142748928Y-86127380D01*
X142748928Y-87079761D02*
X142653690Y-87127380D01*
X142463214Y-87127380D01*
X142367976Y-87079761D01*
X142320357Y-87032142D01*
X142272738Y-86936904D01*
X142272738Y-86651190D01*
X142320357Y-86555952D01*
X142367976Y-86508333D01*
X142463214Y-86460714D01*
X142653690Y-86460714D01*
X142748928Y-86508333D01*
X143987023Y-87127380D02*
X143987023Y-86127380D01*
X144225119Y-86127380D01*
X144367976Y-86175000D01*
X144463214Y-86270238D01*
X144510833Y-86365476D01*
X144558452Y-86555952D01*
X144558452Y-86698809D01*
X144510833Y-86889285D01*
X144463214Y-86984523D01*
X144367976Y-87079761D01*
X144225119Y-87127380D01*
X143987023Y-87127380D01*
X144987023Y-87127380D02*
X144987023Y-86127380D01*
X145463214Y-87127380D02*
X145463214Y-86127380D01*
X145844166Y-86127380D01*
X145939404Y-86175000D01*
X145987023Y-86222619D01*
X146034642Y-86317857D01*
X146034642Y-86460714D01*
X145987023Y-86555952D01*
X145939404Y-86603571D01*
X145844166Y-86651190D01*
X145463214Y-86651190D01*
X147225119Y-87127380D02*
X147225119Y-86127380D01*
X148272738Y-87032142D02*
X148225119Y-87079761D01*
X148082261Y-87127380D01*
X147987023Y-87127380D01*
X147844166Y-87079761D01*
X147748928Y-86984523D01*
X147701309Y-86889285D01*
X147653690Y-86698809D01*
X147653690Y-86555952D01*
X147701309Y-86365476D01*
X147748928Y-86270238D01*
X147844166Y-86175000D01*
X147987023Y-86127380D01*
X148082261Y-86127380D01*
X148225119Y-86175000D01*
X148272738Y-86222619D01*
X148701309Y-87032142D02*
X148748928Y-87079761D01*
X148701309Y-87127380D01*
X148653690Y-87079761D01*
X148701309Y-87032142D01*
X148701309Y-87127380D01*
D11*
X163100000Y-133874285D02*
X166814285Y-133874285D01*
X164814285Y-136160000D01*
X165671428Y-136160000D01*
X166242857Y-136445714D01*
X166528571Y-136731428D01*
X166814285Y-137302857D01*
X166814285Y-138731428D01*
X166528571Y-139302857D01*
X166242857Y-139588571D01*
X165671428Y-139874285D01*
X163957142Y-139874285D01*
X163385714Y-139588571D01*
X163100000Y-139302857D01*
D10*
X108174404Y-72212380D02*
X107602976Y-72212380D01*
X107888690Y-72212380D02*
X107888690Y-71212380D01*
X107793452Y-71355238D01*
X107698214Y-71450476D01*
X107602976Y-71498095D01*
X108602976Y-72117142D02*
X108650595Y-72164761D01*
X108602976Y-72212380D01*
X108555357Y-72164761D01*
X108602976Y-72117142D01*
X108602976Y-72212380D01*
X109841071Y-72212380D02*
X109841071Y-71212380D01*
X110317261Y-71545714D02*
X110317261Y-72212380D01*
X110317261Y-71640952D02*
X110364880Y-71593333D01*
X110460119Y-71545714D01*
X110602976Y-71545714D01*
X110698214Y-71593333D01*
X110745833Y-71688571D01*
X110745833Y-72212380D01*
X111174404Y-72164761D02*
X111269642Y-72212380D01*
X111460119Y-72212380D01*
X111555357Y-72164761D01*
X111602976Y-72069523D01*
X111602976Y-72021904D01*
X111555357Y-71926666D01*
X111460119Y-71879047D01*
X111317261Y-71879047D01*
X111222023Y-71831428D01*
X111174404Y-71736190D01*
X111174404Y-71688571D01*
X111222023Y-71593333D01*
X111317261Y-71545714D01*
X111460119Y-71545714D01*
X111555357Y-71593333D01*
X112412500Y-72164761D02*
X112317261Y-72212380D01*
X112126785Y-72212380D01*
X112031547Y-72164761D01*
X111983928Y-72069523D01*
X111983928Y-71688571D01*
X112031547Y-71593333D01*
X112126785Y-71545714D01*
X112317261Y-71545714D01*
X112412500Y-71593333D01*
X112460119Y-71688571D01*
X112460119Y-71783809D01*
X111983928Y-71879047D01*
X112888690Y-72212380D02*
X112888690Y-71545714D01*
X112888690Y-71736190D02*
X112936309Y-71640952D01*
X112983928Y-71593333D01*
X113079166Y-71545714D01*
X113174404Y-71545714D01*
X113364880Y-71545714D02*
X113745833Y-71545714D01*
X113507738Y-71212380D02*
X113507738Y-72069523D01*
X113555357Y-72164761D01*
X113650595Y-72212380D01*
X113745833Y-72212380D01*
X114841071Y-71545714D02*
X114841071Y-72545714D01*
X114841071Y-71593333D02*
X114936309Y-71545714D01*
X115126785Y-71545714D01*
X115222023Y-71593333D01*
X115269642Y-71640952D01*
X115317261Y-71736190D01*
X115317261Y-72021904D01*
X115269642Y-72117142D01*
X115222023Y-72164761D01*
X115126785Y-72212380D01*
X114936309Y-72212380D01*
X114841071Y-72164761D01*
X115745833Y-72212380D02*
X115745833Y-71545714D01*
X115745833Y-71212380D02*
X115698214Y-71260000D01*
X115745833Y-71307619D01*
X115793452Y-71260000D01*
X115745833Y-71212380D01*
X115745833Y-71307619D01*
X116222023Y-71545714D02*
X116222023Y-72212380D01*
X116222023Y-71640952D02*
X116269642Y-71593333D01*
X116364880Y-71545714D01*
X116507738Y-71545714D01*
X116602976Y-71593333D01*
X116650595Y-71688571D01*
X116650595Y-72212380D01*
X117888690Y-72212380D02*
X117888690Y-71212380D01*
X118317261Y-72212380D02*
X118317261Y-71688571D01*
X118269642Y-71593333D01*
X118174404Y-71545714D01*
X118031547Y-71545714D01*
X117936309Y-71593333D01*
X117888690Y-71640952D01*
X119174404Y-72164761D02*
X119079166Y-72212380D01*
X118888690Y-72212380D01*
X118793452Y-72164761D01*
X118745833Y-72069523D01*
X118745833Y-71688571D01*
X118793452Y-71593333D01*
X118888690Y-71545714D01*
X119079166Y-71545714D01*
X119174404Y-71593333D01*
X119222023Y-71688571D01*
X119222023Y-71783809D01*
X118745833Y-71879047D01*
X120079166Y-72212380D02*
X120079166Y-71688571D01*
X120031547Y-71593333D01*
X119936309Y-71545714D01*
X119745833Y-71545714D01*
X119650595Y-71593333D01*
X120079166Y-72164761D02*
X119983928Y-72212380D01*
X119745833Y-72212380D01*
X119650595Y-72164761D01*
X119602976Y-72069523D01*
X119602976Y-71974285D01*
X119650595Y-71879047D01*
X119745833Y-71831428D01*
X119983928Y-71831428D01*
X120079166Y-71783809D01*
X120983928Y-72212380D02*
X120983928Y-71212380D01*
X120983928Y-72164761D02*
X120888690Y-72212380D01*
X120698214Y-72212380D01*
X120602976Y-72164761D01*
X120555357Y-72117142D01*
X120507738Y-72021904D01*
X120507738Y-71736190D01*
X120555357Y-71640952D01*
X120602976Y-71593333D01*
X120698214Y-71545714D01*
X120888690Y-71545714D01*
X120983928Y-71593333D01*
X121841071Y-72164761D02*
X121745833Y-72212380D01*
X121555357Y-72212380D01*
X121460119Y-72164761D01*
X121412500Y-72069523D01*
X121412500Y-71688571D01*
X121460119Y-71593333D01*
X121555357Y-71545714D01*
X121745833Y-71545714D01*
X121841071Y-71593333D01*
X121888690Y-71688571D01*
X121888690Y-71783809D01*
X121412500Y-71879047D01*
X122317261Y-72212380D02*
X122317261Y-71545714D01*
X122317261Y-71736190D02*
X122364880Y-71640952D01*
X122412500Y-71593333D01*
X122507738Y-71545714D01*
X122602976Y-71545714D01*
X123698214Y-72212380D02*
X123698214Y-71545714D01*
X123698214Y-71212380D02*
X123650595Y-71260000D01*
X123698214Y-71307619D01*
X123745833Y-71260000D01*
X123698214Y-71212380D01*
X123698214Y-71307619D01*
X124174404Y-71545714D02*
X124174404Y-72212380D01*
X124174404Y-71640952D02*
X124222023Y-71593333D01*
X124317261Y-71545714D01*
X124460119Y-71545714D01*
X124555357Y-71593333D01*
X124602976Y-71688571D01*
X124602976Y-72212380D01*
X124936309Y-71545714D02*
X125317261Y-71545714D01*
X125079166Y-71212380D02*
X125079166Y-72069523D01*
X125126785Y-72164761D01*
X125222023Y-72212380D01*
X125317261Y-72212380D01*
X125793452Y-72212380D02*
X125698214Y-72164761D01*
X125650595Y-72117142D01*
X125602976Y-72021904D01*
X125602976Y-71736190D01*
X125650595Y-71640952D01*
X125698214Y-71593333D01*
X125793452Y-71545714D01*
X125936309Y-71545714D01*
X126031547Y-71593333D01*
X126079166Y-71640952D01*
X126126785Y-71736190D01*
X126126785Y-72021904D01*
X126079166Y-72117142D01*
X126031547Y-72164761D01*
X125936309Y-72212380D01*
X125793452Y-72212380D01*
X109936309Y-73862380D02*
X109936309Y-73195714D01*
X109936309Y-73290952D02*
X109983928Y-73243333D01*
X110079166Y-73195714D01*
X110222023Y-73195714D01*
X110317261Y-73243333D01*
X110364880Y-73338571D01*
X110364880Y-73862380D01*
X110364880Y-73338571D02*
X110412500Y-73243333D01*
X110507738Y-73195714D01*
X110650595Y-73195714D01*
X110745833Y-73243333D01*
X110793452Y-73338571D01*
X110793452Y-73862380D01*
X111698214Y-73862380D02*
X111698214Y-73338571D01*
X111650595Y-73243333D01*
X111555357Y-73195714D01*
X111364880Y-73195714D01*
X111269642Y-73243333D01*
X111698214Y-73814761D02*
X111602976Y-73862380D01*
X111364880Y-73862380D01*
X111269642Y-73814761D01*
X111222023Y-73719523D01*
X111222023Y-73624285D01*
X111269642Y-73529047D01*
X111364880Y-73481428D01*
X111602976Y-73481428D01*
X111698214Y-73433809D01*
X112174404Y-73862380D02*
X112174404Y-73195714D01*
X112174404Y-73386190D02*
X112222023Y-73290952D01*
X112269642Y-73243333D01*
X112364880Y-73195714D01*
X112460119Y-73195714D01*
X112793452Y-73862380D02*
X112793452Y-72862380D01*
X112888690Y-73481428D02*
X113174404Y-73862380D01*
X113174404Y-73195714D02*
X112793452Y-73576666D01*
X113983928Y-73814761D02*
X113888690Y-73862380D01*
X113698214Y-73862380D01*
X113602976Y-73814761D01*
X113555357Y-73719523D01*
X113555357Y-73338571D01*
X113602976Y-73243333D01*
X113698214Y-73195714D01*
X113888690Y-73195714D01*
X113983928Y-73243333D01*
X114031547Y-73338571D01*
X114031547Y-73433809D01*
X113555357Y-73529047D01*
X114888690Y-73862380D02*
X114888690Y-72862380D01*
X114888690Y-73814761D02*
X114793452Y-73862380D01*
X114602976Y-73862380D01*
X114507738Y-73814761D01*
X114460119Y-73767142D01*
X114412500Y-73671904D01*
X114412500Y-73386190D01*
X114460119Y-73290952D01*
X114507738Y-73243333D01*
X114602976Y-73195714D01*
X114793452Y-73195714D01*
X114888690Y-73243333D01*
X116126785Y-73862380D02*
X116126785Y-73195714D01*
X116126785Y-73386190D02*
X116174404Y-73290952D01*
X116222023Y-73243333D01*
X116317261Y-73195714D01*
X116412500Y-73195714D01*
X116888690Y-73862380D02*
X116793452Y-73814761D01*
X116745833Y-73767142D01*
X116698214Y-73671904D01*
X116698214Y-73386190D01*
X116745833Y-73290952D01*
X116793452Y-73243333D01*
X116888690Y-73195714D01*
X117031547Y-73195714D01*
X117126785Y-73243333D01*
X117174404Y-73290952D01*
X117222023Y-73386190D01*
X117222023Y-73671904D01*
X117174404Y-73767142D01*
X117126785Y-73814761D01*
X117031547Y-73862380D01*
X116888690Y-73862380D01*
X117555357Y-73195714D02*
X117745833Y-73862380D01*
X117936309Y-73386190D01*
X118126785Y-73862380D01*
X118317261Y-73195714D01*
X107602976Y-74607619D02*
X107650595Y-74560000D01*
X107745833Y-74512380D01*
X107983928Y-74512380D01*
X108079166Y-74560000D01*
X108126785Y-74607619D01*
X108174404Y-74702857D01*
X108174404Y-74798095D01*
X108126785Y-74940952D01*
X107555357Y-75512380D01*
X108174404Y-75512380D01*
X108602976Y-75417142D02*
X108650595Y-75464761D01*
X108602976Y-75512380D01*
X108555357Y-75464761D01*
X108602976Y-75417142D01*
X108602976Y-75512380D01*
X109841071Y-75512380D02*
X109841071Y-74512380D01*
X110222023Y-74512380D01*
X110317261Y-74560000D01*
X110364880Y-74607619D01*
X110412500Y-74702857D01*
X110412500Y-74845714D01*
X110364880Y-74940952D01*
X110317261Y-74988571D01*
X110222023Y-75036190D01*
X109841071Y-75036190D01*
X110983928Y-75512380D02*
X110888690Y-75464761D01*
X110841071Y-75369523D01*
X110841071Y-74512380D01*
X111793452Y-75512380D02*
X111793452Y-74988571D01*
X111745833Y-74893333D01*
X111650595Y-74845714D01*
X111460119Y-74845714D01*
X111364880Y-74893333D01*
X111793452Y-75464761D02*
X111698214Y-75512380D01*
X111460119Y-75512380D01*
X111364880Y-75464761D01*
X111317261Y-75369523D01*
X111317261Y-75274285D01*
X111364880Y-75179047D01*
X111460119Y-75131428D01*
X111698214Y-75131428D01*
X111793452Y-75083809D01*
X112698214Y-75464761D02*
X112602976Y-75512380D01*
X112412500Y-75512380D01*
X112317261Y-75464761D01*
X112269642Y-75417142D01*
X112222023Y-75321904D01*
X112222023Y-75036190D01*
X112269642Y-74940952D01*
X112317261Y-74893333D01*
X112412500Y-74845714D01*
X112602976Y-74845714D01*
X112698214Y-74893333D01*
X113507738Y-75464761D02*
X113412500Y-75512380D01*
X113222023Y-75512380D01*
X113126785Y-75464761D01*
X113079166Y-75369523D01*
X113079166Y-74988571D01*
X113126785Y-74893333D01*
X113222023Y-74845714D01*
X113412500Y-74845714D01*
X113507738Y-74893333D01*
X113555357Y-74988571D01*
X113555357Y-75083809D01*
X113079166Y-75179047D01*
X114745833Y-75512380D02*
X114745833Y-74512380D01*
X114745833Y-74893333D02*
X114841071Y-74845714D01*
X115031547Y-74845714D01*
X115126785Y-74893333D01*
X115174404Y-74940952D01*
X115222023Y-75036190D01*
X115222023Y-75321904D01*
X115174404Y-75417142D01*
X115126785Y-75464761D01*
X115031547Y-75512380D01*
X114841071Y-75512380D01*
X114745833Y-75464761D01*
X115793452Y-75512380D02*
X115698214Y-75464761D01*
X115650595Y-75417142D01*
X115602976Y-75321904D01*
X115602976Y-75036190D01*
X115650595Y-74940952D01*
X115698214Y-74893333D01*
X115793452Y-74845714D01*
X115936309Y-74845714D01*
X116031547Y-74893333D01*
X116079166Y-74940952D01*
X116126785Y-75036190D01*
X116126785Y-75321904D01*
X116079166Y-75417142D01*
X116031547Y-75464761D01*
X115936309Y-75512380D01*
X115793452Y-75512380D01*
X116983928Y-75512380D02*
X116983928Y-74988571D01*
X116936309Y-74893333D01*
X116841071Y-74845714D01*
X116650595Y-74845714D01*
X116555357Y-74893333D01*
X116983928Y-75464761D02*
X116888690Y-75512380D01*
X116650595Y-75512380D01*
X116555357Y-75464761D01*
X116507738Y-75369523D01*
X116507738Y-75274285D01*
X116555357Y-75179047D01*
X116650595Y-75131428D01*
X116888690Y-75131428D01*
X116983928Y-75083809D01*
X117460119Y-75512380D02*
X117460119Y-74845714D01*
X117460119Y-75036190D02*
X117507738Y-74940952D01*
X117555357Y-74893333D01*
X117650595Y-74845714D01*
X117745833Y-74845714D01*
X118507738Y-75512380D02*
X118507738Y-74512380D01*
X118507738Y-75464761D02*
X118412500Y-75512380D01*
X118222023Y-75512380D01*
X118126785Y-75464761D01*
X118079166Y-75417142D01*
X118031547Y-75321904D01*
X118031547Y-75036190D01*
X118079166Y-74940952D01*
X118126785Y-74893333D01*
X118222023Y-74845714D01*
X118412500Y-74845714D01*
X118507738Y-74893333D01*
X120174404Y-74845714D02*
X120174404Y-75512380D01*
X119745833Y-74845714D02*
X119745833Y-75369523D01*
X119793452Y-75464761D01*
X119888690Y-75512380D01*
X120031547Y-75512380D01*
X120126785Y-75464761D01*
X120174404Y-75417142D01*
X120650595Y-74845714D02*
X120650595Y-75845714D01*
X120650595Y-74893333D02*
X120745833Y-74845714D01*
X120936309Y-74845714D01*
X121031547Y-74893333D01*
X121079166Y-74940952D01*
X121126785Y-75036190D01*
X121126785Y-75321904D01*
X121079166Y-75417142D01*
X121031547Y-75464761D01*
X120936309Y-75512380D01*
X120745833Y-75512380D01*
X120650595Y-75464761D01*
X121555357Y-75512380D02*
X121555357Y-74845714D01*
X121555357Y-75036190D02*
X121602976Y-74940952D01*
X121650595Y-74893333D01*
X121745833Y-74845714D01*
X121841071Y-74845714D01*
X122174404Y-75512380D02*
X122174404Y-74845714D01*
X122174404Y-74512380D02*
X122126785Y-74560000D01*
X122174404Y-74607619D01*
X122222023Y-74560000D01*
X122174404Y-74512380D01*
X122174404Y-74607619D01*
X123079166Y-74845714D02*
X123079166Y-75655238D01*
X123031547Y-75750476D01*
X122983928Y-75798095D01*
X122888690Y-75845714D01*
X122745833Y-75845714D01*
X122650595Y-75798095D01*
X123079166Y-75464761D02*
X122983928Y-75512380D01*
X122793452Y-75512380D01*
X122698214Y-75464761D01*
X122650595Y-75417142D01*
X122602976Y-75321904D01*
X122602976Y-75036190D01*
X122650595Y-74940952D01*
X122698214Y-74893333D01*
X122793452Y-74845714D01*
X122983928Y-74845714D01*
X123079166Y-74893333D01*
X123555357Y-75512380D02*
X123555357Y-74512380D01*
X123983928Y-75512380D02*
X123983928Y-74988571D01*
X123936309Y-74893333D01*
X123841071Y-74845714D01*
X123698214Y-74845714D01*
X123602976Y-74893333D01*
X123555357Y-74940952D01*
X124317261Y-74845714D02*
X124698214Y-74845714D01*
X124460119Y-74512380D02*
X124460119Y-75369523D01*
X124507738Y-75464761D01*
X124602976Y-75512380D01*
X124698214Y-75512380D01*
X107555357Y-76162380D02*
X108174404Y-76162380D01*
X107841071Y-76543333D01*
X107983928Y-76543333D01*
X108079166Y-76590952D01*
X108126785Y-76638571D01*
X108174404Y-76733809D01*
X108174404Y-76971904D01*
X108126785Y-77067142D01*
X108079166Y-77114761D01*
X107983928Y-77162380D01*
X107698214Y-77162380D01*
X107602976Y-77114761D01*
X107555357Y-77067142D01*
X108602976Y-77067142D02*
X108650595Y-77114761D01*
X108602976Y-77162380D01*
X108555357Y-77114761D01*
X108602976Y-77067142D01*
X108602976Y-77162380D01*
X109841071Y-77162380D02*
X109841071Y-76162380D01*
X109841071Y-76638571D02*
X110412500Y-76638571D01*
X110412500Y-77162380D02*
X110412500Y-76162380D01*
X111317261Y-77162380D02*
X111317261Y-76638571D01*
X111269642Y-76543333D01*
X111174404Y-76495714D01*
X110983928Y-76495714D01*
X110888690Y-76543333D01*
X111317261Y-77114761D02*
X111222023Y-77162380D01*
X110983928Y-77162380D01*
X110888690Y-77114761D01*
X110841071Y-77019523D01*
X110841071Y-76924285D01*
X110888690Y-76829047D01*
X110983928Y-76781428D01*
X111222023Y-76781428D01*
X111317261Y-76733809D01*
X111793452Y-76495714D02*
X111793452Y-77162380D01*
X111793452Y-76590952D02*
X111841071Y-76543333D01*
X111936309Y-76495714D01*
X112079166Y-76495714D01*
X112174404Y-76543333D01*
X112222023Y-76638571D01*
X112222023Y-77162380D01*
X113126785Y-77162380D02*
X113126785Y-76162380D01*
X113126785Y-77114761D02*
X113031547Y-77162380D01*
X112841071Y-77162380D01*
X112745833Y-77114761D01*
X112698214Y-77067142D01*
X112650595Y-76971904D01*
X112650595Y-76686190D01*
X112698214Y-76590952D01*
X112745833Y-76543333D01*
X112841071Y-76495714D01*
X113031547Y-76495714D01*
X113126785Y-76543333D01*
X114317261Y-77114761D02*
X114412500Y-77162380D01*
X114602976Y-77162380D01*
X114698214Y-77114761D01*
X114745833Y-77019523D01*
X114745833Y-76971904D01*
X114698214Y-76876666D01*
X114602976Y-76829047D01*
X114460119Y-76829047D01*
X114364880Y-76781428D01*
X114317261Y-76686190D01*
X114317261Y-76638571D01*
X114364880Y-76543333D01*
X114460119Y-76495714D01*
X114602976Y-76495714D01*
X114698214Y-76543333D01*
X115317261Y-77162380D02*
X115222023Y-77114761D01*
X115174404Y-77067142D01*
X115126785Y-76971904D01*
X115126785Y-76686190D01*
X115174404Y-76590952D01*
X115222023Y-76543333D01*
X115317261Y-76495714D01*
X115460119Y-76495714D01*
X115555357Y-76543333D01*
X115602976Y-76590952D01*
X115650595Y-76686190D01*
X115650595Y-76971904D01*
X115602976Y-77067142D01*
X115555357Y-77114761D01*
X115460119Y-77162380D01*
X115317261Y-77162380D01*
X116222023Y-77162380D02*
X116126785Y-77114761D01*
X116079166Y-77019523D01*
X116079166Y-76162380D01*
X117031547Y-77162380D02*
X117031547Y-76162380D01*
X117031547Y-77114761D02*
X116936309Y-77162380D01*
X116745833Y-77162380D01*
X116650595Y-77114761D01*
X116602976Y-77067142D01*
X116555357Y-76971904D01*
X116555357Y-76686190D01*
X116602976Y-76590952D01*
X116650595Y-76543333D01*
X116745833Y-76495714D01*
X116936309Y-76495714D01*
X117031547Y-76543333D01*
X117888690Y-77114761D02*
X117793452Y-77162380D01*
X117602976Y-77162380D01*
X117507738Y-77114761D01*
X117460119Y-77019523D01*
X117460119Y-76638571D01*
X117507738Y-76543333D01*
X117602976Y-76495714D01*
X117793452Y-76495714D01*
X117888690Y-76543333D01*
X117936309Y-76638571D01*
X117936309Y-76733809D01*
X117460119Y-76829047D01*
X118364880Y-77162380D02*
X118364880Y-76495714D01*
X118364880Y-76686190D02*
X118412500Y-76590952D01*
X118460119Y-76543333D01*
X118555357Y-76495714D01*
X118650595Y-76495714D01*
X120269642Y-77162380D02*
X119698214Y-77162380D01*
X119983928Y-77162380D02*
X119983928Y-76162380D01*
X119888690Y-76305238D01*
X119793452Y-76400476D01*
X119698214Y-76448095D01*
X120650595Y-76257619D02*
X120698214Y-76210000D01*
X120793452Y-76162380D01*
X121031547Y-76162380D01*
X121126785Y-76210000D01*
X121174404Y-76257619D01*
X121222023Y-76352857D01*
X121222023Y-76448095D01*
X121174404Y-76590952D01*
X120602976Y-77162380D01*
X121222023Y-77162380D01*
X121841071Y-76162380D02*
X121936309Y-76162380D01*
X122031547Y-76210000D01*
X122079166Y-76257619D01*
X122126785Y-76352857D01*
X122174404Y-76543333D01*
X122174404Y-76781428D01*
X122126785Y-76971904D01*
X122079166Y-77067142D01*
X122031547Y-77114761D01*
X121936309Y-77162380D01*
X121841071Y-77162380D01*
X121745833Y-77114761D01*
X121698214Y-77067142D01*
X121650595Y-76971904D01*
X121602976Y-76781428D01*
X121602976Y-76543333D01*
X121650595Y-76352857D01*
X121698214Y-76257619D01*
X121745833Y-76210000D01*
X121841071Y-76162380D01*
X123031547Y-76162380D02*
X122841071Y-76162380D01*
X122745833Y-76210000D01*
X122698214Y-76257619D01*
X122602976Y-76400476D01*
X122555357Y-76590952D01*
X122555357Y-76971904D01*
X122602976Y-77067142D01*
X122650595Y-77114761D01*
X122745833Y-77162380D01*
X122936309Y-77162380D01*
X123031547Y-77114761D01*
X123079166Y-77067142D01*
X123126785Y-76971904D01*
X123126785Y-76733809D01*
X123079166Y-76638571D01*
X123031547Y-76590952D01*
X122936309Y-76543333D01*
X122745833Y-76543333D01*
X122650595Y-76590952D01*
X122602976Y-76638571D01*
X122555357Y-76733809D01*
X110364880Y-78764761D02*
X110269642Y-78812380D01*
X110079166Y-78812380D01*
X109983928Y-78764761D01*
X109936309Y-78717142D01*
X109888690Y-78621904D01*
X109888690Y-78336190D01*
X109936309Y-78240952D01*
X109983928Y-78193333D01*
X110079166Y-78145714D01*
X110269642Y-78145714D01*
X110364880Y-78193333D01*
X111222023Y-78812380D02*
X111222023Y-78288571D01*
X111174404Y-78193333D01*
X111079166Y-78145714D01*
X110888690Y-78145714D01*
X110793452Y-78193333D01*
X111222023Y-78764761D02*
X111126785Y-78812380D01*
X110888690Y-78812380D01*
X110793452Y-78764761D01*
X110745833Y-78669523D01*
X110745833Y-78574285D01*
X110793452Y-78479047D01*
X110888690Y-78431428D01*
X111126785Y-78431428D01*
X111222023Y-78383809D01*
X111698214Y-78145714D02*
X111698214Y-79145714D01*
X111698214Y-78193333D02*
X111793452Y-78145714D01*
X111983928Y-78145714D01*
X112079166Y-78193333D01*
X112126785Y-78240952D01*
X112174404Y-78336190D01*
X112174404Y-78621904D01*
X112126785Y-78717142D01*
X112079166Y-78764761D01*
X111983928Y-78812380D01*
X111793452Y-78812380D01*
X111698214Y-78764761D01*
X113031547Y-78812380D02*
X113031547Y-78288571D01*
X112983928Y-78193333D01*
X112888690Y-78145714D01*
X112698214Y-78145714D01*
X112602976Y-78193333D01*
X113031547Y-78764761D02*
X112936309Y-78812380D01*
X112698214Y-78812380D01*
X112602976Y-78764761D01*
X112555357Y-78669523D01*
X112555357Y-78574285D01*
X112602976Y-78479047D01*
X112698214Y-78431428D01*
X112936309Y-78431428D01*
X113031547Y-78383809D01*
X113936309Y-78764761D02*
X113841071Y-78812380D01*
X113650595Y-78812380D01*
X113555357Y-78764761D01*
X113507738Y-78717142D01*
X113460119Y-78621904D01*
X113460119Y-78336190D01*
X113507738Y-78240952D01*
X113555357Y-78193333D01*
X113650595Y-78145714D01*
X113841071Y-78145714D01*
X113936309Y-78193333D01*
X114364880Y-78812380D02*
X114364880Y-78145714D01*
X114364880Y-77812380D02*
X114317261Y-77860000D01*
X114364880Y-77907619D01*
X114412500Y-77860000D01*
X114364880Y-77812380D01*
X114364880Y-77907619D01*
X114698214Y-78145714D02*
X115079166Y-78145714D01*
X114841071Y-77812380D02*
X114841071Y-78669523D01*
X114888690Y-78764761D01*
X114983928Y-78812380D01*
X115079166Y-78812380D01*
X115555357Y-78812380D02*
X115460119Y-78764761D01*
X115412500Y-78717142D01*
X115364880Y-78621904D01*
X115364880Y-78336190D01*
X115412500Y-78240952D01*
X115460119Y-78193333D01*
X115555357Y-78145714D01*
X115698214Y-78145714D01*
X115793452Y-78193333D01*
X115841071Y-78240952D01*
X115888690Y-78336190D01*
X115888690Y-78621904D01*
X115841071Y-78717142D01*
X115793452Y-78764761D01*
X115698214Y-78812380D01*
X115555357Y-78812380D01*
X116317261Y-78812380D02*
X116317261Y-78145714D01*
X116317261Y-78336190D02*
X116364880Y-78240952D01*
X116412500Y-78193333D01*
X116507738Y-78145714D01*
X116602976Y-78145714D01*
X108079166Y-79795714D02*
X108079166Y-80462380D01*
X107841071Y-79414761D02*
X107602976Y-80129047D01*
X108222023Y-80129047D01*
X108602976Y-80367142D02*
X108650595Y-80414761D01*
X108602976Y-80462380D01*
X108555357Y-80414761D01*
X108602976Y-80367142D01*
X108602976Y-80462380D01*
X109841071Y-80462380D02*
X109841071Y-79462380D01*
X110222023Y-79462380D01*
X110317261Y-79510000D01*
X110364880Y-79557619D01*
X110412500Y-79652857D01*
X110412500Y-79795714D01*
X110364880Y-79890952D01*
X110317261Y-79938571D01*
X110222023Y-79986190D01*
X109841071Y-79986190D01*
X110983928Y-80462380D02*
X110888690Y-80414761D01*
X110841071Y-80319523D01*
X110841071Y-79462380D01*
X111793452Y-80462380D02*
X111793452Y-79938571D01*
X111745833Y-79843333D01*
X111650595Y-79795714D01*
X111460119Y-79795714D01*
X111364880Y-79843333D01*
X111793452Y-80414761D02*
X111698214Y-80462380D01*
X111460119Y-80462380D01*
X111364880Y-80414761D01*
X111317261Y-80319523D01*
X111317261Y-80224285D01*
X111364880Y-80129047D01*
X111460119Y-80081428D01*
X111698214Y-80081428D01*
X111793452Y-80033809D01*
X112698214Y-80414761D02*
X112602976Y-80462380D01*
X112412500Y-80462380D01*
X112317261Y-80414761D01*
X112269642Y-80367142D01*
X112222023Y-80271904D01*
X112222023Y-79986190D01*
X112269642Y-79890952D01*
X112317261Y-79843333D01*
X112412500Y-79795714D01*
X112602976Y-79795714D01*
X112698214Y-79843333D01*
X113507738Y-80414761D02*
X113412500Y-80462380D01*
X113222023Y-80462380D01*
X113126785Y-80414761D01*
X113079166Y-80319523D01*
X113079166Y-79938571D01*
X113126785Y-79843333D01*
X113222023Y-79795714D01*
X113412500Y-79795714D01*
X113507738Y-79843333D01*
X113555357Y-79938571D01*
X113555357Y-80033809D01*
X113079166Y-80129047D01*
X115174404Y-80414761D02*
X115079166Y-80462380D01*
X114888690Y-80462380D01*
X114793452Y-80414761D01*
X114745833Y-80367142D01*
X114698214Y-80271904D01*
X114698214Y-79986190D01*
X114745833Y-79890952D01*
X114793452Y-79843333D01*
X114888690Y-79795714D01*
X115079166Y-79795714D01*
X115174404Y-79843333D01*
X115602976Y-80462380D02*
X115602976Y-79795714D01*
X115602976Y-79986190D02*
X115650595Y-79890952D01*
X115698214Y-79843333D01*
X115793452Y-79795714D01*
X115888690Y-79795714D01*
X116126785Y-79795714D02*
X116364880Y-80462380D01*
X116602976Y-79795714D02*
X116364880Y-80462380D01*
X116269642Y-80700476D01*
X116222023Y-80748095D01*
X116126785Y-80795714D01*
X116936309Y-80414761D02*
X117031547Y-80462380D01*
X117222023Y-80462380D01*
X117317261Y-80414761D01*
X117364880Y-80319523D01*
X117364880Y-80271904D01*
X117317261Y-80176666D01*
X117222023Y-80129047D01*
X117079166Y-80129047D01*
X116983928Y-80081428D01*
X116936309Y-79986190D01*
X116936309Y-79938571D01*
X116983928Y-79843333D01*
X117079166Y-79795714D01*
X117222023Y-79795714D01*
X117317261Y-79843333D01*
X117650595Y-79795714D02*
X118031547Y-79795714D01*
X117793452Y-79462380D02*
X117793452Y-80319523D01*
X117841071Y-80414761D01*
X117936309Y-80462380D01*
X118031547Y-80462380D01*
X118793452Y-80462380D02*
X118793452Y-79938571D01*
X118745833Y-79843333D01*
X118650595Y-79795714D01*
X118460119Y-79795714D01*
X118364880Y-79843333D01*
X118793452Y-80414761D02*
X118698214Y-80462380D01*
X118460119Y-80462380D01*
X118364880Y-80414761D01*
X118317261Y-80319523D01*
X118317261Y-80224285D01*
X118364880Y-80129047D01*
X118460119Y-80081428D01*
X118698214Y-80081428D01*
X118793452Y-80033809D01*
X119412500Y-80462380D02*
X119317261Y-80414761D01*
X119269642Y-80319523D01*
X119269642Y-79462380D01*
X120983928Y-80462380D02*
X120983928Y-79938571D01*
X120936309Y-79843333D01*
X120841071Y-79795714D01*
X120650595Y-79795714D01*
X120555357Y-79843333D01*
X120983928Y-80414761D02*
X120888690Y-80462380D01*
X120650595Y-80462380D01*
X120555357Y-80414761D01*
X120507738Y-80319523D01*
X120507738Y-80224285D01*
X120555357Y-80129047D01*
X120650595Y-80081428D01*
X120888690Y-80081428D01*
X120983928Y-80033809D01*
X121460119Y-79795714D02*
X121460119Y-80462380D01*
X121460119Y-79890952D02*
X121507738Y-79843333D01*
X121602976Y-79795714D01*
X121745833Y-79795714D01*
X121841071Y-79843333D01*
X121888690Y-79938571D01*
X121888690Y-80462380D01*
X122793452Y-80462380D02*
X122793452Y-79462380D01*
X122793452Y-80414761D02*
X122698214Y-80462380D01*
X122507738Y-80462380D01*
X122412500Y-80414761D01*
X122364880Y-80367142D01*
X122317261Y-80271904D01*
X122317261Y-79986190D01*
X122364880Y-79890952D01*
X122412500Y-79843333D01*
X122507738Y-79795714D01*
X122698214Y-79795714D01*
X122793452Y-79843333D01*
X109793452Y-81445714D02*
X110174404Y-81445714D01*
X109936309Y-81112380D02*
X109936309Y-81969523D01*
X109983928Y-82064761D01*
X110079166Y-82112380D01*
X110174404Y-82112380D01*
X110936309Y-82112380D02*
X110936309Y-81588571D01*
X110888690Y-81493333D01*
X110793452Y-81445714D01*
X110602976Y-81445714D01*
X110507738Y-81493333D01*
X110936309Y-82064761D02*
X110841071Y-82112380D01*
X110602976Y-82112380D01*
X110507738Y-82064761D01*
X110460119Y-81969523D01*
X110460119Y-81874285D01*
X110507738Y-81779047D01*
X110602976Y-81731428D01*
X110841071Y-81731428D01*
X110936309Y-81683809D01*
X111841071Y-82064761D02*
X111745833Y-82112380D01*
X111555357Y-82112380D01*
X111460119Y-82064761D01*
X111412500Y-82017142D01*
X111364880Y-81921904D01*
X111364880Y-81636190D01*
X111412500Y-81540952D01*
X111460119Y-81493333D01*
X111555357Y-81445714D01*
X111745833Y-81445714D01*
X111841071Y-81493333D01*
X112269642Y-82112380D02*
X112269642Y-81112380D01*
X112364880Y-81731428D02*
X112650595Y-82112380D01*
X112650595Y-81445714D02*
X112269642Y-81826666D01*
X113698214Y-81445714D02*
X114079166Y-81445714D01*
X113841071Y-82112380D02*
X113841071Y-81255238D01*
X113888690Y-81160000D01*
X113983928Y-81112380D01*
X114079166Y-81112380D01*
X114412500Y-82112380D02*
X114412500Y-81445714D01*
X114412500Y-81636190D02*
X114460119Y-81540952D01*
X114507738Y-81493333D01*
X114602976Y-81445714D01*
X114698214Y-81445714D01*
X115174404Y-82112380D02*
X115079166Y-82064761D01*
X115031547Y-82017142D01*
X114983928Y-81921904D01*
X114983928Y-81636190D01*
X115031547Y-81540952D01*
X115079166Y-81493333D01*
X115174404Y-81445714D01*
X115317261Y-81445714D01*
X115412500Y-81493333D01*
X115460119Y-81540952D01*
X115507738Y-81636190D01*
X115507738Y-81921904D01*
X115460119Y-82017142D01*
X115412500Y-82064761D01*
X115317261Y-82112380D01*
X115174404Y-82112380D01*
X115936309Y-82112380D02*
X115936309Y-81445714D01*
X115936309Y-81540952D02*
X115983928Y-81493333D01*
X116079166Y-81445714D01*
X116222023Y-81445714D01*
X116317261Y-81493333D01*
X116364880Y-81588571D01*
X116364880Y-82112380D01*
X116364880Y-81588571D02*
X116412500Y-81493333D01*
X116507738Y-81445714D01*
X116650595Y-81445714D01*
X116745833Y-81493333D01*
X116793452Y-81588571D01*
X116793452Y-82112380D01*
X117888690Y-81445714D02*
X118269642Y-81445714D01*
X118031547Y-81112380D02*
X118031547Y-81969523D01*
X118079166Y-82064761D01*
X118174404Y-82112380D01*
X118269642Y-82112380D01*
X118745833Y-82112380D02*
X118650595Y-82064761D01*
X118602976Y-82017142D01*
X118555357Y-81921904D01*
X118555357Y-81636190D01*
X118602976Y-81540952D01*
X118650595Y-81493333D01*
X118745833Y-81445714D01*
X118888690Y-81445714D01*
X118983928Y-81493333D01*
X119031547Y-81540952D01*
X119079166Y-81636190D01*
X119079166Y-81921904D01*
X119031547Y-82017142D01*
X118983928Y-82064761D01*
X118888690Y-82112380D01*
X118745833Y-82112380D01*
X119507738Y-81445714D02*
X119507738Y-82445714D01*
X119507738Y-81493333D02*
X119602976Y-81445714D01*
X119793452Y-81445714D01*
X119888690Y-81493333D01*
X119936309Y-81540952D01*
X119983928Y-81636190D01*
X119983928Y-81921904D01*
X119936309Y-82017142D01*
X119888690Y-82064761D01*
X119793452Y-82112380D01*
X119602976Y-82112380D01*
X119507738Y-82064761D01*
X121126785Y-82064761D02*
X121222023Y-82112380D01*
X121412500Y-82112380D01*
X121507738Y-82064761D01*
X121555357Y-81969523D01*
X121555357Y-81921904D01*
X121507738Y-81826666D01*
X121412500Y-81779047D01*
X121269642Y-81779047D01*
X121174404Y-81731428D01*
X121126785Y-81636190D01*
X121126785Y-81588571D01*
X121174404Y-81493333D01*
X121269642Y-81445714D01*
X121412500Y-81445714D01*
X121507738Y-81493333D01*
X121983928Y-82112380D02*
X121983928Y-81445714D01*
X121983928Y-81112380D02*
X121936309Y-81160000D01*
X121983928Y-81207619D01*
X122031547Y-81160000D01*
X121983928Y-81112380D01*
X121983928Y-81207619D01*
X122888690Y-82112380D02*
X122888690Y-81112380D01*
X122888690Y-82064761D02*
X122793452Y-82112380D01*
X122602976Y-82112380D01*
X122507738Y-82064761D01*
X122460119Y-82017142D01*
X122412500Y-81921904D01*
X122412500Y-81636190D01*
X122460119Y-81540952D01*
X122507738Y-81493333D01*
X122602976Y-81445714D01*
X122793452Y-81445714D01*
X122888690Y-81493333D01*
X123745833Y-82064761D02*
X123650595Y-82112380D01*
X123460119Y-82112380D01*
X123364880Y-82064761D01*
X123317261Y-81969523D01*
X123317261Y-81588571D01*
X123364880Y-81493333D01*
X123460119Y-81445714D01*
X123650595Y-81445714D01*
X123745833Y-81493333D01*
X123793452Y-81588571D01*
X123793452Y-81683809D01*
X123317261Y-81779047D01*
X108126785Y-82762380D02*
X107650595Y-82762380D01*
X107602976Y-83238571D01*
X107650595Y-83190952D01*
X107745833Y-83143333D01*
X107983928Y-83143333D01*
X108079166Y-83190952D01*
X108126785Y-83238571D01*
X108174404Y-83333809D01*
X108174404Y-83571904D01*
X108126785Y-83667142D01*
X108079166Y-83714761D01*
X107983928Y-83762380D01*
X107745833Y-83762380D01*
X107650595Y-83714761D01*
X107602976Y-83667142D01*
X108602976Y-83667142D02*
X108650595Y-83714761D01*
X108602976Y-83762380D01*
X108555357Y-83714761D01*
X108602976Y-83667142D01*
X108602976Y-83762380D01*
X109841071Y-83762380D02*
X109841071Y-82762380D01*
X110222023Y-82762380D01*
X110317261Y-82810000D01*
X110364880Y-82857619D01*
X110412500Y-82952857D01*
X110412500Y-83095714D01*
X110364880Y-83190952D01*
X110317261Y-83238571D01*
X110222023Y-83286190D01*
X109841071Y-83286190D01*
X110983928Y-83762380D02*
X110888690Y-83714761D01*
X110841071Y-83619523D01*
X110841071Y-82762380D01*
X111793452Y-83762380D02*
X111793452Y-83238571D01*
X111745833Y-83143333D01*
X111650595Y-83095714D01*
X111460119Y-83095714D01*
X111364880Y-83143333D01*
X111793452Y-83714761D02*
X111698214Y-83762380D01*
X111460119Y-83762380D01*
X111364880Y-83714761D01*
X111317261Y-83619523D01*
X111317261Y-83524285D01*
X111364880Y-83429047D01*
X111460119Y-83381428D01*
X111698214Y-83381428D01*
X111793452Y-83333809D01*
X112698214Y-83714761D02*
X112602976Y-83762380D01*
X112412500Y-83762380D01*
X112317261Y-83714761D01*
X112269642Y-83667142D01*
X112222023Y-83571904D01*
X112222023Y-83286190D01*
X112269642Y-83190952D01*
X112317261Y-83143333D01*
X112412500Y-83095714D01*
X112602976Y-83095714D01*
X112698214Y-83143333D01*
X113507738Y-83714761D02*
X113412500Y-83762380D01*
X113222023Y-83762380D01*
X113126785Y-83714761D01*
X113079166Y-83619523D01*
X113079166Y-83238571D01*
X113126785Y-83143333D01*
X113222023Y-83095714D01*
X113412500Y-83095714D01*
X113507738Y-83143333D01*
X113555357Y-83238571D01*
X113555357Y-83333809D01*
X113079166Y-83429047D01*
X114745833Y-83762380D02*
X114745833Y-82762380D01*
X114983928Y-82762380D01*
X115126785Y-82810000D01*
X115222023Y-82905238D01*
X115269642Y-83000476D01*
X115317261Y-83190952D01*
X115317261Y-83333809D01*
X115269642Y-83524285D01*
X115222023Y-83619523D01*
X115126785Y-83714761D01*
X114983928Y-83762380D01*
X114745833Y-83762380D01*
X115745833Y-83762380D02*
X115745833Y-82762380D01*
X116222023Y-83762380D02*
X116222023Y-82762380D01*
X116602976Y-82762380D01*
X116698214Y-82810000D01*
X116745833Y-82857619D01*
X116793452Y-82952857D01*
X116793452Y-83095714D01*
X116745833Y-83190952D01*
X116698214Y-83238571D01*
X116602976Y-83286190D01*
X116222023Y-83286190D01*
X117983928Y-83762380D02*
X117983928Y-82762380D01*
X119031547Y-83667142D02*
X118983928Y-83714761D01*
X118841071Y-83762380D01*
X118745833Y-83762380D01*
X118602976Y-83714761D01*
X118507738Y-83619523D01*
X118460119Y-83524285D01*
X118412500Y-83333809D01*
X118412500Y-83190952D01*
X118460119Y-83000476D01*
X118507738Y-82905238D01*
X118602976Y-82810000D01*
X118745833Y-82762380D01*
X118841071Y-82762380D01*
X118983928Y-82810000D01*
X119031547Y-82857619D01*
X120650595Y-83762380D02*
X120650595Y-83238571D01*
X120602976Y-83143333D01*
X120507738Y-83095714D01*
X120317261Y-83095714D01*
X120222023Y-83143333D01*
X120650595Y-83714761D02*
X120555357Y-83762380D01*
X120317261Y-83762380D01*
X120222023Y-83714761D01*
X120174404Y-83619523D01*
X120174404Y-83524285D01*
X120222023Y-83429047D01*
X120317261Y-83381428D01*
X120555357Y-83381428D01*
X120650595Y-83333809D01*
X121126785Y-83095714D02*
X121126785Y-83762380D01*
X121126785Y-83190952D02*
X121174404Y-83143333D01*
X121269642Y-83095714D01*
X121412500Y-83095714D01*
X121507738Y-83143333D01*
X121555357Y-83238571D01*
X121555357Y-83762380D01*
X122460119Y-83762380D02*
X122460119Y-82762380D01*
X122460119Y-83714761D02*
X122364880Y-83762380D01*
X122174404Y-83762380D01*
X122079166Y-83714761D01*
X122031547Y-83667142D01*
X121983928Y-83571904D01*
X121983928Y-83286190D01*
X122031547Y-83190952D01*
X122079166Y-83143333D01*
X122174404Y-83095714D01*
X122364880Y-83095714D01*
X122460119Y-83143333D01*
X109793452Y-84745714D02*
X110174404Y-84745714D01*
X109936309Y-84412380D02*
X109936309Y-85269523D01*
X109983928Y-85364761D01*
X110079166Y-85412380D01*
X110174404Y-85412380D01*
X110936309Y-85412380D02*
X110936309Y-84888571D01*
X110888690Y-84793333D01*
X110793452Y-84745714D01*
X110602976Y-84745714D01*
X110507738Y-84793333D01*
X110936309Y-85364761D02*
X110841071Y-85412380D01*
X110602976Y-85412380D01*
X110507738Y-85364761D01*
X110460119Y-85269523D01*
X110460119Y-85174285D01*
X110507738Y-85079047D01*
X110602976Y-85031428D01*
X110841071Y-85031428D01*
X110936309Y-84983809D01*
X111841071Y-85364761D02*
X111745833Y-85412380D01*
X111555357Y-85412380D01*
X111460119Y-85364761D01*
X111412500Y-85317142D01*
X111364880Y-85221904D01*
X111364880Y-84936190D01*
X111412500Y-84840952D01*
X111460119Y-84793333D01*
X111555357Y-84745714D01*
X111745833Y-84745714D01*
X111841071Y-84793333D01*
X112269642Y-85412380D02*
X112269642Y-84412380D01*
X112364880Y-85031428D02*
X112650595Y-85412380D01*
X112650595Y-84745714D02*
X112269642Y-85126666D01*
X113698214Y-84745714D02*
X114079166Y-84745714D01*
X113841071Y-84412380D02*
X113841071Y-85269523D01*
X113888690Y-85364761D01*
X113983928Y-85412380D01*
X114079166Y-85412380D01*
X114317261Y-84745714D02*
X114507738Y-85412380D01*
X114698214Y-84936190D01*
X114888690Y-85412380D01*
X115079166Y-84745714D01*
X115602976Y-85412380D02*
X115507738Y-85364761D01*
X115460119Y-85317142D01*
X115412500Y-85221904D01*
X115412500Y-84936190D01*
X115460119Y-84840952D01*
X115507738Y-84793333D01*
X115602976Y-84745714D01*
X115745833Y-84745714D01*
X115841071Y-84793333D01*
X115888690Y-84840952D01*
X115936309Y-84936190D01*
X115936309Y-85221904D01*
X115888690Y-85317142D01*
X115841071Y-85364761D01*
X115745833Y-85412380D01*
X115602976Y-85412380D01*
X117269642Y-85412380D02*
X117174404Y-85364761D01*
X117126785Y-85317142D01*
X117079166Y-85221904D01*
X117079166Y-84936190D01*
X117126785Y-84840952D01*
X117174404Y-84793333D01*
X117269642Y-84745714D01*
X117412500Y-84745714D01*
X117507738Y-84793333D01*
X117555357Y-84840952D01*
X117602976Y-84936190D01*
X117602976Y-85221904D01*
X117555357Y-85317142D01*
X117507738Y-85364761D01*
X117412500Y-85412380D01*
X117269642Y-85412380D01*
X118031547Y-84745714D02*
X118031547Y-85745714D01*
X118031547Y-84793333D02*
X118126785Y-84745714D01*
X118317261Y-84745714D01*
X118412500Y-84793333D01*
X118460119Y-84840952D01*
X118507738Y-84936190D01*
X118507738Y-85221904D01*
X118460119Y-85317142D01*
X118412500Y-85364761D01*
X118317261Y-85412380D01*
X118126785Y-85412380D01*
X118031547Y-85364761D01*
X118936309Y-84745714D02*
X118936309Y-85745714D01*
X118936309Y-84793333D02*
X119031547Y-84745714D01*
X119222023Y-84745714D01*
X119317261Y-84793333D01*
X119364880Y-84840952D01*
X119412500Y-84936190D01*
X119412500Y-85221904D01*
X119364880Y-85317142D01*
X119317261Y-85364761D01*
X119222023Y-85412380D01*
X119031547Y-85412380D01*
X118936309Y-85364761D01*
X119983928Y-85412380D02*
X119888690Y-85364761D01*
X119841071Y-85317142D01*
X119793452Y-85221904D01*
X119793452Y-84936190D01*
X119841071Y-84840952D01*
X119888690Y-84793333D01*
X119983928Y-84745714D01*
X120126785Y-84745714D01*
X120222023Y-84793333D01*
X120269642Y-84840952D01*
X120317261Y-84936190D01*
X120317261Y-85221904D01*
X120269642Y-85317142D01*
X120222023Y-85364761D01*
X120126785Y-85412380D01*
X119983928Y-85412380D01*
X120698214Y-85364761D02*
X120793452Y-85412380D01*
X120983928Y-85412380D01*
X121079166Y-85364761D01*
X121126785Y-85269523D01*
X121126785Y-85221904D01*
X121079166Y-85126666D01*
X120983928Y-85079047D01*
X120841071Y-85079047D01*
X120745833Y-85031428D01*
X120698214Y-84936190D01*
X120698214Y-84888571D01*
X120745833Y-84793333D01*
X120841071Y-84745714D01*
X120983928Y-84745714D01*
X121079166Y-84793333D01*
X121555357Y-85412380D02*
X121555357Y-84745714D01*
X121555357Y-84412380D02*
X121507738Y-84460000D01*
X121555357Y-84507619D01*
X121602976Y-84460000D01*
X121555357Y-84412380D01*
X121555357Y-84507619D01*
X121888690Y-84745714D02*
X122269642Y-84745714D01*
X122031547Y-84412380D02*
X122031547Y-85269523D01*
X122079166Y-85364761D01*
X122174404Y-85412380D01*
X122269642Y-85412380D01*
X122983928Y-85364761D02*
X122888690Y-85412380D01*
X122698214Y-85412380D01*
X122602976Y-85364761D01*
X122555357Y-85269523D01*
X122555357Y-84888571D01*
X122602976Y-84793333D01*
X122698214Y-84745714D01*
X122888690Y-84745714D01*
X122983928Y-84793333D01*
X123031547Y-84888571D01*
X123031547Y-84983809D01*
X122555357Y-85079047D01*
X110364880Y-87014761D02*
X110269642Y-87062380D01*
X110079166Y-87062380D01*
X109983928Y-87014761D01*
X109936309Y-86967142D01*
X109888690Y-86871904D01*
X109888690Y-86586190D01*
X109936309Y-86490952D01*
X109983928Y-86443333D01*
X110079166Y-86395714D01*
X110269642Y-86395714D01*
X110364880Y-86443333D01*
X110936309Y-87062380D02*
X110841071Y-87014761D01*
X110793452Y-86967142D01*
X110745833Y-86871904D01*
X110745833Y-86586190D01*
X110793452Y-86490952D01*
X110841071Y-86443333D01*
X110936309Y-86395714D01*
X111079166Y-86395714D01*
X111174404Y-86443333D01*
X111222023Y-86490952D01*
X111269642Y-86586190D01*
X111269642Y-86871904D01*
X111222023Y-86967142D01*
X111174404Y-87014761D01*
X111079166Y-87062380D01*
X110936309Y-87062380D01*
X111698214Y-87062380D02*
X111698214Y-86395714D01*
X111698214Y-86586190D02*
X111745833Y-86490952D01*
X111793452Y-86443333D01*
X111888690Y-86395714D01*
X111983928Y-86395714D01*
X112317261Y-86395714D02*
X112317261Y-87062380D01*
X112317261Y-86490952D02*
X112364880Y-86443333D01*
X112460119Y-86395714D01*
X112602976Y-86395714D01*
X112698214Y-86443333D01*
X112745833Y-86538571D01*
X112745833Y-87062380D01*
X113602976Y-87014761D02*
X113507738Y-87062380D01*
X113317261Y-87062380D01*
X113222023Y-87014761D01*
X113174404Y-86919523D01*
X113174404Y-86538571D01*
X113222023Y-86443333D01*
X113317261Y-86395714D01*
X113507738Y-86395714D01*
X113602976Y-86443333D01*
X113650595Y-86538571D01*
X113650595Y-86633809D01*
X113174404Y-86729047D01*
X114079166Y-87062380D02*
X114079166Y-86395714D01*
X114079166Y-86586190D02*
X114126785Y-86490952D01*
X114174404Y-86443333D01*
X114269642Y-86395714D01*
X114364880Y-86395714D01*
X114650595Y-87014761D02*
X114745833Y-87062380D01*
X114936309Y-87062380D01*
X115031547Y-87014761D01*
X115079166Y-86919523D01*
X115079166Y-86871904D01*
X115031547Y-86776666D01*
X114936309Y-86729047D01*
X114793452Y-86729047D01*
X114698214Y-86681428D01*
X114650595Y-86586190D01*
X114650595Y-86538571D01*
X114698214Y-86443333D01*
X114793452Y-86395714D01*
X114936309Y-86395714D01*
X115031547Y-86443333D01*
X116126785Y-86395714D02*
X116507738Y-86395714D01*
X116269642Y-87062380D02*
X116269642Y-86205238D01*
X116317261Y-86110000D01*
X116412500Y-86062380D01*
X116507738Y-86062380D01*
X116841071Y-87062380D02*
X116841071Y-86395714D01*
X116841071Y-86586190D02*
X116888690Y-86490952D01*
X116936309Y-86443333D01*
X117031547Y-86395714D01*
X117126785Y-86395714D01*
X117602976Y-87062380D02*
X117507738Y-87014761D01*
X117460119Y-86967142D01*
X117412500Y-86871904D01*
X117412500Y-86586190D01*
X117460119Y-86490952D01*
X117507738Y-86443333D01*
X117602976Y-86395714D01*
X117745833Y-86395714D01*
X117841071Y-86443333D01*
X117888690Y-86490952D01*
X117936309Y-86586190D01*
X117936309Y-86871904D01*
X117888690Y-86967142D01*
X117841071Y-87014761D01*
X117745833Y-87062380D01*
X117602976Y-87062380D01*
X118364880Y-87062380D02*
X118364880Y-86395714D01*
X118364880Y-86490952D02*
X118412500Y-86443333D01*
X118507738Y-86395714D01*
X118650595Y-86395714D01*
X118745833Y-86443333D01*
X118793452Y-86538571D01*
X118793452Y-87062380D01*
X118793452Y-86538571D02*
X118841071Y-86443333D01*
X118936309Y-86395714D01*
X119079166Y-86395714D01*
X119174404Y-86443333D01*
X119222023Y-86538571D01*
X119222023Y-87062380D01*
X120317261Y-86395714D02*
X120698214Y-86395714D01*
X120460119Y-86062380D02*
X120460119Y-86919523D01*
X120507738Y-87014761D01*
X120602976Y-87062380D01*
X120698214Y-87062380D01*
X121174404Y-87062380D02*
X121079166Y-87014761D01*
X121031547Y-86967142D01*
X120983928Y-86871904D01*
X120983928Y-86586190D01*
X121031547Y-86490952D01*
X121079166Y-86443333D01*
X121174404Y-86395714D01*
X121317261Y-86395714D01*
X121412500Y-86443333D01*
X121460119Y-86490952D01*
X121507738Y-86586190D01*
X121507738Y-86871904D01*
X121460119Y-86967142D01*
X121412500Y-87014761D01*
X121317261Y-87062380D01*
X121174404Y-87062380D01*
X121936309Y-86395714D02*
X121936309Y-87395714D01*
X121936309Y-86443333D02*
X122031547Y-86395714D01*
X122222023Y-86395714D01*
X122317261Y-86443333D01*
X122364880Y-86490952D01*
X122412500Y-86586190D01*
X122412500Y-86871904D01*
X122364880Y-86967142D01*
X122317261Y-87014761D01*
X122222023Y-87062380D01*
X122031547Y-87062380D01*
X121936309Y-87014761D01*
X123555357Y-87014761D02*
X123650595Y-87062380D01*
X123841071Y-87062380D01*
X123936309Y-87014761D01*
X123983928Y-86919523D01*
X123983928Y-86871904D01*
X123936309Y-86776666D01*
X123841071Y-86729047D01*
X123698214Y-86729047D01*
X123602976Y-86681428D01*
X123555357Y-86586190D01*
X123555357Y-86538571D01*
X123602976Y-86443333D01*
X123698214Y-86395714D01*
X123841071Y-86395714D01*
X123936309Y-86443333D01*
X124412500Y-87062380D02*
X124412500Y-86395714D01*
X124412500Y-86062380D02*
X124364880Y-86110000D01*
X124412500Y-86157619D01*
X124460119Y-86110000D01*
X124412500Y-86062380D01*
X124412500Y-86157619D01*
X125317261Y-87062380D02*
X125317261Y-86062380D01*
X125317261Y-87014761D02*
X125222023Y-87062380D01*
X125031547Y-87062380D01*
X124936309Y-87014761D01*
X124888690Y-86967142D01*
X124841071Y-86871904D01*
X124841071Y-86586190D01*
X124888690Y-86490952D01*
X124936309Y-86443333D01*
X125031547Y-86395714D01*
X125222023Y-86395714D01*
X125317261Y-86443333D01*
X126174404Y-87014761D02*
X126079166Y-87062380D01*
X125888690Y-87062380D01*
X125793452Y-87014761D01*
X125745833Y-86919523D01*
X125745833Y-86538571D01*
X125793452Y-86443333D01*
X125888690Y-86395714D01*
X126079166Y-86395714D01*
X126174404Y-86443333D01*
X126222023Y-86538571D01*
X126222023Y-86633809D01*
X125745833Y-86729047D01*
X108079166Y-87712380D02*
X107888690Y-87712380D01*
X107793452Y-87760000D01*
X107745833Y-87807619D01*
X107650595Y-87950476D01*
X107602976Y-88140952D01*
X107602976Y-88521904D01*
X107650595Y-88617142D01*
X107698214Y-88664761D01*
X107793452Y-88712380D01*
X107983928Y-88712380D01*
X108079166Y-88664761D01*
X108126785Y-88617142D01*
X108174404Y-88521904D01*
X108174404Y-88283809D01*
X108126785Y-88188571D01*
X108079166Y-88140952D01*
X107983928Y-88093333D01*
X107793452Y-88093333D01*
X107698214Y-88140952D01*
X107650595Y-88188571D01*
X107602976Y-88283809D01*
X108602976Y-88617142D02*
X108650595Y-88664761D01*
X108602976Y-88712380D01*
X108555357Y-88664761D01*
X108602976Y-88617142D01*
X108602976Y-88712380D01*
X109793452Y-88664761D02*
X109936309Y-88712380D01*
X110174404Y-88712380D01*
X110269642Y-88664761D01*
X110317261Y-88617142D01*
X110364880Y-88521904D01*
X110364880Y-88426666D01*
X110317261Y-88331428D01*
X110269642Y-88283809D01*
X110174404Y-88236190D01*
X109983928Y-88188571D01*
X109888690Y-88140952D01*
X109841071Y-88093333D01*
X109793452Y-87998095D01*
X109793452Y-87902857D01*
X109841071Y-87807619D01*
X109888690Y-87760000D01*
X109983928Y-87712380D01*
X110222023Y-87712380D01*
X110364880Y-87760000D01*
X110936309Y-88712380D02*
X110841071Y-88664761D01*
X110793452Y-88617142D01*
X110745833Y-88521904D01*
X110745833Y-88236190D01*
X110793452Y-88140952D01*
X110841071Y-88093333D01*
X110936309Y-88045714D01*
X111079166Y-88045714D01*
X111174404Y-88093333D01*
X111222023Y-88140952D01*
X111269642Y-88236190D01*
X111269642Y-88521904D01*
X111222023Y-88617142D01*
X111174404Y-88664761D01*
X111079166Y-88712380D01*
X110936309Y-88712380D01*
X111841071Y-88712380D02*
X111745833Y-88664761D01*
X111698214Y-88569523D01*
X111698214Y-87712380D01*
X112650595Y-88712380D02*
X112650595Y-87712380D01*
X112650595Y-88664761D02*
X112555357Y-88712380D01*
X112364880Y-88712380D01*
X112269642Y-88664761D01*
X112222023Y-88617142D01*
X112174404Y-88521904D01*
X112174404Y-88236190D01*
X112222023Y-88140952D01*
X112269642Y-88093333D01*
X112364880Y-88045714D01*
X112555357Y-88045714D01*
X112650595Y-88093333D01*
X113507738Y-88664761D02*
X113412500Y-88712380D01*
X113222023Y-88712380D01*
X113126785Y-88664761D01*
X113079166Y-88569523D01*
X113079166Y-88188571D01*
X113126785Y-88093333D01*
X113222023Y-88045714D01*
X113412500Y-88045714D01*
X113507738Y-88093333D01*
X113555357Y-88188571D01*
X113555357Y-88283809D01*
X113079166Y-88379047D01*
X113983928Y-88712380D02*
X113983928Y-88045714D01*
X113983928Y-88236190D02*
X114031547Y-88140952D01*
X114079166Y-88093333D01*
X114174404Y-88045714D01*
X114269642Y-88045714D01*
X115364880Y-88712380D02*
X115364880Y-87712380D01*
X115793452Y-88712380D02*
X115793452Y-88188571D01*
X115745833Y-88093333D01*
X115650595Y-88045714D01*
X115507738Y-88045714D01*
X115412500Y-88093333D01*
X115364880Y-88140952D01*
X116650595Y-88664761D02*
X116555357Y-88712380D01*
X116364880Y-88712380D01*
X116269642Y-88664761D01*
X116222023Y-88569523D01*
X116222023Y-88188571D01*
X116269642Y-88093333D01*
X116364880Y-88045714D01*
X116555357Y-88045714D01*
X116650595Y-88093333D01*
X116698214Y-88188571D01*
X116698214Y-88283809D01*
X116222023Y-88379047D01*
X117555357Y-88712380D02*
X117555357Y-88188571D01*
X117507738Y-88093333D01*
X117412500Y-88045714D01*
X117222023Y-88045714D01*
X117126785Y-88093333D01*
X117555357Y-88664761D02*
X117460119Y-88712380D01*
X117222023Y-88712380D01*
X117126785Y-88664761D01*
X117079166Y-88569523D01*
X117079166Y-88474285D01*
X117126785Y-88379047D01*
X117222023Y-88331428D01*
X117460119Y-88331428D01*
X117555357Y-88283809D01*
X118460119Y-88712380D02*
X118460119Y-87712380D01*
X118460119Y-88664761D02*
X118364880Y-88712380D01*
X118174404Y-88712380D01*
X118079166Y-88664761D01*
X118031547Y-88617142D01*
X117983928Y-88521904D01*
X117983928Y-88236190D01*
X118031547Y-88140952D01*
X118079166Y-88093333D01*
X118174404Y-88045714D01*
X118364880Y-88045714D01*
X118460119Y-88093333D01*
X119317261Y-88664761D02*
X119222023Y-88712380D01*
X119031547Y-88712380D01*
X118936309Y-88664761D01*
X118888690Y-88569523D01*
X118888690Y-88188571D01*
X118936309Y-88093333D01*
X119031547Y-88045714D01*
X119222023Y-88045714D01*
X119317261Y-88093333D01*
X119364880Y-88188571D01*
X119364880Y-88283809D01*
X118888690Y-88379047D01*
X119793452Y-88712380D02*
X119793452Y-88045714D01*
X119793452Y-88236190D02*
X119841071Y-88140952D01*
X119888690Y-88093333D01*
X119983928Y-88045714D01*
X120079166Y-88045714D01*
X121174404Y-88045714D02*
X121174404Y-89045714D01*
X121174404Y-88093333D02*
X121269642Y-88045714D01*
X121460119Y-88045714D01*
X121555357Y-88093333D01*
X121602976Y-88140952D01*
X121650595Y-88236190D01*
X121650595Y-88521904D01*
X121602976Y-88617142D01*
X121555357Y-88664761D01*
X121460119Y-88712380D01*
X121269642Y-88712380D01*
X121174404Y-88664761D01*
X122079166Y-88712380D02*
X122079166Y-88045714D01*
X122079166Y-87712380D02*
X122031547Y-87760000D01*
X122079166Y-87807619D01*
X122126785Y-87760000D01*
X122079166Y-87712380D01*
X122079166Y-87807619D01*
X122555357Y-88045714D02*
X122555357Y-88712380D01*
X122555357Y-88140952D02*
X122602976Y-88093333D01*
X122698214Y-88045714D01*
X122841071Y-88045714D01*
X122936309Y-88093333D01*
X122983928Y-88188571D01*
X122983928Y-88712380D01*
X123412500Y-88664761D02*
X123507738Y-88712380D01*
X123698214Y-88712380D01*
X123793452Y-88664761D01*
X123841071Y-88569523D01*
X123841071Y-88521904D01*
X123793452Y-88426666D01*
X123698214Y-88379047D01*
X123555357Y-88379047D01*
X123460119Y-88331428D01*
X123412500Y-88236190D01*
X123412500Y-88188571D01*
X123460119Y-88093333D01*
X123555357Y-88045714D01*
X123698214Y-88045714D01*
X123793452Y-88093333D01*
X121285000Y-128270000D02*
X121285000Y-92710000D01*
X123825000Y-128270000D02*
X121285000Y-128270000D01*
X123825000Y-92710000D02*
X123825000Y-128270000D01*
X121285000Y-92710000D02*
X123825000Y-92710000D01*
D11*
X190372857Y-135874285D02*
X190372857Y-139874285D01*
X188944285Y-133588571D02*
X187515714Y-137874285D01*
X191230000Y-137874285D01*
X139890714Y-134445714D02*
X140176428Y-134160000D01*
X140747857Y-133874285D01*
X142176428Y-133874285D01*
X142747857Y-134160000D01*
X143033571Y-134445714D01*
X143319285Y-135017142D01*
X143319285Y-135588571D01*
X143033571Y-136445714D01*
X139605000Y-139874285D01*
X143319285Y-139874285D01*
X117919285Y-139874285D02*
X114490714Y-139874285D01*
X116205000Y-139874285D02*
X116205000Y-133874285D01*
X115633571Y-134731428D01*
X115062142Y-135302857D01*
X114490714Y-135588571D01*
D12*
X113512857Y-51750000D02*
X114941428Y-51750000D01*
X113227142Y-52607142D02*
X114227142Y-49607142D01*
X115227142Y-52607142D01*
X116084285Y-52464285D02*
X116370000Y-52607142D01*
X116941428Y-52607142D01*
X117227142Y-52464285D01*
X117370000Y-52178571D01*
X117370000Y-52035714D01*
X117227142Y-51750000D01*
X116941428Y-51607142D01*
X116512857Y-51607142D01*
X116227142Y-51464285D01*
X116084285Y-51178571D01*
X116084285Y-51035714D01*
X116227142Y-50750000D01*
X116512857Y-50607142D01*
X116941428Y-50607142D01*
X117227142Y-50750000D01*
X118512857Y-52464285D02*
X118798571Y-52607142D01*
X119370000Y-52607142D01*
X119655714Y-52464285D01*
X119798571Y-52178571D01*
X119798571Y-52035714D01*
X119655714Y-51750000D01*
X119370000Y-51607142D01*
X118941428Y-51607142D01*
X118655714Y-51464285D01*
X118512857Y-51178571D01*
X118512857Y-51035714D01*
X118655714Y-50750000D01*
X118941428Y-50607142D01*
X119370000Y-50607142D01*
X119655714Y-50750000D01*
X122227142Y-52464285D02*
X121941428Y-52607142D01*
X121370000Y-52607142D01*
X121084285Y-52464285D01*
X120941428Y-52178571D01*
X120941428Y-51035714D01*
X121084285Y-50750000D01*
X121370000Y-50607142D01*
X121941428Y-50607142D01*
X122227142Y-50750000D01*
X122370000Y-51035714D01*
X122370000Y-51321428D01*
X120941428Y-51607142D01*
X123655714Y-52607142D02*
X123655714Y-50607142D01*
X123655714Y-50892857D02*
X123798571Y-50750000D01*
X124084285Y-50607142D01*
X124512857Y-50607142D01*
X124798571Y-50750000D01*
X124941428Y-51035714D01*
X124941428Y-52607142D01*
X124941428Y-51035714D02*
X125084285Y-50750000D01*
X125370000Y-50607142D01*
X125798571Y-50607142D01*
X126084285Y-50750000D01*
X126227142Y-51035714D01*
X126227142Y-52607142D01*
X127655714Y-52607142D02*
X127655714Y-49607142D01*
X127655714Y-50750000D02*
X127941428Y-50607142D01*
X128512857Y-50607142D01*
X128798571Y-50750000D01*
X128941428Y-50892857D01*
X129084285Y-51178571D01*
X129084285Y-52035714D01*
X128941428Y-52321428D01*
X128798571Y-52464285D01*
X128512857Y-52607142D01*
X127941428Y-52607142D01*
X127655714Y-52464285D01*
X130798571Y-52607142D02*
X130512857Y-52464285D01*
X130370000Y-52178571D01*
X130370000Y-49607142D01*
X131655714Y-50607142D02*
X132370000Y-52607142D01*
X133084285Y-50607142D02*
X132370000Y-52607142D01*
X132084285Y-53321428D01*
X131941428Y-53464285D01*
X131655714Y-53607142D01*
X137370000Y-49607142D02*
X137370000Y-51750000D01*
X137227142Y-52178571D01*
X136941428Y-52464285D01*
X136512857Y-52607142D01*
X136227142Y-52607142D01*
X138798571Y-52607142D02*
X138798571Y-50607142D01*
X138798571Y-49607142D02*
X138655714Y-49750000D01*
X138798571Y-49892857D01*
X138941428Y-49750000D01*
X138798571Y-49607142D01*
X138798571Y-49892857D01*
X141512857Y-50607142D02*
X141512857Y-53035714D01*
X141370000Y-53321428D01*
X141227142Y-53464285D01*
X140941428Y-53607142D01*
X140512857Y-53607142D01*
X140227142Y-53464285D01*
X141512857Y-52464285D02*
X141227142Y-52607142D01*
X140655714Y-52607142D01*
X140370000Y-52464285D01*
X140227142Y-52321428D01*
X140084285Y-52035714D01*
X140084285Y-51178571D01*
X140227142Y-50892857D01*
X140370000Y-50750000D01*
X140655714Y-50607142D01*
X141227142Y-50607142D01*
X141512857Y-50750000D01*
X144798571Y-50607142D02*
X145941428Y-50607142D01*
X145227142Y-52607142D02*
X145227142Y-50035714D01*
X145370000Y-49750000D01*
X145655714Y-49607142D01*
X145941428Y-49607142D01*
X147370000Y-52607142D02*
X147084285Y-52464285D01*
X146941428Y-52321428D01*
X146798571Y-52035714D01*
X146798571Y-51178571D01*
X146941428Y-50892857D01*
X147084285Y-50750000D01*
X147370000Y-50607142D01*
X147798571Y-50607142D01*
X148084285Y-50750000D01*
X148227142Y-50892857D01*
X148370000Y-51178571D01*
X148370000Y-52035714D01*
X148227142Y-52321428D01*
X148084285Y-52464285D01*
X147798571Y-52607142D01*
X147370000Y-52607142D01*
X149655714Y-52607142D02*
X149655714Y-50607142D01*
X149655714Y-51178571D02*
X149798571Y-50892857D01*
X149941428Y-50750000D01*
X150227142Y-50607142D01*
X150512857Y-50607142D01*
X153655714Y-52464285D02*
X154084285Y-52607142D01*
X154798571Y-52607142D01*
X155084285Y-52464285D01*
X155227142Y-52321428D01*
X155370000Y-52035714D01*
X155370000Y-51750000D01*
X155227142Y-51464285D01*
X155084285Y-51321428D01*
X154798571Y-51178571D01*
X154227142Y-51035714D01*
X153941428Y-50892857D01*
X153798571Y-50750000D01*
X153655714Y-50464285D01*
X153655714Y-50178571D01*
X153798571Y-49892857D01*
X153941428Y-49750000D01*
X154227142Y-49607142D01*
X154941428Y-49607142D01*
X155370000Y-49750000D01*
X156655714Y-52607142D02*
X156655714Y-50607142D01*
X156655714Y-50892857D02*
X156798571Y-50750000D01*
X157084285Y-50607142D01*
X157512857Y-50607142D01*
X157798571Y-50750000D01*
X157941428Y-51035714D01*
X157941428Y-52607142D01*
X157941428Y-51035714D02*
X158084285Y-50750000D01*
X158370000Y-50607142D01*
X158798571Y-50607142D01*
X159084285Y-50750000D01*
X159227142Y-51035714D01*
X159227142Y-52607142D01*
X161941428Y-52607142D02*
X161941428Y-51035714D01*
X161798571Y-50750000D01*
X161512857Y-50607142D01*
X160941428Y-50607142D01*
X160655714Y-50750000D01*
X161941428Y-52464285D02*
X161655714Y-52607142D01*
X160941428Y-52607142D01*
X160655714Y-52464285D01*
X160512857Y-52178571D01*
X160512857Y-51892857D01*
X160655714Y-51607142D01*
X160941428Y-51464285D01*
X161655714Y-51464285D01*
X161941428Y-51321428D01*
X163370000Y-52607142D02*
X163370000Y-50607142D01*
X163370000Y-51178571D02*
X163512857Y-50892857D01*
X163655714Y-50750000D01*
X163941428Y-50607142D01*
X164227142Y-50607142D01*
X164798571Y-50607142D02*
X165941428Y-50607142D01*
X165227142Y-49607142D02*
X165227142Y-52178571D01*
X165370000Y-52464285D01*
X165655714Y-52607142D01*
X165941428Y-52607142D01*
X166655714Y-49607142D02*
X167370000Y-52607142D01*
X167941428Y-50464285D01*
X168512857Y-52607142D01*
X169227142Y-49607142D01*
X171655714Y-52607142D02*
X171655714Y-51035714D01*
X171512857Y-50750000D01*
X171227142Y-50607142D01*
X170655714Y-50607142D01*
X170370000Y-50750000D01*
X171655714Y-52464285D02*
X171370000Y-52607142D01*
X170655714Y-52607142D01*
X170370000Y-52464285D01*
X170227142Y-52178571D01*
X170227142Y-51892857D01*
X170370000Y-51607142D01*
X170655714Y-51464285D01*
X171370000Y-51464285D01*
X171655714Y-51321428D01*
X172655714Y-50607142D02*
X173798571Y-50607142D01*
X173084285Y-49607142D02*
X173084285Y-52178571D01*
X173227142Y-52464285D01*
X173512857Y-52607142D01*
X173798571Y-52607142D01*
X176084285Y-52464285D02*
X175798571Y-52607142D01*
X175227142Y-52607142D01*
X174941428Y-52464285D01*
X174798571Y-52321428D01*
X174655714Y-52035714D01*
X174655714Y-51178571D01*
X174798571Y-50892857D01*
X174941428Y-50750000D01*
X175227142Y-50607142D01*
X175798571Y-50607142D01*
X176084285Y-50750000D01*
X177370000Y-52607142D02*
X177370000Y-49607142D01*
X178655714Y-52607142D02*
X178655714Y-51035714D01*
X178512857Y-50750000D01*
X178227142Y-50607142D01*
X177798571Y-50607142D01*
X177512857Y-50750000D01*
X177370000Y-50892857D01*
X181798571Y-52607142D02*
X180798571Y-51178571D01*
X180084285Y-52607142D02*
X180084285Y-49607142D01*
X181227142Y-49607142D01*
X181512857Y-49750000D01*
X181655714Y-49892857D01*
X181798571Y-50178571D01*
X181798571Y-50607142D01*
X181655714Y-50892857D01*
X181512857Y-51035714D01*
X181227142Y-51178571D01*
X180084285Y-51178571D01*
X184227142Y-52464285D02*
X183941428Y-52607142D01*
X183370000Y-52607142D01*
X183084285Y-52464285D01*
X182941428Y-52178571D01*
X182941428Y-51035714D01*
X183084285Y-50750000D01*
X183370000Y-50607142D01*
X183941428Y-50607142D01*
X184227142Y-50750000D01*
X184370000Y-51035714D01*
X184370000Y-51321428D01*
X182941428Y-51607142D01*
X186941428Y-52607142D02*
X186941428Y-49607142D01*
X186941428Y-52464285D02*
X186655714Y-52607142D01*
X186084285Y-52607142D01*
X185798571Y-52464285D01*
X185655714Y-52321428D01*
X185512857Y-52035714D01*
X185512857Y-51178571D01*
X185655714Y-50892857D01*
X185798571Y-50750000D01*
X186084285Y-50607142D01*
X186655714Y-50607142D01*
X186941428Y-50750000D01*
X189655714Y-50607142D02*
X189655714Y-52607142D01*
X188370000Y-50607142D02*
X188370000Y-52178571D01*
X188512857Y-52464285D01*
X188798571Y-52607142D01*
X189227142Y-52607142D01*
X189512857Y-52464285D01*
X189655714Y-52321428D01*
X190798571Y-52607142D02*
X192370000Y-50607142D01*
X190798571Y-50607142D02*
X192370000Y-52607142D01*
M02*
