%TF.GenerationSoftware,KiCad,Pcbnew,(5.1.9)-1*%
%TF.CreationDate,2021-05-05T18:06:17+08:00*%
%TF.ProjectId,AssemblyBoard,41737365-6d62-46c7-9942-6f6172642e6b,rev?*%
%TF.SameCoordinates,Original*%
%TF.FileFunction,Soldermask,Top*%
%TF.FilePolarity,Negative*%
%FSLAX46Y46*%
G04 Gerber Fmt 4.6, Leading zero omitted, Abs format (unit mm)*
G04 Created by KiCad (PCBNEW (5.1.9)-1) date 2021-05-05 18:06:17*
%MOMM*%
%LPD*%
G01*
G04 APERTURE LIST*
%ADD10C,2.000000*%
%ADD11O,1.600000X1.600000*%
%ADD12R,1.600000X1.600000*%
%ADD13R,1.450000X1.450000*%
%ADD14C,1.450000*%
G04 APERTURE END LIST*
D10*
%TO.C,REF\u002A\u002A*%
X168910000Y-74295000D03*
%TD*%
%TO.C,REF\u002A\u002A*%
X161290000Y-74295000D03*
%TD*%
D11*
%TO.C,REF\u002A\u002A*%
X133985000Y-63500000D03*
X149225000Y-71120000D03*
X136525000Y-63500000D03*
X146685000Y-71120000D03*
X139065000Y-63500000D03*
X144145000Y-71120000D03*
X141605000Y-63500000D03*
X141605000Y-71120000D03*
X144145000Y-63500000D03*
X139065000Y-71120000D03*
X146685000Y-63500000D03*
X136525000Y-71120000D03*
X149225000Y-63500000D03*
D12*
X133985000Y-71120000D03*
%TD*%
D13*
%TO.C,REF\u002A\u002A*%
X180340000Y-63500000D03*
D14*
X182880000Y-63500000D03*
X185420000Y-63500000D03*
X187960000Y-63500000D03*
X190500000Y-63500000D03*
X193040000Y-63500000D03*
X195580000Y-63500000D03*
X198120000Y-63500000D03*
%TD*%
%TO.C,REF\u002A\u002A*%
X125095000Y-63500000D03*
X122555000Y-63500000D03*
X120015000Y-63500000D03*
X117475000Y-63500000D03*
X114935000Y-63500000D03*
X112395000Y-63500000D03*
X109855000Y-63500000D03*
D13*
X107315000Y-63500000D03*
%TD*%
D12*
%TO.C,REF\u002A\u002A*%
X157480000Y-93980000D03*
D11*
X172720000Y-127000000D03*
X157480000Y-96520000D03*
X172720000Y-124460000D03*
X157480000Y-99060000D03*
X172720000Y-121920000D03*
X157480000Y-101600000D03*
X172720000Y-119380000D03*
X157480000Y-104140000D03*
X172720000Y-116840000D03*
X157480000Y-106680000D03*
X172720000Y-114300000D03*
X157480000Y-109220000D03*
X172720000Y-111760000D03*
X157480000Y-111760000D03*
X172720000Y-109220000D03*
X157480000Y-114300000D03*
X172720000Y-106680000D03*
X157480000Y-116840000D03*
X172720000Y-104140000D03*
X157480000Y-119380000D03*
X172720000Y-101600000D03*
X157480000Y-121920000D03*
X172720000Y-99060000D03*
X157480000Y-124460000D03*
X172720000Y-96520000D03*
X157480000Y-127000000D03*
X172720000Y-93980000D03*
%TD*%
%TO.C,REF\u002A\u002A*%
X198120000Y-93980000D03*
X182880000Y-127000000D03*
X198120000Y-96520000D03*
X182880000Y-124460000D03*
X198120000Y-99060000D03*
X182880000Y-121920000D03*
X198120000Y-101600000D03*
X182880000Y-119380000D03*
X198120000Y-104140000D03*
X182880000Y-116840000D03*
X198120000Y-106680000D03*
X182880000Y-114300000D03*
X198120000Y-109220000D03*
X182880000Y-111760000D03*
X198120000Y-111760000D03*
X182880000Y-109220000D03*
X198120000Y-114300000D03*
X182880000Y-106680000D03*
X198120000Y-116840000D03*
X182880000Y-104140000D03*
X198120000Y-119380000D03*
X182880000Y-101600000D03*
X198120000Y-121920000D03*
X182880000Y-99060000D03*
X198120000Y-124460000D03*
X182880000Y-96520000D03*
X198120000Y-127000000D03*
D12*
X182880000Y-93980000D03*
%TD*%
%TO.C,REF\u002A\u002A*%
X180340000Y-93980000D03*
D11*
X195580000Y-127000000D03*
X180340000Y-96520000D03*
X195580000Y-124460000D03*
X180340000Y-99060000D03*
X195580000Y-121920000D03*
X180340000Y-101600000D03*
X195580000Y-119380000D03*
X180340000Y-104140000D03*
X195580000Y-116840000D03*
X180340000Y-106680000D03*
X195580000Y-114300000D03*
X180340000Y-109220000D03*
X195580000Y-111760000D03*
X180340000Y-111760000D03*
X195580000Y-109220000D03*
X180340000Y-114300000D03*
X195580000Y-106680000D03*
X180340000Y-116840000D03*
X195580000Y-104140000D03*
X180340000Y-119380000D03*
X195580000Y-101600000D03*
X180340000Y-121920000D03*
X195580000Y-99060000D03*
X180340000Y-124460000D03*
X195580000Y-96520000D03*
X180340000Y-127000000D03*
X195580000Y-93980000D03*
%TD*%
%TO.C,REF\u002A\u002A*%
X149225000Y-93980000D03*
X133985000Y-127000000D03*
X149225000Y-96520000D03*
X133985000Y-124460000D03*
X149225000Y-99060000D03*
X133985000Y-121920000D03*
X149225000Y-101600000D03*
X133985000Y-119380000D03*
X149225000Y-104140000D03*
X133985000Y-116840000D03*
X149225000Y-106680000D03*
X133985000Y-114300000D03*
X149225000Y-109220000D03*
X133985000Y-111760000D03*
X149225000Y-111760000D03*
X133985000Y-109220000D03*
X149225000Y-114300000D03*
X133985000Y-106680000D03*
X149225000Y-116840000D03*
X133985000Y-104140000D03*
X149225000Y-119380000D03*
X133985000Y-101600000D03*
X149225000Y-121920000D03*
X133985000Y-99060000D03*
X149225000Y-124460000D03*
X133985000Y-96520000D03*
X149225000Y-127000000D03*
D12*
X133985000Y-93980000D03*
%TD*%
%TO.C,REF\u002A\u002A*%
X109855000Y-93980000D03*
D11*
X125095000Y-127000000D03*
X109855000Y-96520000D03*
X125095000Y-124460000D03*
X109855000Y-99060000D03*
X125095000Y-121920000D03*
X109855000Y-101600000D03*
X125095000Y-119380000D03*
X109855000Y-104140000D03*
X125095000Y-116840000D03*
X109855000Y-106680000D03*
X125095000Y-114300000D03*
X109855000Y-109220000D03*
X125095000Y-111760000D03*
X109855000Y-111760000D03*
X125095000Y-109220000D03*
X109855000Y-114300000D03*
X125095000Y-106680000D03*
X109855000Y-116840000D03*
X125095000Y-104140000D03*
X109855000Y-119380000D03*
X125095000Y-101600000D03*
X109855000Y-121920000D03*
X125095000Y-99060000D03*
X109855000Y-124460000D03*
X125095000Y-96520000D03*
X109855000Y-127000000D03*
X125095000Y-93980000D03*
%TD*%
%TO.C,REF\u002A\u002A*%
X122555000Y-93980000D03*
X107315000Y-127000000D03*
X122555000Y-96520000D03*
X107315000Y-124460000D03*
X122555000Y-99060000D03*
X107315000Y-121920000D03*
X122555000Y-101600000D03*
X107315000Y-119380000D03*
X122555000Y-104140000D03*
X107315000Y-116840000D03*
X122555000Y-106680000D03*
X107315000Y-114300000D03*
X122555000Y-109220000D03*
X107315000Y-111760000D03*
X122555000Y-111760000D03*
X107315000Y-109220000D03*
X122555000Y-114300000D03*
X107315000Y-106680000D03*
X122555000Y-116840000D03*
X107315000Y-104140000D03*
X122555000Y-119380000D03*
X107315000Y-101600000D03*
X122555000Y-121920000D03*
X107315000Y-99060000D03*
X122555000Y-124460000D03*
X107315000Y-96520000D03*
X122555000Y-127000000D03*
D12*
X107315000Y-93980000D03*
%TD*%
M02*
