%TF.GenerationSoftware,KiCad,Pcbnew,(5.1.9)-1*%
%TF.CreationDate,2021-05-18T21:14:00+08:00*%
%TF.ProjectId,SmartWatchRedux-E-SMT,536d6172-7457-4617-9463-685265647578,rev?*%
%TF.SameCoordinates,Original*%
%TF.FileFunction,Copper,L1,Top*%
%TF.FilePolarity,Positive*%
%FSLAX46Y46*%
G04 Gerber Fmt 4.6, Leading zero omitted, Abs format (unit mm)*
G04 Created by KiCad (PCBNEW (5.1.9)-1) date 2021-05-18 21:14:00*
%MOMM*%
%LPD*%
G01*
G04 APERTURE LIST*
%TA.AperFunction,SMDPad,CuDef*%
%ADD10R,1.000000X1.800000*%
%TD*%
%TA.AperFunction,SMDPad,CuDef*%
%ADD11R,3.600000X2.600000*%
%TD*%
%TA.AperFunction,ComponentPad*%
%ADD12O,1.600000X1.600000*%
%TD*%
%TA.AperFunction,ComponentPad*%
%ADD13R,1.600000X1.600000*%
%TD*%
%TA.AperFunction,ViaPad*%
%ADD14C,0.800000*%
%TD*%
%TA.AperFunction,Conductor*%
%ADD15C,0.350000*%
%TD*%
%TA.AperFunction,Conductor*%
%ADD16C,0.500000*%
%TD*%
%TA.AperFunction,Conductor*%
%ADD17C,1.000000*%
%TD*%
%TA.AperFunction,Conductor*%
%ADD18C,0.250000*%
%TD*%
%TA.AperFunction,Conductor*%
%ADD19C,0.254000*%
%TD*%
%TA.AperFunction,Conductor*%
%ADD20C,0.100000*%
%TD*%
G04 APERTURE END LIST*
D10*
%TO.P,Y1,2*%
%TO.N,/XTAL2*%
X115550000Y-71755000D03*
%TO.P,Y1,1*%
%TO.N,/XTAL1*%
X113050000Y-71755000D03*
%TD*%
D11*
%TO.P,BAT1,1*%
%TO.N,Net-(BAT1-Pad1)*%
X116840000Y-59735000D03*
%TO.P,BAT1,2*%
%TO.N,GND*%
X116840000Y-30435000D03*
%TD*%
%TO.P,C1,2*%
%TO.N,GND*%
%TA.AperFunction,SMDPad,CuDef*%
G36*
G01*
X117210000Y-66659999D02*
X117210000Y-67960001D01*
G75*
G02*
X116960001Y-68210000I-249999J0D01*
G01*
X116309999Y-68210000D01*
G75*
G02*
X116060000Y-67960001I0J249999D01*
G01*
X116060000Y-66659999D01*
G75*
G02*
X116309999Y-66410000I249999J0D01*
G01*
X116960001Y-66410000D01*
G75*
G02*
X117210000Y-66659999I0J-249999D01*
G01*
G37*
%TD.AperFunction*%
%TO.P,C1,1*%
%TO.N,VCC*%
%TA.AperFunction,SMDPad,CuDef*%
G36*
G01*
X120160000Y-66659999D02*
X120160000Y-67960001D01*
G75*
G02*
X119910001Y-68210000I-249999J0D01*
G01*
X119259999Y-68210000D01*
G75*
G02*
X119010000Y-67960001I0J249999D01*
G01*
X119010000Y-66659999D01*
G75*
G02*
X119259999Y-66410000I249999J0D01*
G01*
X119910001Y-66410000D01*
G75*
G02*
X120160000Y-66659999I0J-249999D01*
G01*
G37*
%TD.AperFunction*%
%TD*%
D12*
%TO.P,CN1,28*%
%TO.N,VCC*%
X123190000Y-63500000D03*
%TO.P,CN1,14*%
%TO.N,GND*%
X107950000Y-96520000D03*
%TO.P,CN1,27*%
%TO.N,Net-(CN1-Pad27)*%
X123190000Y-66040000D03*
%TO.P,CN1,13*%
%TO.N,Net-(CN1-Pad13)*%
X107950000Y-93980000D03*
%TO.P,CN1,26*%
%TO.N,Net-(CN1-Pad26)*%
X123190000Y-68580000D03*
%TO.P,CN1,12*%
%TO.N,Net-(CN1-Pad12)*%
X107950000Y-91440000D03*
%TO.P,CN1,25*%
%TO.N,Net-(CN1-Pad25)*%
X123190000Y-71120000D03*
%TO.P,CN1,11*%
%TO.N,Net-(CN1-Pad11)*%
X107950000Y-88900000D03*
%TO.P,CN1,24*%
%TO.N,Net-(CN1-Pad24)*%
X123190000Y-73660000D03*
%TO.P,CN1,10*%
%TO.N,Net-(CN1-Pad10)*%
X107950000Y-86360000D03*
%TO.P,CN1,23*%
%TO.N,Net-(CN1-Pad23)*%
X123190000Y-76200000D03*
%TO.P,CN1,9*%
%TO.N,Net-(CN1-Pad9)*%
X107950000Y-83820000D03*
%TO.P,CN1,22*%
%TO.N,Net-(CN1-Pad22)*%
X123190000Y-78740000D03*
%TO.P,CN1,8*%
%TO.N,Net-(CN1-Pad8)*%
X107950000Y-81280000D03*
%TO.P,CN1,21*%
%TO.N,Net-(CN1-Pad21)*%
X123190000Y-81280000D03*
%TO.P,CN1,7*%
%TO.N,Net-(CN1-Pad7)*%
X107950000Y-78740000D03*
%TO.P,CN1,20*%
%TO.N,Net-(CN1-Pad20)*%
X123190000Y-83820000D03*
%TO.P,CN1,6*%
%TO.N,Net-(CN1-Pad6)*%
X107950000Y-76200000D03*
%TO.P,CN1,19*%
%TO.N,Net-(CN1-Pad19)*%
X123190000Y-86360000D03*
%TO.P,CN1,5*%
%TO.N,Net-(CN1-Pad5)*%
X107950000Y-73660000D03*
%TO.P,CN1,18*%
%TO.N,Net-(CN1-Pad18)*%
X123190000Y-88900000D03*
%TO.P,CN1,4*%
%TO.N,Net-(CN1-Pad4)*%
X107950000Y-71120000D03*
%TO.P,CN1,17*%
%TO.N,Net-(CN1-Pad17)*%
X123190000Y-91440000D03*
%TO.P,CN1,3*%
%TO.N,Net-(CN1-Pad3)*%
X107950000Y-68580000D03*
%TO.P,CN1,16*%
%TO.N,Net-(CN1-Pad16)*%
X123190000Y-93980000D03*
%TO.P,CN1,2*%
%TO.N,Net-(CN1-Pad2)*%
X107950000Y-66040000D03*
%TO.P,CN1,15*%
%TO.N,Net-(CN1-Pad15)*%
X123190000Y-96520000D03*
D13*
%TO.P,CN1,1*%
%TO.N,Net-(CN1-Pad1)*%
X107950000Y-63500000D03*
%TD*%
D12*
%TO.P,U1,28*%
%TO.N,VCC*%
X125730000Y-63500000D03*
%TO.P,U1,14*%
%TO.N,GND*%
X110490000Y-96520000D03*
%TO.P,U1,27*%
%TO.N,Net-(CN1-Pad27)*%
X125730000Y-66040000D03*
%TO.P,U1,13*%
%TO.N,Net-(CN1-Pad13)*%
X110490000Y-93980000D03*
%TO.P,U1,26*%
%TO.N,Net-(CN1-Pad26)*%
X125730000Y-68580000D03*
%TO.P,U1,12*%
%TO.N,Net-(CN1-Pad12)*%
X110490000Y-91440000D03*
%TO.P,U1,25*%
%TO.N,Net-(CN1-Pad25)*%
X125730000Y-71120000D03*
%TO.P,U1,11*%
%TO.N,Net-(CN1-Pad11)*%
X110490000Y-88900000D03*
%TO.P,U1,24*%
%TO.N,Net-(CN1-Pad24)*%
X125730000Y-73660000D03*
%TO.P,U1,10*%
%TO.N,Net-(CN1-Pad10)*%
X110490000Y-86360000D03*
%TO.P,U1,23*%
%TO.N,Net-(CN1-Pad23)*%
X125730000Y-76200000D03*
%TO.P,U1,9*%
%TO.N,Net-(CN1-Pad9)*%
X110490000Y-83820000D03*
%TO.P,U1,22*%
%TO.N,Net-(CN1-Pad22)*%
X125730000Y-78740000D03*
%TO.P,U1,8*%
%TO.N,Net-(CN1-Pad8)*%
X110490000Y-81280000D03*
%TO.P,U1,21*%
%TO.N,Net-(CN1-Pad21)*%
X125730000Y-81280000D03*
%TO.P,U1,7*%
%TO.N,Net-(CN1-Pad7)*%
X110490000Y-78740000D03*
%TO.P,U1,20*%
%TO.N,Net-(U1-Pad20)*%
X125730000Y-83820000D03*
%TO.P,U1,6*%
%TO.N,Net-(CN1-Pad6)*%
X110490000Y-76200000D03*
%TO.P,U1,19*%
%TO.N,Net-(CN1-Pad19)*%
X125730000Y-86360000D03*
%TO.P,U1,5*%
%TO.N,Net-(CN1-Pad5)*%
X110490000Y-73660000D03*
%TO.P,U1,18*%
%TO.N,Net-(CN1-Pad18)*%
X125730000Y-88900000D03*
%TO.P,U1,4*%
%TO.N,Net-(CN1-Pad4)*%
X110490000Y-71120000D03*
%TO.P,U1,17*%
%TO.N,Net-(CN1-Pad17)*%
X125730000Y-91440000D03*
%TO.P,U1,3*%
%TO.N,Net-(CN1-Pad3)*%
X110490000Y-68580000D03*
%TO.P,U1,16*%
%TO.N,Net-(CN1-Pad16)*%
X125730000Y-93980000D03*
%TO.P,U1,2*%
%TO.N,Net-(CN1-Pad2)*%
X110490000Y-66040000D03*
%TO.P,U1,15*%
%TO.N,Net-(CN1-Pad15)*%
X125730000Y-96520000D03*
D13*
%TO.P,U1,1*%
%TO.N,Net-(CN1-Pad1)*%
X110490000Y-63500000D03*
%TD*%
D12*
%TO.P,U2,16*%
%TO.N,VCC*%
X120650000Y-74930000D03*
%TO.P,U2,8*%
%TO.N,GND*%
X113030000Y-92710000D03*
%TO.P,U2,15*%
%TO.N,Net-(U2-Pad15)*%
X120650000Y-77470000D03*
%TO.P,U2,7*%
%TO.N,Net-(CN1-Pad11)*%
X113030000Y-90170000D03*
%TO.P,U2,14*%
%TO.N,GND*%
X120650000Y-80010000D03*
%TO.P,U2,6*%
%TO.N,Net-(CN1-Pad10)*%
X113030000Y-87630000D03*
%TO.P,U2,13*%
%TO.N,Net-(CN1-Pad1)*%
X120650000Y-82550000D03*
%TO.P,U2,5*%
%TO.N,GND*%
X113030000Y-85090000D03*
%TO.P,U2,12*%
%TO.N,Net-(CN1-Pad22)*%
X120650000Y-85090000D03*
%TO.P,U2,4*%
%TO.N,Net-(BAT1-Pad1)*%
X113030000Y-82550000D03*
%TO.P,U2,11*%
%TO.N,Net-(CN1-Pad20)*%
X120650000Y-87630000D03*
%TO.P,U2,3*%
%TO.N,Net-(CN1-Pad8)*%
X113030000Y-80010000D03*
%TO.P,U2,10*%
%TO.N,Net-(U1-Pad20)*%
X120650000Y-90170000D03*
%TO.P,U2,2*%
%TO.N,/XTAL2*%
X113030000Y-77470000D03*
%TO.P,U2,9*%
%TO.N,Net-(U2-Pad15)*%
X120650000Y-92710000D03*
D13*
%TO.P,U2,1*%
%TO.N,/XTAL1*%
X113030000Y-74930000D03*
%TD*%
D14*
%TO.N,Net-(BAT1-Pad1)*%
X113030000Y-67310000D03*
%TO.N,GND*%
X114935000Y-64770000D03*
X116840000Y-64770000D03*
X118745000Y-64770000D03*
X112395000Y-96520000D03*
X118745000Y-73660000D03*
X114935000Y-67310000D03*
X113030000Y-94615000D03*
X116840000Y-55245000D03*
X123190000Y-55245000D03*
X120015000Y-55245000D03*
X113665000Y-55245000D03*
X110490000Y-55245000D03*
X118745000Y-71755000D03*
X118745000Y-69850000D03*
X113665000Y-96520000D03*
%TD*%
D15*
%TO.N,Net-(BAT1-Pad1)*%
X116840000Y-59207400D02*
X116840000Y-59055000D01*
X113030000Y-63017400D02*
X116840000Y-59207400D01*
X113030000Y-67310000D02*
X113030000Y-63017400D01*
D16*
%TO.N,GND*%
X107950000Y-96520000D02*
X110490000Y-96520000D01*
X114935000Y-64770000D02*
X116840000Y-64770000D01*
X116840000Y-64770000D02*
X118745000Y-64770000D01*
X110490000Y-96520000D02*
X112395000Y-96520000D01*
X114935000Y-64770000D02*
X114935000Y-67310000D01*
X113030000Y-92710000D02*
X113030000Y-94615000D01*
X116635000Y-64975000D02*
X116840000Y-64770000D01*
X116635000Y-67310000D02*
X116635000Y-64975000D01*
X116840000Y-30435000D02*
X116840000Y-55245000D01*
X120015000Y-55245000D02*
X123190000Y-55245000D01*
X116840000Y-55245000D02*
X120015000Y-55245000D01*
X116840000Y-55245000D02*
X113665000Y-55245000D01*
X113665000Y-55245000D02*
X110490000Y-55245000D01*
X118745000Y-71755000D02*
X118745000Y-73660000D01*
X118745000Y-71755000D02*
X118745000Y-69850000D01*
X118745000Y-69850000D02*
X118745000Y-69215000D01*
X112395000Y-96520000D02*
X113665000Y-96520000D01*
%TO.N,VCC*%
X120650000Y-66040000D02*
X121285000Y-65405000D01*
D17*
X121285000Y-66040000D02*
X121285000Y-65405000D01*
D16*
X120650000Y-66040000D02*
X121285000Y-66040000D01*
X120650000Y-66040000D02*
X121285000Y-66675000D01*
D17*
X121285000Y-66675000D02*
X121285000Y-66040000D01*
X121285000Y-67310000D02*
X121285000Y-66675000D01*
X121285000Y-67945000D02*
X121285000Y-67310000D01*
X121285000Y-68580000D02*
X121285000Y-67945000D01*
D16*
X120650000Y-67310000D02*
X121285000Y-67945000D01*
X120650000Y-67310000D02*
X121285000Y-67310000D01*
X120650000Y-67310000D02*
X121285000Y-66675000D01*
X120650000Y-68580000D02*
X121285000Y-67945000D01*
X120650000Y-68580000D02*
X121285000Y-68580000D01*
X120650000Y-68580000D02*
X121285000Y-69215000D01*
D17*
X121285000Y-69215000D02*
X121285000Y-68580000D01*
D16*
X121285000Y-67310000D02*
X119585000Y-67310000D01*
X119585000Y-68340500D02*
X119585000Y-67310000D01*
X119824500Y-68580000D02*
X119585000Y-68340500D01*
X120650000Y-68580000D02*
X119824500Y-68580000D01*
X119585000Y-66279500D02*
X119585000Y-67310000D01*
X119824500Y-66040000D02*
X119585000Y-66279500D01*
X120650000Y-66040000D02*
X119824500Y-66040000D01*
D17*
X121285000Y-65405000D02*
X123190000Y-63500000D01*
X123190000Y-63500000D02*
X125730000Y-63500000D01*
X121285000Y-74295000D02*
X120650000Y-74930000D01*
X121285000Y-69215000D02*
X121285000Y-74295000D01*
D15*
%TO.N,Net-(CN1-Pad27)*%
X123190000Y-66040000D02*
X125730000Y-66040000D01*
%TO.N,Net-(CN1-Pad13)*%
X110490000Y-93980000D02*
X107950000Y-93980000D01*
%TO.N,Net-(CN1-Pad26)*%
X125730000Y-68580000D02*
X123190000Y-68580000D01*
%TO.N,Net-(CN1-Pad12)*%
X107950000Y-91440000D02*
X110490000Y-91440000D01*
%TO.N,Net-(CN1-Pad25)*%
X123190000Y-71120000D02*
X125730000Y-71120000D01*
%TO.N,Net-(CN1-Pad11)*%
X110490000Y-88900000D02*
X107950000Y-88900000D01*
X111760000Y-90170000D02*
X110490000Y-88900000D01*
X113030000Y-90170000D02*
X111760000Y-90170000D01*
%TO.N,Net-(CN1-Pad24)*%
X125730000Y-73660000D02*
X123190000Y-73660000D01*
%TO.N,Net-(CN1-Pad10)*%
X107950000Y-86360000D02*
X110490000Y-86360000D01*
X111760000Y-87630000D02*
X110490000Y-86360000D01*
X113030000Y-87630000D02*
X111760000Y-87630000D01*
%TO.N,Net-(CN1-Pad23)*%
X123190000Y-76200000D02*
X125730000Y-76200000D01*
%TO.N,Net-(CN1-Pad9)*%
X110490000Y-83820000D02*
X107950000Y-83820000D01*
%TO.N,Net-(CN1-Pad22)*%
X125730000Y-78740000D02*
X123190000Y-78740000D01*
X121920000Y-80010000D02*
X123190000Y-78740000D01*
X121920000Y-83820000D02*
X121920000Y-80010000D01*
X120650000Y-85090000D02*
X121920000Y-83820000D01*
%TO.N,Net-(CN1-Pad8)*%
X107950000Y-81280000D02*
X110490000Y-81280000D01*
X111760000Y-80010000D02*
X110490000Y-81280000D01*
X113030000Y-80010000D02*
X111760000Y-80010000D01*
%TO.N,Net-(CN1-Pad21)*%
X125730000Y-81280000D02*
X123190000Y-81280000D01*
%TO.N,Net-(CN1-Pad7)*%
X110490000Y-78740000D02*
X107950000Y-78740000D01*
%TO.N,Net-(CN1-Pad20)*%
X121920000Y-85090000D02*
X123190000Y-83820000D01*
X121920000Y-86360000D02*
X121920000Y-85090000D01*
X120650000Y-87630000D02*
X121920000Y-86360000D01*
%TO.N,Net-(CN1-Pad6)*%
X107950000Y-76200000D02*
X110490000Y-76200000D01*
%TO.N,Net-(CN1-Pad5)*%
X110490000Y-73660000D02*
X107950000Y-73660000D01*
%TO.N,Net-(CN1-Pad18)*%
X125730000Y-88900000D02*
X123190000Y-88900000D01*
%TO.N,Net-(CN1-Pad4)*%
X107950000Y-71120000D02*
X110490000Y-71120000D01*
%TO.N,Net-(CN1-Pad17)*%
X123190000Y-91440000D02*
X125730000Y-91440000D01*
%TO.N,Net-(CN1-Pad3)*%
X110490000Y-68580000D02*
X107950000Y-68580000D01*
%TO.N,Net-(CN1-Pad16)*%
X125730000Y-93980000D02*
X123190000Y-93980000D01*
%TO.N,Net-(CN1-Pad2)*%
X107950000Y-66040000D02*
X110490000Y-66040000D01*
%TO.N,Net-(CN1-Pad15)*%
X123190000Y-96520000D02*
X125730000Y-96520000D01*
%TO.N,Net-(CN1-Pad1)*%
X110490000Y-63500000D02*
X107950000Y-63500000D01*
X116840000Y-78740000D02*
X120650000Y-82550000D01*
X113665000Y-69850000D02*
X116205000Y-69850000D01*
X116840000Y-70485000D02*
X116840000Y-78740000D01*
X116205000Y-69850000D02*
X116840000Y-70485000D01*
X111715001Y-67900001D02*
X113665000Y-69850000D01*
X111715001Y-64725001D02*
X111715001Y-67900001D01*
X110490000Y-63500000D02*
X111715001Y-64725001D01*
%TO.N,Net-(U1-Pad20)*%
X124504999Y-85045001D02*
X125730000Y-83820000D01*
X123733002Y-87630000D02*
X124504999Y-86858003D01*
X124504999Y-86858003D02*
X124504999Y-85045001D01*
X121920000Y-88401997D02*
X121920000Y-88900000D01*
X120650000Y-90170000D02*
X121920000Y-88900000D01*
X122691997Y-87630000D02*
X123733002Y-87630000D01*
X121920000Y-88401997D02*
X122691997Y-87630000D01*
D18*
%TO.N,/XTAL2*%
X113665000Y-77470000D02*
X113030000Y-77470000D01*
X115550000Y-75585000D02*
X113665000Y-77470000D01*
X115550000Y-71755000D02*
X115550000Y-75585000D01*
%TO.N,/XTAL1*%
X113030000Y-71755000D02*
X113030000Y-74930000D01*
%TD*%
D19*
%TO.N,GND*%
X121158000Y-63747263D02*
X120436470Y-64468794D01*
X120388315Y-64508314D01*
X120230608Y-64700478D01*
X120113423Y-64919717D01*
X120080575Y-65028000D01*
X119874200Y-65028000D01*
X119824499Y-65023105D01*
X119774798Y-65028000D01*
X119774789Y-65028000D01*
X119626113Y-65042643D01*
X119435351Y-65100511D01*
X119259543Y-65194482D01*
X119105446Y-65320946D01*
X119073754Y-65359562D01*
X118904559Y-65528757D01*
X118865946Y-65560446D01*
X118739482Y-65714543D01*
X118677564Y-65830384D01*
X118541801Y-65941801D01*
X118415488Y-66095715D01*
X118321628Y-66271313D01*
X118263830Y-66461849D01*
X118244314Y-66659999D01*
X118244314Y-67960001D01*
X118263830Y-68158151D01*
X118321628Y-68348687D01*
X118415488Y-68524285D01*
X118541801Y-68678199D01*
X118677564Y-68789616D01*
X118739482Y-68905457D01*
X118865946Y-69059554D01*
X118904559Y-69091243D01*
X119073754Y-69260438D01*
X119105446Y-69299054D01*
X119259543Y-69425518D01*
X119435351Y-69519489D01*
X119626113Y-69577357D01*
X119774789Y-69592000D01*
X119774798Y-69592000D01*
X119824499Y-69596895D01*
X119874200Y-69592000D01*
X120023000Y-69592000D01*
X120023001Y-73499014D01*
X119910115Y-73545773D01*
X119654283Y-73716715D01*
X119436715Y-73934283D01*
X119265773Y-74190115D01*
X119148027Y-74474381D01*
X119088000Y-74776156D01*
X119088000Y-74803000D01*
X117777000Y-74803000D01*
X117777000Y-70531017D01*
X117781532Y-70485000D01*
X117777000Y-70438983D01*
X117777000Y-70438975D01*
X117763442Y-70301316D01*
X117709863Y-70124691D01*
X117622856Y-69961912D01*
X117505764Y-69819236D01*
X117470018Y-69789900D01*
X116900105Y-69219988D01*
X116870764Y-69184236D01*
X116728088Y-69067144D01*
X116565309Y-68980137D01*
X116388684Y-68926558D01*
X116251025Y-68913000D01*
X116251015Y-68913000D01*
X116205000Y-68908468D01*
X116158985Y-68913000D01*
X114053118Y-68913000D01*
X113509317Y-68369200D01*
X113580413Y-68339751D01*
X113770732Y-68212584D01*
X113773316Y-68210000D01*
X115421928Y-68210000D01*
X115434188Y-68334482D01*
X115470498Y-68454180D01*
X115529463Y-68564494D01*
X115608815Y-68661185D01*
X115705506Y-68740537D01*
X115815820Y-68799502D01*
X115935518Y-68835812D01*
X116060000Y-68848072D01*
X116349250Y-68845000D01*
X116508000Y-68686250D01*
X116508000Y-67437000D01*
X116762000Y-67437000D01*
X116762000Y-68686250D01*
X116920750Y-68845000D01*
X117210000Y-68848072D01*
X117334482Y-68835812D01*
X117454180Y-68799502D01*
X117564494Y-68740537D01*
X117661185Y-68661185D01*
X117740537Y-68564494D01*
X117799502Y-68454180D01*
X117835812Y-68334482D01*
X117848072Y-68210000D01*
X117845000Y-67595750D01*
X117686250Y-67437000D01*
X116762000Y-67437000D01*
X116508000Y-67437000D01*
X115583750Y-67437000D01*
X115425000Y-67595750D01*
X115421928Y-68210000D01*
X113773316Y-68210000D01*
X113932584Y-68050732D01*
X114059751Y-67860413D01*
X114147345Y-67648943D01*
X114192000Y-67424447D01*
X114192000Y-67195553D01*
X114147345Y-66971057D01*
X114059751Y-66759587D01*
X113967000Y-66620775D01*
X113967000Y-66410000D01*
X115421928Y-66410000D01*
X115425000Y-67024250D01*
X115583750Y-67183000D01*
X116508000Y-67183000D01*
X116508000Y-65933750D01*
X116762000Y-65933750D01*
X116762000Y-67183000D01*
X117686250Y-67183000D01*
X117845000Y-67024250D01*
X117848072Y-66410000D01*
X117835812Y-66285518D01*
X117799502Y-66165820D01*
X117740537Y-66055506D01*
X117661185Y-65958815D01*
X117564494Y-65879463D01*
X117454180Y-65820498D01*
X117334482Y-65784188D01*
X117210000Y-65771928D01*
X116920750Y-65775000D01*
X116762000Y-65933750D01*
X116508000Y-65933750D01*
X116349250Y-65775000D01*
X116060000Y-65771928D01*
X115935518Y-65784188D01*
X115815820Y-65820498D01*
X115705506Y-65879463D01*
X115608815Y-65958815D01*
X115529463Y-66055506D01*
X115470498Y-66165820D01*
X115434188Y-66285518D01*
X115421928Y-66410000D01*
X113967000Y-66410000D01*
X113967000Y-63405517D01*
X114380517Y-62992000D01*
X121158000Y-62992000D01*
X121158000Y-63747263D01*
%TA.AperFunction,Conductor*%
D20*
G36*
X121158000Y-63747263D02*
G01*
X120436470Y-64468794D01*
X120388315Y-64508314D01*
X120230608Y-64700478D01*
X120113423Y-64919717D01*
X120080575Y-65028000D01*
X119874200Y-65028000D01*
X119824499Y-65023105D01*
X119774798Y-65028000D01*
X119774789Y-65028000D01*
X119626113Y-65042643D01*
X119435351Y-65100511D01*
X119259543Y-65194482D01*
X119105446Y-65320946D01*
X119073754Y-65359562D01*
X118904559Y-65528757D01*
X118865946Y-65560446D01*
X118739482Y-65714543D01*
X118677564Y-65830384D01*
X118541801Y-65941801D01*
X118415488Y-66095715D01*
X118321628Y-66271313D01*
X118263830Y-66461849D01*
X118244314Y-66659999D01*
X118244314Y-67960001D01*
X118263830Y-68158151D01*
X118321628Y-68348687D01*
X118415488Y-68524285D01*
X118541801Y-68678199D01*
X118677564Y-68789616D01*
X118739482Y-68905457D01*
X118865946Y-69059554D01*
X118904559Y-69091243D01*
X119073754Y-69260438D01*
X119105446Y-69299054D01*
X119259543Y-69425518D01*
X119435351Y-69519489D01*
X119626113Y-69577357D01*
X119774789Y-69592000D01*
X119774798Y-69592000D01*
X119824499Y-69596895D01*
X119874200Y-69592000D01*
X120023000Y-69592000D01*
X120023001Y-73499014D01*
X119910115Y-73545773D01*
X119654283Y-73716715D01*
X119436715Y-73934283D01*
X119265773Y-74190115D01*
X119148027Y-74474381D01*
X119088000Y-74776156D01*
X119088000Y-74803000D01*
X117777000Y-74803000D01*
X117777000Y-70531017D01*
X117781532Y-70485000D01*
X117777000Y-70438983D01*
X117777000Y-70438975D01*
X117763442Y-70301316D01*
X117709863Y-70124691D01*
X117622856Y-69961912D01*
X117505764Y-69819236D01*
X117470018Y-69789900D01*
X116900105Y-69219988D01*
X116870764Y-69184236D01*
X116728088Y-69067144D01*
X116565309Y-68980137D01*
X116388684Y-68926558D01*
X116251025Y-68913000D01*
X116251015Y-68913000D01*
X116205000Y-68908468D01*
X116158985Y-68913000D01*
X114053118Y-68913000D01*
X113509317Y-68369200D01*
X113580413Y-68339751D01*
X113770732Y-68212584D01*
X113773316Y-68210000D01*
X115421928Y-68210000D01*
X115434188Y-68334482D01*
X115470498Y-68454180D01*
X115529463Y-68564494D01*
X115608815Y-68661185D01*
X115705506Y-68740537D01*
X115815820Y-68799502D01*
X115935518Y-68835812D01*
X116060000Y-68848072D01*
X116349250Y-68845000D01*
X116508000Y-68686250D01*
X116508000Y-67437000D01*
X116762000Y-67437000D01*
X116762000Y-68686250D01*
X116920750Y-68845000D01*
X117210000Y-68848072D01*
X117334482Y-68835812D01*
X117454180Y-68799502D01*
X117564494Y-68740537D01*
X117661185Y-68661185D01*
X117740537Y-68564494D01*
X117799502Y-68454180D01*
X117835812Y-68334482D01*
X117848072Y-68210000D01*
X117845000Y-67595750D01*
X117686250Y-67437000D01*
X116762000Y-67437000D01*
X116508000Y-67437000D01*
X115583750Y-67437000D01*
X115425000Y-67595750D01*
X115421928Y-68210000D01*
X113773316Y-68210000D01*
X113932584Y-68050732D01*
X114059751Y-67860413D01*
X114147345Y-67648943D01*
X114192000Y-67424447D01*
X114192000Y-67195553D01*
X114147345Y-66971057D01*
X114059751Y-66759587D01*
X113967000Y-66620775D01*
X113967000Y-66410000D01*
X115421928Y-66410000D01*
X115425000Y-67024250D01*
X115583750Y-67183000D01*
X116508000Y-67183000D01*
X116508000Y-65933750D01*
X116762000Y-65933750D01*
X116762000Y-67183000D01*
X117686250Y-67183000D01*
X117845000Y-67024250D01*
X117848072Y-66410000D01*
X117835812Y-66285518D01*
X117799502Y-66165820D01*
X117740537Y-66055506D01*
X117661185Y-65958815D01*
X117564494Y-65879463D01*
X117454180Y-65820498D01*
X117334482Y-65784188D01*
X117210000Y-65771928D01*
X116920750Y-65775000D01*
X116762000Y-65933750D01*
X116508000Y-65933750D01*
X116349250Y-65775000D01*
X116060000Y-65771928D01*
X115935518Y-65784188D01*
X115815820Y-65820498D01*
X115705506Y-65879463D01*
X115608815Y-65958815D01*
X115529463Y-66055506D01*
X115470498Y-66165820D01*
X115434188Y-66285518D01*
X115421928Y-66410000D01*
X113967000Y-66410000D01*
X113967000Y-63405517D01*
X114380517Y-62992000D01*
X121158000Y-62992000D01*
X121158000Y-63747263D01*
G37*
%TD.AperFunction*%
%TD*%
D19*
%TO.N,GND*%
X119101777Y-82326895D02*
X119088000Y-82396156D01*
X119088000Y-82703844D01*
X119148027Y-83005619D01*
X119265773Y-83289885D01*
X119436715Y-83545717D01*
X119654283Y-83763285D01*
X119739163Y-83820000D01*
X119654283Y-83876715D01*
X119436715Y-84094283D01*
X119265773Y-84350115D01*
X119148027Y-84634381D01*
X119088000Y-84936156D01*
X119088000Y-85243844D01*
X119148027Y-85545619D01*
X119265773Y-85829885D01*
X119436715Y-86085717D01*
X119654283Y-86303285D01*
X119739163Y-86360000D01*
X119654283Y-86416715D01*
X119436715Y-86634283D01*
X119265773Y-86890115D01*
X119148027Y-87174381D01*
X119088000Y-87476156D01*
X119088000Y-87783844D01*
X119148027Y-88085619D01*
X119265773Y-88369885D01*
X119436715Y-88625717D01*
X119654283Y-88843285D01*
X119739163Y-88900000D01*
X119654283Y-88956715D01*
X119436715Y-89174283D01*
X119265773Y-89430115D01*
X119148027Y-89714381D01*
X119088000Y-90016156D01*
X119088000Y-90323844D01*
X119148027Y-90625619D01*
X119265773Y-90909885D01*
X119436715Y-91165717D01*
X119654283Y-91383285D01*
X119739163Y-91440000D01*
X119654283Y-91496715D01*
X119436715Y-91714283D01*
X119265773Y-91970115D01*
X119148027Y-92254381D01*
X119088000Y-92556156D01*
X119088000Y-92863844D01*
X119148027Y-93165619D01*
X119265773Y-93449885D01*
X119436715Y-93705717D01*
X119654283Y-93923285D01*
X119910115Y-94094227D01*
X120194381Y-94211973D01*
X120496156Y-94272000D01*
X120803844Y-94272000D01*
X121105619Y-94211973D01*
X121389885Y-94094227D01*
X121628000Y-93935123D01*
X121628000Y-94133844D01*
X121688027Y-94435619D01*
X121805773Y-94719885D01*
X121976715Y-94975717D01*
X122194283Y-95193285D01*
X122279163Y-95250000D01*
X122194283Y-95306715D01*
X121976715Y-95524283D01*
X121805773Y-95780115D01*
X121688027Y-96064381D01*
X121628000Y-96366156D01*
X121628000Y-96673844D01*
X121688027Y-96975619D01*
X121699369Y-97003000D01*
X111841272Y-97003000D01*
X111881904Y-96869039D01*
X111759915Y-96647000D01*
X110617000Y-96647000D01*
X110617000Y-96667000D01*
X110363000Y-96667000D01*
X110363000Y-96647000D01*
X109220085Y-96647000D01*
X109220000Y-96647155D01*
X109219915Y-96647000D01*
X108077000Y-96647000D01*
X108077000Y-96667000D01*
X107823000Y-96667000D01*
X107823000Y-96647000D01*
X107803000Y-96647000D01*
X107803000Y-96393000D01*
X107823000Y-96393000D01*
X107823000Y-96373000D01*
X108077000Y-96373000D01*
X108077000Y-96393000D01*
X109219915Y-96393000D01*
X109220000Y-96392845D01*
X109220085Y-96393000D01*
X110363000Y-96393000D01*
X110363000Y-96373000D01*
X110617000Y-96373000D01*
X110617000Y-96393000D01*
X111759915Y-96393000D01*
X111881904Y-96170961D01*
X111841246Y-96036913D01*
X111721037Y-95782580D01*
X111553519Y-95556586D01*
X111345131Y-95367615D01*
X111281725Y-95329588D01*
X111485717Y-95193285D01*
X111703285Y-94975717D01*
X111874227Y-94719885D01*
X111991973Y-94435619D01*
X112052000Y-94133844D01*
X112052000Y-93826156D01*
X112033752Y-93734417D01*
X112174869Y-93862385D01*
X112416119Y-94007070D01*
X112680960Y-94101909D01*
X112903000Y-93980624D01*
X112903000Y-92837000D01*
X113157000Y-92837000D01*
X113157000Y-93980624D01*
X113379040Y-94101909D01*
X113643881Y-94007070D01*
X113885131Y-93862385D01*
X114093519Y-93673414D01*
X114261037Y-93447420D01*
X114381246Y-93193087D01*
X114421904Y-93059039D01*
X114299915Y-92837000D01*
X113157000Y-92837000D01*
X112903000Y-92837000D01*
X111760085Y-92837000D01*
X111687719Y-92968717D01*
X111485717Y-92766715D01*
X111400837Y-92710000D01*
X111485717Y-92653285D01*
X111687719Y-92451283D01*
X111760085Y-92583000D01*
X112903000Y-92583000D01*
X112903000Y-92563000D01*
X113157000Y-92563000D01*
X113157000Y-92583000D01*
X114299915Y-92583000D01*
X114421904Y-92360961D01*
X114381246Y-92226913D01*
X114261037Y-91972580D01*
X114093519Y-91746586D01*
X113885131Y-91557615D01*
X113821725Y-91519588D01*
X114025717Y-91383285D01*
X114243285Y-91165717D01*
X114414227Y-90909885D01*
X114531973Y-90625619D01*
X114592000Y-90323844D01*
X114592000Y-90016156D01*
X114531973Y-89714381D01*
X114414227Y-89430115D01*
X114243285Y-89174283D01*
X114025717Y-88956715D01*
X113940837Y-88900000D01*
X114025717Y-88843285D01*
X114243285Y-88625717D01*
X114414227Y-88369885D01*
X114531973Y-88085619D01*
X114592000Y-87783844D01*
X114592000Y-87476156D01*
X114531973Y-87174381D01*
X114414227Y-86890115D01*
X114243285Y-86634283D01*
X114025717Y-86416715D01*
X113821725Y-86280412D01*
X113885131Y-86242385D01*
X114093519Y-86053414D01*
X114261037Y-85827420D01*
X114381246Y-85573087D01*
X114421904Y-85439039D01*
X114299915Y-85217000D01*
X113157000Y-85217000D01*
X113157000Y-85237000D01*
X112903000Y-85237000D01*
X112903000Y-85217000D01*
X111760085Y-85217000D01*
X111687719Y-85348717D01*
X111485717Y-85146715D01*
X111400837Y-85090000D01*
X111485717Y-85033285D01*
X111687719Y-84831283D01*
X111760085Y-84963000D01*
X112903000Y-84963000D01*
X112903000Y-84943000D01*
X113157000Y-84943000D01*
X113157000Y-84963000D01*
X114299915Y-84963000D01*
X114421904Y-84740961D01*
X114381246Y-84606913D01*
X114261037Y-84352580D01*
X114093519Y-84126586D01*
X113885131Y-83937615D01*
X113821725Y-83899588D01*
X114025717Y-83763285D01*
X114243285Y-83545717D01*
X114414227Y-83289885D01*
X114531973Y-83005619D01*
X114592000Y-82703844D01*
X114592000Y-82396156D01*
X114531973Y-82094381D01*
X114414227Y-81810115D01*
X114243285Y-81554283D01*
X114025717Y-81336715D01*
X113940837Y-81280000D01*
X114025717Y-81223285D01*
X114243285Y-81005717D01*
X114414227Y-80749885D01*
X114531973Y-80465619D01*
X114592000Y-80163844D01*
X114592000Y-80137000D01*
X116911883Y-80137000D01*
X119101777Y-82326895D01*
%TA.AperFunction,Conductor*%
D20*
G36*
X119101777Y-82326895D02*
G01*
X119088000Y-82396156D01*
X119088000Y-82703844D01*
X119148027Y-83005619D01*
X119265773Y-83289885D01*
X119436715Y-83545717D01*
X119654283Y-83763285D01*
X119739163Y-83820000D01*
X119654283Y-83876715D01*
X119436715Y-84094283D01*
X119265773Y-84350115D01*
X119148027Y-84634381D01*
X119088000Y-84936156D01*
X119088000Y-85243844D01*
X119148027Y-85545619D01*
X119265773Y-85829885D01*
X119436715Y-86085717D01*
X119654283Y-86303285D01*
X119739163Y-86360000D01*
X119654283Y-86416715D01*
X119436715Y-86634283D01*
X119265773Y-86890115D01*
X119148027Y-87174381D01*
X119088000Y-87476156D01*
X119088000Y-87783844D01*
X119148027Y-88085619D01*
X119265773Y-88369885D01*
X119436715Y-88625717D01*
X119654283Y-88843285D01*
X119739163Y-88900000D01*
X119654283Y-88956715D01*
X119436715Y-89174283D01*
X119265773Y-89430115D01*
X119148027Y-89714381D01*
X119088000Y-90016156D01*
X119088000Y-90323844D01*
X119148027Y-90625619D01*
X119265773Y-90909885D01*
X119436715Y-91165717D01*
X119654283Y-91383285D01*
X119739163Y-91440000D01*
X119654283Y-91496715D01*
X119436715Y-91714283D01*
X119265773Y-91970115D01*
X119148027Y-92254381D01*
X119088000Y-92556156D01*
X119088000Y-92863844D01*
X119148027Y-93165619D01*
X119265773Y-93449885D01*
X119436715Y-93705717D01*
X119654283Y-93923285D01*
X119910115Y-94094227D01*
X120194381Y-94211973D01*
X120496156Y-94272000D01*
X120803844Y-94272000D01*
X121105619Y-94211973D01*
X121389885Y-94094227D01*
X121628000Y-93935123D01*
X121628000Y-94133844D01*
X121688027Y-94435619D01*
X121805773Y-94719885D01*
X121976715Y-94975717D01*
X122194283Y-95193285D01*
X122279163Y-95250000D01*
X122194283Y-95306715D01*
X121976715Y-95524283D01*
X121805773Y-95780115D01*
X121688027Y-96064381D01*
X121628000Y-96366156D01*
X121628000Y-96673844D01*
X121688027Y-96975619D01*
X121699369Y-97003000D01*
X111841272Y-97003000D01*
X111881904Y-96869039D01*
X111759915Y-96647000D01*
X110617000Y-96647000D01*
X110617000Y-96667000D01*
X110363000Y-96667000D01*
X110363000Y-96647000D01*
X109220085Y-96647000D01*
X109220000Y-96647155D01*
X109219915Y-96647000D01*
X108077000Y-96647000D01*
X108077000Y-96667000D01*
X107823000Y-96667000D01*
X107823000Y-96647000D01*
X107803000Y-96647000D01*
X107803000Y-96393000D01*
X107823000Y-96393000D01*
X107823000Y-96373000D01*
X108077000Y-96373000D01*
X108077000Y-96393000D01*
X109219915Y-96393000D01*
X109220000Y-96392845D01*
X109220085Y-96393000D01*
X110363000Y-96393000D01*
X110363000Y-96373000D01*
X110617000Y-96373000D01*
X110617000Y-96393000D01*
X111759915Y-96393000D01*
X111881904Y-96170961D01*
X111841246Y-96036913D01*
X111721037Y-95782580D01*
X111553519Y-95556586D01*
X111345131Y-95367615D01*
X111281725Y-95329588D01*
X111485717Y-95193285D01*
X111703285Y-94975717D01*
X111874227Y-94719885D01*
X111991973Y-94435619D01*
X112052000Y-94133844D01*
X112052000Y-93826156D01*
X112033752Y-93734417D01*
X112174869Y-93862385D01*
X112416119Y-94007070D01*
X112680960Y-94101909D01*
X112903000Y-93980624D01*
X112903000Y-92837000D01*
X113157000Y-92837000D01*
X113157000Y-93980624D01*
X113379040Y-94101909D01*
X113643881Y-94007070D01*
X113885131Y-93862385D01*
X114093519Y-93673414D01*
X114261037Y-93447420D01*
X114381246Y-93193087D01*
X114421904Y-93059039D01*
X114299915Y-92837000D01*
X113157000Y-92837000D01*
X112903000Y-92837000D01*
X111760085Y-92837000D01*
X111687719Y-92968717D01*
X111485717Y-92766715D01*
X111400837Y-92710000D01*
X111485717Y-92653285D01*
X111687719Y-92451283D01*
X111760085Y-92583000D01*
X112903000Y-92583000D01*
X112903000Y-92563000D01*
X113157000Y-92563000D01*
X113157000Y-92583000D01*
X114299915Y-92583000D01*
X114421904Y-92360961D01*
X114381246Y-92226913D01*
X114261037Y-91972580D01*
X114093519Y-91746586D01*
X113885131Y-91557615D01*
X113821725Y-91519588D01*
X114025717Y-91383285D01*
X114243285Y-91165717D01*
X114414227Y-90909885D01*
X114531973Y-90625619D01*
X114592000Y-90323844D01*
X114592000Y-90016156D01*
X114531973Y-89714381D01*
X114414227Y-89430115D01*
X114243285Y-89174283D01*
X114025717Y-88956715D01*
X113940837Y-88900000D01*
X114025717Y-88843285D01*
X114243285Y-88625717D01*
X114414227Y-88369885D01*
X114531973Y-88085619D01*
X114592000Y-87783844D01*
X114592000Y-87476156D01*
X114531973Y-87174381D01*
X114414227Y-86890115D01*
X114243285Y-86634283D01*
X114025717Y-86416715D01*
X113821725Y-86280412D01*
X113885131Y-86242385D01*
X114093519Y-86053414D01*
X114261037Y-85827420D01*
X114381246Y-85573087D01*
X114421904Y-85439039D01*
X114299915Y-85217000D01*
X113157000Y-85217000D01*
X113157000Y-85237000D01*
X112903000Y-85237000D01*
X112903000Y-85217000D01*
X111760085Y-85217000D01*
X111687719Y-85348717D01*
X111485717Y-85146715D01*
X111400837Y-85090000D01*
X111485717Y-85033285D01*
X111687719Y-84831283D01*
X111760085Y-84963000D01*
X112903000Y-84963000D01*
X112903000Y-84943000D01*
X113157000Y-84943000D01*
X113157000Y-84963000D01*
X114299915Y-84963000D01*
X114421904Y-84740961D01*
X114381246Y-84606913D01*
X114261037Y-84352580D01*
X114093519Y-84126586D01*
X113885131Y-83937615D01*
X113821725Y-83899588D01*
X114025717Y-83763285D01*
X114243285Y-83545717D01*
X114414227Y-83289885D01*
X114531973Y-83005619D01*
X114592000Y-82703844D01*
X114592000Y-82396156D01*
X114531973Y-82094381D01*
X114414227Y-81810115D01*
X114243285Y-81554283D01*
X114025717Y-81336715D01*
X113940837Y-81280000D01*
X114025717Y-81223285D01*
X114243285Y-81005717D01*
X114414227Y-80749885D01*
X114531973Y-80465619D01*
X114592000Y-80163844D01*
X114592000Y-80137000D01*
X116911883Y-80137000D01*
X119101777Y-82326895D01*
G37*
%TD.AperFunction*%
%TD*%
D19*
%TO.N,GND*%
X113756181Y-28728562D02*
X113795222Y-28788223D01*
X113802166Y-28796739D01*
X113881162Y-28892229D01*
X113931795Y-28942509D01*
X113981682Y-28993452D01*
X113990148Y-29000457D01*
X114086187Y-29078784D01*
X114145576Y-29118242D01*
X114204455Y-29158558D01*
X114214121Y-29163784D01*
X114323544Y-29221966D01*
X114389493Y-29249149D01*
X114402290Y-29254633D01*
X114405000Y-30149250D01*
X114563750Y-30308000D01*
X116713000Y-30308000D01*
X116713000Y-30288000D01*
X116967000Y-30288000D01*
X116967000Y-30308000D01*
X119116250Y-30308000D01*
X119275000Y-30149250D01*
X119277710Y-29254524D01*
X119289636Y-29249510D01*
X119355685Y-29222825D01*
X119365378Y-29217672D01*
X119365387Y-29217668D01*
X119365394Y-29217663D01*
X119474402Y-29158723D01*
X119533562Y-29118819D01*
X119593223Y-29079778D01*
X119601739Y-29072834D01*
X119697229Y-28993838D01*
X119747509Y-28943205D01*
X119798452Y-28893318D01*
X119805457Y-28884852D01*
X119883784Y-28788813D01*
X119923242Y-28729424D01*
X119924902Y-28727000D01*
X125691509Y-28727000D01*
X125823081Y-28739901D01*
X125912620Y-28766935D01*
X125995200Y-28810843D01*
X126067678Y-28869954D01*
X126127297Y-28942021D01*
X126171780Y-29024290D01*
X126199438Y-29113640D01*
X126213001Y-29242684D01*
X126213000Y-38138653D01*
X126224388Y-38254278D01*
X126269390Y-38402628D01*
X126342468Y-38539348D01*
X126356208Y-38556091D01*
X127029468Y-39665217D01*
X127577504Y-40853533D01*
X127987500Y-42096261D01*
X128254177Y-43377404D01*
X128374110Y-44680506D01*
X128345757Y-45988802D01*
X128169484Y-47285480D01*
X127847553Y-48553873D01*
X127384110Y-49777660D01*
X126781193Y-50948724D01*
X126361643Y-51607285D01*
X126342467Y-51630651D01*
X126269389Y-51767371D01*
X126224387Y-51915721D01*
X126212999Y-52031346D01*
X126212999Y-60833000D01*
X119405686Y-60833000D01*
X119405686Y-58435000D01*
X119390974Y-58285622D01*
X119347402Y-58141985D01*
X119276645Y-58009608D01*
X119181422Y-57893578D01*
X119065392Y-57798355D01*
X118933015Y-57727598D01*
X118789378Y-57684026D01*
X118640000Y-57669314D01*
X115040000Y-57669314D01*
X114890622Y-57684026D01*
X114746985Y-57727598D01*
X114614608Y-57798355D01*
X114498578Y-57893578D01*
X114403355Y-58009608D01*
X114332598Y-58141985D01*
X114289026Y-58285622D01*
X114274314Y-58435000D01*
X114274314Y-60447968D01*
X113889282Y-60833000D01*
X107467001Y-60833000D01*
X107467001Y-52031346D01*
X107455613Y-51915721D01*
X107410611Y-51767371D01*
X107337533Y-51630651D01*
X107323787Y-51613901D01*
X106650532Y-50504784D01*
X106102493Y-49316460D01*
X105692500Y-48073737D01*
X105425823Y-46792596D01*
X105305890Y-45489494D01*
X105334243Y-44181199D01*
X105510516Y-42884526D01*
X105832447Y-41616127D01*
X106295890Y-40392340D01*
X106898807Y-39221276D01*
X107318357Y-38562715D01*
X107337533Y-38539349D01*
X107410611Y-38402629D01*
X107455613Y-38254279D01*
X107467001Y-38138654D01*
X107467000Y-31735000D01*
X114401928Y-31735000D01*
X114414188Y-31859482D01*
X114450498Y-31979180D01*
X114509463Y-32089494D01*
X114588815Y-32186185D01*
X114685506Y-32265537D01*
X114795820Y-32324502D01*
X114915518Y-32360812D01*
X115040000Y-32373072D01*
X116554250Y-32370000D01*
X116713000Y-32211250D01*
X116713000Y-30562000D01*
X116967000Y-30562000D01*
X116967000Y-32211250D01*
X117125750Y-32370000D01*
X118640000Y-32373072D01*
X118764482Y-32360812D01*
X118884180Y-32324502D01*
X118994494Y-32265537D01*
X119091185Y-32186185D01*
X119170537Y-32089494D01*
X119229502Y-31979180D01*
X119265812Y-31859482D01*
X119278072Y-31735000D01*
X119275000Y-30720750D01*
X119116250Y-30562000D01*
X116967000Y-30562000D01*
X116713000Y-30562000D01*
X114563750Y-30562000D01*
X114405000Y-30720750D01*
X114401928Y-31735000D01*
X107467000Y-31735000D01*
X107466999Y-29248501D01*
X107479901Y-29116919D01*
X107506935Y-29027380D01*
X107550843Y-28944800D01*
X107609954Y-28872322D01*
X107682021Y-28812703D01*
X107764290Y-28768220D01*
X107853640Y-28740562D01*
X107982675Y-28727000D01*
X113755127Y-28727000D01*
X113756181Y-28728562D01*
%TA.AperFunction,Conductor*%
D20*
G36*
X113756181Y-28728562D02*
G01*
X113795222Y-28788223D01*
X113802166Y-28796739D01*
X113881162Y-28892229D01*
X113931795Y-28942509D01*
X113981682Y-28993452D01*
X113990148Y-29000457D01*
X114086187Y-29078784D01*
X114145576Y-29118242D01*
X114204455Y-29158558D01*
X114214121Y-29163784D01*
X114323544Y-29221966D01*
X114389493Y-29249149D01*
X114402290Y-29254633D01*
X114405000Y-30149250D01*
X114563750Y-30308000D01*
X116713000Y-30308000D01*
X116713000Y-30288000D01*
X116967000Y-30288000D01*
X116967000Y-30308000D01*
X119116250Y-30308000D01*
X119275000Y-30149250D01*
X119277710Y-29254524D01*
X119289636Y-29249510D01*
X119355685Y-29222825D01*
X119365378Y-29217672D01*
X119365387Y-29217668D01*
X119365394Y-29217663D01*
X119474402Y-29158723D01*
X119533562Y-29118819D01*
X119593223Y-29079778D01*
X119601739Y-29072834D01*
X119697229Y-28993838D01*
X119747509Y-28943205D01*
X119798452Y-28893318D01*
X119805457Y-28884852D01*
X119883784Y-28788813D01*
X119923242Y-28729424D01*
X119924902Y-28727000D01*
X125691509Y-28727000D01*
X125823081Y-28739901D01*
X125912620Y-28766935D01*
X125995200Y-28810843D01*
X126067678Y-28869954D01*
X126127297Y-28942021D01*
X126171780Y-29024290D01*
X126199438Y-29113640D01*
X126213001Y-29242684D01*
X126213000Y-38138653D01*
X126224388Y-38254278D01*
X126269390Y-38402628D01*
X126342468Y-38539348D01*
X126356208Y-38556091D01*
X127029468Y-39665217D01*
X127577504Y-40853533D01*
X127987500Y-42096261D01*
X128254177Y-43377404D01*
X128374110Y-44680506D01*
X128345757Y-45988802D01*
X128169484Y-47285480D01*
X127847553Y-48553873D01*
X127384110Y-49777660D01*
X126781193Y-50948724D01*
X126361643Y-51607285D01*
X126342467Y-51630651D01*
X126269389Y-51767371D01*
X126224387Y-51915721D01*
X126212999Y-52031346D01*
X126212999Y-60833000D01*
X119405686Y-60833000D01*
X119405686Y-58435000D01*
X119390974Y-58285622D01*
X119347402Y-58141985D01*
X119276645Y-58009608D01*
X119181422Y-57893578D01*
X119065392Y-57798355D01*
X118933015Y-57727598D01*
X118789378Y-57684026D01*
X118640000Y-57669314D01*
X115040000Y-57669314D01*
X114890622Y-57684026D01*
X114746985Y-57727598D01*
X114614608Y-57798355D01*
X114498578Y-57893578D01*
X114403355Y-58009608D01*
X114332598Y-58141985D01*
X114289026Y-58285622D01*
X114274314Y-58435000D01*
X114274314Y-60447968D01*
X113889282Y-60833000D01*
X107467001Y-60833000D01*
X107467001Y-52031346D01*
X107455613Y-51915721D01*
X107410611Y-51767371D01*
X107337533Y-51630651D01*
X107323787Y-51613901D01*
X106650532Y-50504784D01*
X106102493Y-49316460D01*
X105692500Y-48073737D01*
X105425823Y-46792596D01*
X105305890Y-45489494D01*
X105334243Y-44181199D01*
X105510516Y-42884526D01*
X105832447Y-41616127D01*
X106295890Y-40392340D01*
X106898807Y-39221276D01*
X107318357Y-38562715D01*
X107337533Y-38539349D01*
X107410611Y-38402629D01*
X107455613Y-38254279D01*
X107467001Y-38138654D01*
X107467000Y-31735000D01*
X114401928Y-31735000D01*
X114414188Y-31859482D01*
X114450498Y-31979180D01*
X114509463Y-32089494D01*
X114588815Y-32186185D01*
X114685506Y-32265537D01*
X114795820Y-32324502D01*
X114915518Y-32360812D01*
X115040000Y-32373072D01*
X116554250Y-32370000D01*
X116713000Y-32211250D01*
X116713000Y-30562000D01*
X116967000Y-30562000D01*
X116967000Y-32211250D01*
X117125750Y-32370000D01*
X118640000Y-32373072D01*
X118764482Y-32360812D01*
X118884180Y-32324502D01*
X118994494Y-32265537D01*
X119091185Y-32186185D01*
X119170537Y-32089494D01*
X119229502Y-31979180D01*
X119265812Y-31859482D01*
X119278072Y-31735000D01*
X119275000Y-30720750D01*
X119116250Y-30562000D01*
X116967000Y-30562000D01*
X116713000Y-30562000D01*
X114563750Y-30562000D01*
X114405000Y-30720750D01*
X114401928Y-31735000D01*
X107467000Y-31735000D01*
X107466999Y-29248501D01*
X107479901Y-29116919D01*
X107506935Y-29027380D01*
X107550843Y-28944800D01*
X107609954Y-28872322D01*
X107682021Y-28812703D01*
X107764290Y-28768220D01*
X107853640Y-28740562D01*
X107982675Y-28727000D01*
X113755127Y-28727000D01*
X113756181Y-28728562D01*
G37*
%TD.AperFunction*%
%TD*%
M02*
