%TF.GenerationSoftware,KiCad,Pcbnew,(5.1.9)-1*%
%TF.CreationDate,2021-05-18T21:14:01+08:00*%
%TF.ProjectId,SmartWatchRedux-E-SMT,536d6172-7457-4617-9463-685265647578,rev?*%
%TF.SameCoordinates,Original*%
%TF.FileFunction,Legend,Top*%
%TF.FilePolarity,Positive*%
%FSLAX46Y46*%
G04 Gerber Fmt 4.6, Leading zero omitted, Abs format (unit mm)*
G04 Created by KiCad (PCBNEW (5.1.9)-1) date 2021-05-18 21:14:01*
%MOMM*%
%LPD*%
G01*
G04 APERTURE LIST*
%ADD10C,0.150000*%
%ADD11C,0.100000*%
%ADD12C,1.000000*%
%ADD13C,0.230000*%
%ADD14C,0.120000*%
G04 APERTURE END LIST*
D10*
X117419523Y-71207380D02*
X117229047Y-71207380D01*
X117133809Y-71255000D01*
X117086190Y-71302619D01*
X116990952Y-71445476D01*
X116943333Y-71635952D01*
X116943333Y-72016904D01*
X116990952Y-72112142D01*
X117038571Y-72159761D01*
X117133809Y-72207380D01*
X117324285Y-72207380D01*
X117419523Y-72159761D01*
X117467142Y-72112142D01*
X117514761Y-72016904D01*
X117514761Y-71778809D01*
X117467142Y-71683571D01*
X117419523Y-71635952D01*
X117324285Y-71588333D01*
X117133809Y-71588333D01*
X117038571Y-71635952D01*
X116990952Y-71683571D01*
X116943333Y-71778809D01*
X117943333Y-71540714D02*
X117943333Y-72540714D01*
X117943333Y-71588333D02*
X118038571Y-71540714D01*
X118229047Y-71540714D01*
X118324285Y-71588333D01*
X118371904Y-71635952D01*
X118419523Y-71731190D01*
X118419523Y-72016904D01*
X118371904Y-72112142D01*
X118324285Y-72159761D01*
X118229047Y-72207380D01*
X118038571Y-72207380D01*
X117943333Y-72159761D01*
X119181428Y-71683571D02*
X118848095Y-71683571D01*
X118848095Y-72207380D02*
X118848095Y-71207380D01*
X119324285Y-71207380D01*
D11*
G36*
X109855000Y-31115000D02*
G01*
X108585000Y-31115000D01*
X108585000Y-29845000D01*
X109855000Y-29845000D01*
X109855000Y-31115000D01*
G37*
X109855000Y-31115000D02*
X108585000Y-31115000D01*
X108585000Y-29845000D01*
X109855000Y-29845000D01*
X109855000Y-31115000D01*
D12*
X109985000Y-30480000D02*
G75*
G03*
X109985000Y-30480000I-700000J0D01*
G01*
D13*
X108378571Y-62273571D02*
X107521428Y-62273571D01*
X107950000Y-62273571D02*
X107950000Y-60773571D01*
X107807142Y-60987857D01*
X107664285Y-61130714D01*
X107521428Y-61202142D01*
D10*
X126579761Y-49656428D02*
X126627380Y-49513571D01*
X126627380Y-49275476D01*
X126579761Y-49180238D01*
X126532142Y-49132619D01*
X126436904Y-49085000D01*
X126341666Y-49085000D01*
X126246428Y-49132619D01*
X126198809Y-49180238D01*
X126151190Y-49275476D01*
X126103571Y-49465952D01*
X126055952Y-49561190D01*
X126008333Y-49608809D01*
X125913095Y-49656428D01*
X125817857Y-49656428D01*
X125722619Y-49608809D01*
X125675000Y-49561190D01*
X125627380Y-49465952D01*
X125627380Y-49227857D01*
X125675000Y-49085000D01*
X126627380Y-48656428D02*
X125627380Y-48656428D01*
X126341666Y-48323095D01*
X125627380Y-47989761D01*
X126627380Y-47989761D01*
X126341666Y-47561190D02*
X126341666Y-47085000D01*
X126627380Y-47656428D02*
X125627380Y-47323095D01*
X126627380Y-46989761D01*
X126627380Y-46085000D02*
X126151190Y-46418333D01*
X126627380Y-46656428D02*
X125627380Y-46656428D01*
X125627380Y-46275476D01*
X125675000Y-46180238D01*
X125722619Y-46132619D01*
X125817857Y-46085000D01*
X125960714Y-46085000D01*
X126055952Y-46132619D01*
X126103571Y-46180238D01*
X126151190Y-46275476D01*
X126151190Y-46656428D01*
X125627380Y-45799285D02*
X125627380Y-45227857D01*
X126627380Y-45513571D02*
X125627380Y-45513571D01*
X125627380Y-44989761D02*
X126627380Y-44751666D01*
X125913095Y-44561190D01*
X126627380Y-44370714D01*
X125627380Y-44132619D01*
X126341666Y-43799285D02*
X126341666Y-43323095D01*
X126627380Y-43894523D02*
X125627380Y-43561190D01*
X126627380Y-43227857D01*
X125627380Y-43037380D02*
X125627380Y-42465952D01*
X126627380Y-42751666D02*
X125627380Y-42751666D01*
X126532142Y-41561190D02*
X126579761Y-41608809D01*
X126627380Y-41751666D01*
X126627380Y-41846904D01*
X126579761Y-41989761D01*
X126484523Y-42085000D01*
X126389285Y-42132619D01*
X126198809Y-42180238D01*
X126055952Y-42180238D01*
X125865476Y-42132619D01*
X125770238Y-42085000D01*
X125675000Y-41989761D01*
X125627380Y-41846904D01*
X125627380Y-41751666D01*
X125675000Y-41608809D01*
X125722619Y-41561190D01*
X126627380Y-41132619D02*
X125627380Y-41132619D01*
X126103571Y-41132619D02*
X126103571Y-40561190D01*
X126627380Y-40561190D02*
X125627380Y-40561190D01*
X128277380Y-47799285D02*
X127801190Y-48132619D01*
X128277380Y-48370714D02*
X127277380Y-48370714D01*
X127277380Y-47989761D01*
X127325000Y-47894523D01*
X127372619Y-47846904D01*
X127467857Y-47799285D01*
X127610714Y-47799285D01*
X127705952Y-47846904D01*
X127753571Y-47894523D01*
X127801190Y-47989761D01*
X127801190Y-48370714D01*
X127753571Y-47370714D02*
X127753571Y-47037380D01*
X128277380Y-46894523D02*
X128277380Y-47370714D01*
X127277380Y-47370714D01*
X127277380Y-46894523D01*
X128277380Y-46465952D02*
X127277380Y-46465952D01*
X127277380Y-46227857D01*
X127325000Y-46085000D01*
X127420238Y-45989761D01*
X127515476Y-45942142D01*
X127705952Y-45894523D01*
X127848809Y-45894523D01*
X128039285Y-45942142D01*
X128134523Y-45989761D01*
X128229761Y-46085000D01*
X128277380Y-46227857D01*
X128277380Y-46465952D01*
X127277380Y-45465952D02*
X128086904Y-45465952D01*
X128182142Y-45418333D01*
X128229761Y-45370714D01*
X128277380Y-45275476D01*
X128277380Y-45085000D01*
X128229761Y-44989761D01*
X128182142Y-44942142D01*
X128086904Y-44894523D01*
X127277380Y-44894523D01*
X127277380Y-44513571D02*
X128277380Y-43846904D01*
X127277380Y-43846904D02*
X128277380Y-44513571D01*
X127896428Y-43465952D02*
X127896428Y-42704047D01*
X127753571Y-42227857D02*
X127753571Y-41894523D01*
X128277380Y-41751666D02*
X128277380Y-42227857D01*
X127277380Y-42227857D01*
X127277380Y-41751666D01*
X105307380Y-46299285D02*
X106116904Y-46299285D01*
X106212142Y-46251666D01*
X106259761Y-46204047D01*
X106307380Y-46108809D01*
X106307380Y-45918333D01*
X106259761Y-45823095D01*
X106212142Y-45775476D01*
X106116904Y-45727857D01*
X105307380Y-45727857D01*
X106259761Y-45299285D02*
X106307380Y-45156428D01*
X106307380Y-44918333D01*
X106259761Y-44823095D01*
X106212142Y-44775476D01*
X106116904Y-44727857D01*
X106021666Y-44727857D01*
X105926428Y-44775476D01*
X105878809Y-44823095D01*
X105831190Y-44918333D01*
X105783571Y-45108809D01*
X105735952Y-45204047D01*
X105688333Y-45251666D01*
X105593095Y-45299285D01*
X105497857Y-45299285D01*
X105402619Y-45251666D01*
X105355000Y-45204047D01*
X105307380Y-45108809D01*
X105307380Y-44870714D01*
X105355000Y-44727857D01*
X105783571Y-44299285D02*
X105783571Y-43965952D01*
X106307380Y-43823095D02*
X106307380Y-44299285D01*
X105307380Y-44299285D01*
X105307380Y-43823095D01*
X107862142Y-50632619D02*
X107909761Y-50680238D01*
X107957380Y-50823095D01*
X107957380Y-50918333D01*
X107909761Y-51061190D01*
X107814523Y-51156428D01*
X107719285Y-51204047D01*
X107528809Y-51251666D01*
X107385952Y-51251666D01*
X107195476Y-51204047D01*
X107100238Y-51156428D01*
X107005000Y-51061190D01*
X106957380Y-50918333D01*
X106957380Y-50823095D01*
X107005000Y-50680238D01*
X107052619Y-50632619D01*
X107957380Y-49632619D02*
X107481190Y-49965952D01*
X107957380Y-50204047D02*
X106957380Y-50204047D01*
X106957380Y-49823095D01*
X107005000Y-49727857D01*
X107052619Y-49680238D01*
X107147857Y-49632619D01*
X107290714Y-49632619D01*
X107385952Y-49680238D01*
X107433571Y-49727857D01*
X107481190Y-49823095D01*
X107481190Y-50204047D01*
X107052619Y-49251666D02*
X107005000Y-49204047D01*
X106957380Y-49108809D01*
X106957380Y-48870714D01*
X107005000Y-48775476D01*
X107052619Y-48727857D01*
X107147857Y-48680238D01*
X107243095Y-48680238D01*
X107385952Y-48727857D01*
X107957380Y-49299285D01*
X107957380Y-48680238D01*
X106957380Y-48061190D02*
X106957380Y-47965952D01*
X107005000Y-47870714D01*
X107052619Y-47823095D01*
X107147857Y-47775476D01*
X107338333Y-47727857D01*
X107576428Y-47727857D01*
X107766904Y-47775476D01*
X107862142Y-47823095D01*
X107909761Y-47870714D01*
X107957380Y-47965952D01*
X107957380Y-48061190D01*
X107909761Y-48156428D01*
X107862142Y-48204047D01*
X107766904Y-48251666D01*
X107576428Y-48299285D01*
X107338333Y-48299285D01*
X107147857Y-48251666D01*
X107052619Y-48204047D01*
X107005000Y-48156428D01*
X106957380Y-48061190D01*
X106957380Y-47394523D02*
X106957380Y-46775476D01*
X107338333Y-47108809D01*
X107338333Y-46965952D01*
X107385952Y-46870714D01*
X107433571Y-46823095D01*
X107528809Y-46775476D01*
X107766904Y-46775476D01*
X107862142Y-46823095D01*
X107909761Y-46870714D01*
X107957380Y-46965952D01*
X107957380Y-47251666D01*
X107909761Y-47346904D01*
X107862142Y-47394523D01*
X107052619Y-46394523D02*
X107005000Y-46346904D01*
X106957380Y-46251666D01*
X106957380Y-46013571D01*
X107005000Y-45918333D01*
X107052619Y-45870714D01*
X107147857Y-45823095D01*
X107243095Y-45823095D01*
X107385952Y-45870714D01*
X107957380Y-46442142D01*
X107957380Y-45823095D01*
X107433571Y-44299285D02*
X107481190Y-44156428D01*
X107528809Y-44108809D01*
X107624047Y-44061190D01*
X107766904Y-44061190D01*
X107862142Y-44108809D01*
X107909761Y-44156428D01*
X107957380Y-44251666D01*
X107957380Y-44632619D01*
X106957380Y-44632619D01*
X106957380Y-44299285D01*
X107005000Y-44204047D01*
X107052619Y-44156428D01*
X107147857Y-44108809D01*
X107243095Y-44108809D01*
X107338333Y-44156428D01*
X107385952Y-44204047D01*
X107433571Y-44299285D01*
X107433571Y-44632619D01*
X107671666Y-43680238D02*
X107671666Y-43204047D01*
X107957380Y-43775476D02*
X106957380Y-43442142D01*
X107957380Y-43108809D01*
X106957380Y-42918333D02*
X106957380Y-42346904D01*
X107957380Y-42632619D02*
X106957380Y-42632619D01*
X106957380Y-42156428D02*
X106957380Y-41585000D01*
X107957380Y-41870714D02*
X106957380Y-41870714D01*
X107433571Y-41251666D02*
X107433571Y-40918333D01*
X107957380Y-40775476D02*
X107957380Y-41251666D01*
X106957380Y-41251666D01*
X106957380Y-40775476D01*
X107957380Y-39775476D02*
X107481190Y-40108809D01*
X107957380Y-40346904D02*
X106957380Y-40346904D01*
X106957380Y-39965952D01*
X107005000Y-39870714D01*
X107052619Y-39823095D01*
X107147857Y-39775476D01*
X107290714Y-39775476D01*
X107385952Y-39823095D01*
X107433571Y-39870714D01*
X107481190Y-39965952D01*
X107481190Y-40346904D01*
X107481190Y-39156428D02*
X107957380Y-39156428D01*
X106957380Y-39489761D02*
X107481190Y-39156428D01*
X106957380Y-38823095D01*
X110816190Y-44712380D02*
X110816190Y-43712380D01*
X111387619Y-44712380D02*
X110959047Y-44140952D01*
X111387619Y-43712380D02*
X110816190Y-44283809D01*
X111816190Y-44188571D02*
X112149523Y-44188571D01*
X112292380Y-44712380D02*
X111816190Y-44712380D01*
X111816190Y-43712380D01*
X112292380Y-43712380D01*
X112911428Y-44236190D02*
X112911428Y-44712380D01*
X112578095Y-43712380D02*
X112911428Y-44236190D01*
X113244761Y-43712380D01*
X113530476Y-44664761D02*
X113673333Y-44712380D01*
X113911428Y-44712380D01*
X114006666Y-44664761D01*
X114054285Y-44617142D01*
X114101904Y-44521904D01*
X114101904Y-44426666D01*
X114054285Y-44331428D01*
X114006666Y-44283809D01*
X113911428Y-44236190D01*
X113720952Y-44188571D01*
X113625714Y-44140952D01*
X113578095Y-44093333D01*
X113530476Y-43998095D01*
X113530476Y-43902857D01*
X113578095Y-43807619D01*
X113625714Y-43760000D01*
X113720952Y-43712380D01*
X113959047Y-43712380D01*
X114101904Y-43760000D01*
X114387619Y-43712380D02*
X114959047Y-43712380D01*
X114673333Y-44712380D02*
X114673333Y-43712380D01*
X115482857Y-43712380D02*
X115673333Y-43712380D01*
X115768571Y-43760000D01*
X115863809Y-43855238D01*
X115911428Y-44045714D01*
X115911428Y-44379047D01*
X115863809Y-44569523D01*
X115768571Y-44664761D01*
X115673333Y-44712380D01*
X115482857Y-44712380D01*
X115387619Y-44664761D01*
X115292380Y-44569523D01*
X115244761Y-44379047D01*
X115244761Y-44045714D01*
X115292380Y-43855238D01*
X115387619Y-43760000D01*
X115482857Y-43712380D01*
X116340000Y-44712380D02*
X116340000Y-43712380D01*
X116911428Y-44712380D01*
X116911428Y-43712380D01*
X117387619Y-44188571D02*
X117720952Y-44188571D01*
X117863809Y-44712380D02*
X117387619Y-44712380D01*
X117387619Y-43712380D01*
X117863809Y-43712380D01*
X119578095Y-44712380D02*
X119006666Y-44712380D01*
X119292380Y-44712380D02*
X119292380Y-43712380D01*
X119197142Y-43855238D01*
X119101904Y-43950476D01*
X119006666Y-43998095D01*
X120197142Y-43712380D02*
X120292380Y-43712380D01*
X120387619Y-43760000D01*
X120435238Y-43807619D01*
X120482857Y-43902857D01*
X120530476Y-44093333D01*
X120530476Y-44331428D01*
X120482857Y-44521904D01*
X120435238Y-44617142D01*
X120387619Y-44664761D01*
X120292380Y-44712380D01*
X120197142Y-44712380D01*
X120101904Y-44664761D01*
X120054285Y-44617142D01*
X120006666Y-44521904D01*
X119959047Y-44331428D01*
X119959047Y-44093333D01*
X120006666Y-43902857D01*
X120054285Y-43807619D01*
X120101904Y-43760000D01*
X120197142Y-43712380D01*
X121387619Y-43712380D02*
X121197142Y-43712380D01*
X121101904Y-43760000D01*
X121054285Y-43807619D01*
X120959047Y-43950476D01*
X120911428Y-44140952D01*
X120911428Y-44521904D01*
X120959047Y-44617142D01*
X121006666Y-44664761D01*
X121101904Y-44712380D01*
X121292380Y-44712380D01*
X121387619Y-44664761D01*
X121435238Y-44617142D01*
X121482857Y-44521904D01*
X121482857Y-44283809D01*
X121435238Y-44188571D01*
X121387619Y-44140952D01*
X121292380Y-44093333D01*
X121101904Y-44093333D01*
X121006666Y-44140952D01*
X120959047Y-44188571D01*
X120911428Y-44283809D01*
X122101904Y-43712380D02*
X122197142Y-43712380D01*
X122292380Y-43760000D01*
X122340000Y-43807619D01*
X122387619Y-43902857D01*
X122435238Y-44093333D01*
X122435238Y-44331428D01*
X122387619Y-44521904D01*
X122340000Y-44617142D01*
X122292380Y-44664761D01*
X122197142Y-44712380D01*
X122101904Y-44712380D01*
X122006666Y-44664761D01*
X121959047Y-44617142D01*
X121911428Y-44521904D01*
X121863809Y-44331428D01*
X121863809Y-44093333D01*
X121911428Y-43902857D01*
X121959047Y-43807619D01*
X122006666Y-43760000D01*
X122101904Y-43712380D01*
X122911428Y-44664761D02*
X122911428Y-44712380D01*
X122863809Y-44807619D01*
X122816190Y-44855238D01*
X111054285Y-46362380D02*
X110482857Y-46362380D01*
X110768571Y-46362380D02*
X110768571Y-45362380D01*
X110673333Y-45505238D01*
X110578095Y-45600476D01*
X110482857Y-45648095D01*
X111673333Y-45362380D02*
X111768571Y-45362380D01*
X111863809Y-45410000D01*
X111911428Y-45457619D01*
X111959047Y-45552857D01*
X112006666Y-45743333D01*
X112006666Y-45981428D01*
X111959047Y-46171904D01*
X111911428Y-46267142D01*
X111863809Y-46314761D01*
X111768571Y-46362380D01*
X111673333Y-46362380D01*
X111578095Y-46314761D01*
X111530476Y-46267142D01*
X111482857Y-46171904D01*
X111435238Y-45981428D01*
X111435238Y-45743333D01*
X111482857Y-45552857D01*
X111530476Y-45457619D01*
X111578095Y-45410000D01*
X111673333Y-45362380D01*
X112911428Y-45362380D02*
X112435238Y-45362380D01*
X112387619Y-45838571D01*
X112435238Y-45790952D01*
X112530476Y-45743333D01*
X112768571Y-45743333D01*
X112863809Y-45790952D01*
X112911428Y-45838571D01*
X112959047Y-45933809D01*
X112959047Y-46171904D01*
X112911428Y-46267142D01*
X112863809Y-46314761D01*
X112768571Y-46362380D01*
X112530476Y-46362380D01*
X112435238Y-46314761D01*
X112387619Y-46267142D01*
X113530476Y-45790952D02*
X113435238Y-45743333D01*
X113387619Y-45695714D01*
X113340000Y-45600476D01*
X113340000Y-45552857D01*
X113387619Y-45457619D01*
X113435238Y-45410000D01*
X113530476Y-45362380D01*
X113720952Y-45362380D01*
X113816190Y-45410000D01*
X113863809Y-45457619D01*
X113911428Y-45552857D01*
X113911428Y-45600476D01*
X113863809Y-45695714D01*
X113816190Y-45743333D01*
X113720952Y-45790952D01*
X113530476Y-45790952D01*
X113435238Y-45838571D01*
X113387619Y-45886190D01*
X113340000Y-45981428D01*
X113340000Y-46171904D01*
X113387619Y-46267142D01*
X113435238Y-46314761D01*
X113530476Y-46362380D01*
X113720952Y-46362380D01*
X113816190Y-46314761D01*
X113863809Y-46267142D01*
X113911428Y-46171904D01*
X113911428Y-45981428D01*
X113863809Y-45886190D01*
X113816190Y-45838571D01*
X113720952Y-45790952D01*
X115292380Y-45362380D02*
X115482857Y-45362380D01*
X115578095Y-45410000D01*
X115673333Y-45505238D01*
X115720952Y-45695714D01*
X115720952Y-46029047D01*
X115673333Y-46219523D01*
X115578095Y-46314761D01*
X115482857Y-46362380D01*
X115292380Y-46362380D01*
X115197142Y-46314761D01*
X115101904Y-46219523D01*
X115054285Y-46029047D01*
X115054285Y-45695714D01*
X115101904Y-45505238D01*
X115197142Y-45410000D01*
X115292380Y-45362380D01*
X116720952Y-46362380D02*
X116387619Y-45886190D01*
X116149523Y-46362380D02*
X116149523Y-45362380D01*
X116530476Y-45362380D01*
X116625714Y-45410000D01*
X116673333Y-45457619D01*
X116720952Y-45552857D01*
X116720952Y-45695714D01*
X116673333Y-45790952D01*
X116625714Y-45838571D01*
X116530476Y-45886190D01*
X116149523Y-45886190D01*
X117863809Y-46314761D02*
X118006666Y-46362380D01*
X118244761Y-46362380D01*
X118340000Y-46314761D01*
X118387619Y-46267142D01*
X118435238Y-46171904D01*
X118435238Y-46076666D01*
X118387619Y-45981428D01*
X118340000Y-45933809D01*
X118244761Y-45886190D01*
X118054285Y-45838571D01*
X117959047Y-45790952D01*
X117911428Y-45743333D01*
X117863809Y-45648095D01*
X117863809Y-45552857D01*
X117911428Y-45457619D01*
X117959047Y-45410000D01*
X118054285Y-45362380D01*
X118292380Y-45362380D01*
X118435238Y-45410000D01*
X118863809Y-46362380D02*
X118863809Y-45362380D01*
X119340000Y-46362380D02*
X119340000Y-45362380D01*
X119673333Y-46076666D01*
X120006666Y-45362380D01*
X120006666Y-46362380D01*
X120482857Y-46362380D02*
X120482857Y-45362380D01*
X121435238Y-46362380D02*
X120959047Y-46362380D01*
X120959047Y-45362380D01*
X121720952Y-46076666D02*
X122197142Y-46076666D01*
X121625714Y-46362380D02*
X121959047Y-45362380D01*
X122292380Y-46362380D01*
X123197142Y-46362380D02*
X122863809Y-45886190D01*
X122625714Y-46362380D02*
X122625714Y-45362380D01*
X123006666Y-45362380D01*
X123101904Y-45410000D01*
X123149523Y-45457619D01*
X123197142Y-45552857D01*
X123197142Y-45695714D01*
X123149523Y-45790952D01*
X123101904Y-45838571D01*
X123006666Y-45886190D01*
X122625714Y-45886190D01*
D14*
%TO.C,Y1*%
X114975000Y-72630000D02*
X113625000Y-72630000D01*
X114975000Y-70880000D02*
X113625000Y-70880000D01*
%TO.C,BAT1*%
X122840000Y-57085000D02*
X122840000Y-59085000D01*
X121840000Y-58085000D02*
X123840000Y-58085000D01*
X108490000Y-33735000D02*
X112990000Y-33735000D01*
X108490000Y-56435000D02*
X112990000Y-56435000D01*
X108490000Y-56435000D02*
X108490000Y-33735000D01*
X112990000Y-30535000D02*
X114540000Y-30535000D01*
X112990000Y-33735000D02*
X112990000Y-30535000D01*
X112990000Y-59635000D02*
X114540000Y-59635000D01*
X112990000Y-56435000D02*
X112990000Y-59635000D01*
X120690000Y-59635000D02*
X119140000Y-59635000D01*
X120690000Y-56435000D02*
X120690000Y-59635000D01*
X125190000Y-54635000D02*
X123390000Y-56435000D01*
X123390000Y-56435000D02*
X120690000Y-56435000D01*
X125190000Y-33735000D02*
X125190000Y-54635000D01*
X125190000Y-33735000D02*
X120690000Y-33735000D01*
X120690000Y-30535000D02*
X119140000Y-30535000D01*
X120690000Y-33735000D02*
X120690000Y-30535000D01*
%TO.C,C1*%
X118821252Y-66400000D02*
X117398748Y-66400000D01*
X118821252Y-68220000D02*
X117398748Y-68220000D01*
%TO.C,U1*%
X117110000Y-62170000D02*
X111650000Y-62170000D01*
X111650000Y-62170000D02*
X111650000Y-97850000D01*
X111650000Y-97850000D02*
X124570000Y-97850000D01*
X124570000Y-97850000D02*
X124570000Y-62170000D01*
X124570000Y-62170000D02*
X119110000Y-62170000D01*
X109160000Y-62110000D02*
X109160000Y-97910000D01*
X109160000Y-97910000D02*
X127060000Y-97910000D01*
X127060000Y-97910000D02*
X127060000Y-62110000D01*
X127060000Y-62110000D02*
X109160000Y-62110000D01*
X119110000Y-62170000D02*
G75*
G02*
X117110000Y-62170000I-1000000J0D01*
G01*
%TO.C,U2*%
X115840000Y-73600000D02*
X114190000Y-73600000D01*
X114190000Y-73600000D02*
X114190000Y-94040000D01*
X114190000Y-94040000D02*
X119490000Y-94040000D01*
X119490000Y-94040000D02*
X119490000Y-73600000D01*
X119490000Y-73600000D02*
X117840000Y-73600000D01*
X117840000Y-73600000D02*
G75*
G02*
X115840000Y-73600000I-1000000J0D01*
G01*
%TO.C,Y1*%
D10*
X112553809Y-68556190D02*
X112553809Y-69032380D01*
X112220476Y-68032380D02*
X112553809Y-68556190D01*
X112887142Y-68032380D01*
X113744285Y-69032380D02*
X113172857Y-69032380D01*
X113458571Y-69032380D02*
X113458571Y-68032380D01*
X113363333Y-68175238D01*
X113268095Y-68270476D01*
X113172857Y-68318095D01*
X111919285Y-69302380D02*
X112538333Y-69302380D01*
X112205000Y-69683333D01*
X112347857Y-69683333D01*
X112443095Y-69730952D01*
X112490714Y-69778571D01*
X112538333Y-69873809D01*
X112538333Y-70111904D01*
X112490714Y-70207142D01*
X112443095Y-70254761D01*
X112347857Y-70302380D01*
X112062142Y-70302380D01*
X111966904Y-70254761D01*
X111919285Y-70207142D01*
X112919285Y-69397619D02*
X112966904Y-69350000D01*
X113062142Y-69302380D01*
X113300238Y-69302380D01*
X113395476Y-69350000D01*
X113443095Y-69397619D01*
X113490714Y-69492857D01*
X113490714Y-69588095D01*
X113443095Y-69730952D01*
X112871666Y-70302380D01*
X113490714Y-70302380D01*
X113919285Y-70207142D02*
X113966904Y-70254761D01*
X113919285Y-70302380D01*
X113871666Y-70254761D01*
X113919285Y-70207142D01*
X113919285Y-70302380D01*
X114300238Y-69302380D02*
X114966904Y-69302380D01*
X114538333Y-70302380D01*
X115776428Y-69302380D02*
X115585952Y-69302380D01*
X115490714Y-69350000D01*
X115443095Y-69397619D01*
X115347857Y-69540476D01*
X115300238Y-69730952D01*
X115300238Y-70111904D01*
X115347857Y-70207142D01*
X115395476Y-70254761D01*
X115490714Y-70302380D01*
X115681190Y-70302380D01*
X115776428Y-70254761D01*
X115824047Y-70207142D01*
X115871666Y-70111904D01*
X115871666Y-69873809D01*
X115824047Y-69778571D01*
X115776428Y-69730952D01*
X115681190Y-69683333D01*
X115490714Y-69683333D01*
X115395476Y-69730952D01*
X115347857Y-69778571D01*
X115300238Y-69873809D01*
X116443095Y-69730952D02*
X116347857Y-69683333D01*
X116300238Y-69635714D01*
X116252619Y-69540476D01*
X116252619Y-69492857D01*
X116300238Y-69397619D01*
X116347857Y-69350000D01*
X116443095Y-69302380D01*
X116633571Y-69302380D01*
X116728809Y-69350000D01*
X116776428Y-69397619D01*
X116824047Y-69492857D01*
X116824047Y-69540476D01*
X116776428Y-69635714D01*
X116728809Y-69683333D01*
X116633571Y-69730952D01*
X116443095Y-69730952D01*
X116347857Y-69778571D01*
X116300238Y-69826190D01*
X116252619Y-69921428D01*
X116252619Y-70111904D01*
X116300238Y-70207142D01*
X116347857Y-70254761D01*
X116443095Y-70302380D01*
X116633571Y-70302380D01*
X116728809Y-70254761D01*
X116776428Y-70207142D01*
X116824047Y-70111904D01*
X116824047Y-69921428D01*
X116776428Y-69826190D01*
X116728809Y-69778571D01*
X116633571Y-69730952D01*
X118014523Y-70302380D02*
X118014523Y-69302380D01*
X118585952Y-70302380D02*
X118157380Y-69730952D01*
X118585952Y-69302380D02*
X118014523Y-69873809D01*
X119014523Y-70302380D02*
X119014523Y-69302380D01*
X119014523Y-69778571D02*
X119585952Y-69778571D01*
X119585952Y-70302380D02*
X119585952Y-69302380D01*
X119966904Y-69635714D02*
X120490714Y-69635714D01*
X119966904Y-70302380D01*
X120490714Y-70302380D01*
%TO.C,BAT1*%
X111468571Y-60424285D02*
X111516190Y-60281428D01*
X111563809Y-60233809D01*
X111659047Y-60186190D01*
X111801904Y-60186190D01*
X111897142Y-60233809D01*
X111944761Y-60281428D01*
X111992380Y-60376666D01*
X111992380Y-60757619D01*
X110992380Y-60757619D01*
X110992380Y-60424285D01*
X111040000Y-60329047D01*
X111087619Y-60281428D01*
X111182857Y-60233809D01*
X111278095Y-60233809D01*
X111373333Y-60281428D01*
X111420952Y-60329047D01*
X111468571Y-60424285D01*
X111468571Y-60757619D01*
X111706666Y-59805238D02*
X111706666Y-59329047D01*
X111992380Y-59900476D02*
X110992380Y-59567142D01*
X111992380Y-59233809D01*
X110992380Y-59043333D02*
X110992380Y-58471904D01*
X111992380Y-58757619D02*
X110992380Y-58757619D01*
X111992380Y-57614761D02*
X111992380Y-58186190D01*
X111992380Y-57900476D02*
X110992380Y-57900476D01*
X111135238Y-57995714D01*
X111230476Y-58090952D01*
X111278095Y-58186190D01*
%TO.C,C1*%
X116038333Y-65762142D02*
X115990714Y-65809761D01*
X115847857Y-65857380D01*
X115752619Y-65857380D01*
X115609761Y-65809761D01*
X115514523Y-65714523D01*
X115466904Y-65619285D01*
X115419285Y-65428809D01*
X115419285Y-65285952D01*
X115466904Y-65095476D01*
X115514523Y-65000238D01*
X115609761Y-64905000D01*
X115752619Y-64857380D01*
X115847857Y-64857380D01*
X115990714Y-64905000D01*
X116038333Y-64952619D01*
X116990714Y-65857380D02*
X116419285Y-65857380D01*
X116705000Y-65857380D02*
X116705000Y-64857380D01*
X116609761Y-65000238D01*
X116514523Y-65095476D01*
X116419285Y-65143095D01*
X118372142Y-64912380D02*
X118467380Y-64912380D01*
X118562619Y-64960000D01*
X118610238Y-65007619D01*
X118657857Y-65102857D01*
X118705476Y-65293333D01*
X118705476Y-65531428D01*
X118657857Y-65721904D01*
X118610238Y-65817142D01*
X118562619Y-65864761D01*
X118467380Y-65912380D01*
X118372142Y-65912380D01*
X118276904Y-65864761D01*
X118229285Y-65817142D01*
X118181666Y-65721904D01*
X118134047Y-65531428D01*
X118134047Y-65293333D01*
X118181666Y-65102857D01*
X118229285Y-65007619D01*
X118276904Y-64960000D01*
X118372142Y-64912380D01*
X119134047Y-65817142D02*
X119181666Y-65864761D01*
X119134047Y-65912380D01*
X119086428Y-65864761D01*
X119134047Y-65817142D01*
X119134047Y-65912380D01*
X120134047Y-65912380D02*
X119562619Y-65912380D01*
X119848333Y-65912380D02*
X119848333Y-64912380D01*
X119753095Y-65055238D01*
X119657857Y-65150476D01*
X119562619Y-65198095D01*
X120991190Y-65245714D02*
X120991190Y-65912380D01*
X120562619Y-65245714D02*
X120562619Y-65769523D01*
X120610238Y-65864761D01*
X120705476Y-65912380D01*
X120848333Y-65912380D01*
X120943571Y-65864761D01*
X120991190Y-65817142D01*
X121800714Y-65388571D02*
X121467380Y-65388571D01*
X121467380Y-65912380D02*
X121467380Y-64912380D01*
X121943571Y-64912380D01*
%TO.C,CN1*%
X119959523Y-63857142D02*
X119911904Y-63904761D01*
X119769047Y-63952380D01*
X119673809Y-63952380D01*
X119530952Y-63904761D01*
X119435714Y-63809523D01*
X119388095Y-63714285D01*
X119340476Y-63523809D01*
X119340476Y-63380952D01*
X119388095Y-63190476D01*
X119435714Y-63095238D01*
X119530952Y-63000000D01*
X119673809Y-62952380D01*
X119769047Y-62952380D01*
X119911904Y-63000000D01*
X119959523Y-63047619D01*
X120388095Y-63952380D02*
X120388095Y-62952380D01*
X120959523Y-63952380D01*
X120959523Y-62952380D01*
X121959523Y-63952380D02*
X121388095Y-63952380D01*
X121673809Y-63952380D02*
X121673809Y-62952380D01*
X121578571Y-63095238D01*
X121483333Y-63190476D01*
X121388095Y-63238095D01*
%TO.C,U1*%
X112268095Y-62952380D02*
X112268095Y-63761904D01*
X112315714Y-63857142D01*
X112363333Y-63904761D01*
X112458571Y-63952380D01*
X112649047Y-63952380D01*
X112744285Y-63904761D01*
X112791904Y-63857142D01*
X112839523Y-63761904D01*
X112839523Y-62952380D01*
X113839523Y-63952380D02*
X113268095Y-63952380D01*
X113553809Y-63952380D02*
X113553809Y-62952380D01*
X113458571Y-63095238D01*
X113363333Y-63190476D01*
X113268095Y-63238095D01*
%TO.C,U2*%
X116078095Y-94448380D02*
X116078095Y-95257904D01*
X116125714Y-95353142D01*
X116173333Y-95400761D01*
X116268571Y-95448380D01*
X116459047Y-95448380D01*
X116554285Y-95400761D01*
X116601904Y-95353142D01*
X116649523Y-95257904D01*
X116649523Y-94448380D01*
X117078095Y-94543619D02*
X117125714Y-94496000D01*
X117220952Y-94448380D01*
X117459047Y-94448380D01*
X117554285Y-94496000D01*
X117601904Y-94543619D01*
X117649523Y-94638857D01*
X117649523Y-94734095D01*
X117601904Y-94876952D01*
X117030476Y-95448380D01*
X117649523Y-95448380D01*
X114832142Y-96972380D02*
X114832142Y-95972380D01*
X115070238Y-95972380D01*
X115213095Y-96020000D01*
X115308333Y-96115238D01*
X115355952Y-96210476D01*
X115403571Y-96400952D01*
X115403571Y-96543809D01*
X115355952Y-96734285D01*
X115308333Y-96829523D01*
X115213095Y-96924761D01*
X115070238Y-96972380D01*
X114832142Y-96972380D01*
X115784523Y-96924761D02*
X115927380Y-96972380D01*
X116165476Y-96972380D01*
X116260714Y-96924761D01*
X116308333Y-96877142D01*
X116355952Y-96781904D01*
X116355952Y-96686666D01*
X116308333Y-96591428D01*
X116260714Y-96543809D01*
X116165476Y-96496190D01*
X115975000Y-96448571D01*
X115879761Y-96400952D01*
X115832142Y-96353333D01*
X115784523Y-96258095D01*
X115784523Y-96162857D01*
X115832142Y-96067619D01*
X115879761Y-96020000D01*
X115975000Y-95972380D01*
X116213095Y-95972380D01*
X116355952Y-96020000D01*
X117308333Y-96972380D02*
X116736904Y-96972380D01*
X117022619Y-96972380D02*
X117022619Y-95972380D01*
X116927380Y-96115238D01*
X116832142Y-96210476D01*
X116736904Y-96258095D01*
X117641666Y-95972380D02*
X118260714Y-95972380D01*
X117927380Y-96353333D01*
X118070238Y-96353333D01*
X118165476Y-96400952D01*
X118213095Y-96448571D01*
X118260714Y-96543809D01*
X118260714Y-96781904D01*
X118213095Y-96877142D01*
X118165476Y-96924761D01*
X118070238Y-96972380D01*
X117784523Y-96972380D01*
X117689285Y-96924761D01*
X117641666Y-96877142D01*
X119213095Y-96972380D02*
X118641666Y-96972380D01*
X118927380Y-96972380D02*
X118927380Y-95972380D01*
X118832142Y-96115238D01*
X118736904Y-96210476D01*
X118641666Y-96258095D01*
X120117857Y-95972380D02*
X119641666Y-95972380D01*
X119594047Y-96448571D01*
X119641666Y-96400952D01*
X119736904Y-96353333D01*
X119975000Y-96353333D01*
X120070238Y-96400952D01*
X120117857Y-96448571D01*
X120165476Y-96543809D01*
X120165476Y-96781904D01*
X120117857Y-96877142D01*
X120070238Y-96924761D01*
X119975000Y-96972380D01*
X119736904Y-96972380D01*
X119641666Y-96924761D01*
X119594047Y-96877142D01*
%TD*%
M02*
