%TF.GenerationSoftware,KiCad,Pcbnew,(5.1.9)-1*%
%TF.CreationDate,2021-04-02T22:01:47+08:00*%
%TF.ProjectId,SmartWatchRedux-E,536d6172-7457-4617-9463-685265647578,rev?*%
%TF.SameCoordinates,Original*%
%TF.FileFunction,Legend,Bot*%
%TF.FilePolarity,Positive*%
%FSLAX46Y46*%
G04 Gerber Fmt 4.6, Leading zero omitted, Abs format (unit mm)*
G04 Created by KiCad (PCBNEW (5.1.9)-1) date 2021-04-02 22:01:47*
%MOMM*%
%LPD*%
G01*
G04 APERTURE LIST*
%ADD10C,0.250000*%
%ADD11C,0.150000*%
G04 APERTURE END LIST*
D10*
X112776000Y-38608000D02*
X114808000Y-38608000D01*
X114808000Y-38608000D02*
X114300000Y-39116000D01*
X114808000Y-38608000D02*
X114300000Y-38100000D01*
D11*
X111465357Y-42322333D02*
X111417738Y-42369952D01*
X111370119Y-42512809D01*
X111370119Y-42608047D01*
X111417738Y-42750904D01*
X111512976Y-42846142D01*
X111608214Y-42893761D01*
X111798690Y-42941380D01*
X111941547Y-42941380D01*
X112132023Y-42893761D01*
X112227261Y-42846142D01*
X112322500Y-42750904D01*
X112370119Y-42608047D01*
X112370119Y-42512809D01*
X112322500Y-42369952D01*
X112274880Y-42322333D01*
X112370119Y-41893761D02*
X111560595Y-41893761D01*
X111465357Y-41846142D01*
X111417738Y-41798523D01*
X111370119Y-41703285D01*
X111370119Y-41512809D01*
X111417738Y-41417571D01*
X111465357Y-41369952D01*
X111560595Y-41322333D01*
X112370119Y-41322333D01*
X112370119Y-40989000D02*
X112370119Y-40417571D01*
X111370119Y-40703285D02*
X112370119Y-40703285D01*
X111893928Y-38989000D02*
X111893928Y-39322333D01*
X111370119Y-39322333D02*
X112370119Y-39322333D01*
X112370119Y-38846142D01*
X111370119Y-37989000D02*
X111370119Y-38465190D01*
X112370119Y-38465190D01*
X112370119Y-37655666D02*
X111560595Y-37655666D01*
X111465357Y-37608047D01*
X111417738Y-37560428D01*
X111370119Y-37465190D01*
X111370119Y-37274714D01*
X111417738Y-37179476D01*
X111465357Y-37131857D01*
X111560595Y-37084238D01*
X112370119Y-37084238D01*
X111417738Y-36655666D02*
X111370119Y-36512809D01*
X111370119Y-36274714D01*
X111417738Y-36179476D01*
X111465357Y-36131857D01*
X111560595Y-36084238D01*
X111655833Y-36084238D01*
X111751071Y-36131857D01*
X111798690Y-36179476D01*
X111846309Y-36274714D01*
X111893928Y-36465190D01*
X111941547Y-36560428D01*
X111989166Y-36608047D01*
X112084404Y-36655666D01*
X112179642Y-36655666D01*
X112274880Y-36608047D01*
X112322500Y-36560428D01*
X112370119Y-36465190D01*
X112370119Y-36227095D01*
X112322500Y-36084238D01*
X111370119Y-35655666D02*
X112370119Y-35655666D01*
X111893928Y-35655666D02*
X111893928Y-35084238D01*
X111370119Y-35084238D02*
X112370119Y-35084238D01*
X110243928Y-41274714D02*
X110196309Y-41131857D01*
X110148690Y-41084238D01*
X110053452Y-41036619D01*
X109910595Y-41036619D01*
X109815357Y-41084238D01*
X109767738Y-41131857D01*
X109720119Y-41227095D01*
X109720119Y-41608047D01*
X110720119Y-41608047D01*
X110720119Y-41274714D01*
X110672500Y-41179476D01*
X110624880Y-41131857D01*
X110529642Y-41084238D01*
X110434404Y-41084238D01*
X110339166Y-41131857D01*
X110291547Y-41179476D01*
X110243928Y-41274714D01*
X110243928Y-41608047D01*
X110243928Y-40608047D02*
X110243928Y-40274714D01*
X109720119Y-40131857D02*
X109720119Y-40608047D01*
X110720119Y-40608047D01*
X110720119Y-40131857D01*
X110243928Y-39369952D02*
X110243928Y-39703285D01*
X109720119Y-39703285D02*
X110720119Y-39703285D01*
X110720119Y-39227095D01*
X110720119Y-38655666D02*
X110720119Y-38465190D01*
X110672500Y-38369952D01*
X110577261Y-38274714D01*
X110386785Y-38227095D01*
X110053452Y-38227095D01*
X109862976Y-38274714D01*
X109767738Y-38369952D01*
X109720119Y-38465190D01*
X109720119Y-38655666D01*
X109767738Y-38750904D01*
X109862976Y-38846142D01*
X110053452Y-38893761D01*
X110386785Y-38893761D01*
X110577261Y-38846142D01*
X110672500Y-38750904D01*
X110720119Y-38655666D01*
X109720119Y-37227095D02*
X110196309Y-37560428D01*
X109720119Y-37798523D02*
X110720119Y-37798523D01*
X110720119Y-37417571D01*
X110672500Y-37322333D01*
X110624880Y-37274714D01*
X110529642Y-37227095D01*
X110386785Y-37227095D01*
X110291547Y-37274714D01*
X110243928Y-37322333D01*
X110196309Y-37417571D01*
X110196309Y-37798523D01*
X110243928Y-36798523D02*
X110243928Y-36465190D01*
X109720119Y-36322333D02*
X109720119Y-36798523D01*
X110720119Y-36798523D01*
X110720119Y-36322333D01*
X108117738Y-42917571D02*
X108070119Y-42774714D01*
X108070119Y-42536619D01*
X108117738Y-42441380D01*
X108165357Y-42393761D01*
X108260595Y-42346142D01*
X108355833Y-42346142D01*
X108451071Y-42393761D01*
X108498690Y-42441380D01*
X108546309Y-42536619D01*
X108593928Y-42727095D01*
X108641547Y-42822333D01*
X108689166Y-42869952D01*
X108784404Y-42917571D01*
X108879642Y-42917571D01*
X108974880Y-42869952D01*
X109022500Y-42822333D01*
X109070119Y-42727095D01*
X109070119Y-42489000D01*
X109022500Y-42346142D01*
X109070119Y-41727095D02*
X109070119Y-41536619D01*
X109022500Y-41441380D01*
X108927261Y-41346142D01*
X108736785Y-41298523D01*
X108403452Y-41298523D01*
X108212976Y-41346142D01*
X108117738Y-41441380D01*
X108070119Y-41536619D01*
X108070119Y-41727095D01*
X108117738Y-41822333D01*
X108212976Y-41917571D01*
X108403452Y-41965190D01*
X108736785Y-41965190D01*
X108927261Y-41917571D01*
X109022500Y-41822333D01*
X109070119Y-41727095D01*
X108070119Y-40393761D02*
X108070119Y-40869952D01*
X109070119Y-40869952D01*
X108070119Y-40060428D02*
X109070119Y-40060428D01*
X109070119Y-39822333D01*
X109022500Y-39679476D01*
X108927261Y-39584238D01*
X108832023Y-39536619D01*
X108641547Y-39489000D01*
X108498690Y-39489000D01*
X108308214Y-39536619D01*
X108212976Y-39584238D01*
X108117738Y-39679476D01*
X108070119Y-39822333D01*
X108070119Y-40060428D01*
X108593928Y-39060428D02*
X108593928Y-38727095D01*
X108070119Y-38584238D02*
X108070119Y-39060428D01*
X109070119Y-39060428D01*
X109070119Y-38584238D01*
X108070119Y-37584238D02*
X108546309Y-37917571D01*
X108070119Y-38155666D02*
X109070119Y-38155666D01*
X109070119Y-37774714D01*
X109022500Y-37679476D01*
X108974880Y-37631857D01*
X108879642Y-37584238D01*
X108736785Y-37584238D01*
X108641547Y-37631857D01*
X108593928Y-37679476D01*
X108546309Y-37774714D01*
X108546309Y-38155666D01*
X108070119Y-37155666D02*
X109070119Y-37155666D01*
X108070119Y-36679476D02*
X109070119Y-36679476D01*
X108070119Y-36108047D01*
X109070119Y-36108047D01*
X109022500Y-35108047D02*
X109070119Y-35203285D01*
X109070119Y-35346142D01*
X109022500Y-35489000D01*
X108927261Y-35584238D01*
X108832023Y-35631857D01*
X108641547Y-35679476D01*
X108498690Y-35679476D01*
X108308214Y-35631857D01*
X108212976Y-35584238D01*
X108117738Y-35489000D01*
X108070119Y-35346142D01*
X108070119Y-35250904D01*
X108117738Y-35108047D01*
X108165357Y-35060428D01*
X108498690Y-35060428D01*
X108498690Y-35250904D01*
X117212619Y-94914404D02*
X118212619Y-94914404D01*
X117212619Y-94485833D02*
X117736428Y-94485833D01*
X117831666Y-94533452D01*
X117879285Y-94628690D01*
X117879285Y-94771547D01*
X117831666Y-94866785D01*
X117784047Y-94914404D01*
X117879285Y-94152500D02*
X117879285Y-93771547D01*
X118212619Y-94009642D02*
X117355476Y-94009642D01*
X117260238Y-93962023D01*
X117212619Y-93866785D01*
X117212619Y-93771547D01*
X117879285Y-93581071D02*
X117879285Y-93200119D01*
X118212619Y-93438214D02*
X117355476Y-93438214D01*
X117260238Y-93390595D01*
X117212619Y-93295357D01*
X117212619Y-93200119D01*
X117879285Y-92866785D02*
X116879285Y-92866785D01*
X117831666Y-92866785D02*
X117879285Y-92771547D01*
X117879285Y-92581071D01*
X117831666Y-92485833D01*
X117784047Y-92438214D01*
X117688809Y-92390595D01*
X117403095Y-92390595D01*
X117307857Y-92438214D01*
X117260238Y-92485833D01*
X117212619Y-92581071D01*
X117212619Y-92771547D01*
X117260238Y-92866785D01*
X117260238Y-92009642D02*
X117212619Y-91914404D01*
X117212619Y-91723928D01*
X117260238Y-91628690D01*
X117355476Y-91581071D01*
X117403095Y-91581071D01*
X117498333Y-91628690D01*
X117545952Y-91723928D01*
X117545952Y-91866785D01*
X117593571Y-91962023D01*
X117688809Y-92009642D01*
X117736428Y-92009642D01*
X117831666Y-91962023D01*
X117879285Y-91866785D01*
X117879285Y-91723928D01*
X117831666Y-91628690D01*
X117307857Y-91152500D02*
X117260238Y-91104880D01*
X117212619Y-91152500D01*
X117260238Y-91200119D01*
X117307857Y-91152500D01*
X117212619Y-91152500D01*
X117831666Y-91152500D02*
X117784047Y-91104880D01*
X117736428Y-91152500D01*
X117784047Y-91200119D01*
X117831666Y-91152500D01*
X117736428Y-91152500D01*
X118260238Y-89962023D02*
X116974523Y-90819166D01*
X118260238Y-88914404D02*
X116974523Y-89771547D01*
X117879285Y-88152500D02*
X117069761Y-88152500D01*
X116974523Y-88200119D01*
X116926904Y-88247738D01*
X116879285Y-88342976D01*
X116879285Y-88485833D01*
X116926904Y-88581071D01*
X117260238Y-88152500D02*
X117212619Y-88247738D01*
X117212619Y-88438214D01*
X117260238Y-88533452D01*
X117307857Y-88581071D01*
X117403095Y-88628690D01*
X117688809Y-88628690D01*
X117784047Y-88581071D01*
X117831666Y-88533452D01*
X117879285Y-88438214D01*
X117879285Y-88247738D01*
X117831666Y-88152500D01*
X117212619Y-87676309D02*
X117879285Y-87676309D01*
X118212619Y-87676309D02*
X118165000Y-87723928D01*
X118117380Y-87676309D01*
X118165000Y-87628690D01*
X118212619Y-87676309D01*
X118117380Y-87676309D01*
X117879285Y-87342976D02*
X117879285Y-86962023D01*
X118212619Y-87200119D02*
X117355476Y-87200119D01*
X117260238Y-87152500D01*
X117212619Y-87057261D01*
X117212619Y-86962023D01*
X117212619Y-86628690D02*
X118212619Y-86628690D01*
X117212619Y-86200119D02*
X117736428Y-86200119D01*
X117831666Y-86247738D01*
X117879285Y-86342976D01*
X117879285Y-86485833D01*
X117831666Y-86581071D01*
X117784047Y-86628690D01*
X117879285Y-85295357D02*
X117212619Y-85295357D01*
X117879285Y-85723928D02*
X117355476Y-85723928D01*
X117260238Y-85676309D01*
X117212619Y-85581071D01*
X117212619Y-85438214D01*
X117260238Y-85342976D01*
X117307857Y-85295357D01*
X117212619Y-84819166D02*
X118212619Y-84819166D01*
X117831666Y-84819166D02*
X117879285Y-84723928D01*
X117879285Y-84533452D01*
X117831666Y-84438214D01*
X117784047Y-84390595D01*
X117688809Y-84342976D01*
X117403095Y-84342976D01*
X117307857Y-84390595D01*
X117260238Y-84438214D01*
X117212619Y-84533452D01*
X117212619Y-84723928D01*
X117260238Y-84819166D01*
X117307857Y-83914404D02*
X117260238Y-83866785D01*
X117212619Y-83914404D01*
X117260238Y-83962023D01*
X117307857Y-83914404D01*
X117212619Y-83914404D01*
X117260238Y-83009642D02*
X117212619Y-83104880D01*
X117212619Y-83295357D01*
X117260238Y-83390595D01*
X117307857Y-83438214D01*
X117403095Y-83485833D01*
X117688809Y-83485833D01*
X117784047Y-83438214D01*
X117831666Y-83390595D01*
X117879285Y-83295357D01*
X117879285Y-83104880D01*
X117831666Y-83009642D01*
X117212619Y-82438214D02*
X117260238Y-82533452D01*
X117307857Y-82581071D01*
X117403095Y-82628690D01*
X117688809Y-82628690D01*
X117784047Y-82581071D01*
X117831666Y-82533452D01*
X117879285Y-82438214D01*
X117879285Y-82295357D01*
X117831666Y-82200119D01*
X117784047Y-82152500D01*
X117688809Y-82104880D01*
X117403095Y-82104880D01*
X117307857Y-82152500D01*
X117260238Y-82200119D01*
X117212619Y-82295357D01*
X117212619Y-82438214D01*
X117212619Y-81676309D02*
X117879285Y-81676309D01*
X117784047Y-81676309D02*
X117831666Y-81628690D01*
X117879285Y-81533452D01*
X117879285Y-81390595D01*
X117831666Y-81295357D01*
X117736428Y-81247738D01*
X117212619Y-81247738D01*
X117736428Y-81247738D02*
X117831666Y-81200119D01*
X117879285Y-81104880D01*
X117879285Y-80962023D01*
X117831666Y-80866785D01*
X117736428Y-80819166D01*
X117212619Y-80819166D01*
X118260238Y-79628690D02*
X116974523Y-80485833D01*
X116562619Y-94628690D02*
X115848333Y-94628690D01*
X115705476Y-94676309D01*
X115610238Y-94771547D01*
X115562619Y-94914404D01*
X115562619Y-95009642D01*
X115562619Y-93723928D02*
X116086428Y-93723928D01*
X116181666Y-93771547D01*
X116229285Y-93866785D01*
X116229285Y-94057261D01*
X116181666Y-94152500D01*
X115610238Y-93723928D02*
X115562619Y-93819166D01*
X115562619Y-94057261D01*
X115610238Y-94152500D01*
X115705476Y-94200119D01*
X115800714Y-94200119D01*
X115895952Y-94152500D01*
X115943571Y-94057261D01*
X115943571Y-93819166D01*
X115991190Y-93723928D01*
X116229285Y-93342976D02*
X115562619Y-93104880D01*
X116229285Y-92866785D02*
X115562619Y-93104880D01*
X115324523Y-93200119D01*
X115276904Y-93247738D01*
X115229285Y-93342976D01*
X115610238Y-92104880D02*
X115562619Y-92200119D01*
X115562619Y-92390595D01*
X115610238Y-92485833D01*
X115705476Y-92533452D01*
X116086428Y-92533452D01*
X116181666Y-92485833D01*
X116229285Y-92390595D01*
X116229285Y-92200119D01*
X116181666Y-92104880D01*
X116086428Y-92057261D01*
X115991190Y-92057261D01*
X115895952Y-92533452D01*
X115610238Y-91676309D02*
X115562619Y-91581071D01*
X115562619Y-91390595D01*
X115610238Y-91295357D01*
X115705476Y-91247738D01*
X115753095Y-91247738D01*
X115848333Y-91295357D01*
X115895952Y-91390595D01*
X115895952Y-91533452D01*
X115943571Y-91628690D01*
X116038809Y-91676309D01*
X116086428Y-91676309D01*
X116181666Y-91628690D01*
X116229285Y-91533452D01*
X116229285Y-91390595D01*
X116181666Y-91295357D01*
X115562619Y-90676309D02*
X115610238Y-90771547D01*
X115657857Y-90819166D01*
X115753095Y-90866785D01*
X116038809Y-90866785D01*
X116134047Y-90819166D01*
X116181666Y-90771547D01*
X116229285Y-90676309D01*
X116229285Y-90533452D01*
X116181666Y-90438214D01*
X116134047Y-90390595D01*
X116038809Y-90342976D01*
X115753095Y-90342976D01*
X115657857Y-90390595D01*
X115610238Y-90438214D01*
X115562619Y-90533452D01*
X115562619Y-90676309D01*
X116229285Y-89914404D02*
X115562619Y-89914404D01*
X116134047Y-89914404D02*
X116181666Y-89866785D01*
X116229285Y-89771547D01*
X116229285Y-89628690D01*
X116181666Y-89533452D01*
X116086428Y-89485833D01*
X115562619Y-89485833D01*
X115562619Y-88533452D02*
X115562619Y-89009642D01*
X116562619Y-89009642D01*
X115610238Y-88247738D02*
X115562619Y-88104880D01*
X115562619Y-87866785D01*
X115610238Y-87771547D01*
X115657857Y-87723928D01*
X115753095Y-87676309D01*
X115848333Y-87676309D01*
X115943571Y-87723928D01*
X115991190Y-87771547D01*
X116038809Y-87866785D01*
X116086428Y-88057261D01*
X116134047Y-88152500D01*
X116181666Y-88200119D01*
X116276904Y-88247738D01*
X116372142Y-88247738D01*
X116467380Y-88200119D01*
X116515000Y-88152500D01*
X116562619Y-88057261D01*
X116562619Y-87819166D01*
X116515000Y-87676309D01*
X116610238Y-86533452D02*
X115324523Y-87390595D01*
X115610238Y-86247738D02*
X115562619Y-86104880D01*
X115562619Y-85866785D01*
X115610238Y-85771547D01*
X115657857Y-85723928D01*
X115753095Y-85676309D01*
X115848333Y-85676309D01*
X115943571Y-85723928D01*
X115991190Y-85771547D01*
X116038809Y-85866785D01*
X116086428Y-86057261D01*
X116134047Y-86152500D01*
X116181666Y-86200119D01*
X116276904Y-86247738D01*
X116372142Y-86247738D01*
X116467380Y-86200119D01*
X116515000Y-86152500D01*
X116562619Y-86057261D01*
X116562619Y-85819166D01*
X116515000Y-85676309D01*
X115562619Y-85247738D02*
X116229285Y-85247738D01*
X116134047Y-85247738D02*
X116181666Y-85200119D01*
X116229285Y-85104880D01*
X116229285Y-84962023D01*
X116181666Y-84866785D01*
X116086428Y-84819166D01*
X115562619Y-84819166D01*
X116086428Y-84819166D02*
X116181666Y-84771547D01*
X116229285Y-84676309D01*
X116229285Y-84533452D01*
X116181666Y-84438214D01*
X116086428Y-84390595D01*
X115562619Y-84390595D01*
X115562619Y-83485833D02*
X116086428Y-83485833D01*
X116181666Y-83533452D01*
X116229285Y-83628690D01*
X116229285Y-83819166D01*
X116181666Y-83914404D01*
X115610238Y-83485833D02*
X115562619Y-83581071D01*
X115562619Y-83819166D01*
X115610238Y-83914404D01*
X115705476Y-83962023D01*
X115800714Y-83962023D01*
X115895952Y-83914404D01*
X115943571Y-83819166D01*
X115943571Y-83581071D01*
X115991190Y-83485833D01*
X115562619Y-83009642D02*
X116229285Y-83009642D01*
X116038809Y-83009642D02*
X116134047Y-82962023D01*
X116181666Y-82914404D01*
X116229285Y-82819166D01*
X116229285Y-82723928D01*
X116229285Y-82533452D02*
X116229285Y-82152500D01*
X116562619Y-82390595D02*
X115705476Y-82390595D01*
X115610238Y-82342976D01*
X115562619Y-82247738D01*
X115562619Y-82152500D01*
X116562619Y-81914404D02*
X115562619Y-81676309D01*
X116276904Y-81485833D01*
X115562619Y-81295357D01*
X116562619Y-81057261D01*
X115562619Y-80247738D02*
X116086428Y-80247738D01*
X116181666Y-80295357D01*
X116229285Y-80390595D01*
X116229285Y-80581071D01*
X116181666Y-80676309D01*
X115610238Y-80247738D02*
X115562619Y-80342976D01*
X115562619Y-80581071D01*
X115610238Y-80676309D01*
X115705476Y-80723928D01*
X115800714Y-80723928D01*
X115895952Y-80676309D01*
X115943571Y-80581071D01*
X115943571Y-80342976D01*
X115991190Y-80247738D01*
X116229285Y-79914404D02*
X116229285Y-79533452D01*
X116562619Y-79771547D02*
X115705476Y-79771547D01*
X115610238Y-79723928D01*
X115562619Y-79628690D01*
X115562619Y-79533452D01*
X115610238Y-78771547D02*
X115562619Y-78866785D01*
X115562619Y-79057261D01*
X115610238Y-79152500D01*
X115657857Y-79200119D01*
X115753095Y-79247738D01*
X116038809Y-79247738D01*
X116134047Y-79200119D01*
X116181666Y-79152500D01*
X116229285Y-79057261D01*
X116229285Y-78866785D01*
X116181666Y-78771547D01*
X115562619Y-78342976D02*
X116562619Y-78342976D01*
X115562619Y-77914404D02*
X116086428Y-77914404D01*
X116181666Y-77962023D01*
X116229285Y-78057261D01*
X116229285Y-78200119D01*
X116181666Y-78295357D01*
X116134047Y-78342976D01*
X115562619Y-76866785D02*
X116038809Y-77200119D01*
X115562619Y-77438214D02*
X116562619Y-77438214D01*
X116562619Y-77057261D01*
X116515000Y-76962023D01*
X116467380Y-76914404D01*
X116372142Y-76866785D01*
X116229285Y-76866785D01*
X116134047Y-76914404D01*
X116086428Y-76962023D01*
X116038809Y-77057261D01*
X116038809Y-77438214D01*
X115610238Y-76057261D02*
X115562619Y-76152500D01*
X115562619Y-76342976D01*
X115610238Y-76438214D01*
X115705476Y-76485833D01*
X116086428Y-76485833D01*
X116181666Y-76438214D01*
X116229285Y-76342976D01*
X116229285Y-76152500D01*
X116181666Y-76057261D01*
X116086428Y-76009642D01*
X115991190Y-76009642D01*
X115895952Y-76485833D01*
X115562619Y-75152500D02*
X116562619Y-75152500D01*
X115610238Y-75152500D02*
X115562619Y-75247738D01*
X115562619Y-75438214D01*
X115610238Y-75533452D01*
X115657857Y-75581071D01*
X115753095Y-75628690D01*
X116038809Y-75628690D01*
X116134047Y-75581071D01*
X116181666Y-75533452D01*
X116229285Y-75438214D01*
X116229285Y-75247738D01*
X116181666Y-75152500D01*
X116229285Y-74247738D02*
X115562619Y-74247738D01*
X116229285Y-74676309D02*
X115705476Y-74676309D01*
X115610238Y-74628690D01*
X115562619Y-74533452D01*
X115562619Y-74390595D01*
X115610238Y-74295357D01*
X115657857Y-74247738D01*
X115562619Y-73866785D02*
X116229285Y-73342976D01*
X116229285Y-73866785D02*
X115562619Y-73342976D01*
X124542857Y-60800238D02*
X124495238Y-60847857D01*
X124447619Y-60990714D01*
X124447619Y-61085952D01*
X124495238Y-61228809D01*
X124590476Y-61324047D01*
X124685714Y-61371666D01*
X124876190Y-61419285D01*
X125019047Y-61419285D01*
X125209523Y-61371666D01*
X125304761Y-61324047D01*
X125400000Y-61228809D01*
X125447619Y-61085952D01*
X125447619Y-60990714D01*
X125400000Y-60847857D01*
X125352380Y-60800238D01*
X124447619Y-60371666D02*
X125114285Y-60371666D01*
X125447619Y-60371666D02*
X125400000Y-60419285D01*
X125352380Y-60371666D01*
X125400000Y-60324047D01*
X125447619Y-60371666D01*
X125352380Y-60371666D01*
X124447619Y-59895476D02*
X125114285Y-59895476D01*
X124923809Y-59895476D02*
X125019047Y-59847857D01*
X125066666Y-59800238D01*
X125114285Y-59705000D01*
X125114285Y-59609761D01*
X124495238Y-58847857D02*
X124447619Y-58943095D01*
X124447619Y-59133571D01*
X124495238Y-59228809D01*
X124542857Y-59276428D01*
X124638095Y-59324047D01*
X124923809Y-59324047D01*
X125019047Y-59276428D01*
X125066666Y-59228809D01*
X125114285Y-59133571D01*
X125114285Y-58943095D01*
X125066666Y-58847857D01*
X125114285Y-57990714D02*
X124447619Y-57990714D01*
X125114285Y-58419285D02*
X124590476Y-58419285D01*
X124495238Y-58371666D01*
X124447619Y-58276428D01*
X124447619Y-58133571D01*
X124495238Y-58038333D01*
X124542857Y-57990714D01*
X124447619Y-57514523D02*
X125114285Y-57514523D01*
X125447619Y-57514523D02*
X125400000Y-57562142D01*
X125352380Y-57514523D01*
X125400000Y-57466904D01*
X125447619Y-57514523D01*
X125352380Y-57514523D01*
X125114285Y-57181190D02*
X125114285Y-56800238D01*
X125447619Y-57038333D02*
X124590476Y-57038333D01*
X124495238Y-56990714D01*
X124447619Y-56895476D01*
X124447619Y-56800238D01*
X124447619Y-55705000D02*
X125114285Y-55705000D01*
X125447619Y-55705000D02*
X125400000Y-55752619D01*
X125352380Y-55705000D01*
X125400000Y-55657380D01*
X125447619Y-55705000D01*
X125352380Y-55705000D01*
X124495238Y-55276428D02*
X124447619Y-55181190D01*
X124447619Y-54990714D01*
X124495238Y-54895476D01*
X124590476Y-54847857D01*
X124638095Y-54847857D01*
X124733333Y-54895476D01*
X124780952Y-54990714D01*
X124780952Y-55133571D01*
X124828571Y-55228809D01*
X124923809Y-55276428D01*
X124971428Y-55276428D01*
X125066666Y-55228809D01*
X125114285Y-55133571D01*
X125114285Y-54990714D01*
X125066666Y-54895476D01*
X125114285Y-53800238D02*
X125114285Y-53419285D01*
X125447619Y-53657380D02*
X124590476Y-53657380D01*
X124495238Y-53609761D01*
X124447619Y-53514523D01*
X124447619Y-53419285D01*
X124447619Y-53085952D02*
X125447619Y-53085952D01*
X124447619Y-52657380D02*
X124971428Y-52657380D01*
X125066666Y-52705000D01*
X125114285Y-52800238D01*
X125114285Y-52943095D01*
X125066666Y-53038333D01*
X125019047Y-53085952D01*
X124495238Y-51800238D02*
X124447619Y-51895476D01*
X124447619Y-52085952D01*
X124495238Y-52181190D01*
X124590476Y-52228809D01*
X124971428Y-52228809D01*
X125066666Y-52181190D01*
X125114285Y-52085952D01*
X125114285Y-51895476D01*
X125066666Y-51800238D01*
X124971428Y-51752619D01*
X124876190Y-51752619D01*
X124780952Y-52228809D01*
X124447619Y-50562142D02*
X125114285Y-50562142D01*
X124923809Y-50562142D02*
X125019047Y-50514523D01*
X125066666Y-50466904D01*
X125114285Y-50371666D01*
X125114285Y-50276428D01*
X124495238Y-49562142D02*
X124447619Y-49657380D01*
X124447619Y-49847857D01*
X124495238Y-49943095D01*
X124590476Y-49990714D01*
X124971428Y-49990714D01*
X125066666Y-49943095D01*
X125114285Y-49847857D01*
X125114285Y-49657380D01*
X125066666Y-49562142D01*
X124971428Y-49514523D01*
X124876190Y-49514523D01*
X124780952Y-49990714D01*
X125114285Y-49228809D02*
X125114285Y-48847857D01*
X124447619Y-49085952D02*
X125304761Y-49085952D01*
X125400000Y-49038333D01*
X125447619Y-48943095D01*
X125447619Y-48847857D01*
X124495238Y-48133571D02*
X124447619Y-48228809D01*
X124447619Y-48419285D01*
X124495238Y-48514523D01*
X124590476Y-48562142D01*
X124971428Y-48562142D01*
X125066666Y-48514523D01*
X125114285Y-48419285D01*
X125114285Y-48228809D01*
X125066666Y-48133571D01*
X124971428Y-48085952D01*
X124876190Y-48085952D01*
X124780952Y-48562142D01*
X124447619Y-47657380D02*
X125114285Y-47657380D01*
X124923809Y-47657380D02*
X125019047Y-47609761D01*
X125066666Y-47562142D01*
X125114285Y-47466904D01*
X125114285Y-47371666D01*
X124495238Y-46657380D02*
X124447619Y-46752619D01*
X124447619Y-46943095D01*
X124495238Y-47038333D01*
X124590476Y-47085952D01*
X124971428Y-47085952D01*
X125066666Y-47038333D01*
X125114285Y-46943095D01*
X125114285Y-46752619D01*
X125066666Y-46657380D01*
X124971428Y-46609761D01*
X124876190Y-46609761D01*
X124780952Y-47085952D01*
X125114285Y-46181190D02*
X124447619Y-46181190D01*
X125019047Y-46181190D02*
X125066666Y-46133571D01*
X125114285Y-46038333D01*
X125114285Y-45895476D01*
X125066666Y-45800238D01*
X124971428Y-45752619D01*
X124447619Y-45752619D01*
X124495238Y-44847857D02*
X124447619Y-44943095D01*
X124447619Y-45133571D01*
X124495238Y-45228809D01*
X124542857Y-45276428D01*
X124638095Y-45324047D01*
X124923809Y-45324047D01*
X125019047Y-45276428D01*
X125066666Y-45228809D01*
X125114285Y-45133571D01*
X125114285Y-44943095D01*
X125066666Y-44847857D01*
X124495238Y-44038333D02*
X124447619Y-44133571D01*
X124447619Y-44324047D01*
X124495238Y-44419285D01*
X124590476Y-44466904D01*
X124971428Y-44466904D01*
X125066666Y-44419285D01*
X125114285Y-44324047D01*
X125114285Y-44133571D01*
X125066666Y-44038333D01*
X124971428Y-43990714D01*
X124876190Y-43990714D01*
X124780952Y-44466904D01*
X122797619Y-61371666D02*
X123797619Y-61371666D01*
X122845238Y-61371666D02*
X122797619Y-61466904D01*
X122797619Y-61657380D01*
X122845238Y-61752619D01*
X122892857Y-61800238D01*
X122988095Y-61847857D01*
X123273809Y-61847857D01*
X123369047Y-61800238D01*
X123416666Y-61752619D01*
X123464285Y-61657380D01*
X123464285Y-61466904D01*
X123416666Y-61371666D01*
X122845238Y-60514523D02*
X122797619Y-60609761D01*
X122797619Y-60800238D01*
X122845238Y-60895476D01*
X122940476Y-60943095D01*
X123321428Y-60943095D01*
X123416666Y-60895476D01*
X123464285Y-60800238D01*
X123464285Y-60609761D01*
X123416666Y-60514523D01*
X123321428Y-60466904D01*
X123226190Y-60466904D01*
X123130952Y-60943095D01*
X122845238Y-60085952D02*
X122797619Y-59990714D01*
X122797619Y-59800238D01*
X122845238Y-59705000D01*
X122940476Y-59657380D01*
X122988095Y-59657380D01*
X123083333Y-59705000D01*
X123130952Y-59800238D01*
X123130952Y-59943095D01*
X123178571Y-60038333D01*
X123273809Y-60085952D01*
X123321428Y-60085952D01*
X123416666Y-60038333D01*
X123464285Y-59943095D01*
X123464285Y-59800238D01*
X123416666Y-59705000D01*
X122797619Y-59228809D02*
X123464285Y-59228809D01*
X123797619Y-59228809D02*
X123750000Y-59276428D01*
X123702380Y-59228809D01*
X123750000Y-59181190D01*
X123797619Y-59228809D01*
X123702380Y-59228809D01*
X123464285Y-58324047D02*
X122654761Y-58324047D01*
X122559523Y-58371666D01*
X122511904Y-58419285D01*
X122464285Y-58514523D01*
X122464285Y-58657380D01*
X122511904Y-58752619D01*
X122845238Y-58324047D02*
X122797619Y-58419285D01*
X122797619Y-58609761D01*
X122845238Y-58705000D01*
X122892857Y-58752619D01*
X122988095Y-58800238D01*
X123273809Y-58800238D01*
X123369047Y-58752619D01*
X123416666Y-58705000D01*
X123464285Y-58609761D01*
X123464285Y-58419285D01*
X123416666Y-58324047D01*
X123464285Y-57847857D02*
X122797619Y-57847857D01*
X123369047Y-57847857D02*
X123416666Y-57800238D01*
X123464285Y-57705000D01*
X123464285Y-57562142D01*
X123416666Y-57466904D01*
X123321428Y-57419285D01*
X122797619Y-57419285D01*
X123464285Y-56324047D02*
X123464285Y-55943095D01*
X122797619Y-56181190D02*
X123654761Y-56181190D01*
X123750000Y-56133571D01*
X123797619Y-56038333D01*
X123797619Y-55943095D01*
X122797619Y-55609761D02*
X123464285Y-55609761D01*
X123273809Y-55609761D02*
X123369047Y-55562142D01*
X123416666Y-55514523D01*
X123464285Y-55419285D01*
X123464285Y-55324047D01*
X122797619Y-54847857D02*
X122845238Y-54943095D01*
X122892857Y-54990714D01*
X122988095Y-55038333D01*
X123273809Y-55038333D01*
X123369047Y-54990714D01*
X123416666Y-54943095D01*
X123464285Y-54847857D01*
X123464285Y-54705000D01*
X123416666Y-54609761D01*
X123369047Y-54562142D01*
X123273809Y-54514523D01*
X122988095Y-54514523D01*
X122892857Y-54562142D01*
X122845238Y-54609761D01*
X122797619Y-54705000D01*
X122797619Y-54847857D01*
X122797619Y-54085952D02*
X123464285Y-54085952D01*
X123369047Y-54085952D02*
X123416666Y-54038333D01*
X123464285Y-53943095D01*
X123464285Y-53800238D01*
X123416666Y-53705000D01*
X123321428Y-53657380D01*
X122797619Y-53657380D01*
X123321428Y-53657380D02*
X123416666Y-53609761D01*
X123464285Y-53514523D01*
X123464285Y-53371666D01*
X123416666Y-53276428D01*
X123321428Y-53228809D01*
X122797619Y-53228809D01*
X123464285Y-52133571D02*
X123464285Y-51752619D01*
X123797619Y-51990714D02*
X122940476Y-51990714D01*
X122845238Y-51943095D01*
X122797619Y-51847857D01*
X122797619Y-51752619D01*
X122797619Y-51419285D02*
X123797619Y-51419285D01*
X122797619Y-50990714D02*
X123321428Y-50990714D01*
X123416666Y-51038333D01*
X123464285Y-51133571D01*
X123464285Y-51276428D01*
X123416666Y-51371666D01*
X123369047Y-51419285D01*
X122845238Y-50133571D02*
X122797619Y-50228809D01*
X122797619Y-50419285D01*
X122845238Y-50514523D01*
X122940476Y-50562142D01*
X123321428Y-50562142D01*
X123416666Y-50514523D01*
X123464285Y-50419285D01*
X123464285Y-50228809D01*
X123416666Y-50133571D01*
X123321428Y-50085952D01*
X123226190Y-50085952D01*
X123130952Y-50562142D01*
X122797619Y-48895476D02*
X123797619Y-48895476D01*
X123797619Y-48657380D01*
X123750000Y-48514523D01*
X123654761Y-48419285D01*
X123559523Y-48371666D01*
X123369047Y-48324047D01*
X123226190Y-48324047D01*
X123035714Y-48371666D01*
X122940476Y-48419285D01*
X122845238Y-48514523D01*
X122797619Y-48657380D01*
X122797619Y-48895476D01*
X122845238Y-47943095D02*
X122797619Y-47800238D01*
X122797619Y-47562142D01*
X122845238Y-47466904D01*
X122892857Y-47419285D01*
X122988095Y-47371666D01*
X123083333Y-47371666D01*
X123178571Y-47419285D01*
X123226190Y-47466904D01*
X123273809Y-47562142D01*
X123321428Y-47752619D01*
X123369047Y-47847857D01*
X123416666Y-47895476D01*
X123511904Y-47943095D01*
X123607142Y-47943095D01*
X123702380Y-47895476D01*
X123750000Y-47847857D01*
X123797619Y-47752619D01*
X123797619Y-47514523D01*
X123750000Y-47371666D01*
X122797619Y-46419285D02*
X122797619Y-46990714D01*
X122797619Y-46705000D02*
X123797619Y-46705000D01*
X123654761Y-46800238D01*
X123559523Y-46895476D01*
X123511904Y-46990714D01*
X123797619Y-46085952D02*
X123797619Y-45466904D01*
X123416666Y-45800238D01*
X123416666Y-45657380D01*
X123369047Y-45562142D01*
X123321428Y-45514523D01*
X123226190Y-45466904D01*
X122988095Y-45466904D01*
X122892857Y-45514523D01*
X122845238Y-45562142D01*
X122797619Y-45657380D01*
X122797619Y-45943095D01*
X122845238Y-46038333D01*
X122892857Y-46085952D01*
X122797619Y-44514523D02*
X122797619Y-45085952D01*
X122797619Y-44800238D02*
X123797619Y-44800238D01*
X123654761Y-44895476D01*
X123559523Y-44990714D01*
X123511904Y-45085952D01*
X123797619Y-43609761D02*
X123797619Y-44085952D01*
X123321428Y-44133571D01*
X123369047Y-44085952D01*
X123416666Y-43990714D01*
X123416666Y-43752619D01*
X123369047Y-43657380D01*
X123321428Y-43609761D01*
X123226190Y-43562142D01*
X122988095Y-43562142D01*
X122892857Y-43609761D01*
X122845238Y-43657380D01*
X122797619Y-43752619D01*
X122797619Y-43990714D01*
X122845238Y-44085952D01*
X122892857Y-44133571D01*
X121147619Y-61514523D02*
X122147619Y-61514523D01*
X121195238Y-61514523D02*
X121147619Y-61609761D01*
X121147619Y-61800238D01*
X121195238Y-61895476D01*
X121242857Y-61943095D01*
X121338095Y-61990714D01*
X121623809Y-61990714D01*
X121719047Y-61943095D01*
X121766666Y-61895476D01*
X121814285Y-61800238D01*
X121814285Y-61609761D01*
X121766666Y-61514523D01*
X121147619Y-60609761D02*
X121671428Y-60609761D01*
X121766666Y-60657380D01*
X121814285Y-60752619D01*
X121814285Y-60943095D01*
X121766666Y-61038333D01*
X121195238Y-60609761D02*
X121147619Y-60705000D01*
X121147619Y-60943095D01*
X121195238Y-61038333D01*
X121290476Y-61085952D01*
X121385714Y-61085952D01*
X121480952Y-61038333D01*
X121528571Y-60943095D01*
X121528571Y-60705000D01*
X121576190Y-60609761D01*
X121814285Y-60276428D02*
X121814285Y-59895476D01*
X122147619Y-60133571D02*
X121290476Y-60133571D01*
X121195238Y-60085952D01*
X121147619Y-59990714D01*
X121147619Y-59895476D01*
X121147619Y-59133571D02*
X121671428Y-59133571D01*
X121766666Y-59181190D01*
X121814285Y-59276428D01*
X121814285Y-59466904D01*
X121766666Y-59562142D01*
X121195238Y-59133571D02*
X121147619Y-59228809D01*
X121147619Y-59466904D01*
X121195238Y-59562142D01*
X121290476Y-59609761D01*
X121385714Y-59609761D01*
X121480952Y-59562142D01*
X121528571Y-59466904D01*
X121528571Y-59228809D01*
X121576190Y-59133571D01*
X121195238Y-58705000D02*
X121147619Y-58609761D01*
X121147619Y-58419285D01*
X121195238Y-58324047D01*
X121290476Y-58276428D01*
X121338095Y-58276428D01*
X121433333Y-58324047D01*
X121480952Y-58419285D01*
X121480952Y-58562142D01*
X121528571Y-58657380D01*
X121623809Y-58705000D01*
X121671428Y-58705000D01*
X121766666Y-58657380D01*
X121814285Y-58562142D01*
X121814285Y-58419285D01*
X121766666Y-58324047D01*
X121147619Y-57847857D02*
X122147619Y-57847857D01*
X121147619Y-57419285D02*
X121671428Y-57419285D01*
X121766666Y-57466904D01*
X121814285Y-57562142D01*
X121814285Y-57705000D01*
X121766666Y-57800238D01*
X121719047Y-57847857D01*
X121195238Y-56562142D02*
X121147619Y-56657380D01*
X121147619Y-56847857D01*
X121195238Y-56943095D01*
X121290476Y-56990714D01*
X121671428Y-56990714D01*
X121766666Y-56943095D01*
X121814285Y-56847857D01*
X121814285Y-56657380D01*
X121766666Y-56562142D01*
X121671428Y-56514523D01*
X121576190Y-56514523D01*
X121480952Y-56990714D01*
X121195238Y-55705000D02*
X121147619Y-55800238D01*
X121147619Y-55990714D01*
X121195238Y-56085952D01*
X121290476Y-56133571D01*
X121671428Y-56133571D01*
X121766666Y-56085952D01*
X121814285Y-55990714D01*
X121814285Y-55800238D01*
X121766666Y-55705000D01*
X121671428Y-55657380D01*
X121576190Y-55657380D01*
X121480952Y-56133571D01*
X121814285Y-55371666D02*
X121814285Y-54990714D01*
X122147619Y-55228809D02*
X121290476Y-55228809D01*
X121195238Y-55181190D01*
X121147619Y-55085952D01*
X121147619Y-54990714D01*
X121147619Y-53466904D02*
X121671428Y-53466904D01*
X121766666Y-53514523D01*
X121814285Y-53609761D01*
X121814285Y-53800238D01*
X121766666Y-53895476D01*
X121195238Y-53466904D02*
X121147619Y-53562142D01*
X121147619Y-53800238D01*
X121195238Y-53895476D01*
X121290476Y-53943095D01*
X121385714Y-53943095D01*
X121480952Y-53895476D01*
X121528571Y-53800238D01*
X121528571Y-53562142D01*
X121576190Y-53466904D01*
X121814285Y-52990714D02*
X121147619Y-52990714D01*
X121719047Y-52990714D02*
X121766666Y-52943095D01*
X121814285Y-52847857D01*
X121814285Y-52705000D01*
X121766666Y-52609761D01*
X121671428Y-52562142D01*
X121147619Y-52562142D01*
X121147619Y-51657380D02*
X122147619Y-51657380D01*
X121195238Y-51657380D02*
X121147619Y-51752619D01*
X121147619Y-51943095D01*
X121195238Y-52038333D01*
X121242857Y-52085952D01*
X121338095Y-52133571D01*
X121623809Y-52133571D01*
X121719047Y-52085952D01*
X121766666Y-52038333D01*
X121814285Y-51943095D01*
X121814285Y-51752619D01*
X121766666Y-51657380D01*
X121195238Y-49990714D02*
X121147619Y-50085952D01*
X121147619Y-50276428D01*
X121195238Y-50371666D01*
X121242857Y-50419285D01*
X121338095Y-50466904D01*
X121623809Y-50466904D01*
X121719047Y-50419285D01*
X121766666Y-50371666D01*
X121814285Y-50276428D01*
X121814285Y-50085952D01*
X121766666Y-49990714D01*
X121147619Y-49419285D02*
X121195238Y-49514523D01*
X121242857Y-49562142D01*
X121338095Y-49609761D01*
X121623809Y-49609761D01*
X121719047Y-49562142D01*
X121766666Y-49514523D01*
X121814285Y-49419285D01*
X121814285Y-49276428D01*
X121766666Y-49181190D01*
X121719047Y-49133571D01*
X121623809Y-49085952D01*
X121338095Y-49085952D01*
X121242857Y-49133571D01*
X121195238Y-49181190D01*
X121147619Y-49276428D01*
X121147619Y-49419285D01*
X121814285Y-48657380D02*
X121147619Y-48657380D01*
X121719047Y-48657380D02*
X121766666Y-48609761D01*
X121814285Y-48514523D01*
X121814285Y-48371666D01*
X121766666Y-48276428D01*
X121671428Y-48228809D01*
X121147619Y-48228809D01*
X121814285Y-47895476D02*
X121814285Y-47514523D01*
X121147619Y-47752619D02*
X122004761Y-47752619D01*
X122100000Y-47705000D01*
X122147619Y-47609761D01*
X122147619Y-47514523D01*
X121147619Y-47181190D02*
X121814285Y-47181190D01*
X122147619Y-47181190D02*
X122100000Y-47228809D01*
X122052380Y-47181190D01*
X122100000Y-47133571D01*
X122147619Y-47181190D01*
X122052380Y-47181190D01*
X121147619Y-46705000D02*
X121814285Y-46705000D01*
X121623809Y-46705000D02*
X121719047Y-46657380D01*
X121766666Y-46609761D01*
X121814285Y-46514523D01*
X121814285Y-46419285D01*
X121147619Y-46085952D02*
X121814285Y-46085952D01*
X121719047Y-46085952D02*
X121766666Y-46038333D01*
X121814285Y-45943095D01*
X121814285Y-45800238D01*
X121766666Y-45705000D01*
X121671428Y-45657380D01*
X121147619Y-45657380D01*
X121671428Y-45657380D02*
X121766666Y-45609761D01*
X121814285Y-45514523D01*
X121814285Y-45371666D01*
X121766666Y-45276428D01*
X121671428Y-45228809D01*
X121147619Y-45228809D01*
X121195238Y-44371666D02*
X121147619Y-44466904D01*
X121147619Y-44657380D01*
X121195238Y-44752619D01*
X121290476Y-44800238D01*
X121671428Y-44800238D01*
X121766666Y-44752619D01*
X121814285Y-44657380D01*
X121814285Y-44466904D01*
X121766666Y-44371666D01*
X121671428Y-44324047D01*
X121576190Y-44324047D01*
X121480952Y-44800238D01*
X121147619Y-43466904D02*
X122147619Y-43466904D01*
X121195238Y-43466904D02*
X121147619Y-43562142D01*
X121147619Y-43752619D01*
X121195238Y-43847857D01*
X121242857Y-43895476D01*
X121338095Y-43943095D01*
X121623809Y-43943095D01*
X121719047Y-43895476D01*
X121766666Y-43847857D01*
X121814285Y-43752619D01*
X121814285Y-43562142D01*
X121766666Y-43466904D01*
X120164285Y-63014523D02*
X120164285Y-62633571D01*
X120497619Y-62871666D02*
X119640476Y-62871666D01*
X119545238Y-62824047D01*
X119497619Y-62728809D01*
X119497619Y-62633571D01*
X119497619Y-62157380D02*
X119545238Y-62252619D01*
X119592857Y-62300238D01*
X119688095Y-62347857D01*
X119973809Y-62347857D01*
X120069047Y-62300238D01*
X120116666Y-62252619D01*
X120164285Y-62157380D01*
X120164285Y-62014523D01*
X120116666Y-61919285D01*
X120069047Y-61871666D01*
X119973809Y-61824047D01*
X119688095Y-61824047D01*
X119592857Y-61871666D01*
X119545238Y-61919285D01*
X119497619Y-62014523D01*
X119497619Y-62157380D01*
X119497619Y-60633571D02*
X120164285Y-60633571D01*
X120069047Y-60633571D02*
X120116666Y-60585952D01*
X120164285Y-60490714D01*
X120164285Y-60347857D01*
X120116666Y-60252619D01*
X120021428Y-60205000D01*
X119497619Y-60205000D01*
X120021428Y-60205000D02*
X120116666Y-60157380D01*
X120164285Y-60062142D01*
X120164285Y-59919285D01*
X120116666Y-59824047D01*
X120021428Y-59776428D01*
X119497619Y-59776428D01*
X119497619Y-58871666D02*
X120021428Y-58871666D01*
X120116666Y-58919285D01*
X120164285Y-59014523D01*
X120164285Y-59205000D01*
X120116666Y-59300238D01*
X119545238Y-58871666D02*
X119497619Y-58966904D01*
X119497619Y-59205000D01*
X119545238Y-59300238D01*
X119640476Y-59347857D01*
X119735714Y-59347857D01*
X119830952Y-59300238D01*
X119878571Y-59205000D01*
X119878571Y-58966904D01*
X119926190Y-58871666D01*
X120164285Y-58538333D02*
X120164285Y-58157380D01*
X120497619Y-58395476D02*
X119640476Y-58395476D01*
X119545238Y-58347857D01*
X119497619Y-58252619D01*
X119497619Y-58157380D01*
X119545238Y-57395476D02*
X119497619Y-57490714D01*
X119497619Y-57681190D01*
X119545238Y-57776428D01*
X119592857Y-57824047D01*
X119688095Y-57871666D01*
X119973809Y-57871666D01*
X120069047Y-57824047D01*
X120116666Y-57776428D01*
X120164285Y-57681190D01*
X120164285Y-57490714D01*
X120116666Y-57395476D01*
X119497619Y-56966904D02*
X120497619Y-56966904D01*
X119497619Y-56538333D02*
X120021428Y-56538333D01*
X120116666Y-56585952D01*
X120164285Y-56681190D01*
X120164285Y-56824047D01*
X120116666Y-56919285D01*
X120069047Y-56966904D01*
X119497619Y-54871666D02*
X120021428Y-54871666D01*
X120116666Y-54919285D01*
X120164285Y-55014523D01*
X120164285Y-55205000D01*
X120116666Y-55300238D01*
X119545238Y-54871666D02*
X119497619Y-54966904D01*
X119497619Y-55205000D01*
X119545238Y-55300238D01*
X119640476Y-55347857D01*
X119735714Y-55347857D01*
X119830952Y-55300238D01*
X119878571Y-55205000D01*
X119878571Y-54966904D01*
X119926190Y-54871666D01*
X119497619Y-53633571D02*
X120164285Y-53633571D01*
X119973809Y-53633571D02*
X120069047Y-53585952D01*
X120116666Y-53538333D01*
X120164285Y-53443095D01*
X120164285Y-53347857D01*
X119545238Y-52633571D02*
X119497619Y-52728809D01*
X119497619Y-52919285D01*
X119545238Y-53014523D01*
X119640476Y-53062142D01*
X120021428Y-53062142D01*
X120116666Y-53014523D01*
X120164285Y-52919285D01*
X120164285Y-52728809D01*
X120116666Y-52633571D01*
X120021428Y-52585952D01*
X119926190Y-52585952D01*
X119830952Y-53062142D01*
X119497619Y-51728809D02*
X120021428Y-51728809D01*
X120116666Y-51776428D01*
X120164285Y-51871666D01*
X120164285Y-52062142D01*
X120116666Y-52157380D01*
X119545238Y-51728809D02*
X119497619Y-51824047D01*
X119497619Y-52062142D01*
X119545238Y-52157380D01*
X119640476Y-52205000D01*
X119735714Y-52205000D01*
X119830952Y-52157380D01*
X119878571Y-52062142D01*
X119878571Y-51824047D01*
X119926190Y-51728809D01*
X119497619Y-51109761D02*
X119545238Y-51205000D01*
X119640476Y-51252619D01*
X120497619Y-51252619D01*
X119497619Y-49966904D02*
X120497619Y-49966904D01*
X120497619Y-49728809D01*
X120450000Y-49585952D01*
X120354761Y-49490714D01*
X120259523Y-49443095D01*
X120069047Y-49395476D01*
X119926190Y-49395476D01*
X119735714Y-49443095D01*
X119640476Y-49490714D01*
X119545238Y-49585952D01*
X119497619Y-49728809D01*
X119497619Y-49966904D01*
X119545238Y-49014523D02*
X119497619Y-48871666D01*
X119497619Y-48633571D01*
X119545238Y-48538333D01*
X119592857Y-48490714D01*
X119688095Y-48443095D01*
X119783333Y-48443095D01*
X119878571Y-48490714D01*
X119926190Y-48538333D01*
X119973809Y-48633571D01*
X120021428Y-48824047D01*
X120069047Y-48919285D01*
X120116666Y-48966904D01*
X120211904Y-49014523D01*
X120307142Y-49014523D01*
X120402380Y-48966904D01*
X120450000Y-48919285D01*
X120497619Y-48824047D01*
X120497619Y-48585952D01*
X120450000Y-48443095D01*
X119497619Y-47490714D02*
X119497619Y-48062142D01*
X119497619Y-47776428D02*
X120497619Y-47776428D01*
X120354761Y-47871666D01*
X120259523Y-47966904D01*
X120211904Y-48062142D01*
X120402380Y-47109761D02*
X120450000Y-47062142D01*
X120497619Y-46966904D01*
X120497619Y-46728809D01*
X120450000Y-46633571D01*
X120402380Y-46585952D01*
X120307142Y-46538333D01*
X120211904Y-46538333D01*
X120069047Y-46585952D01*
X119497619Y-47157380D01*
X119497619Y-46538333D01*
X119497619Y-45585952D02*
X119497619Y-46157380D01*
X119497619Y-45871666D02*
X120497619Y-45871666D01*
X120354761Y-45966904D01*
X120259523Y-46062142D01*
X120211904Y-46157380D01*
X120497619Y-44728809D02*
X120497619Y-44919285D01*
X120450000Y-45014523D01*
X120402380Y-45062142D01*
X120259523Y-45157380D01*
X120069047Y-45205000D01*
X119688095Y-45205000D01*
X119592857Y-45157380D01*
X119545238Y-45109761D01*
X119497619Y-45014523D01*
X119497619Y-44824047D01*
X119545238Y-44728809D01*
X119592857Y-44681190D01*
X119688095Y-44633571D01*
X119926190Y-44633571D01*
X120021428Y-44681190D01*
X120069047Y-44728809D01*
X120116666Y-44824047D01*
X120116666Y-45014523D01*
X120069047Y-45109761D01*
X120021428Y-45157380D01*
X119926190Y-45205000D01*
X119878571Y-44205000D02*
X119878571Y-43443095D01*
X120021428Y-42966904D02*
X120021428Y-42633571D01*
X119497619Y-42490714D02*
X119497619Y-42966904D01*
X120497619Y-42966904D01*
X120497619Y-42490714D01*
X117895238Y-57133571D02*
X117847619Y-56990714D01*
X117847619Y-56752619D01*
X117895238Y-56657380D01*
X117942857Y-56609761D01*
X118038095Y-56562142D01*
X118133333Y-56562142D01*
X118228571Y-56609761D01*
X118276190Y-56657380D01*
X118323809Y-56752619D01*
X118371428Y-56943095D01*
X118419047Y-57038333D01*
X118466666Y-57085952D01*
X118561904Y-57133571D01*
X118657142Y-57133571D01*
X118752380Y-57085952D01*
X118800000Y-57038333D01*
X118847619Y-56943095D01*
X118847619Y-56705000D01*
X118800000Y-56562142D01*
X117847619Y-56133571D02*
X118514285Y-56133571D01*
X118419047Y-56133571D02*
X118466666Y-56085952D01*
X118514285Y-55990714D01*
X118514285Y-55847857D01*
X118466666Y-55752619D01*
X118371428Y-55705000D01*
X117847619Y-55705000D01*
X118371428Y-55705000D02*
X118466666Y-55657380D01*
X118514285Y-55562142D01*
X118514285Y-55419285D01*
X118466666Y-55324047D01*
X118371428Y-55276428D01*
X117847619Y-55276428D01*
X117847619Y-54371666D02*
X118371428Y-54371666D01*
X118466666Y-54419285D01*
X118514285Y-54514523D01*
X118514285Y-54705000D01*
X118466666Y-54800238D01*
X117895238Y-54371666D02*
X117847619Y-54466904D01*
X117847619Y-54705000D01*
X117895238Y-54800238D01*
X117990476Y-54847857D01*
X118085714Y-54847857D01*
X118180952Y-54800238D01*
X118228571Y-54705000D01*
X118228571Y-54466904D01*
X118276190Y-54371666D01*
X117847619Y-53895476D02*
X118514285Y-53895476D01*
X118323809Y-53895476D02*
X118419047Y-53847857D01*
X118466666Y-53800238D01*
X118514285Y-53705000D01*
X118514285Y-53609761D01*
X118514285Y-53419285D02*
X118514285Y-53038333D01*
X118847619Y-53276428D02*
X117990476Y-53276428D01*
X117895238Y-53228809D01*
X117847619Y-53133571D01*
X117847619Y-53038333D01*
X118847619Y-52800238D02*
X117847619Y-52562142D01*
X118561904Y-52371666D01*
X117847619Y-52181190D01*
X118847619Y-51943095D01*
X117847619Y-51133571D02*
X118371428Y-51133571D01*
X118466666Y-51181190D01*
X118514285Y-51276428D01*
X118514285Y-51466904D01*
X118466666Y-51562142D01*
X117895238Y-51133571D02*
X117847619Y-51228809D01*
X117847619Y-51466904D01*
X117895238Y-51562142D01*
X117990476Y-51609761D01*
X118085714Y-51609761D01*
X118180952Y-51562142D01*
X118228571Y-51466904D01*
X118228571Y-51228809D01*
X118276190Y-51133571D01*
X118514285Y-50800238D02*
X118514285Y-50419285D01*
X118847619Y-50657380D02*
X117990476Y-50657380D01*
X117895238Y-50609761D01*
X117847619Y-50514523D01*
X117847619Y-50419285D01*
X117895238Y-49657380D02*
X117847619Y-49752619D01*
X117847619Y-49943095D01*
X117895238Y-50038333D01*
X117942857Y-50085952D01*
X118038095Y-50133571D01*
X118323809Y-50133571D01*
X118419047Y-50085952D01*
X118466666Y-50038333D01*
X118514285Y-49943095D01*
X118514285Y-49752619D01*
X118466666Y-49657380D01*
X117847619Y-49228809D02*
X118847619Y-49228809D01*
X117847619Y-48800238D02*
X118371428Y-48800238D01*
X118466666Y-48847857D01*
X118514285Y-48943095D01*
X118514285Y-49085952D01*
X118466666Y-49181190D01*
X118419047Y-49228809D01*
X117942857Y-48324047D02*
X117895238Y-48276428D01*
X117847619Y-48324047D01*
X117895238Y-48371666D01*
X117942857Y-48324047D01*
X117847619Y-48324047D01*
X115071428Y-58181190D02*
X115023809Y-58038333D01*
X114976190Y-57990714D01*
X114880952Y-57943095D01*
X114738095Y-57943095D01*
X114642857Y-57990714D01*
X114595238Y-58038333D01*
X114547619Y-58133571D01*
X114547619Y-58514523D01*
X115547619Y-58514523D01*
X115547619Y-58181190D01*
X115500000Y-58085952D01*
X115452380Y-58038333D01*
X115357142Y-57990714D01*
X115261904Y-57990714D01*
X115166666Y-58038333D01*
X115119047Y-58085952D01*
X115071428Y-58181190D01*
X115071428Y-58514523D01*
X114547619Y-57371666D02*
X114595238Y-57466904D01*
X114642857Y-57514523D01*
X114738095Y-57562142D01*
X115023809Y-57562142D01*
X115119047Y-57514523D01*
X115166666Y-57466904D01*
X115214285Y-57371666D01*
X115214285Y-57228809D01*
X115166666Y-57133571D01*
X115119047Y-57085952D01*
X115023809Y-57038333D01*
X114738095Y-57038333D01*
X114642857Y-57085952D01*
X114595238Y-57133571D01*
X114547619Y-57228809D01*
X114547619Y-57371666D01*
X114547619Y-56181190D02*
X115071428Y-56181190D01*
X115166666Y-56228809D01*
X115214285Y-56324047D01*
X115214285Y-56514523D01*
X115166666Y-56609761D01*
X114595238Y-56181190D02*
X114547619Y-56276428D01*
X114547619Y-56514523D01*
X114595238Y-56609761D01*
X114690476Y-56657380D01*
X114785714Y-56657380D01*
X114880952Y-56609761D01*
X114928571Y-56514523D01*
X114928571Y-56276428D01*
X114976190Y-56181190D01*
X114547619Y-55705000D02*
X115214285Y-55705000D01*
X115023809Y-55705000D02*
X115119047Y-55657380D01*
X115166666Y-55609761D01*
X115214285Y-55514523D01*
X115214285Y-55419285D01*
X114547619Y-54657380D02*
X115547619Y-54657380D01*
X114595238Y-54657380D02*
X114547619Y-54752619D01*
X114547619Y-54943095D01*
X114595238Y-55038333D01*
X114642857Y-55085952D01*
X114738095Y-55133571D01*
X115023809Y-55133571D01*
X115119047Y-55085952D01*
X115166666Y-55038333D01*
X115214285Y-54943095D01*
X115214285Y-54752619D01*
X115166666Y-54657380D01*
X114547619Y-53276428D02*
X114595238Y-53371666D01*
X114690476Y-53419285D01*
X115547619Y-53419285D01*
X114547619Y-52466904D02*
X115071428Y-52466904D01*
X115166666Y-52514523D01*
X115214285Y-52609761D01*
X115214285Y-52800238D01*
X115166666Y-52895476D01*
X114595238Y-52466904D02*
X114547619Y-52562142D01*
X114547619Y-52800238D01*
X114595238Y-52895476D01*
X114690476Y-52943095D01*
X114785714Y-52943095D01*
X114880952Y-52895476D01*
X114928571Y-52800238D01*
X114928571Y-52562142D01*
X114976190Y-52466904D01*
X115214285Y-52085952D02*
X114547619Y-51847857D01*
X115214285Y-51609761D02*
X114547619Y-51847857D01*
X114309523Y-51943095D01*
X114261904Y-51990714D01*
X114214285Y-52085952D01*
X114547619Y-51085952D02*
X114595238Y-51181190D01*
X114642857Y-51228809D01*
X114738095Y-51276428D01*
X115023809Y-51276428D01*
X115119047Y-51228809D01*
X115166666Y-51181190D01*
X115214285Y-51085952D01*
X115214285Y-50943095D01*
X115166666Y-50847857D01*
X115119047Y-50800238D01*
X115023809Y-50752619D01*
X114738095Y-50752619D01*
X114642857Y-50800238D01*
X114595238Y-50847857D01*
X114547619Y-50943095D01*
X114547619Y-51085952D01*
X115214285Y-49895476D02*
X114547619Y-49895476D01*
X115214285Y-50324047D02*
X114690476Y-50324047D01*
X114595238Y-50276428D01*
X114547619Y-50181190D01*
X114547619Y-50038333D01*
X114595238Y-49943095D01*
X114642857Y-49895476D01*
X115214285Y-49562142D02*
X115214285Y-49181190D01*
X115547619Y-49419285D02*
X114690476Y-49419285D01*
X114595238Y-49371666D01*
X114547619Y-49276428D01*
X114547619Y-49181190D01*
X114547619Y-48085952D02*
X115547619Y-48085952D01*
X115166666Y-48085952D02*
X115214285Y-47990714D01*
X115214285Y-47800238D01*
X115166666Y-47705000D01*
X115119047Y-47657380D01*
X115023809Y-47609761D01*
X114738095Y-47609761D01*
X114642857Y-47657380D01*
X114595238Y-47705000D01*
X114547619Y-47800238D01*
X114547619Y-47990714D01*
X114595238Y-48085952D01*
X115214285Y-47276428D02*
X114547619Y-47038333D01*
X115214285Y-46800238D02*
X114547619Y-47038333D01*
X114309523Y-47133571D01*
X114261904Y-47181190D01*
X114214285Y-47276428D01*
X113897619Y-59752619D02*
X113183333Y-59752619D01*
X113040476Y-59800238D01*
X112945238Y-59895476D01*
X112897619Y-60038333D01*
X112897619Y-60133571D01*
X112897619Y-58847857D02*
X113421428Y-58847857D01*
X113516666Y-58895476D01*
X113564285Y-58990714D01*
X113564285Y-59181190D01*
X113516666Y-59276428D01*
X112945238Y-58847857D02*
X112897619Y-58943095D01*
X112897619Y-59181190D01*
X112945238Y-59276428D01*
X113040476Y-59324047D01*
X113135714Y-59324047D01*
X113230952Y-59276428D01*
X113278571Y-59181190D01*
X113278571Y-58943095D01*
X113326190Y-58847857D01*
X113564285Y-58466904D02*
X112897619Y-58228809D01*
X113564285Y-57990714D02*
X112897619Y-58228809D01*
X112659523Y-58324047D01*
X112611904Y-58371666D01*
X112564285Y-58466904D01*
X112945238Y-57228809D02*
X112897619Y-57324047D01*
X112897619Y-57514523D01*
X112945238Y-57609761D01*
X113040476Y-57657380D01*
X113421428Y-57657380D01*
X113516666Y-57609761D01*
X113564285Y-57514523D01*
X113564285Y-57324047D01*
X113516666Y-57228809D01*
X113421428Y-57181190D01*
X113326190Y-57181190D01*
X113230952Y-57657380D01*
X112945238Y-56800238D02*
X112897619Y-56705000D01*
X112897619Y-56514523D01*
X112945238Y-56419285D01*
X113040476Y-56371666D01*
X113088095Y-56371666D01*
X113183333Y-56419285D01*
X113230952Y-56514523D01*
X113230952Y-56657380D01*
X113278571Y-56752619D01*
X113373809Y-56800238D01*
X113421428Y-56800238D01*
X113516666Y-56752619D01*
X113564285Y-56657380D01*
X113564285Y-56514523D01*
X113516666Y-56419285D01*
X112897619Y-55800238D02*
X112945238Y-55895476D01*
X112992857Y-55943095D01*
X113088095Y-55990714D01*
X113373809Y-55990714D01*
X113469047Y-55943095D01*
X113516666Y-55895476D01*
X113564285Y-55800238D01*
X113564285Y-55657380D01*
X113516666Y-55562142D01*
X113469047Y-55514523D01*
X113373809Y-55466904D01*
X113088095Y-55466904D01*
X112992857Y-55514523D01*
X112945238Y-55562142D01*
X112897619Y-55657380D01*
X112897619Y-55800238D01*
X113564285Y-55038333D02*
X112897619Y-55038333D01*
X113469047Y-55038333D02*
X113516666Y-54990714D01*
X113564285Y-54895476D01*
X113564285Y-54752619D01*
X113516666Y-54657380D01*
X113421428Y-54609761D01*
X112897619Y-54609761D01*
X112897619Y-52895476D02*
X112897619Y-53371666D01*
X113897619Y-53371666D01*
X112945238Y-52181190D02*
X112897619Y-52276428D01*
X112897619Y-52466904D01*
X112945238Y-52562142D01*
X113040476Y-52609761D01*
X113421428Y-52609761D01*
X113516666Y-52562142D01*
X113564285Y-52466904D01*
X113564285Y-52276428D01*
X113516666Y-52181190D01*
X113421428Y-52133571D01*
X113326190Y-52133571D01*
X113230952Y-52609761D01*
X112945238Y-51324047D02*
X112897619Y-51419285D01*
X112897619Y-51609761D01*
X112945238Y-51705000D01*
X113040476Y-51752619D01*
X113421428Y-51752619D01*
X113516666Y-51705000D01*
X113564285Y-51609761D01*
X113564285Y-51419285D01*
X113516666Y-51324047D01*
X113421428Y-51276428D01*
X113326190Y-51276428D01*
X113230952Y-51752619D01*
X113278571Y-50847857D02*
X113278571Y-50085952D01*
X112945238Y-49657380D02*
X112897619Y-49514523D01*
X112897619Y-49276428D01*
X112945238Y-49181190D01*
X112992857Y-49133571D01*
X113088095Y-49085952D01*
X113183333Y-49085952D01*
X113278571Y-49133571D01*
X113326190Y-49181190D01*
X113373809Y-49276428D01*
X113421428Y-49466904D01*
X113469047Y-49562142D01*
X113516666Y-49609761D01*
X113611904Y-49657380D01*
X113707142Y-49657380D01*
X113802380Y-49609761D01*
X113850000Y-49562142D01*
X113897619Y-49466904D01*
X113897619Y-49228809D01*
X113850000Y-49085952D01*
X113564285Y-48800238D02*
X113564285Y-48419285D01*
X113897619Y-48657380D02*
X113040476Y-48657380D01*
X112945238Y-48609761D01*
X112897619Y-48514523D01*
X112897619Y-48419285D01*
X112945238Y-47705000D02*
X112897619Y-47800238D01*
X112897619Y-47990714D01*
X112945238Y-48085952D01*
X113040476Y-48133571D01*
X113421428Y-48133571D01*
X113516666Y-48085952D01*
X113564285Y-47990714D01*
X113564285Y-47800238D01*
X113516666Y-47705000D01*
X113421428Y-47657380D01*
X113326190Y-47657380D01*
X113230952Y-48133571D01*
X112945238Y-46847857D02*
X112897619Y-46943095D01*
X112897619Y-47133571D01*
X112945238Y-47228809D01*
X113040476Y-47276428D01*
X113421428Y-47276428D01*
X113516666Y-47228809D01*
X113564285Y-47133571D01*
X113564285Y-46943095D01*
X113516666Y-46847857D01*
X113421428Y-46800238D01*
X113326190Y-46800238D01*
X113230952Y-47276428D01*
X112897619Y-46371666D02*
X113564285Y-46371666D01*
X113373809Y-46371666D02*
X113469047Y-46324047D01*
X113516666Y-46276428D01*
X113564285Y-46181190D01*
X113564285Y-46085952D01*
X112945238Y-45371666D02*
X112897619Y-45466904D01*
X112897619Y-45657380D01*
X112945238Y-45752619D01*
X113040476Y-45800238D01*
X113421428Y-45800238D01*
X113516666Y-45752619D01*
X113564285Y-45657380D01*
X113564285Y-45466904D01*
X113516666Y-45371666D01*
X113421428Y-45324047D01*
X113326190Y-45324047D01*
X113230952Y-45800238D01*
X111247619Y-58062142D02*
X111771428Y-58062142D01*
X111866666Y-58109761D01*
X111914285Y-58205000D01*
X111914285Y-58395476D01*
X111866666Y-58490714D01*
X111295238Y-58062142D02*
X111247619Y-58157380D01*
X111247619Y-58395476D01*
X111295238Y-58490714D01*
X111390476Y-58538333D01*
X111485714Y-58538333D01*
X111580952Y-58490714D01*
X111628571Y-58395476D01*
X111628571Y-58157380D01*
X111676190Y-58062142D01*
X111914285Y-57585952D02*
X111247619Y-57585952D01*
X111819047Y-57585952D02*
X111866666Y-57538333D01*
X111914285Y-57443095D01*
X111914285Y-57300238D01*
X111866666Y-57205000D01*
X111771428Y-57157380D01*
X111247619Y-57157380D01*
X111247619Y-56252619D02*
X112247619Y-56252619D01*
X111295238Y-56252619D02*
X111247619Y-56347857D01*
X111247619Y-56538333D01*
X111295238Y-56633571D01*
X111342857Y-56681190D01*
X111438095Y-56728809D01*
X111723809Y-56728809D01*
X111819047Y-56681190D01*
X111866666Y-56633571D01*
X111914285Y-56538333D01*
X111914285Y-56347857D01*
X111866666Y-56252619D01*
X111914285Y-55014523D02*
X110914285Y-55014523D01*
X111866666Y-55014523D02*
X111914285Y-54919285D01*
X111914285Y-54728809D01*
X111866666Y-54633571D01*
X111819047Y-54585952D01*
X111723809Y-54538333D01*
X111438095Y-54538333D01*
X111342857Y-54585952D01*
X111295238Y-54633571D01*
X111247619Y-54728809D01*
X111247619Y-54919285D01*
X111295238Y-55014523D01*
X111247619Y-53966904D02*
X111295238Y-54062142D01*
X111390476Y-54109761D01*
X112247619Y-54109761D01*
X111247619Y-53157380D02*
X111771428Y-53157380D01*
X111866666Y-53205000D01*
X111914285Y-53300238D01*
X111914285Y-53490714D01*
X111866666Y-53585952D01*
X111295238Y-53157380D02*
X111247619Y-53252619D01*
X111247619Y-53490714D01*
X111295238Y-53585952D01*
X111390476Y-53633571D01*
X111485714Y-53633571D01*
X111580952Y-53585952D01*
X111628571Y-53490714D01*
X111628571Y-53252619D01*
X111676190Y-53157380D01*
X111295238Y-52252619D02*
X111247619Y-52347857D01*
X111247619Y-52538333D01*
X111295238Y-52633571D01*
X111342857Y-52681190D01*
X111438095Y-52728809D01*
X111723809Y-52728809D01*
X111819047Y-52681190D01*
X111866666Y-52633571D01*
X111914285Y-52538333D01*
X111914285Y-52347857D01*
X111866666Y-52252619D01*
X111295238Y-51443095D02*
X111247619Y-51538333D01*
X111247619Y-51728809D01*
X111295238Y-51824047D01*
X111390476Y-51871666D01*
X111771428Y-51871666D01*
X111866666Y-51824047D01*
X111914285Y-51728809D01*
X111914285Y-51538333D01*
X111866666Y-51443095D01*
X111771428Y-51395476D01*
X111676190Y-51395476D01*
X111580952Y-51871666D01*
X111247619Y-50538333D02*
X112247619Y-50538333D01*
X111295238Y-50538333D02*
X111247619Y-50633571D01*
X111247619Y-50824047D01*
X111295238Y-50919285D01*
X111342857Y-50966904D01*
X111438095Y-51014523D01*
X111723809Y-51014523D01*
X111819047Y-50966904D01*
X111866666Y-50919285D01*
X111914285Y-50824047D01*
X111914285Y-50633571D01*
X111866666Y-50538333D01*
X111247619Y-49300238D02*
X111914285Y-49300238D01*
X112247619Y-49300238D02*
X112200000Y-49347857D01*
X112152380Y-49300238D01*
X112200000Y-49252619D01*
X112247619Y-49300238D01*
X112152380Y-49300238D01*
X111914285Y-48824047D02*
X111247619Y-48824047D01*
X111819047Y-48824047D02*
X111866666Y-48776428D01*
X111914285Y-48681190D01*
X111914285Y-48538333D01*
X111866666Y-48443095D01*
X111771428Y-48395476D01*
X111247619Y-48395476D01*
X111914285Y-48062142D02*
X111914285Y-47681190D01*
X112247619Y-47919285D02*
X111390476Y-47919285D01*
X111295238Y-47871666D01*
X111247619Y-47776428D01*
X111247619Y-47681190D01*
X111247619Y-47205000D02*
X111295238Y-47300238D01*
X111342857Y-47347857D01*
X111438095Y-47395476D01*
X111723809Y-47395476D01*
X111819047Y-47347857D01*
X111866666Y-47300238D01*
X111914285Y-47205000D01*
X111914285Y-47062142D01*
X111866666Y-46966904D01*
X111819047Y-46919285D01*
X111723809Y-46871666D01*
X111438095Y-46871666D01*
X111342857Y-46919285D01*
X111295238Y-46966904D01*
X111247619Y-47062142D01*
X111247619Y-47205000D01*
X110264285Y-59776428D02*
X110264285Y-59395476D01*
X110597619Y-59633571D02*
X109740476Y-59633571D01*
X109645238Y-59585952D01*
X109597619Y-59490714D01*
X109597619Y-59395476D01*
X109597619Y-59062142D02*
X110597619Y-59062142D01*
X109597619Y-58633571D02*
X110121428Y-58633571D01*
X110216666Y-58681190D01*
X110264285Y-58776428D01*
X110264285Y-58919285D01*
X110216666Y-59014523D01*
X110169047Y-59062142D01*
X109645238Y-57776428D02*
X109597619Y-57871666D01*
X109597619Y-58062142D01*
X109645238Y-58157380D01*
X109740476Y-58205000D01*
X110121428Y-58205000D01*
X110216666Y-58157380D01*
X110264285Y-58062142D01*
X110264285Y-57871666D01*
X110216666Y-57776428D01*
X110121428Y-57728809D01*
X110026190Y-57728809D01*
X109930952Y-58205000D01*
X110264285Y-56538333D02*
X109264285Y-56538333D01*
X110216666Y-56538333D02*
X110264285Y-56443095D01*
X110264285Y-56252619D01*
X110216666Y-56157380D01*
X110169047Y-56109761D01*
X110073809Y-56062142D01*
X109788095Y-56062142D01*
X109692857Y-56109761D01*
X109645238Y-56157380D01*
X109597619Y-56252619D01*
X109597619Y-56443095D01*
X109645238Y-56538333D01*
X110264285Y-55205000D02*
X109597619Y-55205000D01*
X110264285Y-55633571D02*
X109740476Y-55633571D01*
X109645238Y-55585952D01*
X109597619Y-55490714D01*
X109597619Y-55347857D01*
X109645238Y-55252619D01*
X109692857Y-55205000D01*
X109597619Y-54728809D02*
X110597619Y-54728809D01*
X110216666Y-54728809D02*
X110264285Y-54633571D01*
X110264285Y-54443095D01*
X110216666Y-54347857D01*
X110169047Y-54300238D01*
X110073809Y-54252619D01*
X109788095Y-54252619D01*
X109692857Y-54300238D01*
X109645238Y-54347857D01*
X109597619Y-54443095D01*
X109597619Y-54633571D01*
X109645238Y-54728809D01*
X109597619Y-53681190D02*
X109645238Y-53776428D01*
X109740476Y-53824047D01*
X110597619Y-53824047D01*
X109597619Y-53300238D02*
X110264285Y-53300238D01*
X110597619Y-53300238D02*
X110550000Y-53347857D01*
X110502380Y-53300238D01*
X110550000Y-53252619D01*
X110597619Y-53300238D01*
X110502380Y-53300238D01*
X109645238Y-52395476D02*
X109597619Y-52490714D01*
X109597619Y-52681190D01*
X109645238Y-52776428D01*
X109692857Y-52824047D01*
X109788095Y-52871666D01*
X110073809Y-52871666D01*
X110169047Y-52824047D01*
X110216666Y-52776428D01*
X110264285Y-52681190D01*
X110264285Y-52490714D01*
X110216666Y-52395476D01*
X109597619Y-50776428D02*
X110597619Y-50776428D01*
X109645238Y-50776428D02*
X109597619Y-50871666D01*
X109597619Y-51062142D01*
X109645238Y-51157380D01*
X109692857Y-51205000D01*
X109788095Y-51252619D01*
X110073809Y-51252619D01*
X110169047Y-51205000D01*
X110216666Y-51157380D01*
X110264285Y-51062142D01*
X110264285Y-50871666D01*
X110216666Y-50776428D01*
X109597619Y-50157380D02*
X109645238Y-50252619D01*
X109692857Y-50300238D01*
X109788095Y-50347857D01*
X110073809Y-50347857D01*
X110169047Y-50300238D01*
X110216666Y-50252619D01*
X110264285Y-50157380D01*
X110264285Y-50014523D01*
X110216666Y-49919285D01*
X110169047Y-49871666D01*
X110073809Y-49824047D01*
X109788095Y-49824047D01*
X109692857Y-49871666D01*
X109645238Y-49919285D01*
X109597619Y-50014523D01*
X109597619Y-50157380D01*
X109597619Y-49395476D02*
X110264285Y-49395476D01*
X110169047Y-49395476D02*
X110216666Y-49347857D01*
X110264285Y-49252619D01*
X110264285Y-49109761D01*
X110216666Y-49014523D01*
X110121428Y-48966904D01*
X109597619Y-48966904D01*
X110121428Y-48966904D02*
X110216666Y-48919285D01*
X110264285Y-48824047D01*
X110264285Y-48681190D01*
X110216666Y-48585952D01*
X110121428Y-48538333D01*
X109597619Y-48538333D01*
X109597619Y-47633571D02*
X110121428Y-47633571D01*
X110216666Y-47681190D01*
X110264285Y-47776428D01*
X110264285Y-47966904D01*
X110216666Y-48062142D01*
X109645238Y-47633571D02*
X109597619Y-47728809D01*
X109597619Y-47966904D01*
X109645238Y-48062142D01*
X109740476Y-48109761D01*
X109835714Y-48109761D01*
X109930952Y-48062142D01*
X109978571Y-47966904D01*
X109978571Y-47728809D01*
X110026190Y-47633571D01*
X109597619Y-47157380D02*
X110264285Y-47157380D01*
X110597619Y-47157380D02*
X110550000Y-47205000D01*
X110502380Y-47157380D01*
X110550000Y-47109761D01*
X110597619Y-47157380D01*
X110502380Y-47157380D01*
X110264285Y-46681190D02*
X109597619Y-46681190D01*
X110169047Y-46681190D02*
X110216666Y-46633571D01*
X110264285Y-46538333D01*
X110264285Y-46395476D01*
X110216666Y-46300238D01*
X110121428Y-46252619D01*
X109597619Y-46252619D01*
X109692857Y-45776428D02*
X109645238Y-45728809D01*
X109597619Y-45776428D01*
X109645238Y-45824047D01*
X109692857Y-45776428D01*
X109597619Y-45776428D01*
M02*
